<?xml version="1.0" standalone="no"?>
<!DOCTYPE svg PUBLIC "-//W3C//DTD SVG 1.1//EN" "http://www.w3.org/Graphics/SVG/1.1/DTD/svg11.dtd">
<svg xmlns="http://www.w3.org/2000/svg" xmlns:inkscape="http://www.inkscape.org/namespaces/inkscape" xmlns:xlink="http://www.w3.org/1999/xlink" viewBox = "0 0 836 755" version = "1.1">
<!-- svg generated using QGIS www.qgis.org -->
<g id="gwangiu" inkscape:groupmode="layer" inkscape:label="gwangiu">
<g stroke="none" fill="rgb(255,255,255)" stroke-linejoin="round" stroke-width="0.26" style="stroke:rgb(0,0,0);stroke-width:1">
<g id="24010" >
<path d="M 620,362 L 621,363 L 621,364 L 630,360 L 631,360 L 634,360 L 635,360 L 638,360 L 638,362 L 638,364 L 637,364 L 637,365 L 637,366 L 637,367 L 638,367 L 639,367 L 640,368 L 641,368 L 641,369 L 642,369 L 642,368 L 643,368 L 644,369 L 644,368 L 645,368 L 646,368 L 647,368 L 648,368 L 649,368 L 650,368 L 650,369 L 651,370 L 651,371 L 652,372 L 652,373 L 652,375 L 652,376 L 653,376 L 653,377 L 655,377 L 656,379 L 658,380 L 659,379 L 660,379 L 661,379 L 662,380 L 663,380 L 664,380 L 667,382 L 668,382 L 670,384 L 671,384 L 672,385 L 673,385 L 673,387 L 673,388 L 673,389 L 672,390 L 672,391 L 672,393 L 672,394 L 671,394 L 670,395 L 669,396 L 669,398 L 670,400 L 669,400 L 669,402 L 669,403 L 668,403 L 668,404 L 667,404 L 666,404 L 665,405 L 664,405 L 665,407 L 665,408 L 666,409 L 667,409 L 668,411 L 669,411 L 670,411 L 671,411 L 671,412 L 671,414 L 672,415 L 675,414 L 675,415 L 677,416 L 678,416 L 679,415 L 680,415 L 682,415 L 683,416 L 684,416 L 687,416 L 689,417 L 691,418 L 692,419 L 693,419 L 694,420 L 695,420 L 697,422 L 698,423 L 699,424 L 700,425 L 701,425 L 702,425 L 703,424 L 704,425 L 705,425 L 706,425 L 707,423 L 708,422 L 710,421 L 711,421 L 712,422 L 713,422 L 714,422 L 716,422 L 719,421 L 720,421 L 721,421 L 725,422 L 726,422 L 728,422 L 729,423 L 730,423 L 731,424 L 732,426 L 733,428 L 734,429 L 735,430 L 735,431 L 736,431 L 736,433 L 737,434 L 737,436 L 737,437 L 739,438 L 739,440 L 740,442 L 740,444 L 740,446 L 741,446 L 743,448 L 744,449 L 744,450 L 745,451 L 746,453 L 747,454 L 747,455 L 749,457 L 749,459 L 750,460 L 750,461 L 752,460 L 753,460 L 755,459 L 756,459 L 758,459 L 759,460 L 760,460 L 763,461 L 765,462 L 767,462 L 770,463 L 772,464 L 775,465 L 774,469 L 772,471 L 768,475 L 766,476 L 765,477 L 764,478 L 763,479 L 764,480 L 766,483 L 761,486 L 758,487 L 756,488 L 754,489 L 752,490 L 749,490 L 746,491 L 745,492 L 744,491 L 743,492 L 742,494 L 742,493 L 742,494 L 743,494 L 744,494 L 743,496 L 743,497 L 743,500 L 741,501 L 741,500 L 740,500 L 740,501 L 739,501 L 739,502 L 738,503 L 738,504 L 737,504 L 737,505 L 738,505 L 738,506 L 738,507 L 739,509 L 740,511 L 740,512 L 741,514 L 742,516 L 741,517 L 740,518 L 740,519 L 740,520 L 740,522 L 740,524 L 742,527 L 743,529 L 743,530 L 743,532 L 742,532 L 740,534 L 738,535 L 737,535 L 735,535 L 734,535 L 734,536 L 733,536 L 731,536 L 729,536 L 727,538 L 726,538 L 725,538 L 723,540 L 721,540 L 719,539 L 717,540 L 716,540 L 713,540 L 712,540 L 711,540 L 710,540 L 709,541 L 708,542 L 707,543 L 706,544 L 705,544 L 704,544 L 702,544 L 700,545 L 699,545 L 698,546 L 697,546 L 696,546 L 695,546 L 695,547 L 694,547 L 693,547 L 693,548 L 692,549 L 691,550 L 690,551 L 689,551 L 688,551 L 687,551 L 687,552 L 686,553 L 686,554 L 685,554 L 685,555 L 684,556 L 683,557 L 682,558 L 682,560 L 681,561 L 680,562 L 679,563 L 678,564 L 679,565 L 679,566 L 680,567 L 680,568 L 681,569 L 681,570 L 680,572 L 679,573 L 678,573 L 677,574 L 676,575 L 675,576 L 674,577 L 674,578 L 673,579 L 673,580 L 672,580 L 671,583 L 670,584 L 669,585 L 667,585 L 666,587 L 664,587 L 661,588 L 659,588 L 657,588 L 654,588 L 653,588 L 650,587 L 648,587 L 647,586 L 646,587 L 645,588 L 644,589 L 643,588 L 642,586 L 641,586 L 640,586 L 640,585 L 639,585 L 638,585 L 637,585 L 636,585 L 635,585 L 633,584 L 632,584 L 631,584 L 630,584 L 629,584 L 627,584 L 626,584 L 625,584 L 624,584 L 623,584 L 623,583 L 623,582 L 623,581 L 623,580 L 623,579 L 624,578 L 624,577 L 624,576 L 624,575 L 623,575 L 622,574 L 621,574 L 620,573 L 618,572 L 617,571 L 616,570 L 616,569 L 615,569 L 613,568 L 612,567 L 612,564 L 611,564 L 610,563 L 610,562 L 610,561 L 610,560 L 610,559 L 611,558 L 610,558 L 610,557 L 609,556 L 608,555 L 607,553 L 607,552 L 607,549 L 606,547 L 604,546 L 604,545 L 603,545 L 603,544 L 602,543 L 602,542 L 601,541 L 600,540 L 599,539 L 596,540 L 596,539 L 596,538 L 597,536 L 597,535 L 597,534 L 598,533 L 598,532 L 599,532 L 599,531 L 599,530 L 599,529 L 599,528 L 599,527 L 600,526 L 600,525 L 599,524 L 598,523 L 598,522 L 597,521 L 596,522 L 594,521 L 593,519 L 593,517 L 593,516 L 593,515 L 593,513 L 592,512 L 592,511 L 590,509 L 588,507 L 587,506 L 586,505 L 586,504 L 585,502 L 585,501 L 585,500 L 585,499 L 585,498 L 585,497 L 585,496 L 584,495 L 583,493 L 582,491 L 582,489 L 582,488 L 582,487 L 583,485 L 583,484 L 584,483 L 584,482 L 584,481 L 583,481 L 582,480 L 581,479 L 581,478 L 583,477 L 584,477 L 585,476 L 586,476 L 587,476 L 587,475 L 588,474 L 589,474 L 590,475 L 592,475 L 593,475 L 593,474 L 594,474 L 595,474 L 596,473 L 597,473 L 597,472 L 597,471 L 597,470 L 597,469 L 598,469 L 599,469 L 599,468 L 600,468 L 601,468 L 602,467 L 602,466 L 603,465 L 604,465 L 604,464 L 604,463 L 604,462 L 604,461 L 604,460 L 605,459 L 606,459 L 607,458 L 608,457 L 607,456 L 607,455 L 610,454 L 611,454 L 612,453 L 613,453 L 614,453 L 615,452 L 616,452 L 617,452 L 617,451 L 618,451 L 618,450 L 617,449 L 616,448 L 615,448 L 614,447 L 613,447 L 614,446 L 614,445 L 614,444 L 614,443 L 613,443 L 612,442 L 611,441 L 611,440 L 610,439 L 610,437 L 610,436 L 609,436 L 609,435 L 608,434 L 608,433 L 607,432 L 606,431 L 605,430 L 604,429 L 603,429 L 603,428 L 602,428 L 601,425 L 600,424 L 600,423 L 600,422 L 599,421 L 598,421 L 598,420 L 598,419 L 597,419 L 597,418 L 597,417 L 596,416 L 595,415 L 594,414 L 594,413 L 593,412 L 593,411 L 592,411 L 592,410 L 591,410 L 591,409 L 590,409 L 590,408 L 589,408 L 588,407 L 588,406 L 587,406 L 587,405 L 586,405 L 586,404 L 585,404 L 585,403 L 584,403 L 584,402 L 583,401 L 582,400 L 582,399 L 581,399 L 581,398 L 581,397 L 580,397 L 580,396 L 579,396 L 579,395 L 578,394 L 578,393 L 577,393 L 577,392 L 576,391 L 575,390 L 575,389 L 574,389 L 574,388 L 573,388 L 573,387 L 572,387 L 571,386 L 572,386 L 572,385 L 573,385 L 573,384 L 574,384 L 574,383 L 575,383 L 576,382 L 577,381 L 578,380 L 579,379 L 580,378 L 581,377 L 582,376 L 583,376 L 583,375 L 583,374 L 583,373 L 584,372 L 585,368 L 587,363 L 588,359 L 588,358 L 589,356 L 590,354 L 590,353 L 591,350 L 595,352 L 596,352 L 598,352 L 601,353 L 603,354 L 604,354 L 607,355 L 613,357 L 616,358 L 617,359 L 618,360 L 619,360 L 619,361 L 620,362 " />
</g>
<g id="24020" >
<path d="M 527,349 L 527,350 L 528,350 L 528,351 L 528,352 L 528,353 L 529,353 L 529,354 L 529,355 L 529,356 L 529,357 L 530,357 L 529,357 L 530,358 L 530,359 L 530,360 L 531,360 L 531,361 L 532,360 L 533,361 L 534,362 L 535,362 L 537,362 L 538,362 L 539,362 L 540,362 L 541,362 L 542,363 L 543,363 L 544,364 L 545,364 L 545,365 L 546,365 L 547,366 L 548,366 L 549,367 L 551,368 L 552,368 L 553,368 L 553,369 L 554,369 L 554,370 L 555,370 L 556,371 L 557,372 L 558,373 L 558,374 L 559,375 L 560,375 L 560,376 L 561,377 L 562,378 L 563,378 L 563,379 L 564,380 L 565,380 L 565,381 L 566,381 L 566,382 L 567,382 L 567,383 L 568,383 L 568,384 L 569,384 L 569,385 L 570,385 L 571,386 L 572,387 L 573,387 L 573,388 L 574,388 L 574,389 L 575,389 L 575,390 L 576,391 L 577,392 L 576,393 L 575,393 L 574,393 L 573,393 L 572,393 L 571,393 L 570,394 L 569,394 L 568,394 L 567,394 L 566,394 L 566,393 L 565,393 L 564,393 L 564,392 L 563,392 L 563,391 L 562,391 L 562,390 L 562,389 L 561,389 L 561,387 L 561,386 L 560,386 L 560,385 L 559,384 L 558,384 L 557,384 L 556,384 L 555,384 L 554,384 L 553,384 L 552,384 L 551,384 L 550,384 L 549,384 L 548,385 L 547,385 L 545,386 L 544,386 L 545,387 L 545,388 L 543,388 L 543,389 L 542,389 L 542,390 L 541,390 L 541,391 L 540,391 L 539,392 L 538,392 L 537,392 L 536,392 L 535,393 L 534,393 L 533,394 L 532,394 L 532,395 L 531,395 L 530,395 L 530,396 L 529,396 L 528,397 L 527,397 L 527,398 L 526,399 L 526,400 L 527,401 L 527,402 L 529,405 L 530,406 L 531,407 L 532,408 L 531,409 L 530,409 L 530,410 L 530,411 L 529,411 L 528,411 L 528,412 L 527,412 L 526,412 L 526,413 L 525,413 L 525,414 L 525,415 L 525,416 L 524,416 L 524,417 L 523,417 L 522,418 L 521,418 L 521,419 L 521,420 L 522,421 L 523,421 L 523,422 L 525,423 L 526,424 L 526,425 L 526,426 L 527,426 L 527,427 L 527,429 L 528,430 L 529,430 L 529,431 L 529,432 L 529,433 L 530,434 L 530,435 L 530,436 L 529,437 L 528,438 L 528,439 L 528,440 L 528,441 L 528,442 L 528,443 L 529,443 L 528,443 L 528,444 L 528,445 L 528,448 L 528,449 L 529,449 L 529,450 L 529,451 L 529,452 L 530,452 L 530,453 L 531,453 L 531,454 L 531,455 L 531,456 L 531,457 L 531,459 L 531,460 L 532,463 L 531,465 L 531,466 L 531,467 L 530,468 L 530,469 L 530,470 L 531,472 L 531,473 L 530,474 L 529,474 L 528,474 L 527,474 L 526,474 L 525,475 L 524,475 L 523,476 L 522,477 L 522,478 L 521,478 L 519,478 L 518,477 L 516,476 L 514,475 L 512,475 L 511,474 L 510,474 L 509,474 L 509,473 L 508,473 L 507,472 L 506,472 L 505,471 L 504,470 L 503,470 L 503,468 L 502,467 L 502,466 L 500,467 L 501,468 L 500,470 L 499,471 L 498,472 L 498,473 L 496,473 L 496,474 L 495,475 L 494,476 L 493,476 L 492,477 L 492,478 L 493,478 L 494,480 L 493,480 L 493,481 L 494,481 L 494,482 L 495,482 L 494,482 L 493,482 L 492,482 L 491,482 L 490,482 L 490,483 L 489,483 L 489,484 L 488,484 L 489,485 L 490,486 L 491,487 L 490,487 L 492,490 L 493,491 L 491,491 L 488,491 L 487,491 L 486,491 L 485,491 L 484,490 L 484,491 L 484,492 L 483,493 L 482,493 L 481,494 L 480,494 L 479,494 L 478,493 L 477,493 L 476,494 L 475,494 L 475,495 L 474,495 L 474,494 L 473,494 L 472,494 L 472,495 L 471,495 L 471,496 L 470,496 L 471,497 L 473,497 L 474,497 L 474,498 L 474,499 L 474,500 L 473,501 L 471,501 L 470,501 L 469,502 L 468,502 L 467,501 L 466,501 L 466,502 L 464,502 L 464,500 L 463,499 L 462,499 L 460,499 L 460,500 L 459,501 L 458,501 L 457,501 L 455,502 L 454,502 L 453,502 L 452,502 L 451,502 L 450,503 L 449,503 L 448,503 L 447,502 L 446,502 L 446,503 L 445,503 L 443,504 L 443,505 L 442,505 L 441,505 L 437,506 L 437,508 L 436,510 L 434,511 L 434,512 L 434,513 L 433,513 L 432,514 L 432,515 L 431,514 L 430,514 L 429,514 L 428,514 L 427,513 L 426,513 L 426,512 L 425,511 L 425,512 L 424,513 L 424,514 L 424,515 L 423,516 L 422,516 L 422,517 L 422,520 L 421,521 L 420,522 L 419,522 L 417,523 L 416,523 L 414,522 L 412,522 L 411,522 L 410,523 L 409,525 L 409,526 L 408,527 L 407,528 L 405,529 L 405,530 L 404,530 L 405,530 L 405,531 L 404,531 L 403,531 L 402,532 L 401,532 L 401,533 L 400,533 L 400,534 L 399,534 L 398,534 L 397,534 L 397,535 L 396,535 L 395,536 L 394,537 L 393,538 L 392,538 L 391,538 L 390,538 L 389,539 L 387,540 L 386,539 L 384,538 L 383,537 L 382,536 L 381,535 L 380,534 L 379,533 L 378,533 L 377,533 L 376,533 L 376,534 L 375,534 L 374,535 L 373,536 L 373,537 L 371,538 L 370,539 L 369,539 L 369,540 L 368,540 L 367,540 L 367,539 L 366,538 L 366,537 L 365,537 L 365,536 L 365,535 L 364,535 L 364,534 L 364,533 L 363,532 L 362,532 L 362,531 L 360,526 L 359,525 L 359,523 L 358,524 L 358,525 L 357,525 L 357,526 L 356,526 L 356,527 L 356,528 L 356,529 L 356,530 L 355,530 L 354,530 L 355,530 L 354,531 L 354,532 L 353,532 L 353,533 L 353,532 L 352,532 L 352,533 L 350,533 L 350,532 L 350,530 L 349,530 L 348,529 L 347,527 L 347,525 L 346,524 L 346,523 L 346,522 L 346,521 L 346,520 L 347,518 L 347,517 L 347,514 L 348,514 L 348,513 L 349,512 L 350,512 L 350,511 L 351,511 L 352,510 L 352,509 L 353,510 L 354,510 L 354,511 L 355,511 L 356,511 L 357,511 L 358,510 L 359,509 L 358,508 L 357,507 L 357,506 L 357,505 L 357,504 L 356,503 L 356,502 L 356,501 L 355,501 L 355,500 L 355,499 L 355,498 L 356,497 L 355,497 L 355,496 L 354,495 L 354,494 L 353,494 L 353,493 L 353,492 L 353,491 L 352,491 L 352,490 L 352,489 L 352,488 L 351,487 L 352,487 L 351,486 L 351,485 L 352,485 L 352,484 L 353,484 L 354,485 L 355,485 L 355,484 L 355,485 L 356,485 L 357,486 L 358,486 L 359,486 L 359,485 L 359,486 L 359,485 L 360,485 L 360,484 L 361,484 L 362,484 L 362,485 L 363,485 L 364,485 L 365,485 L 365,484 L 365,483 L 366,482 L 366,481 L 365,481 L 365,480 L 365,479 L 365,478 L 365,477 L 365,476 L 366,476 L 366,475 L 366,474 L 367,474 L 368,474 L 369,474 L 370,474 L 371,474 L 371,473 L 372,473 L 373,473 L 374,473 L 375,474 L 376,474 L 377,474 L 378,474 L 379,474 L 380,474 L 381,474 L 382,473 L 382,472 L 383,472 L 383,471 L 382,471 L 381,470 L 381,469 L 381,468 L 381,467 L 381,466 L 381,465 L 381,464 L 381,463 L 383,460 L 383,459 L 384,459 L 385,458 L 387,456 L 388,456 L 389,456 L 389,455 L 390,455 L 390,454 L 390,453 L 391,453 L 391,452 L 391,451 L 392,451 L 392,450 L 392,449 L 392,448 L 392,447 L 391,446 L 391,445 L 390,445 L 390,444 L 389,444 L 388,443 L 387,443 L 386,442 L 386,441 L 385,440 L 385,439 L 385,438 L 385,437 L 385,436 L 385,435 L 385,434 L 386,433 L 386,432 L 387,431 L 388,430 L 389,429 L 390,429 L 390,428 L 391,428 L 392,428 L 392,427 L 393,427 L 394,427 L 395,427 L 396,427 L 396,426 L 397,426 L 397,425 L 398,425 L 398,424 L 398,423 L 399,423 L 400,422 L 400,421 L 401,420 L 402,420 L 402,419 L 403,419 L 403,418 L 404,418 L 404,417 L 405,416 L 406,415 L 406,414 L 407,413 L 408,413 L 408,412 L 408,411 L 408,410 L 408,409 L 408,408 L 408,407 L 408,406 L 407,406 L 407,405 L 407,404 L 407,403 L 407,402 L 407,401 L 407,400 L 407,399 L 407,398 L 407,397 L 407,396 L 408,396 L 407,396 L 407,395 L 407,394 L 407,393 L 407,392 L 407,391 L 406,390 L 406,389 L 406,388 L 405,387 L 405,386 L 404,386 L 404,385 L 404,384 L 403,384 L 402,383 L 401,382 L 401,381 L 400,381 L 400,380 L 399,380 L 399,379 L 399,378 L 399,377 L 399,376 L 400,376 L 399,375 L 399,374 L 399,373 L 399,372 L 400,371 L 400,370 L 400,369 L 399,369 L 400,368 L 400,367 L 400,365 L 401,364 L 401,362 L 401,361 L 400,361 L 400,360 L 399,360 L 399,359 L 398,358 L 398,356 L 397,355 L 397,353 L 398,351 L 399,349 L 399,348 L 400,347 L 401,347 L 401,346 L 402,346 L 402,345 L 403,345 L 404,344 L 405,343 L 406,342 L 407,342 L 408,341 L 409,340 L 410,340 L 411,339 L 412,339 L 413,339 L 414,339 L 415,338 L 416,338 L 418,337 L 420,337 L 422,338 L 424,337 L 425,336 L 425,335 L 426,334 L 425,332 L 425,331 L 425,330 L 425,329 L 426,325 L 426,324 L 426,323 L 426,322 L 426,321 L 426,320 L 426,319 L 427,318 L 427,317 L 428,317 L 428,316 L 429,316 L 429,317 L 430,317 L 430,316 L 431,316 L 432,316 L 432,317 L 433,317 L 434,317 L 434,318 L 435,318 L 435,319 L 436,319 L 436,320 L 437,320 L 438,320 L 437,321 L 437,322 L 447,325 L 458,328 L 468,331 L 469,331 L 471,332 L 472,332 L 474,333 L 479,333 L 488,333 L 488,334 L 489,334 L 490,334 L 492,334 L 494,334 L 499,334 L 500,334 L 503,335 L 505,335 L 505,336 L 505,337 L 506,337 L 507,337 L 507,336 L 508,336 L 509,336 L 510,336 L 511,336 L 512,336 L 513,336 L 514,336 L 515,336 L 516,336 L 516,337 L 517,337 L 518,337 L 519,337 L 520,338 L 521,338 L 522,338 L 522,339 L 523,339 L 523,340 L 523,341 L 523,342 L 525,345 L 525,346 L 526,346 L 526,347 L 527,347 L 526,347 L 526,348 L 527,349 " />
</g>
<g id="24030" >
<path d="M 559,384 L 560,385 L 560,386 L 561,386 L 561,387 L 561,389 L 562,389 L 562,390 L 562,391 L 563,391 L 563,392 L 564,392 L 564,393 L 565,393 L 566,393 L 566,394 L 567,394 L 568,394 L 569,394 L 570,394 L 571,393 L 572,393 L 573,393 L 574,393 L 575,393 L 576,393 L 577,392 L 577,393 L 578,393 L 578,394 L 579,395 L 579,396 L 580,396 L 580,397 L 581,397 L 581,398 L 581,399 L 582,399 L 582,400 L 583,401 L 584,402 L 584,403 L 585,403 L 585,404 L 586,404 L 586,405 L 587,405 L 587,406 L 588,406 L 588,407 L 589,408 L 590,408 L 590,409 L 591,409 L 591,410 L 592,410 L 592,411 L 593,411 L 593,412 L 594,413 L 594,414 L 595,415 L 596,416 L 597,417 L 597,418 L 597,419 L 598,419 L 598,420 L 598,421 L 599,421 L 600,422 L 600,423 L 600,424 L 601,425 L 602,428 L 603,428 L 603,429 L 604,429 L 605,430 L 606,431 L 607,432 L 608,433 L 608,434 L 609,435 L 609,436 L 610,436 L 610,437 L 610,439 L 611,440 L 611,441 L 612,442 L 613,443 L 614,443 L 614,444 L 614,445 L 614,446 L 613,447 L 614,447 L 615,448 L 616,448 L 617,449 L 618,450 L 618,451 L 617,451 L 617,452 L 616,452 L 615,452 L 614,453 L 613,453 L 612,453 L 611,454 L 610,454 L 607,455 L 607,456 L 608,457 L 607,458 L 606,459 L 605,459 L 604,460 L 604,461 L 604,462 L 604,463 L 604,464 L 604,465 L 603,465 L 602,466 L 602,467 L 601,468 L 600,468 L 599,468 L 599,469 L 598,469 L 597,469 L 597,470 L 597,471 L 597,472 L 597,473 L 596,473 L 595,474 L 594,474 L 593,474 L 593,475 L 592,475 L 590,475 L 589,474 L 588,474 L 587,475 L 587,476 L 586,476 L 585,476 L 584,477 L 583,477 L 581,478 L 581,479 L 582,480 L 583,481 L 584,481 L 584,482 L 584,483 L 583,484 L 583,485 L 582,487 L 582,488 L 582,489 L 582,491 L 583,493 L 584,495 L 585,496 L 585,497 L 585,498 L 585,499 L 585,500 L 585,501 L 585,502 L 586,504 L 586,505 L 587,506 L 588,507 L 590,509 L 592,511 L 592,512 L 593,513 L 593,515 L 593,516 L 593,517 L 593,519 L 594,521 L 596,522 L 597,521 L 598,522 L 598,523 L 599,524 L 600,525 L 600,526 L 599,527 L 599,528 L 599,529 L 599,530 L 599,531 L 599,532 L 598,532 L 598,533 L 597,534 L 597,535 L 597,536 L 596,538 L 596,539 L 596,540 L 594,540 L 593,540 L 592,540 L 592,541 L 591,541 L 590,541 L 589,542 L 588,542 L 588,543 L 587,543 L 587,544 L 586,544 L 585,544 L 585,545 L 584,545 L 583,545 L 582,546 L 581,546 L 579,547 L 578,547 L 578,548 L 578,550 L 577,551 L 576,552 L 576,553 L 575,553 L 575,554 L 574,554 L 574,555 L 573,556 L 572,557 L 571,558 L 570,558 L 570,559 L 569,559 L 569,560 L 569,561 L 568,561 L 568,562 L 568,563 L 567,564 L 566,565 L 565,566 L 563,566 L 562,566 L 560,566 L 560,567 L 559,567 L 558,567 L 557,567 L 556,567 L 555,567 L 554,566 L 553,566 L 552,566 L 551,566 L 550,566 L 549,566 L 548,567 L 547,567 L 545,567 L 544,568 L 543,569 L 542,570 L 542,571 L 541,571 L 541,572 L 540,573 L 539,574 L 538,574 L 537,574 L 536,573 L 535,573 L 534,572 L 533,571 L 532,570 L 531,570 L 530,569 L 528,568 L 527,568 L 527,567 L 526,566 L 525,565 L 524,565 L 523,566 L 520,568 L 519,568 L 519,569 L 516,571 L 516,572 L 515,572 L 514,572 L 513,573 L 511,573 L 510,575 L 507,576 L 506,576 L 505,578 L 505,579 L 502,580 L 502,581 L 500,581 L 499,582 L 499,581 L 498,581 L 497,582 L 496,583 L 495,583 L 494,583 L 493,582 L 491,582 L 490,582 L 489,581 L 487,580 L 486,580 L 485,579 L 484,579 L 483,580 L 482,581 L 481,580 L 480,580 L 480,579 L 479,578 L 476,577 L 476,576 L 475,576 L 475,575 L 475,574 L 474,573 L 474,572 L 473,571 L 472,572 L 471,571 L 470,571 L 470,572 L 469,572 L 468,573 L 467,573 L 466,573 L 466,572 L 465,572 L 464,572 L 463,572 L 463,573 L 462,573 L 462,574 L 461,574 L 461,575 L 460,577 L 460,578 L 459,580 L 459,581 L 459,582 L 458,583 L 457,584 L 456,585 L 454,585 L 454,586 L 452,586 L 452,587 L 450,587 L 449,588 L 448,588 L 447,588 L 446,589 L 446,590 L 446,591 L 445,592 L 445,593 L 444,593 L 444,594 L 443,594 L 443,595 L 443,596 L 443,597 L 443,598 L 441,598 L 441,599 L 441,600 L 441,601 L 441,602 L 440,602 L 440,603 L 439,603 L 439,604 L 438,604 L 438,605 L 437,605 L 437,606 L 436,606 L 436,605 L 436,606 L 435,606 L 434,606 L 434,605 L 433,605 L 432,605 L 431,605 L 431,604 L 430,604 L 430,605 L 429,605 L 428,605 L 427,605 L 426,605 L 426,604 L 425,604 L 424,604 L 423,604 L 422,604 L 422,605 L 422,606 L 421,606 L 421,607 L 421,608 L 420,608 L 421,608 L 421,609 L 420,609 L 420,610 L 419,610 L 418,610 L 417,610 L 417,611 L 416,611 L 415,611 L 414,611 L 413,612 L 412,612 L 411,612 L 410,612 L 410,613 L 409,613 L 409,614 L 408,614 L 407,614 L 406,614 L 405,614 L 404,614 L 402,614 L 402,613 L 401,614 L 400,613 L 400,614 L 399,614 L 399,615 L 398,615 L 398,616 L 397,616 L 396,616 L 396,617 L 395,617 L 394,617 L 394,618 L 393,618 L 392,618 L 392,619 L 391,619 L 390,619 L 390,620 L 390,621 L 390,622 L 389,622 L 388,623 L 388,624 L 388,625 L 388,626 L 388,627 L 387,627 L 387,628 L 387,629 L 386,629 L 386,630 L 386,631 L 385,631 L 385,632 L 384,633 L 384,634 L 384,635 L 384,636 L 384,637 L 383,637 L 383,638 L 382,638 L 381,638 L 381,637 L 380,637 L 379,637 L 379,638 L 379,637 L 378,637 L 377,637 L 377,636 L 376,636 L 376,637 L 375,637 L 375,636 L 374,636 L 373,636 L 373,637 L 372,637 L 371,638 L 370,638 L 369,637 L 368,637 L 368,636 L 368,637 L 368,638 L 367,638 L 367,637 L 366,637 L 366,638 L 365,638 L 365,639 L 365,638 L 365,639 L 364,639 L 363,639 L 362,639 L 362,640 L 361,640 L 361,641 L 361,642 L 360,642 L 359,642 L 358,642 L 357,642 L 357,641 L 356,641 L 355,641 L 354,641 L 354,640 L 354,639 L 354,638 L 355,639 L 355,638 L 354,638 L 354,639 L 353,639 L 352,639 L 352,638 L 352,637 L 352,636 L 351,636 L 351,635 L 351,634 L 351,633 L 351,632 L 351,631 L 350,631 L 350,630 L 349,630 L 349,629 L 348,628 L 349,628 L 349,629 L 350,629 L 351,629 L 350,629 L 349,629 L 349,628 L 348,628 L 348,627 L 347,627 L 347,626 L 347,625 L 347,624 L 347,623 L 346,623 L 345,622 L 344,622 L 344,621 L 343,621 L 343,620 L 343,621 L 342,621 L 341,621 L 341,620 L 341,621 L 340,621 L 339,622 L 338,621 L 337,621 L 337,620 L 336,619 L 336,618 L 336,617 L 335,617 L 335,616 L 334,616 L 333,616 L 333,617 L 332,617 L 332,618 L 331,618 L 331,619 L 330,619 L 329,619 L 328,618 L 327,618 L 326,618 L 326,619 L 325,619 L 325,620 L 325,621 L 324,621 L 323,621 L 322,621 L 321,623 L 320,623 L 320,624 L 320,625 L 319,625 L 318,625 L 317,625 L 317,626 L 316,626 L 315,627 L 314,628 L 314,629 L 313,630 L 312,630 L 311,631 L 310,631 L 309,631 L 308,632 L 307,633 L 307,634 L 306,634 L 305,634 L 304,634 L 303,634 L 302,633 L 300,633 L 299,634 L 298,634 L 294,637 L 293,637 L 291,637 L 290,637 L 289,637 L 288,637 L 287,637 L 286,636 L 282,635 L 279,634 L 278,632 L 277,632 L 277,631 L 276,630 L 276,629 L 276,628 L 276,627 L 276,626 L 276,625 L 276,624 L 276,623 L 276,622 L 277,622 L 277,621 L 277,620 L 278,619 L 278,618 L 278,617 L 278,616 L 278,615 L 277,613 L 277,612 L 276,612 L 276,611 L 275,609 L 273,609 L 272,608 L 271,607 L 270,607 L 269,608 L 268,608 L 267,608 L 266,608 L 265,609 L 264,609 L 263,609 L 263,610 L 262,610 L 261,611 L 260,612 L 259,612 L 259,613 L 258,614 L 258,615 L 258,617 L 257,618 L 256,620 L 255,621 L 254,622 L 253,623 L 252,622 L 251,621 L 251,620 L 251,619 L 251,618 L 251,616 L 251,615 L 251,614 L 251,613 L 251,612 L 250,612 L 250,611 L 250,610 L 249,610 L 249,609 L 248,609 L 248,608 L 247,608 L 246,607 L 246,606 L 246,605 L 246,604 L 246,603 L 247,603 L 247,602 L 248,601 L 248,600 L 249,600 L 250,600 L 251,599 L 252,598 L 254,597 L 255,597 L 257,596 L 258,596 L 260,596 L 262,596 L 264,596 L 265,597 L 266,597 L 267,597 L 268,597 L 269,597 L 271,597 L 272,598 L 273,598 L 274,598 L 275,598 L 277,597 L 278,597 L 278,596 L 280,596 L 281,595 L 282,594 L 283,594 L 283,593 L 284,592 L 285,592 L 286,592 L 286,591 L 287,591 L 288,591 L 289,591 L 289,590 L 290,590 L 291,590 L 292,590 L 293,590 L 294,590 L 297,589 L 302,589 L 305,588 L 307,586 L 308,586 L 312,583 L 316,579 L 317,577 L 318,576 L 319,575 L 320,573 L 322,570 L 322,569 L 323,568 L 323,567 L 324,568 L 325,567 L 325,566 L 325,565 L 326,565 L 326,564 L 326,563 L 327,562 L 328,561 L 329,560 L 330,559 L 330,558 L 331,558 L 332,557 L 333,557 L 332,556 L 333,556 L 333,555 L 333,554 L 334,553 L 334,552 L 335,551 L 335,550 L 335,549 L 336,549 L 336,548 L 336,547 L 338,546 L 339,545 L 340,544 L 342,544 L 344,543 L 345,542 L 346,541 L 348,540 L 349,539 L 350,538 L 350,537 L 351,535 L 350,534 L 350,533 L 352,533 L 352,532 L 353,532 L 353,533 L 353,532 L 354,532 L 354,531 L 355,530 L 354,530 L 355,530 L 356,530 L 356,529 L 356,528 L 356,527 L 356,526 L 357,526 L 357,525 L 358,525 L 358,524 L 359,523 L 359,525 L 360,526 L 362,531 L 362,532 L 363,532 L 364,533 L 364,534 L 364,535 L 365,535 L 365,536 L 365,537 L 366,537 L 366,538 L 367,539 L 367,540 L 368,540 L 369,540 L 369,539 L 370,539 L 371,538 L 373,537 L 373,536 L 374,535 L 375,534 L 376,534 L 376,533 L 377,533 L 378,533 L 379,533 L 380,534 L 381,535 L 382,536 L 383,537 L 384,538 L 386,539 L 387,540 L 389,539 L 390,538 L 391,538 L 392,538 L 393,538 L 394,537 L 395,536 L 396,535 L 397,535 L 397,534 L 398,534 L 399,534 L 400,534 L 400,533 L 401,533 L 401,532 L 402,532 L 403,531 L 404,531 L 405,531 L 405,530 L 404,530 L 405,530 L 405,529 L 407,528 L 408,527 L 409,526 L 409,525 L 410,523 L 411,522 L 412,522 L 414,522 L 416,523 L 417,523 L 419,522 L 420,522 L 421,521 L 422,520 L 422,517 L 422,516 L 423,516 L 424,515 L 424,514 L 424,513 L 425,512 L 425,511 L 426,512 L 426,513 L 427,513 L 428,514 L 429,514 L 430,514 L 431,514 L 432,515 L 432,514 L 433,513 L 434,513 L 434,512 L 434,511 L 436,510 L 437,508 L 437,506 L 441,505 L 442,505 L 443,505 L 443,504 L 445,503 L 446,503 L 446,502 L 447,502 L 448,503 L 449,503 L 450,503 L 451,502 L 452,502 L 453,502 L 454,502 L 455,502 L 457,501 L 458,501 L 459,501 L 460,500 L 460,499 L 462,499 L 463,499 L 464,500 L 464,502 L 466,502 L 466,501 L 467,501 L 468,502 L 469,502 L 470,501 L 471,501 L 473,501 L 474,500 L 474,499 L 474,498 L 474,497 L 473,497 L 471,497 L 470,496 L 471,496 L 471,495 L 472,495 L 472,494 L 473,494 L 474,494 L 474,495 L 475,495 L 475,494 L 476,494 L 477,493 L 478,493 L 479,494 L 480,494 L 481,494 L 482,493 L 483,493 L 484,492 L 484,491 L 484,490 L 485,491 L 486,491 L 487,491 L 488,491 L 491,491 L 493,491 L 492,490 L 490,487 L 491,487 L 490,486 L 489,485 L 488,484 L 489,484 L 489,483 L 490,483 L 490,482 L 491,482 L 492,482 L 493,482 L 494,482 L 495,482 L 494,482 L 494,481 L 493,481 L 493,480 L 494,480 L 493,478 L 492,478 L 492,477 L 493,476 L 494,476 L 495,475 L 496,474 L 496,473 L 498,473 L 498,472 L 499,471 L 500,470 L 501,468 L 500,467 L 502,466 L 502,467 L 503,468 L 503,470 L 504,470 L 505,471 L 506,472 L 507,472 L 508,473 L 509,473 L 509,474 L 510,474 L 511,474 L 512,475 L 514,475 L 516,476 L 518,477 L 519,478 L 521,478 L 522,478 L 522,477 L 523,476 L 524,475 L 525,475 L 526,474 L 527,474 L 528,474 L 529,474 L 530,474 L 531,473 L 531,472 L 530,470 L 530,469 L 530,468 L 531,467 L 531,466 L 531,465 L 532,463 L 531,460 L 531,459 L 531,457 L 531,456 L 531,455 L 531,454 L 531,453 L 530,453 L 530,452 L 529,452 L 529,451 L 529,450 L 529,449 L 528,449 L 528,448 L 528,445 L 528,444 L 528,443 L 529,443 L 528,443 L 528,442 L 528,441 L 528,440 L 528,439 L 528,438 L 529,437 L 530,436 L 530,435 L 530,434 L 529,433 L 529,432 L 529,431 L 529,430 L 528,430 L 527,429 L 527,427 L 527,426 L 526,426 L 526,425 L 526,424 L 525,423 L 523,422 L 523,421 L 522,421 L 521,420 L 521,419 L 521,418 L 522,418 L 523,417 L 524,417 L 524,416 L 525,416 L 525,415 L 525,414 L 525,413 L 526,413 L 526,412 L 527,412 L 528,412 L 528,411 L 529,411 L 530,411 L 530,410 L 530,409 L 531,409 L 532,408 L 531,407 L 530,406 L 529,405 L 527,402 L 527,401 L 526,400 L 526,399 L 527,398 L 527,397 L 528,397 L 529,396 L 530,396 L 530,395 L 531,395 L 532,395 L 532,394 L 533,394 L 534,393 L 535,393 L 536,392 L 537,392 L 538,392 L 539,392 L 540,391 L 541,391 L 541,390 L 542,390 L 542,389 L 543,389 L 543,388 L 545,388 L 545,387 L 544,386 L 545,386 L 547,385 L 548,385 L 549,384 L 550,384 L 551,384 L 552,384 L 553,384 L 554,384 L 555,384 L 556,384 L 557,384 L 558,384 L 559,384 " />
</g>
<g id="24040" >
<path d="M 589,113 L 589,114 L 589,115 L 590,116 L 591,116 L 592,116 L 593,116 L 593,117 L 594,117 L 595,118 L 596,118 L 596,119 L 597,119 L 597,120 L 598,120 L 598,121 L 598,122 L 601,124 L 601,125 L 602,125 L 602,126 L 603,126 L 604,126 L 605,127 L 606,127 L 607,127 L 608,127 L 608,128 L 609,127 L 610,127 L 611,126 L 611,127 L 613,127 L 613,128 L 614,128 L 615,129 L 616,129 L 617,129 L 618,129 L 619,128 L 620,128 L 620,129 L 621,130 L 622,131 L 623,132 L 624,133 L 624,134 L 625,134 L 625,135 L 626,136 L 626,137 L 627,137 L 627,138 L 627,139 L 628,139 L 628,140 L 628,141 L 628,142 L 629,142 L 629,143 L 628,143 L 628,144 L 628,145 L 628,146 L 628,148 L 627,150 L 627,152 L 626,155 L 626,156 L 626,157 L 626,158 L 625,158 L 626,159 L 627,159 L 628,160 L 629,160 L 630,160 L 630,161 L 631,162 L 632,163 L 633,163 L 634,163 L 635,164 L 635,165 L 637,165 L 638,166 L 640,167 L 641,167 L 641,168 L 642,169 L 643,169 L 644,170 L 646,170 L 647,172 L 647,173 L 648,174 L 648,175 L 648,176 L 649,178 L 649,180 L 649,181 L 650,182 L 652,183 L 655,183 L 657,184 L 659,186 L 659,187 L 660,188 L 660,189 L 661,189 L 661,190 L 661,191 L 662,192 L 663,193 L 663,194 L 663,195 L 664,195 L 664,196 L 665,196 L 665,197 L 666,199 L 666,200 L 667,199 L 668,199 L 669,198 L 670,197 L 671,198 L 670,199 L 669,199 L 668,200 L 666,201 L 665,201 L 665,202 L 664,202 L 664,203 L 663,204 L 663,205 L 662,205 L 662,206 L 661,207 L 661,208 L 660,209 L 660,210 L 660,211 L 660,212 L 660,213 L 660,214 L 661,215 L 661,216 L 662,217 L 662,218 L 662,219 L 663,220 L 663,221 L 663,222 L 664,223 L 664,224 L 663,224 L 664,224 L 665,224 L 666,225 L 667,225 L 667,226 L 667,228 L 667,229 L 668,229 L 668,230 L 668,231 L 669,231 L 670,231 L 671,232 L 671,233 L 671,234 L 671,235 L 672,236 L 673,237 L 673,239 L 674,239 L 675,240 L 675,241 L 676,242 L 676,243 L 676,244 L 678,245 L 679,245 L 680,246 L 681,246 L 681,247 L 682,247 L 682,248 L 683,248 L 683,249 L 684,250 L 685,251 L 687,252 L 688,253 L 689,253 L 689,254 L 690,254 L 692,254 L 693,253 L 694,253 L 694,254 L 695,254 L 696,257 L 696,258 L 696,259 L 696,260 L 696,261 L 695,261 L 694,262 L 693,262 L 692,264 L 691,265 L 692,266 L 691,266 L 690,267 L 689,268 L 688,268 L 688,269 L 687,271 L 686,272 L 687,273 L 686,275 L 685,275 L 684,276 L 683,276 L 682,276 L 682,277 L 681,277 L 682,278 L 681,279 L 680,280 L 680,281 L 681,281 L 681,282 L 682,282 L 682,283 L 682,284 L 681,285 L 682,286 L 682,287 L 683,288 L 683,289 L 685,290 L 685,291 L 686,291 L 687,292 L 688,292 L 688,293 L 688,294 L 689,294 L 690,295 L 691,295 L 691,296 L 692,297 L 692,298 L 692,299 L 692,300 L 693,301 L 694,302 L 695,302 L 696,303 L 697,304 L 698,305 L 698,306 L 698,307 L 698,308 L 699,309 L 699,310 L 700,311 L 701,312 L 702,312 L 703,313 L 704,313 L 705,314 L 706,314 L 707,314 L 708,313 L 708,311 L 708,308 L 709,305 L 709,304 L 709,303 L 709,302 L 708,302 L 708,301 L 709,301 L 710,300 L 710,299 L 711,299 L 712,298 L 713,299 L 715,299 L 716,300 L 717,300 L 719,299 L 720,298 L 721,298 L 722,300 L 723,301 L 724,303 L 725,303 L 728,303 L 729,304 L 730,304 L 731,304 L 731,303 L 732,303 L 732,302 L 733,301 L 733,300 L 734,300 L 734,299 L 735,299 L 735,298 L 734,297 L 733,296 L 734,296 L 734,295 L 735,294 L 736,293 L 737,293 L 737,292 L 738,292 L 739,292 L 740,292 L 740,291 L 741,292 L 741,293 L 742,293 L 742,294 L 743,295 L 744,296 L 745,297 L 746,297 L 747,298 L 748,298 L 749,298 L 750,298 L 751,298 L 752,298 L 753,298 L 755,297 L 755,296 L 756,295 L 756,294 L 757,294 L 757,293 L 758,292 L 759,292 L 759,291 L 760,291 L 761,291 L 762,291 L 763,291 L 764,291 L 764,292 L 765,292 L 766,292 L 767,292 L 768,292 L 769,293 L 770,294 L 771,294 L 772,295 L 773,296 L 773,297 L 774,297 L 774,298 L 775,298 L 776,299 L 777,299 L 778,299 L 779,299 L 780,300 L 781,301 L 782,301 L 783,303 L 784,303 L 784,304 L 784,305 L 785,305 L 786,306 L 786,307 L 787,307 L 788,308 L 788,309 L 789,309 L 789,310 L 790,310 L 791,311 L 791,312 L 792,312 L 793,312 L 793,313 L 794,313 L 795,313 L 795,314 L 796,314 L 796,315 L 797,316 L 797,317 L 797,318 L 797,319 L 798,320 L 798,321 L 798,322 L 798,323 L 799,323 L 800,323 L 800,324 L 800,325 L 800,326 L 801,326 L 801,327 L 802,328 L 803,328 L 803,329 L 804,329 L 804,330 L 806,331 L 812,332 L 812,334 L 812,335 L 814,337 L 813,339 L 811,347 L 810,347 L 809,347 L 804,351 L 803,351 L 802,352 L 799,351 L 798,351 L 797,351 L 796,350 L 795,350 L 793,350 L 791,350 L 790,351 L 789,353 L 789,354 L 788,356 L 788,358 L 788,360 L 789,360 L 790,361 L 791,362 L 791,365 L 790,367 L 790,368 L 790,369 L 788,372 L 785,375 L 783,376 L 784,377 L 784,379 L 784,382 L 784,385 L 785,387 L 785,389 L 786,390 L 786,391 L 787,392 L 787,393 L 786,395 L 783,396 L 783,399 L 782,401 L 783,405 L 782,406 L 782,407 L 784,410 L 785,411 L 786,411 L 786,412 L 786,414 L 785,414 L 785,415 L 785,416 L 785,417 L 785,424 L 785,425 L 785,426 L 785,431 L 785,432 L 785,433 L 785,436 L 786,438 L 786,439 L 787,440 L 788,442 L 788,443 L 789,445 L 790,446 L 791,448 L 791,450 L 791,452 L 790,454 L 789,456 L 789,457 L 786,458 L 785,458 L 783,458 L 780,460 L 780,461 L 777,462 L 776,463 L 775,465 L 772,464 L 770,463 L 767,462 L 765,462 L 763,461 L 760,460 L 759,460 L 758,459 L 756,459 L 755,459 L 753,460 L 752,460 L 750,461 L 750,460 L 749,459 L 749,457 L 747,455 L 747,454 L 746,453 L 745,451 L 744,450 L 744,449 L 743,448 L 741,446 L 740,446 L 740,444 L 740,442 L 739,440 L 739,438 L 737,437 L 737,436 L 737,434 L 736,433 L 736,431 L 735,431 L 735,430 L 734,429 L 733,428 L 732,426 L 731,424 L 730,423 L 729,423 L 728,422 L 726,422 L 725,422 L 721,421 L 720,421 L 719,421 L 716,422 L 714,422 L 713,422 L 712,422 L 711,421 L 710,421 L 708,422 L 707,423 L 706,425 L 705,425 L 704,425 L 703,424 L 702,425 L 701,425 L 700,425 L 699,424 L 698,423 L 697,422 L 695,420 L 694,420 L 693,419 L 692,419 L 691,418 L 689,417 L 687,416 L 684,416 L 683,416 L 682,415 L 680,415 L 679,415 L 678,416 L 677,416 L 675,415 L 675,414 L 672,415 L 671,414 L 671,412 L 671,411 L 670,411 L 669,411 L 668,411 L 667,409 L 666,409 L 665,408 L 665,407 L 664,405 L 665,405 L 666,404 L 667,404 L 668,404 L 668,403 L 669,403 L 669,402 L 669,400 L 670,400 L 669,398 L 669,396 L 670,395 L 671,394 L 672,394 L 672,393 L 672,391 L 672,390 L 673,389 L 673,388 L 673,387 L 673,385 L 672,385 L 671,384 L 670,384 L 668,382 L 667,382 L 664,380 L 663,380 L 662,380 L 661,379 L 660,379 L 659,379 L 658,380 L 656,379 L 655,377 L 653,377 L 653,376 L 652,376 L 652,375 L 652,373 L 652,372 L 651,371 L 651,370 L 650,369 L 650,368 L 649,368 L 648,368 L 647,368 L 646,368 L 645,368 L 644,368 L 644,369 L 643,368 L 642,368 L 642,369 L 641,369 L 641,368 L 640,368 L 639,367 L 638,367 L 637,367 L 637,366 L 637,365 L 637,364 L 638,364 L 638,362 L 638,360 L 635,360 L 634,360 L 631,360 L 630,360 L 621,364 L 621,363 L 620,362 L 619,361 L 619,360 L 618,360 L 617,359 L 616,358 L 613,357 L 607,355 L 604,354 L 603,354 L 601,353 L 598,352 L 596,352 L 595,352 L 591,350 L 590,353 L 590,354 L 589,356 L 588,358 L 588,359 L 587,363 L 585,368 L 584,372 L 583,373 L 583,374 L 583,375 L 583,376 L 582,376 L 581,377 L 580,378 L 579,379 L 578,380 L 577,381 L 576,382 L 575,383 L 574,383 L 574,384 L 573,384 L 573,385 L 572,385 L 572,386 L 571,386 L 570,385 L 569,385 L 569,384 L 568,384 L 568,383 L 567,383 L 567,382 L 566,382 L 566,381 L 565,381 L 565,380 L 564,380 L 563,379 L 563,378 L 562,378 L 561,377 L 560,376 L 560,375 L 559,375 L 558,374 L 558,373 L 557,372 L 556,371 L 555,370 L 554,370 L 554,369 L 553,369 L 553,368 L 552,368 L 551,368 L 549,367 L 548,366 L 547,366 L 546,365 L 545,365 L 545,364 L 544,364 L 543,363 L 542,363 L 541,362 L 540,362 L 539,362 L 538,362 L 537,362 L 535,362 L 534,362 L 533,361 L 532,360 L 531,361 L 531,360 L 530,360 L 530,359 L 530,358 L 529,357 L 530,357 L 529,357 L 529,356 L 529,355 L 529,354 L 529,353 L 528,353 L 528,352 L 528,351 L 528,350 L 527,350 L 527,349 L 526,348 L 526,347 L 527,347 L 526,347 L 526,346 L 525,346 L 525,345 L 523,342 L 523,341 L 523,340 L 523,339 L 522,339 L 522,338 L 521,338 L 520,338 L 519,337 L 518,337 L 517,337 L 516,337 L 516,336 L 515,336 L 514,336 L 513,336 L 512,336 L 511,336 L 510,336 L 509,336 L 508,336 L 507,336 L 507,337 L 506,337 L 505,337 L 505,336 L 505,335 L 503,335 L 500,334 L 499,334 L 494,334 L 492,334 L 490,334 L 489,334 L 488,334 L 488,333 L 479,333 L 474,333 L 472,332 L 471,332 L 469,331 L 468,331 L 458,328 L 447,325 L 437,322 L 437,321 L 438,320 L 437,320 L 436,320 L 436,319 L 435,319 L 435,318 L 434,318 L 434,317 L 433,317 L 432,317 L 432,316 L 431,316 L 430,316 L 430,317 L 429,317 L 429,316 L 428,316 L 428,315 L 429,315 L 429,314 L 429,313 L 430,313 L 430,312 L 431,311 L 432,310 L 433,309 L 433,308 L 434,308 L 434,307 L 435,307 L 436,307 L 437,307 L 439,307 L 441,307 L 441,308 L 442,309 L 442,310 L 443,311 L 443,312 L 444,313 L 446,314 L 446,313 L 447,313 L 448,313 L 449,313 L 450,314 L 451,313 L 452,313 L 453,313 L 454,313 L 454,312 L 454,311 L 455,311 L 455,310 L 455,309 L 456,308 L 457,307 L 458,306 L 459,306 L 460,306 L 461,306 L 461,307 L 462,307 L 463,307 L 464,307 L 465,307 L 466,307 L 467,307 L 468,306 L 469,305 L 470,304 L 471,303 L 471,302 L 472,301 L 472,300 L 473,300 L 473,299 L 473,298 L 474,298 L 474,297 L 473,296 L 473,295 L 473,294 L 472,293 L 472,292 L 471,290 L 471,289 L 471,288 L 471,287 L 471,286 L 472,284 L 472,283 L 472,282 L 472,281 L 472,280 L 472,279 L 471,278 L 471,277 L 471,276 L 470,275 L 470,274 L 469,274 L 467,273 L 466,273 L 465,272 L 464,272 L 463,271 L 462,271 L 461,271 L 460,271 L 459,271 L 458,270 L 457,269 L 457,268 L 457,267 L 457,266 L 459,264 L 460,264 L 461,263 L 462,261 L 463,260 L 463,258 L 463,256 L 463,255 L 463,253 L 463,251 L 463,250 L 463,248 L 463,247 L 463,246 L 463,245 L 462,244 L 462,243 L 462,242 L 462,241 L 461,240 L 461,239 L 460,238 L 459,237 L 459,236 L 459,235 L 458,235 L 458,234 L 458,233 L 458,232 L 458,231 L 458,230 L 458,229 L 458,228 L 459,228 L 459,227 L 459,226 L 459,225 L 460,225 L 460,224 L 461,223 L 461,222 L 462,222 L 462,221 L 463,221 L 463,220 L 464,220 L 464,219 L 465,219 L 466,218 L 466,217 L 467,217 L 466,216 L 465,216 L 464,216 L 464,215 L 463,215 L 462,215 L 461,215 L 460,215 L 459,215 L 459,214 L 459,213 L 459,212 L 459,211 L 459,210 L 459,209 L 459,208 L 459,207 L 459,206 L 459,205 L 458,205 L 457,205 L 455,205 L 454,205 L 453,205 L 452,205 L 451,205 L 450,205 L 449,205 L 448,205 L 447,205 L 446,205 L 445,205 L 444,205 L 444,204 L 444,203 L 444,202 L 444,201 L 443,200 L 443,199 L 443,198 L 442,197 L 442,196 L 441,195 L 440,195 L 439,196 L 438,196 L 437,197 L 436,197 L 435,197 L 434,198 L 433,198 L 432,198 L 432,199 L 431,199 L 430,199 L 429,199 L 428,198 L 427,197 L 427,196 L 427,195 L 426,194 L 426,193 L 425,192 L 425,191 L 424,191 L 423,190 L 422,190 L 422,189 L 422,188 L 421,188 L 421,187 L 421,186 L 421,185 L 422,185 L 422,184 L 423,185 L 424,185 L 425,184 L 426,184 L 427,185 L 428,185 L 429,184 L 430,184 L 431,183 L 432,182 L 432,181 L 431,181 L 432,181 L 431,180 L 431,179 L 431,177 L 432,177 L 432,176 L 432,175 L 432,174 L 433,173 L 434,173 L 435,174 L 436,174 L 436,175 L 436,174 L 436,173 L 437,172 L 438,172 L 439,172 L 440,172 L 440,173 L 441,173 L 442,173 L 442,172 L 442,171 L 441,170 L 441,169 L 441,168 L 441,167 L 441,166 L 442,167 L 442,166 L 443,166 L 444,166 L 445,166 L 446,165 L 447,166 L 447,167 L 448,168 L 448,169 L 449,170 L 449,169 L 450,169 L 451,168 L 451,167 L 452,167 L 453,167 L 453,166 L 454,166 L 454,165 L 455,165 L 454,165 L 454,164 L 455,164 L 456,164 L 456,163 L 457,164 L 457,163 L 457,164 L 457,163 L 458,163 L 459,163 L 459,162 L 460,162 L 460,163 L 461,163 L 461,164 L 462,164 L 462,163 L 463,163 L 464,163 L 464,162 L 465,162 L 466,162 L 466,161 L 467,161 L 468,160 L 469,160 L 469,159 L 470,159 L 471,159 L 472,159 L 473,159 L 473,158 L 474,158 L 474,157 L 475,157 L 475,156 L 475,155 L 476,155 L 476,154 L 476,153 L 476,152 L 476,151 L 476,150 L 476,149 L 477,149 L 477,148 L 478,148 L 478,147 L 479,147 L 479,146 L 479,145 L 480,145 L 481,145 L 481,144 L 482,145 L 482,144 L 483,144 L 483,145 L 484,145 L 484,144 L 485,144 L 485,143 L 486,143 L 487,143 L 488,143 L 490,143 L 492,143 L 493,143 L 494,143 L 494,142 L 495,142 L 495,141 L 496,141 L 497,141 L 497,140 L 498,140 L 498,139 L 498,138 L 499,138 L 499,137 L 500,137 L 501,136 L 501,135 L 502,135 L 503,134 L 504,134 L 504,133 L 505,133 L 506,133 L 507,133 L 508,133 L 508,132 L 509,132 L 510,132 L 510,131 L 511,131 L 512,130 L 513,130 L 514,130 L 515,130 L 515,131 L 515,132 L 514,132 L 514,133 L 514,134 L 513,134 L 513,135 L 513,136 L 513,137 L 513,138 L 514,138 L 514,139 L 515,139 L 516,139 L 516,140 L 517,140 L 518,140 L 519,140 L 520,140 L 521,141 L 522,141 L 523,141 L 524,141 L 525,141 L 526,141 L 526,142 L 527,142 L 528,142 L 529,142 L 529,143 L 530,143 L 531,143 L 532,143 L 533,143 L 533,142 L 534,142 L 535,142 L 536,142 L 536,141 L 537,140 L 537,139 L 537,138 L 538,137 L 539,135 L 540,134 L 541,133 L 542,133 L 543,132 L 544,132 L 545,131 L 546,131 L 546,130 L 547,130 L 548,129 L 549,129 L 550,128 L 551,128 L 552,128 L 553,127 L 554,127 L 555,126 L 556,126 L 556,125 L 558,124 L 560,122 L 562,119 L 563,118 L 564,117 L 565,115 L 566,114 L 567,114 L 568,113 L 569,113 L 571,113 L 572,113 L 573,113 L 574,113 L 575,113 L 576,113 L 577,113 L 578,112 L 579,112 L 580,112 L 581,112 L 582,112 L 582,113 L 583,113 L 584,113 L 585,113 L 587,113 L 589,113 " />
</g>
<g id="24050" >
<path d="M 19,395 L 19,394 L 20,394 L 21,395 L 23,394 L 24,394 L 25,394 L 26,394 L 28,394 L 28,393 L 29,393 L 30,393 L 30,392 L 31,392 L 32,391 L 32,390 L 33,390 L 33,389 L 32,388 L 32,387 L 32,386 L 33,384 L 35,383 L 36,382 L 38,380 L 38,379 L 38,378 L 37,377 L 36,377 L 35,376 L 34,375 L 34,374 L 34,373 L 34,372 L 35,371 L 37,370 L 37,369 L 38,368 L 38,367 L 40,365 L 41,365 L 41,364 L 42,364 L 42,363 L 42,361 L 41,361 L 40,361 L 40,360 L 39,360 L 39,358 L 39,357 L 40,355 L 40,354 L 40,353 L 39,352 L 39,351 L 39,350 L 40,349 L 41,348 L 41,347 L 42,347 L 42,346 L 43,346 L 45,344 L 46,344 L 47,344 L 49,343 L 51,344 L 53,344 L 54,344 L 56,344 L 57,344 L 58,344 L 57,344 L 57,343 L 58,343 L 58,342 L 59,341 L 60,340 L 61,339 L 62,339 L 63,339 L 63,338 L 64,338 L 65,338 L 66,338 L 67,338 L 68,338 L 69,337 L 70,337 L 71,337 L 72,337 L 72,336 L 73,336 L 73,337 L 74,336 L 75,335 L 76,333 L 76,332 L 76,331 L 77,330 L 77,329 L 78,328 L 77,328 L 78,327 L 77,327 L 76,326 L 76,325 L 76,324 L 75,323 L 74,322 L 73,322 L 72,322 L 72,323 L 71,323 L 70,323 L 70,322 L 69,322 L 69,321 L 69,320 L 68,320 L 68,319 L 67,318 L 66,317 L 66,316 L 65,315 L 66,314 L 67,315 L 68,316 L 68,315 L 68,314 L 68,313 L 67,313 L 67,312 L 67,313 L 66,313 L 65,313 L 64,313 L 63,312 L 63,311 L 62,311 L 61,310 L 60,310 L 59,310 L 59,309 L 58,308 L 58,307 L 58,306 L 59,305 L 60,304 L 59,303 L 59,302 L 58,302 L 58,301 L 57,300 L 56,300 L 56,299 L 56,298 L 56,297 L 55,296 L 54,295 L 53,295 L 52,295 L 51,295 L 51,294 L 49,294 L 48,293 L 47,292 L 47,291 L 46,290 L 45,290 L 45,289 L 44,288 L 43,286 L 43,285 L 42,284 L 41,283 L 41,282 L 40,282 L 40,281 L 39,280 L 40,279 L 38,278 L 38,277 L 39,277 L 40,276 L 40,275 L 41,275 L 42,275 L 43,274 L 44,274 L 45,273 L 46,274 L 46,275 L 48,276 L 49,276 L 50,278 L 51,278 L 52,277 L 53,276 L 54,275 L 55,275 L 56,274 L 57,274 L 58,274 L 58,275 L 59,275 L 59,276 L 59,277 L 60,278 L 61,278 L 62,278 L 62,277 L 63,277 L 64,277 L 65,277 L 65,276 L 66,276 L 67,276 L 67,275 L 67,276 L 69,277 L 70,277 L 70,276 L 71,276 L 71,275 L 72,274 L 73,273 L 74,273 L 75,274 L 76,274 L 77,274 L 78,274 L 78,273 L 79,274 L 80,276 L 81,276 L 81,277 L 82,277 L 82,278 L 82,279 L 82,280 L 83,281 L 83,282 L 83,281 L 84,281 L 85,282 L 86,282 L 87,282 L 88,281 L 89,282 L 89,281 L 89,280 L 89,279 L 89,278 L 89,277 L 90,276 L 90,275 L 90,274 L 90,273 L 89,273 L 89,272 L 89,271 L 88,270 L 88,269 L 87,269 L 87,268 L 87,267 L 88,267 L 88,266 L 89,266 L 89,265 L 89,264 L 90,264 L 90,263 L 90,262 L 91,262 L 91,261 L 91,260 L 91,259 L 90,259 L 90,258 L 90,257 L 89,256 L 89,255 L 89,254 L 90,253 L 90,252 L 90,251 L 91,251 L 91,250 L 92,249 L 93,249 L 94,249 L 95,248 L 95,247 L 96,247 L 96,246 L 96,245 L 96,244 L 97,242 L 96,242 L 96,241 L 96,240 L 96,239 L 97,239 L 96,238 L 97,238 L 97,237 L 98,237 L 99,237 L 100,237 L 100,236 L 101,236 L 102,236 L 102,235 L 103,235 L 103,234 L 104,234 L 104,233 L 105,233 L 105,232 L 104,231 L 105,231 L 105,230 L 105,228 L 106,228 L 106,227 L 107,226 L 107,225 L 107,224 L 107,223 L 108,222 L 109,221 L 110,220 L 111,220 L 112,220 L 112,221 L 113,221 L 113,222 L 113,221 L 114,221 L 115,221 L 115,220 L 116,220 L 117,220 L 117,221 L 117,222 L 118,222 L 118,223 L 119,223 L 119,224 L 119,225 L 120,225 L 120,226 L 121,226 L 121,227 L 122,227 L 123,228 L 123,229 L 124,229 L 125,229 L 125,230 L 126,230 L 127,230 L 127,231 L 127,232 L 128,232 L 129,233 L 130,234 L 130,235 L 131,235 L 132,235 L 133,235 L 134,235 L 135,235 L 137,236 L 137,237 L 139,238 L 142,240 L 143,239 L 144,238 L 145,237 L 146,237 L 147,237 L 147,236 L 148,236 L 148,235 L 148,234 L 149,234 L 150,233 L 152,233 L 153,232 L 154,232 L 157,229 L 158,229 L 159,228 L 160,228 L 161,228 L 162,228 L 163,228 L 164,228 L 165,228 L 166,228 L 167,227 L 167,228 L 169,228 L 170,228 L 171,228 L 172,228 L 173,227 L 174,228 L 174,227 L 176,226 L 176,225 L 176,223 L 176,222 L 176,221 L 177,219 L 178,219 L 179,219 L 180,218 L 179,216 L 180,215 L 180,214 L 180,213 L 180,212 L 181,211 L 179,209 L 179,207 L 178,205 L 177,205 L 176,204 L 176,203 L 176,202 L 177,201 L 177,200 L 178,198 L 179,196 L 179,195 L 179,192 L 179,191 L 180,190 L 181,190 L 182,189 L 183,189 L 183,188 L 184,188 L 185,187 L 186,186 L 188,182 L 187,181 L 188,179 L 188,178 L 188,176 L 189,176 L 190,175 L 190,174 L 190,173 L 190,172 L 191,171 L 191,170 L 192,170 L 193,170 L 193,169 L 193,168 L 194,167 L 194,166 L 196,166 L 199,164 L 199,163 L 199,162 L 200,160 L 200,159 L 201,157 L 201,156 L 201,155 L 202,155 L 201,155 L 201,154 L 201,153 L 201,152 L 201,151 L 201,150 L 201,149 L 200,149 L 200,148 L 201,148 L 201,147 L 202,147 L 202,146 L 203,146 L 203,145 L 204,145 L 204,144 L 205,144 L 205,143 L 204,143 L 205,142 L 205,141 L 206,141 L 206,140 L 207,139 L 207,138 L 208,138 L 208,137 L 209,137 L 209,136 L 210,135 L 210,134 L 211,134 L 211,133 L 212,133 L 212,132 L 213,132 L 213,131 L 213,130 L 214,130 L 214,128 L 214,127 L 215,127 L 216,127 L 216,126 L 216,125 L 216,124 L 217,124 L 217,125 L 218,125 L 218,126 L 219,126 L 219,127 L 220,127 L 221,127 L 221,128 L 222,128 L 223,129 L 224,129 L 225,129 L 226,130 L 226,128 L 227,127 L 227,126 L 227,129 L 227,128 L 228,128 L 228,127 L 229,127 L 229,128 L 229,127 L 230,127 L 231,127 L 231,126 L 232,126 L 233,126 L 233,125 L 233,126 L 234,126 L 235,125 L 236,125 L 237,124 L 238,124 L 239,123 L 240,121 L 241,121 L 241,120 L 241,119 L 242,118 L 242,117 L 243,116 L 244,116 L 244,115 L 245,115 L 246,115 L 247,114 L 248,114 L 249,114 L 250,115 L 252,115 L 254,115 L 254,114 L 255,114 L 256,113 L 257,112 L 258,112 L 260,110 L 261,111 L 262,110 L 263,110 L 265,110 L 266,110 L 267,111 L 269,113 L 270,114 L 271,115 L 271,116 L 271,117 L 271,118 L 272,119 L 272,122 L 272,123 L 271,124 L 270,125 L 270,126 L 269,126 L 268,127 L 268,128 L 267,129 L 267,130 L 267,132 L 267,134 L 266,135 L 265,138 L 265,139 L 264,141 L 263,142 L 263,143 L 262,143 L 262,144 L 260,144 L 259,145 L 259,146 L 258,147 L 257,148 L 255,149 L 254,149 L 254,150 L 254,151 L 254,152 L 253,152 L 253,153 L 254,154 L 254,155 L 253,156 L 252,158 L 252,160 L 252,163 L 251,165 L 251,166 L 251,167 L 252,168 L 252,169 L 252,170 L 254,172 L 254,173 L 255,173 L 257,174 L 262,174 L 264,173 L 266,174 L 268,174 L 269,175 L 271,176 L 272,176 L 273,176 L 274,176 L 275,176 L 277,177 L 278,177 L 279,178 L 280,178 L 281,178 L 281,177 L 283,176 L 285,176 L 286,177 L 286,178 L 287,180 L 288,180 L 288,181 L 289,181 L 290,181 L 291,181 L 291,182 L 292,182 L 293,182 L 294,182 L 295,182 L 296,182 L 297,183 L 297,184 L 298,184 L 298,185 L 298,186 L 299,187 L 299,188 L 300,188 L 301,189 L 301,190 L 302,190 L 302,191 L 303,191 L 303,192 L 304,192 L 304,193 L 305,193 L 305,194 L 306,194 L 306,195 L 307,195 L 307,196 L 308,196 L 308,197 L 309,197 L 310,197 L 310,196 L 310,197 L 311,197 L 312,197 L 313,197 L 313,198 L 314,198 L 315,198 L 316,199 L 317,199 L 318,199 L 319,199 L 320,200 L 321,201 L 322,200 L 323,200 L 323,199 L 324,199 L 325,199 L 326,200 L 327,200 L 327,201 L 328,201 L 328,202 L 329,202 L 329,203 L 330,204 L 331,204 L 332,204 L 332,205 L 333,205 L 333,207 L 335,208 L 335,209 L 337,209 L 337,210 L 338,210 L 339,210 L 340,209 L 341,209 L 342,209 L 343,209 L 344,209 L 345,209 L 346,210 L 347,210 L 348,210 L 349,210 L 350,210 L 350,209 L 351,209 L 351,208 L 352,207 L 353,207 L 354,206 L 355,206 L 356,206 L 357,206 L 357,207 L 357,208 L 357,209 L 357,210 L 357,211 L 358,211 L 358,212 L 358,213 L 359,214 L 359,213 L 360,212 L 360,211 L 361,211 L 362,211 L 362,210 L 363,210 L 364,210 L 364,209 L 365,209 L 365,208 L 366,207 L 367,207 L 368,207 L 369,206 L 369,207 L 370,206 L 370,205 L 371,205 L 371,204 L 371,203 L 372,203 L 373,203 L 373,202 L 374,203 L 375,203 L 375,202 L 376,201 L 376,200 L 377,200 L 378,200 L 378,199 L 379,199 L 380,199 L 379,198 L 380,198 L 381,198 L 382,198 L 382,199 L 383,199 L 384,200 L 385,200 L 385,199 L 386,199 L 386,198 L 387,198 L 387,197 L 388,196 L 389,196 L 389,195 L 389,194 L 390,194 L 391,194 L 391,195 L 392,195 L 392,194 L 393,194 L 394,194 L 395,194 L 395,195 L 396,195 L 396,194 L 396,195 L 397,195 L 398,195 L 398,194 L 399,193 L 399,192 L 400,192 L 400,191 L 400,190 L 400,189 L 400,188 L 400,187 L 399,186 L 399,185 L 399,184 L 399,183 L 399,182 L 398,182 L 399,182 L 399,181 L 399,180 L 400,180 L 400,179 L 400,180 L 401,179 L 401,180 L 402,180 L 403,180 L 404,180 L 404,181 L 405,181 L 406,182 L 406,181 L 406,182 L 407,182 L 408,182 L 409,183 L 410,183 L 411,183 L 411,184 L 412,185 L 413,185 L 414,185 L 414,186 L 415,187 L 416,187 L 416,188 L 417,188 L 419,188 L 421,187 L 421,188 L 422,188 L 422,189 L 422,190 L 423,190 L 424,191 L 425,191 L 425,192 L 426,193 L 426,194 L 427,195 L 427,196 L 427,197 L 428,198 L 429,199 L 430,199 L 431,199 L 432,199 L 432,198 L 433,198 L 434,198 L 435,197 L 436,197 L 437,197 L 438,196 L 439,196 L 440,195 L 441,195 L 442,196 L 442,197 L 443,198 L 443,199 L 443,200 L 444,201 L 444,202 L 444,203 L 444,204 L 444,205 L 445,205 L 446,205 L 447,205 L 448,205 L 449,205 L 450,205 L 451,205 L 452,205 L 453,205 L 454,205 L 455,205 L 457,205 L 458,205 L 459,205 L 459,206 L 459,207 L 459,208 L 459,209 L 459,210 L 459,211 L 459,212 L 459,213 L 459,214 L 459,215 L 460,215 L 461,215 L 462,215 L 463,215 L 464,215 L 464,216 L 465,216 L 466,216 L 467,217 L 466,217 L 466,218 L 465,219 L 464,219 L 464,220 L 463,220 L 463,221 L 462,221 L 462,222 L 461,222 L 461,223 L 460,224 L 460,225 L 459,225 L 459,226 L 459,227 L 459,228 L 458,228 L 458,229 L 458,230 L 458,231 L 458,232 L 458,233 L 458,234 L 458,235 L 459,235 L 459,236 L 459,237 L 460,238 L 461,239 L 461,240 L 462,241 L 462,242 L 462,243 L 462,244 L 463,245 L 463,246 L 463,247 L 463,248 L 463,250 L 463,251 L 463,253 L 463,255 L 463,256 L 463,258 L 463,260 L 462,261 L 461,263 L 460,264 L 459,264 L 457,266 L 457,267 L 457,268 L 457,269 L 458,270 L 459,271 L 460,271 L 461,271 L 462,271 L 463,271 L 464,272 L 465,272 L 466,273 L 467,273 L 469,274 L 470,274 L 470,275 L 471,276 L 471,277 L 471,278 L 472,279 L 472,280 L 472,281 L 472,282 L 472,283 L 472,284 L 471,286 L 471,287 L 471,288 L 471,289 L 471,290 L 472,292 L 472,293 L 473,294 L 473,295 L 473,296 L 474,297 L 474,298 L 473,298 L 473,299 L 473,300 L 472,300 L 472,301 L 471,302 L 471,303 L 470,304 L 469,305 L 468,306 L 467,307 L 466,307 L 465,307 L 464,307 L 463,307 L 462,307 L 461,307 L 461,306 L 460,306 L 459,306 L 458,306 L 457,307 L 456,308 L 455,309 L 455,310 L 455,311 L 454,311 L 454,312 L 454,313 L 453,313 L 452,313 L 451,313 L 450,314 L 449,313 L 448,313 L 447,313 L 446,313 L 446,314 L 444,313 L 443,312 L 443,311 L 442,310 L 442,309 L 441,308 L 441,307 L 439,307 L 437,307 L 436,307 L 435,307 L 434,307 L 434,308 L 433,308 L 433,309 L 432,310 L 431,311 L 430,312 L 430,313 L 429,313 L 429,314 L 429,315 L 428,315 L 428,316 L 428,317 L 427,317 L 427,318 L 426,319 L 426,320 L 426,321 L 426,322 L 426,323 L 426,324 L 426,325 L 425,329 L 425,330 L 425,331 L 425,332 L 426,334 L 425,335 L 425,336 L 424,337 L 422,338 L 420,337 L 418,337 L 416,338 L 415,338 L 414,339 L 413,339 L 412,339 L 411,339 L 410,340 L 409,340 L 408,341 L 407,342 L 406,342 L 405,343 L 404,344 L 403,345 L 402,345 L 402,346 L 401,346 L 401,347 L 400,347 L 399,348 L 399,349 L 398,351 L 397,353 L 397,355 L 398,356 L 398,358 L 399,359 L 399,360 L 400,360 L 400,361 L 401,361 L 401,362 L 401,364 L 400,365 L 400,367 L 400,368 L 399,369 L 400,369 L 400,370 L 400,371 L 399,372 L 399,373 L 399,374 L 399,375 L 400,376 L 399,376 L 399,377 L 399,378 L 399,379 L 399,380 L 400,380 L 400,381 L 401,381 L 401,382 L 402,383 L 403,384 L 404,384 L 404,385 L 404,386 L 405,386 L 405,387 L 406,388 L 406,389 L 406,390 L 407,391 L 407,392 L 407,393 L 407,394 L 407,395 L 407,396 L 408,396 L 407,396 L 407,397 L 407,398 L 407,399 L 407,400 L 407,401 L 407,402 L 407,403 L 407,404 L 407,405 L 407,406 L 408,406 L 408,407 L 408,408 L 408,409 L 408,410 L 408,411 L 408,412 L 408,413 L 407,413 L 406,414 L 406,415 L 405,416 L 404,417 L 404,418 L 403,418 L 403,419 L 402,419 L 402,420 L 401,420 L 400,421 L 400,422 L 399,423 L 398,423 L 398,424 L 398,425 L 397,425 L 397,426 L 396,426 L 396,427 L 395,427 L 394,427 L 393,427 L 392,427 L 392,428 L 391,428 L 390,428 L 390,429 L 389,429 L 388,430 L 387,431 L 386,432 L 386,433 L 385,434 L 385,435 L 385,436 L 385,437 L 385,438 L 385,439 L 385,440 L 386,441 L 386,442 L 387,443 L 388,443 L 389,444 L 390,444 L 390,445 L 391,445 L 391,446 L 392,447 L 392,448 L 392,449 L 392,450 L 392,451 L 391,451 L 391,452 L 391,453 L 390,453 L 390,454 L 390,455 L 389,455 L 389,456 L 388,456 L 387,456 L 385,458 L 384,459 L 383,459 L 383,460 L 381,463 L 381,464 L 381,465 L 381,466 L 381,467 L 381,468 L 381,469 L 381,470 L 382,471 L 383,471 L 383,472 L 382,472 L 382,473 L 381,474 L 380,474 L 379,474 L 378,474 L 377,474 L 376,474 L 375,474 L 374,473 L 373,473 L 372,473 L 371,473 L 371,474 L 370,474 L 369,474 L 368,474 L 367,474 L 366,474 L 366,475 L 366,476 L 365,476 L 365,477 L 365,478 L 365,479 L 365,480 L 365,481 L 366,481 L 366,482 L 365,483 L 365,484 L 365,485 L 364,485 L 363,485 L 362,485 L 362,484 L 361,484 L 360,484 L 360,485 L 359,485 L 359,486 L 359,485 L 359,486 L 358,486 L 357,486 L 356,485 L 355,485 L 355,484 L 355,485 L 354,485 L 353,484 L 352,484 L 352,485 L 351,485 L 351,486 L 352,487 L 351,487 L 352,488 L 352,489 L 352,490 L 352,491 L 353,491 L 353,492 L 353,493 L 353,494 L 354,494 L 354,495 L 355,496 L 355,497 L 356,497 L 355,498 L 355,499 L 355,500 L 355,501 L 356,501 L 356,502 L 356,503 L 357,504 L 357,505 L 357,506 L 357,507 L 358,508 L 359,509 L 358,510 L 357,511 L 356,511 L 355,511 L 354,511 L 354,510 L 353,510 L 352,509 L 352,510 L 351,511 L 350,511 L 350,512 L 349,512 L 348,513 L 348,514 L 347,514 L 347,517 L 347,518 L 346,520 L 346,521 L 346,522 L 346,523 L 346,524 L 347,525 L 347,527 L 348,529 L 349,530 L 350,530 L 350,532 L 350,533 L 350,534 L 351,535 L 350,537 L 350,538 L 349,539 L 348,540 L 346,541 L 345,542 L 344,543 L 342,544 L 340,544 L 339,545 L 338,546 L 336,547 L 336,548 L 336,549 L 335,549 L 335,550 L 335,551 L 334,552 L 334,553 L 333,554 L 333,555 L 333,556 L 332,556 L 333,557 L 332,557 L 331,558 L 330,558 L 330,559 L 329,560 L 328,561 L 327,562 L 326,563 L 326,564 L 326,565 L 325,565 L 325,566 L 325,567 L 324,568 L 323,567 L 323,568 L 322,569 L 322,570 L 320,573 L 319,575 L 318,576 L 317,577 L 316,579 L 312,583 L 308,586 L 307,586 L 305,588 L 302,589 L 297,589 L 294,590 L 293,590 L 292,590 L 291,590 L 290,590 L 289,590 L 289,591 L 288,591 L 287,591 L 286,591 L 286,592 L 285,592 L 284,592 L 284,591 L 284,590 L 283,590 L 284,589 L 283,589 L 283,588 L 283,587 L 283,586 L 282,586 L 281,585 L 280,585 L 280,584 L 279,583 L 278,583 L 278,582 L 277,581 L 276,580 L 276,579 L 275,579 L 275,578 L 275,577 L 274,576 L 274,575 L 273,575 L 273,574 L 273,573 L 272,573 L 272,572 L 271,571 L 271,570 L 271,569 L 272,568 L 272,567 L 272,566 L 273,566 L 273,565 L 273,564 L 273,563 L 273,562 L 272,562 L 272,560 L 272,559 L 272,558 L 271,558 L 270,558 L 269,557 L 268,557 L 268,556 L 268,555 L 268,554 L 268,553 L 267,553 L 267,552 L 267,551 L 268,551 L 268,550 L 267,550 L 267,549 L 266,548 L 265,546 L 264,545 L 264,544 L 264,543 L 265,542 L 265,539 L 264,539 L 263,539 L 261,538 L 260,538 L 258,537 L 257,537 L 256,538 L 255,538 L 254,538 L 252,537 L 250,538 L 249,537 L 248,537 L 248,536 L 248,535 L 248,534 L 247,534 L 248,533 L 247,533 L 247,532 L 247,531 L 247,530 L 246,530 L 246,529 L 245,528 L 245,527 L 244,527 L 245,527 L 244,526 L 244,525 L 242,524 L 242,523 L 242,522 L 242,521 L 241,520 L 240,519 L 240,518 L 239,517 L 238,516 L 238,515 L 238,514 L 238,513 L 238,512 L 237,511 L 236,510 L 235,509 L 234,510 L 233,510 L 232,509 L 231,508 L 230,507 L 229,506 L 229,505 L 228,505 L 227,504 L 226,504 L 226,503 L 225,503 L 225,502 L 224,501 L 223,501 L 222,500 L 221,500 L 220,500 L 220,499 L 219,499 L 218,499 L 218,498 L 217,497 L 216,496 L 215,496 L 214,496 L 214,495 L 213,495 L 212,495 L 210,495 L 209,495 L 209,494 L 210,494 L 209,493 L 209,492 L 209,491 L 208,491 L 208,490 L 208,489 L 207,489 L 207,487 L 206,487 L 206,486 L 205,485 L 205,484 L 204,484 L 204,483 L 203,482 L 203,483 L 202,483 L 202,484 L 201,484 L 200,485 L 200,484 L 199,484 L 200,485 L 200,486 L 199,486 L 199,487 L 199,488 L 199,489 L 200,491 L 201,492 L 200,493 L 200,494 L 201,495 L 200,495 L 200,496 L 199,496 L 197,496 L 196,496 L 195,496 L 194,496 L 193,496 L 192,496 L 191,496 L 190,495 L 189,495 L 188,495 L 187,495 L 186,495 L 186,494 L 184,494 L 183,494 L 182,494 L 181,494 L 180,494 L 179,494 L 178,494 L 177,494 L 176,494 L 175,493 L 174,493 L 173,491 L 172,491 L 172,490 L 170,489 L 169,488 L 168,488 L 167,488 L 166,488 L 165,489 L 164,489 L 163,489 L 162,490 L 160,490 L 159,490 L 158,490 L 157,490 L 156,491 L 154,491 L 153,491 L 153,490 L 152,489 L 151,488 L 150,487 L 149,486 L 149,485 L 148,485 L 148,484 L 147,483 L 147,482 L 146,482 L 145,482 L 144,482 L 143,482 L 142,482 L 141,482 L 140,482 L 140,483 L 139,483 L 138,483 L 138,484 L 139,484 L 138,485 L 138,486 L 137,486 L 137,487 L 136,488 L 136,489 L 135,489 L 135,490 L 135,491 L 135,492 L 134,492 L 133,493 L 132,493 L 131,493 L 131,494 L 131,495 L 130,495 L 129,496 L 128,495 L 127,495 L 127,496 L 126,496 L 126,495 L 125,495 L 125,494 L 125,493 L 124,493 L 124,492 L 123,492 L 122,492 L 121,492 L 120,493 L 120,494 L 119,494 L 118,494 L 119,494 L 118,493 L 118,492 L 118,491 L 118,490 L 117,489 L 117,488 L 116,488 L 115,487 L 114,486 L 113,486 L 112,487 L 111,487 L 111,486 L 110,486 L 109,485 L 108,485 L 107,485 L 108,485 L 107,485 L 106,485 L 106,484 L 105,484 L 104,484 L 103,484 L 102,484 L 101,485 L 100,485 L 100,486 L 101,486 L 101,487 L 101,488 L 102,490 L 102,491 L 103,492 L 104,493 L 103,493 L 102,493 L 102,494 L 102,495 L 101,495 L 102,495 L 101,495 L 101,496 L 100,496 L 99,496 L 98,496 L 97,496 L 96,496 L 95,495 L 94,495 L 95,495 L 94,495 L 93,495 L 93,496 L 92,496 L 92,497 L 91,497 L 91,498 L 91,499 L 90,499 L 90,500 L 90,499 L 89,499 L 89,500 L 88,500 L 87,500 L 87,501 L 85,502 L 84,502 L 83,502 L 82,501 L 81,501 L 80,501 L 79,501 L 78,502 L 77,502 L 76,502 L 75,502 L 74,502 L 73,502 L 71,502 L 70,503 L 69,502 L 68,502 L 66,501 L 66,500 L 66,499 L 66,498 L 65,498 L 67,497 L 68,497 L 68,495 L 70,494 L 70,493 L 70,492 L 70,491 L 70,490 L 70,489 L 70,487 L 70,486 L 70,485 L 70,484 L 68,484 L 67,484 L 65,483 L 64,482 L 64,481 L 63,480 L 62,479 L 61,478 L 60,478 L 59,477 L 58,477 L 58,476 L 57,477 L 56,477 L 55,478 L 54,478 L 53,479 L 52,479 L 51,479 L 51,480 L 50,480 L 48,480 L 47,480 L 46,480 L 45,480 L 44,480 L 43,479 L 42,478 L 42,477 L 41,476 L 41,475 L 41,474 L 41,473 L 41,472 L 41,471 L 41,470 L 40,469 L 39,468 L 38,467 L 36,467 L 36,466 L 35,465 L 34,464 L 33,462 L 34,462 L 34,461 L 35,459 L 35,458 L 35,457 L 35,456 L 35,454 L 34,453 L 34,451 L 34,450 L 35,449 L 36,448 L 37,446 L 36,445 L 37,445 L 37,443 L 37,442 L 37,441 L 37,440 L 38,439 L 38,437 L 38,436 L 38,435 L 39,435 L 39,434 L 38,433 L 38,432 L 38,431 L 39,430 L 40,428 L 40,427 L 40,426 L 40,425 L 40,423 L 40,422 L 40,421 L 41,420 L 41,419 L 40,419 L 39,419 L 39,417 L 38,414 L 37,413 L 37,412 L 37,411 L 37,410 L 36,410 L 36,409 L 36,408 L 37,407 L 37,406 L 37,404 L 37,403 L 37,402 L 36,402 L 35,402 L 34,401 L 33,401 L 32,401 L 31,401 L 29,401 L 28,401 L 26,401 L 25,401 L 24,400 L 22,398 L 21,396 L 20,395 L 19,395 " />
</g>
</g>
</g>
</svg>