<?xml version="1.0" standalone="no"?>
<!DOCTYPE svg PUBLIC "-//W3C//DTD SVG 1.1//EN" "http://www.w3.org/Graphics/SVG/1.1/DTD/svg11.dtd">
<svg xmlns="http://www.w3.org/2000/svg" xmlns:inkscape="http://www.inkscape.org/namespaces/inkscape" xmlns:xlink="http://www.w3.org/1999/xlink" viewBox = "0 0 836 755" version = "1.1">
<!-- svg generated using QGIS www.qgis.org -->
<g id="daegu" inkscape:groupmode="layer" inkscape:label="daegu">
<g stroke="none" fill="rgb(255,255,255)" stroke-linejoin="round" stroke-width="0.26" style="stroke:rgb(0,0,0);stroke-width:1">
<g id="22010" >
<path d="M 492,267 L 499,279 L 496,286 L 492,288 L 491,291 L 490,292 L 490,293 L 489,296 L 490,301 L 490,302 L 486,302 L 476,301 L 464,299 L 453,300 L 442,293 L 441,289 L 449,260 L 492,267 " />
</g>
<g id="22020" >
<path d="M 667,57 L 668,57 L 667,59 L 663,64 L 663,65 L 662,71 L 670,78 L 684,92 L 684,94 L 678,131 L 678,132 L 681,141 L 681,142 L 676,155 L 685,188 L 689,189 L 689,190 L 705,208 L 702,259 L 703,262 L 705,262 L 707,266 L 705,268 L 705,271 L 706,278 L 700,284 L 699,285 L 697,288 L 695,292 L 694,293 L 694,294 L 692,295 L 690,296 L 682,301 L 681,302 L 678,304 L 671,306 L 657,295 L 629,295 L 601,294 L 599,292 L 598,292 L 596,290 L 595,291 L 594,291 L 593,290 L 592,288 L 586,268 L 550,260 L 526,272 L 520,281 L 517,281 L 499,279 L 492,267 L 515,213 L 518,170 L 515,169 L 514,120 L 495,79 L 480,68 L 484,63 L 485,61 L 485,60 L 486,59 L 488,58 L 489,56 L 490,54 L 490,53 L 490,52 L 491,52 L 491,51 L 492,50 L 498,43 L 499,41 L 500,36 L 500,35 L 521,33 L 522,32 L 533,28 L 552,31 L 552,30 L 564,29 L 566,29 L 580,23 L 585,23 L 589,20 L 596,21 L 599,21 L 604,19 L 611,17 L 613,20 L 613,21 L 613,22 L 613,23 L 617,25 L 618,26 L 619,27 L 621,27 L 624,28 L 627,28 L 629,29 L 634,29 L 637,31 L 640,31 L 641,31 L 643,31 L 657,41 L 658,42 L 658,44 L 658,45 L 658,46 L 658,47 L 659,47 L 658,48 L 659,49 L 667,57 " />
</g>
<g id="22030" >
<path d="M 449,260 L 441,289 L 404,304 L 362,278 L 362,277 L 363,276 L 364,275 L 365,273 L 364,271 L 364,268 L 359,257 L 358,255 L 358,254 L 358,253 L 362,251 L 363,251 L 364,250 L 367,249 L 368,249 L 369,248 L 370,248 L 371,246 L 371,245 L 395,234 L 443,245 L 449,260 " />
</g>
<g id="22040" >
<path d="M 490,302 L 490,303 L 491,304 L 491,307 L 490,310 L 490,312 L 489,314 L 489,317 L 489,320 L 487,336 L 487,339 L 487,341 L 487,342 L 488,343 L 488,345 L 489,348 L 489,349 L 490,350 L 490,351 L 488,351 L 487,351 L 486,351 L 486,352 L 485,354 L 486,355 L 486,356 L 485,357 L 485,358 L 485,359 L 483,364 L 482,366 L 482,367 L 480,371 L 479,372 L 477,372 L 477,373 L 471,375 L 465,384 L 464,384 L 461,385 L 415,339 L 440,309 L 442,293 L 453,300 L 464,299 L 476,301 L 486,302 L 490,302 " />
</g>
<g id="22050" >
<path d="M 515,169 L 518,170 L 515,213 L 492,267 L 449,260 L 443,245 L 395,234 L 371,245 L 368,242 L 363,239 L 359,238 L 352,236 L 348,236 L 342,240 L 341,239 L 343,230 L 342,229 L 341,228 L 343,223 L 341,219 L 375,182 L 383,156 L 371,91 L 373,85 L 424,95 L 425,95 L 427,92 L 431,89 L 437,86 L 439,87 L 440,87 L 445,86 L 467,76 L 470,75 L 473,74 L 476,73 L 480,70 L 480,68 L 495,79 L 514,120 L 515,169 " />
</g>
<g id="22060" >
<path d="M 629,295 L 657,303 L 658,310 L 659,312 L 659,318 L 659,319 L 659,321 L 652,335 L 652,334 L 639,343 L 635,348 L 634,350 L 634,354 L 634,358 L 634,359 L 637,361 L 638,362 L 639,362 L 640,364 L 641,365 L 642,368 L 643,371 L 643,372 L 643,373 L 644,375 L 644,378 L 644,380 L 647,382 L 646,385 L 645,387 L 642,388 L 634,392 L 633,394 L 633,396 L 630,397 L 626,399 L 624,401 L 623,403 L 623,405 L 620,406 L 619,406 L 619,407 L 616,405 L 614,402 L 613,402 L 612,402 L 612,403 L 611,404 L 609,407 L 608,409 L 605,410 L 602,412 L 597,414 L 597,415 L 554,397 L 469,383 L 471,375 L 479,372 L 480,371 L 482,367 L 482,366 L 483,364 L 485,359 L 485,358 L 485,357 L 486,356 L 486,355 L 485,354 L 486,352 L 487,351 L 488,351 L 488,350 L 488,351 L 489,351 L 490,351 L 490,350 L 489,349 L 489,348 L 488,345 L 488,343 L 487,342 L 487,341 L 487,339 L 487,336 L 489,320 L 489,317 L 489,314 L 490,312 L 490,310 L 491,307 L 491,304 L 490,303 L 490,302 L 490,301 L 489,298 L 489,296 L 490,293 L 490,292 L 491,291 L 492,288 L 496,286 L 499,279 L 517,281 L 520,281 L 526,272 L 550,260 L 586,268 L 592,288 L 593,290 L 594,291 L 595,291 L 596,290 L 601,294 L 629,295 " />
</g>
<g id="22070" >
<path d="M 441,289 L 442,293 L 440,309 L 415,339 L 461,385 L 461,386 L 461,387 L 461,389 L 461,390 L 460,399 L 458,401 L 457,402 L 454,402 L 449,405 L 448,406 L 446,406 L 442,405 L 439,404 L 436,405 L 435,406 L 434,407 L 433,407 L 434,409 L 435,411 L 435,413 L 435,415 L 435,418 L 437,424 L 436,426 L 436,428 L 437,433 L 437,434 L 434,436 L 434,437 L 433,437 L 432,441 L 431,443 L 430,444 L 427,444 L 426,444 L 425,444 L 422,445 L 420,445 L 415,447 L 414,446 L 413,444 L 413,440 L 411,435 L 407,433 L 405,431 L 403,428 L 401,423 L 400,423 L 398,422 L 397,422 L 396,421 L 396,420 L 394,419 L 394,420 L 391,422 L 389,423 L 387,422 L 375,413 L 375,412 L 374,412 L 373,412 L 368,409 L 368,408 L 366,407 L 358,393 L 356,393 L 356,392 L 352,390 L 351,389 L 350,389 L 349,390 L 348,388 L 348,386 L 349,385 L 355,383 L 355,382 L 354,381 L 354,380 L 353,380 L 352,379 L 350,378 L 347,377 L 346,376 L 345,375 L 340,371 L 330,368 L 322,367 L 321,367 L 318,368 L 317,368 L 313,370 L 313,371 L 313,372 L 312,372 L 311,373 L 311,370 L 311,366 L 312,364 L 312,363 L 311,361 L 311,355 L 309,347 L 302,345 L 300,344 L 299,343 L 297,342 L 296,341 L 291,334 L 293,327 L 293,323 L 295,312 L 297,299 L 298,298 L 301,295 L 301,294 L 302,292 L 304,288 L 305,287 L 306,284 L 308,282 L 309,281 L 309,280 L 311,281 L 312,281 L 313,281 L 316,281 L 317,281 L 319,283 L 320,283 L 321,284 L 322,284 L 322,285 L 324,285 L 325,286 L 327,286 L 328,287 L 329,286 L 331,287 L 336,289 L 337,288 L 338,287 L 338,286 L 339,285 L 340,285 L 342,285 L 344,284 L 346,284 L 347,283 L 348,281 L 348,278 L 350,279 L 353,280 L 354,280 L 357,281 L 358,281 L 361,279 L 362,278 L 404,304 L 441,289 " />
</g>
<g id="22310" >
<path d="M 340,371 L 345,375 L 346,376 L 347,377 L 350,378 L 352,379 L 353,380 L 354,380 L 354,381 L 355,382 L 355,383 L 349,385 L 348,386 L 348,388 L 349,390 L 350,389 L 351,389 L 352,390 L 356,392 L 356,393 L 358,393 L 366,407 L 368,408 L 368,409 L 373,412 L 374,412 L 375,412 L 375,413 L 387,422 L 389,423 L 391,422 L 394,420 L 394,419 L 396,420 L 396,421 L 397,422 L 398,422 L 400,423 L 401,423 L 403,428 L 405,431 L 407,433 L 411,435 L 413,440 L 413,444 L 414,446 L 415,447 L 420,445 L 422,445 L 425,444 L 426,444 L 427,444 L 430,444 L 431,443 L 432,441 L 433,437 L 434,437 L 434,436 L 437,434 L 437,433 L 436,428 L 436,426 L 437,424 L 435,418 L 435,415 L 435,413 L 435,411 L 434,409 L 433,407 L 434,407 L 435,406 L 436,405 L 439,404 L 442,405 L 446,406 L 448,406 L 449,405 L 454,402 L 457,402 L 458,401 L 460,399 L 461,390 L 461,389 L 461,387 L 461,386 L 461,385 L 464,384 L 465,384 L 554,397 L 597,414 L 597,415 L 603,452 L 617,474 L 612,490 L 613,493 L 614,495 L 614,496 L 608,503 L 608,504 L 600,535 L 562,542 L 547,559 L 516,568 L 501,556 L 502,519 L 491,505 L 466,519 L 452,506 L 378,553 L 388,585 L 381,605 L 349,623 L 349,624 L 348,681 L 312,689 L 280,681 L 262,684 L 240,714 L 179,735 L 156,733 L 179,721 L 198,695 L 198,694 L 196,672 L 172,650 L 171,648 L 134,609 L 133,608 L 126,570 L 136,562 L 212,584 L 243,564 L 240,531 L 211,509 L 207,507 L 185,495 L 184,494 L 170,474 L 205,403 L 223,385 L 252,390 L 297,385 L 298,384 L 311,373 L 312,372 L 313,372 L 313,371 L 313,370 L 317,368 L 318,368 L 321,367 L 322,367 L 330,368 L 340,371 " />
<path d="M 289,226 L 290,227 L 304,230 L 305,231 L 341,239 L 342,240 L 348,236 L 352,236 L 359,238 L 363,239 L 368,242 L 371,245 L 371,246 L 370,248 L 369,248 L 368,249 L 367,249 L 364,250 L 363,251 L 362,251 L 358,253 L 358,254 L 358,255 L 359,257 L 364,268 L 364,271 L 365,273 L 364,275 L 363,276 L 362,277 L 362,278 L 361,279 L 358,281 L 357,281 L 354,280 L 353,280 L 350,279 L 348,278 L 348,281 L 347,283 L 346,284 L 344,284 L 342,285 L 340,285 L 339,285 L 338,286 L 338,287 L 337,288 L 336,289 L 331,287 L 329,286 L 328,287 L 327,286 L 325,286 L 324,285 L 322,285 L 322,284 L 321,284 L 320,283 L 319,283 L 317,281 L 316,281 L 313,281 L 312,281 L 311,281 L 309,280 L 309,281 L 308,282 L 306,284 L 305,287 L 304,288 L 302,292 L 301,294 L 301,295 L 298,298 L 297,299 L 295,312 L 293,323 L 293,327 L 291,331 L 264,319 L 215,310 L 173,311 L 169,292 L 190,226 L 201,223 L 235,172 L 268,149 L 300,164 L 289,226 " />
</g>
</g>
</g></svg>