<?xml version="1.0" standalone="no"?>
<!DOCTYPE svg PUBLIC "-//W3C//DTD SVG 1.1//EN" "http://www.w3.org/Graphics/SVG/1.1/DTD/svg11.dtd">
<svg xmlns="http://www.w3.org/2000/svg" xmlns:inkscape="http://www.inkscape.org/namespaces/inkscape" xmlns:xlink="http://www.w3.org/1999/xlink" viewBox = "0 0 836 755" version = "1.1">
<!-- svg generated using QGIS www.qgis.org -->
<g id="daejeon" inkscape:groupmode="layer" inkscape:label="daejeon">
<g stroke="none" fill="rgb(255,255,255)" stroke-linejoin="round" stroke-width="0.26" style="stroke:rgb(0,0,0);stroke-width:1">
<g id="25010" >
<path d="M 580,155 L 578,159 L 578,161 L 577,162 L 577,163 L 577,164 L 576,164 L 575,167 L 575,169 L 575,170 L 575,171 L 576,172 L 576,173 L 576,174 L 577,174 L 577,175 L 577,176 L 578,176 L 578,177 L 578,178 L 579,179 L 579,180 L 579,181 L 580,181 L 580,182 L 580,183 L 581,183 L 581,184 L 581,185 L 582,186 L 582,187 L 583,188 L 584,189 L 585,191 L 586,192 L 586,193 L 586,194 L 587,195 L 587,196 L 587,197 L 587,198 L 588,200 L 588,201 L 588,202 L 588,203 L 588,204 L 588,205 L 589,206 L 589,207 L 589,208 L 589,210 L 590,211 L 591,212 L 592,213 L 592,214 L 593,214 L 593,215 L 593,216 L 594,217 L 595,220 L 597,225 L 598,225 L 602,226 L 606,226 L 609,226 L 611,225 L 611,224 L 612,224 L 612,223 L 613,223 L 613,222 L 614,221 L 614,220 L 615,219 L 615,217 L 615,216 L 616,215 L 617,210 L 617,208 L 618,205 L 618,203 L 619,201 L 619,200 L 619,199 L 619,198 L 620,195 L 620,194 L 620,193 L 622,193 L 623,193 L 624,194 L 625,195 L 626,195 L 626,196 L 627,197 L 628,198 L 629,199 L 630,199 L 631,198 L 632,197 L 632,195 L 634,195 L 635,195 L 636,193 L 636,192 L 637,192 L 638,191 L 639,192 L 640,193 L 641,194 L 641,195 L 641,197 L 642,197 L 643,196 L 644,196 L 645,197 L 646,198 L 646,199 L 647,200 L 648,201 L 649,201 L 650,201 L 652,201 L 653,201 L 654,200 L 654,201 L 655,201 L 656,201 L 657,200 L 657,201 L 658,201 L 660,200 L 661,199 L 662,198 L 663,199 L 664,199 L 665,198 L 666,198 L 667,198 L 670,200 L 671,200 L 671,201 L 670,208 L 670,209 L 672,217 L 675,220 L 677,224 L 678,225 L 679,224 L 680,225 L 681,225 L 681,226 L 682,226 L 683,226 L 683,227 L 684,228 L 685,228 L 686,229 L 688,231 L 688,232 L 689,233 L 690,238 L 690,239 L 691,241 L 691,242 L 692,242 L 693,243 L 694,243 L 694,244 L 695,244 L 696,245 L 697,245 L 698,245 L 700,245 L 701,245 L 702,245 L 702,246 L 703,248 L 702,249 L 700,250 L 699,250 L 699,251 L 697,253 L 696,254 L 695,255 L 694,255 L 693,256 L 691,255 L 690,255 L 688,255 L 687,255 L 687,254 L 686,252 L 685,251 L 683,251 L 682,252 L 680,252 L 678,252 L 676,253 L 674,253 L 673,251 L 672,251 L 669,251 L 668,251 L 667,251 L 667,249 L 666,249 L 665,251 L 664,254 L 662,256 L 661,256 L 660,256 L 658,257 L 657,258 L 656,259 L 655,259 L 655,260 L 655,261 L 655,262 L 655,263 L 654,264 L 653,264 L 652,265 L 651,265 L 650,264 L 649,264 L 649,265 L 648,265 L 648,266 L 647,266 L 647,267 L 648,268 L 646,269 L 645,269 L 645,270 L 643,271 L 643,272 L 642,272 L 642,273 L 641,273 L 640,272 L 639,273 L 639,275 L 641,278 L 640,279 L 639,281 L 640,283 L 640,285 L 640,286 L 640,288 L 640,290 L 641,292 L 641,293 L 641,295 L 640,296 L 640,297 L 639,297 L 639,299 L 640,300 L 639,300 L 640,301 L 640,302 L 641,303 L 641,304 L 641,305 L 641,306 L 641,307 L 641,308 L 641,309 L 642,310 L 642,311 L 642,312 L 642,313 L 642,314 L 642,315 L 641,317 L 640,317 L 640,318 L 639,320 L 638,321 L 639,322 L 639,323 L 639,325 L 639,326 L 639,327 L 639,328 L 638,328 L 639,329 L 638,330 L 638,331 L 639,331 L 638,332 L 637,333 L 637,334 L 637,335 L 636,335 L 636,336 L 636,337 L 636,338 L 635,338 L 634,339 L 634,340 L 635,340 L 635,341 L 636,342 L 636,343 L 636,344 L 636,345 L 635,345 L 635,346 L 635,347 L 635,348 L 634,348 L 633,349 L 633,350 L 633,351 L 632,352 L 632,353 L 631,354 L 631,355 L 630,355 L 629,357 L 628,357 L 627,357 L 626,358 L 625,359 L 626,362 L 625,362 L 624,361 L 623,360 L 622,361 L 621,362 L 620,363 L 619,363 L 618,363 L 617,364 L 616,366 L 613,366 L 613,365 L 612,365 L 611,365 L 609,365 L 608,366 L 607,366 L 608,366 L 607,366 L 608,367 L 607,368 L 608,369 L 609,370 L 609,371 L 608,371 L 608,372 L 609,373 L 608,373 L 607,373 L 606,374 L 605,375 L 604,375 L 603,375 L 602,375 L 602,376 L 603,377 L 603,378 L 601,378 L 600,378 L 600,379 L 599,379 L 598,379 L 597,380 L 596,380 L 595,381 L 595,382 L 595,383 L 595,385 L 595,386 L 596,387 L 596,388 L 597,388 L 597,389 L 596,389 L 596,390 L 596,391 L 596,392 L 596,393 L 596,394 L 596,395 L 596,396 L 596,397 L 597,397 L 597,398 L 597,399 L 597,400 L 596,401 L 597,402 L 597,404 L 597,405 L 598,408 L 599,410 L 599,411 L 599,412 L 599,413 L 599,414 L 598,415 L 598,416 L 597,417 L 597,419 L 596,419 L 595,420 L 595,422 L 594,423 L 593,424 L 592,424 L 590,424 L 588,425 L 587,425 L 588,426 L 588,427 L 588,428 L 588,429 L 588,430 L 589,430 L 589,431 L 589,432 L 590,433 L 590,434 L 590,435 L 589,436 L 588,437 L 588,438 L 587,439 L 587,440 L 586,441 L 584,442 L 583,443 L 584,443 L 585,444 L 586,446 L 587,446 L 587,449 L 589,451 L 591,453 L 590,453 L 591,454 L 592,455 L 592,456 L 592,457 L 592,458 L 591,459 L 590,460 L 590,461 L 590,462 L 589,465 L 589,466 L 589,467 L 588,468 L 587,469 L 587,472 L 585,470 L 584,469 L 584,468 L 583,468 L 582,468 L 582,469 L 581,469 L 581,470 L 580,470 L 580,471 L 579,472 L 578,473 L 578,474 L 578,475 L 578,476 L 578,477 L 578,478 L 579,479 L 579,480 L 580,480 L 580,481 L 580,482 L 581,483 L 581,484 L 582,486 L 582,487 L 583,487 L 583,488 L 584,488 L 584,489 L 584,490 L 585,492 L 586,493 L 586,494 L 585,494 L 586,496 L 586,498 L 587,499 L 588,500 L 590,501 L 590,502 L 590,503 L 590,504 L 590,505 L 591,507 L 592,508 L 592,509 L 591,510 L 591,513 L 590,514 L 589,515 L 588,516 L 588,517 L 588,518 L 587,518 L 587,519 L 586,519 L 585,519 L 585,520 L 584,521 L 583,522 L 581,524 L 581,525 L 580,526 L 578,528 L 577,529 L 576,530 L 575,530 L 575,531 L 574,531 L 574,532 L 573,532 L 573,533 L 574,534 L 574,535 L 574,536 L 574,537 L 574,538 L 575,538 L 575,539 L 575,540 L 575,541 L 576,541 L 576,542 L 576,543 L 575,543 L 574,544 L 573,544 L 573,545 L 572,545 L 572,546 L 572,547 L 571,548 L 571,549 L 571,553 L 570,554 L 570,555 L 570,556 L 569,556 L 569,557 L 568,558 L 569,559 L 569,560 L 568,561 L 568,562 L 569,562 L 569,563 L 571,564 L 571,565 L 574,565 L 575,565 L 575,566 L 576,567 L 575,570 L 575,572 L 576,573 L 576,574 L 575,575 L 574,577 L 573,577 L 573,578 L 572,579 L 571,580 L 571,581 L 572,583 L 573,583 L 572,584 L 573,586 L 573,587 L 573,588 L 573,589 L 573,590 L 574,590 L 574,591 L 574,592 L 574,593 L 576,595 L 578,595 L 579,594 L 580,596 L 580,598 L 581,599 L 580,600 L 580,601 L 581,603 L 581,604 L 582,605 L 581,606 L 581,607 L 580,607 L 580,608 L 580,609 L 580,611 L 580,612 L 579,612 L 578,612 L 577,612 L 576,612 L 576,613 L 575,614 L 574,616 L 576,618 L 575,621 L 574,622 L 573,623 L 571,623 L 571,622 L 569,623 L 568,624 L 567,624 L 565,626 L 564,628 L 563,628 L 562,628 L 561,627 L 560,628 L 558,628 L 556,628 L 554,629 L 553,630 L 554,631 L 554,633 L 554,636 L 553,636 L 551,638 L 550,638 L 549,638 L 548,639 L 547,640 L 546,640 L 545,641 L 544,641 L 543,640 L 541,641 L 540,643 L 538,644 L 537,644 L 536,644 L 535,644 L 535,645 L 534,645 L 534,646 L 534,648 L 535,648 L 535,649 L 535,650 L 534,651 L 534,652 L 534,654 L 534,655 L 535,656 L 535,657 L 535,658 L 536,659 L 537,660 L 538,660 L 538,661 L 538,662 L 537,663 L 537,664 L 535,664 L 534,664 L 533,664 L 533,665 L 532,665 L 530,664 L 529,664 L 527,665 L 527,666 L 526,666 L 525,666 L 524,666 L 523,667 L 522,667 L 521,667 L 521,668 L 521,669 L 520,669 L 521,670 L 521,671 L 520,671 L 520,672 L 519,673 L 519,675 L 518,675 L 517,676 L 516,676 L 515,677 L 513,678 L 512,678 L 511,680 L 510,681 L 510,682 L 511,683 L 511,684 L 512,685 L 512,686 L 512,687 L 513,687 L 513,688 L 514,688 L 514,689 L 514,690 L 513,691 L 513,692 L 513,693 L 513,694 L 513,695 L 512,695 L 511,695 L 510,695 L 509,696 L 508,697 L 507,697 L 506,698 L 506,699 L 505,700 L 505,699 L 504,699 L 503,700 L 502,701 L 502,702 L 500,703 L 500,704 L 499,704 L 497,704 L 496,705 L 495,706 L 494,707 L 493,707 L 492,707 L 492,708 L 491,708 L 490,708 L 489,708 L 486,708 L 486,707 L 485,706 L 485,705 L 485,704 L 483,703 L 481,703 L 480,703 L 479,702 L 479,701 L 478,700 L 477,700 L 476,700 L 475,700 L 474,700 L 473,700 L 472,700 L 472,698 L 471,696 L 470,695 L 470,694 L 468,692 L 468,690 L 467,687 L 466,687 L 466,686 L 464,685 L 462,685 L 461,685 L 459,683 L 457,683 L 456,683 L 454,683 L 452,680 L 452,678 L 452,677 L 454,675 L 455,674 L 456,673 L 458,671 L 458,670 L 459,670 L 457,667 L 456,667 L 454,665 L 455,664 L 456,663 L 457,661 L 457,660 L 458,658 L 458,657 L 458,656 L 459,656 L 459,655 L 459,654 L 458,653 L 459,652 L 458,650 L 457,648 L 458,647 L 458,646 L 457,641 L 458,640 L 458,639 L 455,637 L 454,637 L 455,635 L 455,634 L 456,632 L 457,632 L 458,631 L 460,631 L 463,631 L 464,632 L 465,633 L 466,634 L 468,635 L 470,635 L 473,634 L 473,630 L 474,630 L 475,629 L 476,629 L 478,626 L 480,623 L 480,622 L 480,621 L 480,619 L 479,617 L 480,615 L 480,614 L 480,613 L 481,612 L 483,612 L 484,611 L 486,611 L 487,611 L 488,610 L 490,610 L 490,609 L 488,608 L 488,607 L 487,606 L 488,605 L 488,602 L 488,601 L 488,600 L 488,599 L 487,598 L 488,597 L 488,596 L 485,595 L 483,594 L 482,593 L 481,591 L 480,589 L 480,588 L 479,587 L 479,585 L 476,584 L 475,584 L 475,583 L 475,582 L 474,581 L 475,581 L 475,580 L 475,579 L 476,578 L 476,577 L 474,576 L 474,575 L 472,575 L 472,574 L 470,574 L 469,575 L 468,575 L 466,575 L 460,573 L 462,572 L 462,571 L 462,569 L 463,569 L 464,568 L 465,568 L 465,567 L 465,566 L 465,565 L 465,562 L 464,562 L 464,560 L 464,559 L 464,557 L 466,557 L 467,556 L 468,556 L 468,555 L 469,554 L 470,553 L 471,551 L 471,550 L 472,549 L 474,548 L 475,547 L 476,547 L 477,546 L 478,545 L 479,544 L 481,543 L 480,542 L 481,541 L 481,540 L 482,539 L 483,538 L 483,537 L 483,536 L 482,536 L 482,535 L 481,534 L 480,533 L 480,532 L 480,531 L 479,531 L 478,530 L 479,529 L 478,528 L 478,527 L 476,527 L 472,526 L 472,521 L 471,521 L 471,520 L 471,519 L 470,519 L 470,518 L 470,517 L 471,517 L 472,516 L 473,515 L 474,514 L 475,513 L 475,512 L 474,510 L 473,510 L 472,509 L 471,509 L 470,508 L 470,507 L 468,506 L 467,505 L 467,504 L 467,501 L 466,501 L 466,500 L 465,499 L 465,498 L 465,499 L 464,498 L 464,499 L 463,498 L 462,498 L 462,497 L 461,496 L 460,494 L 461,493 L 461,492 L 461,491 L 461,490 L 462,489 L 462,488 L 462,489 L 462,488 L 463,488 L 464,489 L 466,490 L 468,490 L 471,491 L 472,490 L 473,491 L 473,490 L 474,489 L 474,488 L 475,487 L 476,487 L 477,487 L 477,486 L 479,487 L 480,487 L 481,486 L 482,484 L 483,483 L 484,482 L 485,481 L 486,480 L 486,478 L 487,478 L 487,479 L 488,480 L 489,480 L 490,480 L 492,480 L 494,479 L 495,479 L 495,478 L 496,478 L 496,477 L 496,478 L 497,478 L 497,479 L 497,480 L 497,482 L 497,484 L 498,486 L 499,486 L 499,487 L 499,488 L 500,488 L 501,488 L 501,487 L 502,485 L 503,485 L 504,484 L 505,485 L 506,485 L 507,485 L 508,485 L 509,485 L 512,485 L 513,486 L 514,487 L 514,486 L 515,484 L 516,484 L 517,485 L 517,486 L 518,486 L 518,487 L 519,487 L 519,486 L 519,485 L 518,485 L 517,485 L 517,484 L 516,483 L 516,482 L 516,481 L 515,480 L 515,479 L 515,478 L 515,477 L 515,476 L 514,475 L 514,474 L 514,473 L 514,472 L 513,471 L 513,470 L 513,469 L 513,468 L 512,468 L 512,467 L 511,467 L 510,466 L 509,466 L 509,465 L 508,465 L 508,464 L 507,464 L 506,463 L 506,462 L 505,462 L 505,461 L 505,460 L 504,460 L 504,459 L 504,458 L 503,458 L 503,457 L 502,457 L 502,456 L 501,454 L 500,454 L 500,453 L 500,452 L 500,451 L 500,450 L 500,449 L 499,449 L 499,448 L 498,447 L 497,447 L 496,446 L 495,446 L 494,446 L 493,446 L 493,445 L 492,445 L 491,445 L 490,445 L 489,445 L 488,444 L 487,444 L 485,443 L 485,442 L 484,442 L 484,441 L 484,440 L 483,439 L 483,438 L 483,437 L 482,437 L 482,436 L 482,435 L 482,434 L 481,432 L 481,431 L 481,430 L 480,429 L 480,428 L 479,427 L 479,425 L 478,424 L 477,423 L 477,422 L 476,422 L 476,421 L 475,421 L 475,420 L 474,418 L 473,417 L 473,416 L 472,415 L 471,413 L 470,412 L 471,412 L 470,412 L 469,410 L 468,408 L 467,407 L 467,406 L 466,406 L 466,405 L 465,404 L 465,403 L 464,402 L 463,401 L 462,401 L 462,400 L 461,400 L 461,399 L 460,399 L 460,398 L 459,398 L 459,397 L 458,397 L 458,396 L 457,396 L 458,396 L 456,395 L 456,393 L 455,392 L 455,391 L 454,390 L 453,389 L 452,388 L 451,387 L 450,387 L 450,386 L 449,386 L 448,385 L 448,383 L 447,383 L 447,382 L 446,382 L 444,382 L 443,381 L 442,381 L 441,380 L 440,380 L 440,379 L 439,379 L 439,378 L 438,378 L 438,377 L 437,376 L 437,374 L 436,372 L 436,371 L 437,371 L 438,370 L 439,370 L 440,370 L 441,370 L 441,369 L 442,369 L 443,369 L 445,369 L 446,369 L 447,369 L 448,370 L 449,370 L 450,370 L 451,371 L 453,372 L 453,371 L 452,371 L 451,370 L 450,370 L 449,370 L 449,369 L 448,369 L 448,368 L 447,368 L 447,367 L 446,367 L 446,366 L 445,366 L 445,364 L 446,363 L 446,362 L 447,361 L 448,361 L 449,361 L 450,361 L 451,361 L 452,361 L 453,361 L 454,361 L 455,361 L 456,360 L 457,360 L 457,359 L 458,357 L 459,356 L 459,355 L 459,354 L 460,354 L 460,353 L 461,353 L 461,352 L 462,351 L 462,350 L 462,347 L 461,346 L 461,345 L 464,345 L 464,344 L 464,342 L 467,342 L 467,341 L 467,338 L 467,337 L 470,337 L 471,337 L 471,336 L 472,336 L 473,335 L 474,334 L 475,333 L 477,333 L 478,334 L 479,334 L 480,335 L 481,335 L 482,336 L 483,339 L 482,339 L 482,340 L 482,341 L 483,342 L 484,343 L 484,345 L 483,346 L 487,349 L 487,352 L 488,353 L 491,354 L 494,356 L 495,352 L 494,352 L 495,350 L 495,349 L 496,350 L 497,349 L 497,348 L 498,349 L 500,350 L 501,348 L 505,348 L 510,347 L 511,347 L 511,348 L 510,350 L 512,351 L 513,351 L 515,351 L 518,351 L 518,352 L 519,352 L 523,353 L 524,354 L 526,355 L 527,355 L 527,356 L 528,356 L 529,355 L 530,354 L 530,353 L 530,352 L 530,351 L 529,351 L 529,349 L 530,346 L 530,344 L 531,343 L 531,342 L 531,341 L 532,340 L 532,339 L 532,338 L 532,337 L 531,337 L 532,337 L 532,336 L 532,334 L 532,333 L 531,332 L 530,332 L 529,332 L 528,331 L 527,330 L 527,329 L 527,328 L 526,327 L 526,326 L 526,325 L 525,325 L 525,324 L 524,324 L 523,321 L 523,319 L 522,318 L 521,316 L 521,315 L 520,314 L 518,314 L 517,313 L 517,312 L 517,311 L 516,308 L 516,307 L 516,306 L 515,306 L 514,304 L 513,303 L 513,301 L 512,300 L 512,299 L 511,299 L 510,299 L 510,298 L 510,297 L 510,296 L 509,295 L 508,295 L 508,294 L 507,294 L 507,293 L 506,292 L 506,291 L 506,290 L 505,289 L 505,288 L 505,287 L 506,285 L 507,285 L 507,284 L 507,283 L 508,283 L 508,282 L 508,281 L 509,281 L 508,281 L 508,280 L 509,278 L 509,277 L 510,276 L 511,274 L 511,273 L 511,272 L 511,271 L 511,270 L 512,269 L 511,268 L 510,266 L 510,265 L 510,264 L 510,261 L 510,259 L 510,258 L 510,257 L 511,253 L 511,252 L 512,251 L 512,250 L 512,248 L 512,247 L 512,246 L 512,245 L 512,244 L 513,244 L 513,242 L 514,241 L 515,240 L 516,239 L 516,237 L 517,236 L 518,236 L 519,235 L 520,235 L 521,234 L 522,234 L 523,233 L 523,232 L 524,232 L 525,231 L 526,229 L 527,229 L 528,229 L 529,228 L 530,227 L 531,226 L 532,226 L 532,225 L 533,225 L 533,224 L 533,223 L 534,222 L 535,222 L 536,222 L 536,221 L 536,220 L 537,219 L 538,218 L 539,217 L 540,216 L 541,213 L 542,212 L 543,211 L 544,210 L 544,209 L 544,208 L 545,207 L 546,207 L 546,206 L 546,205 L 547,205 L 547,204 L 546,202 L 545,201 L 545,200 L 546,200 L 547,200 L 548,200 L 549,201 L 550,201 L 550,200 L 551,198 L 551,197 L 552,195 L 553,195 L 553,194 L 553,193 L 554,192 L 554,191 L 554,190 L 555,190 L 555,189 L 555,188 L 556,187 L 557,187 L 556,186 L 557,185 L 558,184 L 558,183 L 559,183 L 559,182 L 559,181 L 559,180 L 559,179 L 559,178 L 559,177 L 560,176 L 560,175 L 560,174 L 561,174 L 561,172 L 562,172 L 562,171 L 563,170 L 564,168 L 565,167 L 566,166 L 567,164 L 568,163 L 568,162 L 569,161 L 569,160 L 570,160 L 570,159 L 571,158 L 571,157 L 573,156 L 574,157 L 574,156 L 575,156 L 576,155 L 577,154 L 578,154 L 580,155 " />
</g>
<g id="25020" >
<path d="M 511,467 L 512,467 L 512,468 L 513,468 L 513,469 L 513,470 L 513,471 L 514,472 L 514,473 L 514,474 L 514,475 L 515,476 L 515,477 L 515,478 L 515,479 L 515,480 L 516,481 L 516,482 L 516,483 L 517,484 L 517,485 L 518,485 L 519,485 L 519,486 L 519,487 L 518,487 L 518,486 L 517,486 L 517,485 L 516,484 L 515,484 L 514,486 L 514,487 L 513,486 L 512,485 L 509,485 L 508,485 L 507,485 L 506,485 L 505,485 L 504,484 L 503,485 L 502,485 L 501,487 L 501,488 L 500,488 L 499,488 L 499,487 L 499,486 L 498,486 L 497,484 L 497,482 L 497,480 L 497,479 L 497,478 L 496,478 L 496,477 L 496,478 L 495,478 L 495,479 L 494,479 L 492,480 L 490,480 L 489,480 L 488,480 L 487,479 L 487,478 L 486,478 L 486,480 L 485,481 L 484,482 L 483,483 L 482,484 L 481,486 L 480,487 L 479,487 L 477,486 L 477,487 L 476,487 L 475,487 L 474,488 L 474,489 L 473,490 L 473,491 L 472,490 L 471,491 L 468,490 L 466,490 L 464,489 L 463,488 L 462,488 L 462,489 L 462,488 L 462,489 L 461,490 L 461,491 L 461,492 L 461,493 L 460,494 L 461,496 L 462,497 L 462,498 L 463,498 L 464,499 L 464,498 L 465,499 L 465,498 L 465,499 L 466,500 L 466,501 L 467,501 L 467,504 L 467,505 L 468,506 L 470,507 L 470,508 L 471,509 L 472,509 L 473,510 L 474,510 L 475,512 L 475,513 L 474,514 L 473,515 L 472,516 L 471,517 L 470,517 L 470,518 L 470,519 L 471,519 L 471,520 L 471,521 L 472,521 L 472,526 L 476,527 L 478,527 L 478,528 L 479,529 L 478,530 L 479,531 L 480,531 L 480,532 L 480,533 L 481,534 L 482,535 L 482,536 L 483,536 L 483,537 L 483,538 L 482,539 L 481,540 L 481,541 L 480,542 L 481,543 L 479,544 L 478,545 L 477,546 L 476,547 L 475,547 L 474,548 L 472,549 L 471,550 L 471,551 L 470,553 L 469,554 L 468,555 L 468,556 L 467,556 L 466,557 L 464,557 L 464,559 L 464,560 L 464,562 L 465,562 L 465,565 L 465,566 L 465,567 L 465,568 L 464,568 L 463,569 L 462,569 L 462,571 L 462,572 L 460,573 L 466,575 L 468,575 L 469,575 L 470,574 L 472,574 L 472,575 L 474,575 L 474,576 L 476,577 L 476,578 L 475,579 L 475,580 L 475,581 L 474,581 L 475,582 L 475,583 L 475,584 L 476,584 L 479,585 L 479,587 L 480,588 L 480,589 L 481,591 L 482,593 L 483,594 L 485,595 L 488,596 L 488,597 L 487,598 L 488,599 L 488,600 L 488,601 L 488,602 L 488,605 L 487,606 L 488,607 L 488,608 L 490,609 L 490,610 L 488,610 L 487,611 L 486,611 L 484,611 L 483,612 L 481,612 L 480,613 L 480,614 L 480,615 L 479,617 L 480,619 L 480,621 L 480,622 L 480,623 L 478,626 L 476,629 L 475,629 L 474,630 L 473,630 L 473,634 L 470,635 L 468,635 L 466,634 L 465,633 L 464,632 L 463,631 L 460,631 L 458,631 L 457,632 L 456,632 L 455,634 L 455,635 L 454,637 L 455,637 L 458,639 L 458,640 L 457,641 L 458,646 L 458,647 L 457,648 L 458,650 L 459,652 L 458,653 L 459,654 L 459,655 L 459,656 L 458,656 L 458,657 L 458,658 L 457,660 L 457,661 L 456,663 L 455,664 L 454,665 L 456,667 L 457,667 L 459,670 L 458,670 L 458,671 L 456,673 L 455,674 L 454,675 L 452,677 L 452,678 L 449,678 L 448,679 L 447,680 L 446,680 L 444,678 L 442,677 L 441,678 L 441,677 L 439,676 L 438,675 L 437,674 L 436,674 L 435,673 L 433,671 L 431,670 L 429,670 L 429,669 L 427,668 L 425,667 L 426,666 L 427,665 L 427,663 L 429,661 L 430,659 L 430,657 L 429,656 L 429,655 L 428,654 L 428,653 L 427,653 L 427,652 L 426,650 L 425,650 L 425,649 L 424,648 L 423,648 L 421,648 L 420,647 L 419,646 L 419,645 L 418,643 L 418,642 L 417,641 L 416,640 L 416,639 L 415,638 L 415,635 L 414,632 L 413,632 L 413,630 L 412,628 L 413,626 L 412,624 L 412,623 L 412,622 L 411,622 L 409,623 L 408,623 L 407,622 L 406,624 L 404,624 L 403,623 L 402,623 L 401,623 L 400,623 L 398,621 L 397,621 L 396,621 L 395,621 L 395,620 L 393,621 L 392,621 L 391,620 L 387,619 L 387,618 L 387,617 L 388,615 L 387,614 L 388,614 L 387,612 L 391,610 L 392,608 L 393,607 L 394,605 L 393,604 L 393,603 L 392,602 L 393,601 L 394,600 L 394,599 L 393,599 L 393,598 L 392,597 L 391,596 L 390,595 L 389,594 L 388,593 L 389,592 L 389,591 L 389,590 L 388,588 L 388,587 L 387,587 L 387,586 L 388,586 L 388,584 L 387,584 L 386,583 L 387,583 L 386,582 L 386,581 L 386,580 L 387,579 L 386,578 L 387,577 L 387,576 L 388,574 L 389,574 L 389,573 L 390,572 L 390,571 L 390,570 L 390,569 L 391,568 L 390,567 L 391,566 L 390,565 L 391,564 L 391,563 L 392,563 L 392,562 L 393,562 L 393,561 L 393,560 L 393,559 L 393,558 L 393,557 L 393,556 L 392,554 L 391,554 L 389,553 L 384,547 L 382,546 L 382,545 L 381,545 L 381,544 L 381,543 L 380,543 L 380,542 L 380,541 L 379,541 L 376,541 L 376,540 L 376,539 L 374,539 L 374,538 L 373,538 L 373,537 L 372,537 L 372,536 L 371,536 L 370,535 L 369,535 L 367,534 L 365,534 L 363,534 L 362,533 L 361,533 L 360,533 L 360,532 L 360,531 L 361,531 L 361,529 L 361,528 L 360,527 L 360,525 L 358,524 L 359,523 L 358,521 L 359,520 L 359,518 L 359,517 L 358,517 L 357,517 L 357,515 L 356,515 L 356,514 L 356,513 L 355,512 L 355,511 L 355,510 L 355,509 L 353,508 L 353,507 L 352,506 L 352,505 L 351,504 L 352,503 L 352,502 L 354,502 L 355,502 L 355,501 L 356,501 L 356,500 L 356,499 L 356,498 L 356,497 L 357,496 L 357,495 L 356,495 L 356,493 L 357,492 L 358,491 L 359,490 L 361,490 L 361,489 L 362,485 L 362,486 L 365,486 L 367,486 L 368,485 L 370,486 L 371,486 L 371,484 L 372,484 L 373,484 L 374,483 L 374,482 L 375,481 L 376,479 L 376,478 L 377,478 L 378,476 L 378,475 L 378,474 L 378,473 L 378,472 L 378,471 L 378,470 L 378,469 L 378,470 L 378,469 L 378,468 L 378,469 L 378,468 L 378,467 L 377,466 L 377,465 L 376,465 L 377,465 L 376,464 L 376,463 L 375,462 L 375,460 L 375,459 L 375,458 L 376,458 L 377,457 L 377,456 L 378,456 L 378,455 L 379,455 L 380,454 L 380,453 L 381,453 L 381,452 L 382,451 L 383,450 L 382,450 L 383,450 L 383,449 L 384,448 L 385,448 L 385,447 L 386,446 L 387,445 L 387,444 L 387,443 L 387,442 L 387,441 L 387,440 L 386,440 L 386,439 L 385,439 L 384,438 L 383,436 L 383,435 L 382,433 L 382,432 L 382,431 L 382,430 L 382,429 L 382,428 L 382,427 L 383,426 L 383,425 L 384,424 L 384,423 L 384,422 L 384,421 L 384,420 L 385,419 L 386,419 L 387,419 L 388,419 L 389,419 L 389,418 L 389,417 L 390,416 L 390,415 L 389,413 L 389,412 L 389,411 L 390,410 L 390,409 L 390,408 L 391,407 L 391,406 L 392,406 L 392,405 L 393,405 L 393,404 L 394,404 L 396,403 L 396,402 L 397,402 L 397,401 L 397,400 L 398,399 L 399,398 L 400,398 L 400,397 L 400,398 L 400,397 L 401,397 L 401,396 L 402,396 L 402,395 L 404,393 L 405,393 L 406,393 L 406,392 L 407,392 L 407,393 L 408,392 L 409,390 L 410,390 L 410,389 L 410,388 L 411,387 L 412,386 L 413,385 L 413,384 L 414,384 L 415,384 L 416,384 L 416,383 L 417,382 L 417,381 L 417,380 L 417,379 L 418,377 L 418,375 L 417,372 L 417,371 L 416,369 L 416,368 L 416,367 L 416,366 L 416,365 L 417,364 L 417,363 L 417,362 L 418,361 L 418,360 L 418,359 L 418,358 L 419,359 L 421,359 L 422,360 L 423,360 L 424,360 L 426,361 L 428,362 L 429,362 L 429,363 L 431,364 L 432,365 L 432,366 L 432,367 L 433,369 L 434,370 L 434,371 L 434,372 L 435,373 L 435,374 L 436,375 L 437,376 L 437,377 L 438,378 L 439,378 L 439,379 L 440,379 L 440,380 L 441,380 L 442,381 L 443,381 L 444,382 L 446,382 L 447,382 L 447,383 L 448,383 L 448,385 L 449,386 L 450,386 L 450,387 L 451,387 L 452,388 L 453,389 L 454,390 L 455,391 L 455,392 L 456,393 L 456,395 L 458,396 L 457,396 L 458,396 L 458,397 L 459,397 L 459,398 L 460,398 L 460,399 L 461,399 L 461,400 L 462,400 L 462,401 L 463,401 L 464,402 L 465,403 L 465,404 L 466,405 L 466,406 L 467,406 L 467,407 L 468,408 L 469,410 L 470,412 L 471,412 L 470,412 L 471,413 L 472,415 L 473,416 L 473,417 L 474,418 L 475,420 L 475,421 L 476,421 L 476,422 L 477,422 L 477,423 L 478,424 L 479,425 L 479,427 L 480,428 L 480,429 L 481,430 L 481,431 L 481,432 L 482,434 L 482,435 L 482,436 L 482,437 L 483,437 L 483,438 L 483,439 L 484,440 L 484,441 L 484,442 L 485,442 L 485,443 L 487,444 L 488,444 L 489,445 L 490,445 L 491,445 L 492,445 L 493,445 L 493,446 L 494,446 L 495,446 L 496,446 L 497,447 L 498,447 L 499,448 L 499,449 L 500,449 L 500,450 L 500,451 L 500,452 L 500,453 L 500,454 L 501,454 L 502,456 L 502,457 L 503,457 L 503,458 L 504,458 L 504,459 L 504,460 L 505,460 L 505,461 L 505,462 L 506,462 L 506,463 L 507,464 L 508,464 L 508,465 L 509,465 L 509,466 L 510,466 L 511,467 " />
</g>
<g id="25030" >
<path d="M 356,495 L 357,495 L 357,496 L 356,497 L 356,498 L 356,499 L 356,500 L 356,501 L 355,501 L 355,502 L 354,502 L 352,502 L 352,503 L 351,504 L 352,505 L 352,506 L 353,507 L 353,508 L 355,509 L 355,510 L 355,511 L 355,512 L 356,513 L 356,514 L 356,515 L 357,515 L 357,517 L 358,517 L 359,517 L 359,518 L 359,520 L 358,521 L 359,523 L 358,524 L 360,525 L 360,527 L 361,528 L 361,529 L 361,531 L 360,531 L 360,532 L 360,533 L 360,534 L 359,535 L 359,536 L 359,538 L 358,538 L 357,539 L 356,539 L 355,539 L 354,539 L 353,540 L 352,540 L 350,541 L 349,541 L 348,540 L 347,540 L 346,540 L 345,539 L 344,539 L 343,540 L 343,541 L 343,543 L 342,543 L 342,544 L 341,545 L 341,546 L 341,547 L 341,548 L 340,548 L 340,549 L 340,550 L 339,551 L 338,552 L 337,555 L 338,556 L 338,557 L 338,558 L 338,559 L 338,560 L 337,561 L 338,562 L 338,564 L 339,564 L 339,565 L 339,566 L 339,567 L 339,568 L 338,568 L 339,569 L 338,570 L 338,571 L 338,572 L 337,572 L 337,573 L 337,574 L 337,575 L 338,575 L 339,575 L 340,576 L 341,578 L 342,578 L 343,578 L 343,579 L 344,579 L 345,580 L 344,581 L 344,582 L 345,584 L 345,586 L 345,587 L 346,589 L 345,591 L 346,592 L 345,593 L 346,594 L 346,595 L 346,596 L 347,598 L 345,600 L 344,602 L 345,603 L 345,604 L 344,605 L 343,605 L 343,606 L 344,609 L 343,609 L 343,610 L 342,612 L 343,613 L 342,614 L 341,614 L 341,615 L 341,616 L 339,617 L 339,618 L 339,619 L 340,618 L 341,619 L 342,620 L 342,621 L 344,623 L 343,624 L 342,625 L 342,626 L 341,628 L 341,630 L 341,631 L 342,632 L 340,634 L 339,634 L 339,635 L 338,636 L 338,637 L 338,638 L 338,639 L 340,640 L 340,641 L 341,641 L 342,642 L 343,643 L 343,644 L 344,645 L 345,647 L 346,651 L 346,652 L 345,652 L 345,654 L 344,654 L 343,654 L 341,654 L 340,655 L 339,655 L 338,655 L 338,657 L 337,659 L 337,661 L 337,663 L 336,665 L 335,665 L 334,666 L 332,667 L 332,668 L 331,669 L 329,667 L 328,667 L 328,668 L 327,669 L 326,669 L 324,670 L 325,671 L 324,672 L 322,674 L 322,675 L 321,675 L 319,677 L 318,678 L 318,679 L 317,680 L 317,681 L 316,682 L 315,684 L 314,686 L 313,687 L 313,689 L 313,691 L 314,692 L 315,694 L 314,695 L 314,696 L 315,697 L 315,700 L 314,702 L 311,703 L 310,704 L 308,704 L 308,706 L 308,707 L 308,709 L 306,710 L 304,711 L 305,712 L 304,713 L 304,714 L 303,716 L 303,718 L 303,719 L 303,720 L 302,721 L 301,721 L 300,721 L 299,721 L 297,721 L 297,723 L 297,724 L 297,725 L 297,726 L 297,727 L 296,729 L 295,730 L 294,731 L 293,732 L 292,734 L 291,734 L 290,734 L 290,735 L 289,734 L 288,734 L 287,734 L 286,733 L 285,732 L 286,732 L 286,731 L 286,729 L 286,728 L 286,727 L 286,724 L 285,722 L 285,719 L 284,719 L 284,718 L 285,716 L 285,715 L 285,713 L 285,712 L 284,711 L 283,711 L 282,710 L 282,709 L 284,708 L 284,707 L 284,706 L 285,705 L 286,705 L 286,703 L 286,702 L 286,701 L 286,700 L 285,699 L 286,699 L 287,698 L 289,697 L 289,696 L 289,695 L 287,694 L 286,693 L 285,693 L 284,693 L 283,693 L 282,692 L 282,691 L 281,690 L 280,689 L 279,687 L 277,688 L 275,688 L 274,688 L 273,689 L 272,689 L 271,689 L 270,688 L 269,688 L 269,687 L 269,685 L 270,685 L 270,684 L 270,683 L 269,682 L 268,681 L 268,680 L 267,678 L 267,677 L 266,676 L 266,674 L 266,673 L 266,672 L 266,671 L 265,670 L 265,669 L 267,667 L 267,666 L 266,664 L 264,663 L 264,662 L 263,661 L 262,661 L 261,661 L 260,660 L 260,658 L 258,656 L 258,655 L 258,654 L 258,653 L 257,652 L 257,651 L 256,650 L 256,649 L 255,648 L 254,648 L 254,647 L 254,646 L 253,646 L 252,646 L 252,645 L 251,644 L 250,645 L 248,644 L 246,642 L 245,641 L 244,640 L 243,640 L 242,640 L 242,639 L 241,639 L 240,637 L 239,637 L 238,636 L 238,635 L 238,634 L 237,632 L 236,631 L 235,631 L 234,630 L 235,629 L 234,629 L 234,630 L 233,631 L 233,632 L 233,633 L 233,634 L 233,635 L 233,636 L 233,637 L 233,639 L 233,640 L 234,640 L 234,641 L 234,642 L 234,644 L 233,645 L 233,646 L 232,647 L 231,647 L 230,648 L 229,648 L 228,648 L 227,648 L 226,648 L 225,648 L 224,648 L 222,648 L 222,647 L 221,646 L 220,646 L 219,645 L 218,645 L 218,644 L 217,644 L 216,644 L 216,643 L 216,642 L 215,642 L 215,641 L 215,640 L 215,639 L 214,638 L 214,637 L 213,637 L 213,636 L 212,636 L 212,635 L 213,635 L 214,634 L 214,633 L 215,633 L 215,632 L 214,632 L 214,631 L 215,631 L 214,630 L 214,629 L 213,629 L 213,628 L 212,628 L 211,628 L 211,627 L 210,627 L 209,626 L 208,626 L 208,625 L 207,624 L 207,623 L 207,622 L 206,622 L 206,621 L 205,620 L 205,619 L 204,619 L 204,618 L 203,618 L 202,618 L 201,618 L 201,617 L 200,617 L 199,617 L 198,617 L 197,617 L 197,616 L 196,616 L 196,615 L 195,615 L 194,615 L 195,614 L 196,614 L 196,613 L 197,613 L 196,612 L 196,611 L 197,611 L 196,610 L 196,608 L 195,607 L 195,606 L 195,604 L 194,602 L 195,601 L 194,600 L 192,599 L 192,598 L 192,597 L 191,596 L 192,595 L 193,594 L 193,593 L 193,592 L 193,591 L 192,591 L 192,590 L 191,590 L 191,589 L 191,588 L 192,587 L 193,586 L 193,585 L 192,585 L 191,584 L 191,583 L 191,582 L 191,581 L 191,580 L 190,579 L 190,578 L 190,577 L 189,577 L 189,576 L 190,576 L 191,575 L 192,575 L 192,574 L 193,573 L 194,572 L 195,571 L 195,570 L 196,568 L 196,569 L 196,568 L 195,567 L 195,566 L 195,565 L 195,564 L 196,564 L 196,563 L 197,563 L 198,562 L 199,561 L 200,561 L 201,561 L 201,560 L 202,560 L 203,559 L 204,558 L 205,558 L 205,557 L 206,557 L 207,556 L 208,556 L 209,556 L 209,555 L 210,554 L 211,554 L 212,553 L 213,552 L 213,551 L 214,551 L 215,551 L 215,550 L 216,549 L 217,548 L 220,544 L 222,544 L 223,542 L 224,541 L 226,539 L 227,539 L 228,538 L 229,537 L 230,537 L 231,537 L 232,537 L 233,536 L 235,535 L 236,535 L 237,535 L 238,534 L 240,533 L 242,532 L 243,533 L 244,533 L 247,532 L 246,531 L 246,530 L 246,529 L 246,527 L 246,526 L 245,526 L 244,525 L 244,524 L 243,523 L 243,522 L 244,521 L 245,521 L 246,521 L 246,520 L 247,520 L 246,518 L 247,516 L 247,514 L 248,513 L 248,511 L 248,510 L 250,510 L 253,510 L 253,508 L 253,506 L 254,503 L 254,502 L 256,502 L 257,502 L 257,503 L 257,502 L 258,502 L 259,502 L 260,502 L 261,501 L 262,500 L 263,500 L 263,499 L 263,498 L 264,497 L 264,496 L 264,495 L 264,494 L 264,493 L 264,492 L 264,491 L 264,490 L 264,489 L 264,488 L 265,488 L 265,487 L 265,486 L 265,485 L 265,484 L 266,484 L 266,483 L 266,482 L 267,480 L 268,478 L 268,477 L 269,476 L 270,474 L 271,474 L 271,473 L 271,472 L 272,472 L 272,471 L 273,471 L 274,471 L 276,470 L 277,469 L 278,469 L 279,469 L 279,468 L 280,468 L 281,468 L 281,467 L 282,467 L 283,467 L 284,467 L 285,467 L 286,467 L 287,467 L 287,466 L 287,465 L 287,462 L 287,461 L 287,460 L 287,459 L 287,458 L 287,456 L 287,455 L 287,454 L 287,453 L 287,452 L 288,452 L 288,451 L 289,450 L 289,449 L 290,448 L 291,448 L 291,447 L 292,447 L 292,446 L 293,446 L 293,445 L 293,444 L 294,444 L 294,443 L 295,443 L 295,442 L 296,442 L 296,441 L 296,440 L 297,440 L 299,440 L 299,439 L 300,438 L 301,438 L 301,437 L 300,435 L 300,434 L 300,433 L 300,432 L 301,430 L 298,430 L 297,430 L 297,428 L 296,427 L 297,427 L 296,423 L 296,422 L 295,421 L 295,420 L 295,419 L 295,418 L 295,417 L 295,416 L 296,415 L 296,414 L 296,413 L 296,412 L 296,410 L 294,409 L 294,408 L 294,407 L 294,406 L 294,405 L 294,404 L 294,403 L 294,402 L 296,402 L 298,402 L 298,400 L 298,399 L 298,398 L 298,397 L 299,397 L 300,397 L 301,397 L 302,397 L 303,397 L 307,397 L 308,397 L 309,397 L 310,397 L 312,397 L 314,397 L 315,397 L 316,397 L 317,397 L 318,397 L 319,397 L 320,397 L 321,397 L 322,397 L 323,397 L 324,397 L 325,398 L 326,398 L 326,397 L 327,395 L 327,394 L 328,393 L 328,392 L 328,391 L 327,390 L 327,389 L 327,388 L 326,387 L 326,386 L 326,385 L 326,384 L 325,382 L 324,380 L 324,379 L 324,378 L 324,377 L 323,375 L 323,374 L 323,372 L 323,371 L 323,370 L 322,369 L 321,368 L 321,367 L 321,366 L 321,365 L 320,364 L 319,364 L 319,362 L 318,361 L 318,359 L 318,358 L 318,357 L 318,355 L 318,354 L 319,354 L 319,352 L 320,351 L 320,350 L 321,349 L 323,348 L 324,347 L 325,347 L 326,347 L 327,347 L 329,345 L 330,345 L 334,341 L 334,340 L 335,339 L 335,338 L 335,337 L 336,336 L 337,335 L 337,334 L 338,333 L 339,332 L 340,331 L 340,330 L 341,329 L 342,328 L 343,327 L 344,327 L 345,326 L 346,326 L 347,326 L 348,325 L 349,325 L 350,324 L 351,323 L 352,322 L 352,321 L 353,320 L 354,319 L 354,318 L 354,317 L 355,316 L 356,315 L 356,314 L 357,314 L 358,313 L 359,313 L 360,313 L 360,312 L 361,312 L 362,311 L 363,311 L 363,310 L 364,309 L 365,309 L 366,308 L 367,308 L 368,308 L 369,308 L 370,307 L 371,307 L 372,307 L 373,307 L 374,307 L 374,308 L 375,309 L 377,309 L 378,309 L 380,309 L 381,309 L 382,309 L 384,309 L 385,309 L 386,309 L 387,309 L 388,309 L 389,309 L 390,309 L 391,309 L 392,309 L 393,309 L 394,309 L 395,309 L 396,309 L 396,308 L 397,308 L 397,309 L 398,309 L 399,310 L 399,311 L 401,313 L 402,314 L 403,315 L 404,316 L 405,318 L 405,319 L 406,320 L 406,321 L 406,322 L 406,324 L 407,325 L 408,327 L 408,328 L 410,329 L 411,330 L 411,331 L 412,331 L 413,332 L 414,334 L 414,335 L 414,336 L 415,336 L 415,338 L 415,339 L 416,340 L 416,341 L 416,342 L 417,342 L 417,343 L 417,344 L 418,346 L 418,347 L 418,348 L 419,350 L 419,351 L 419,352 L 419,354 L 418,356 L 418,358 L 418,359 L 418,360 L 418,361 L 417,362 L 417,363 L 417,364 L 416,365 L 416,366 L 416,367 L 416,368 L 416,369 L 417,371 L 417,372 L 418,375 L 418,377 L 417,379 L 417,380 L 417,381 L 417,382 L 416,383 L 416,384 L 415,384 L 414,384 L 413,384 L 413,385 L 412,386 L 411,387 L 410,388 L 410,389 L 410,390 L 409,390 L 408,392 L 407,393 L 407,392 L 406,392 L 406,393 L 405,393 L 404,393 L 402,395 L 402,396 L 401,396 L 401,397 L 400,397 L 400,398 L 400,397 L 400,398 L 399,398 L 398,399 L 397,400 L 397,401 L 397,402 L 396,402 L 396,403 L 394,404 L 393,404 L 393,405 L 392,405 L 392,406 L 391,406 L 391,407 L 390,408 L 390,409 L 390,410 L 389,411 L 389,412 L 389,413 L 390,415 L 390,416 L 389,417 L 389,418 L 389,419 L 388,419 L 387,419 L 386,419 L 385,419 L 384,420 L 384,421 L 384,422 L 384,423 L 384,424 L 383,425 L 383,426 L 382,427 L 382,428 L 382,429 L 382,430 L 382,431 L 382,432 L 382,433 L 383,435 L 383,436 L 384,438 L 385,439 L 386,439 L 386,440 L 387,440 L 387,441 L 387,442 L 387,443 L 387,444 L 387,445 L 386,446 L 385,447 L 385,448 L 384,448 L 383,449 L 383,450 L 382,450 L 383,450 L 382,451 L 381,452 L 381,453 L 380,453 L 380,454 L 379,455 L 378,455 L 378,456 L 377,456 L 377,457 L 376,458 L 375,458 L 375,459 L 375,460 L 375,462 L 376,463 L 376,464 L 377,465 L 376,465 L 377,465 L 377,466 L 378,467 L 378,468 L 378,469 L 378,468 L 378,469 L 378,470 L 378,469 L 378,470 L 378,471 L 378,472 L 378,473 L 378,474 L 378,475 L 378,476 L 377,478 L 376,478 L 376,479 L 375,481 L 374,482 L 374,483 L 373,484 L 372,484 L 371,484 L 371,486 L 370,486 L 368,485 L 367,486 L 365,486 L 362,486 L 362,485 L 362,486 L 361,489 L 361,490 L 359,490 L 358,491 L 357,492 L 356,493 L 356,494 L 356,495 " />
</g>
<g id="25040" >
<path d="M 326,398 L 325,398 L 324,397 L 323,397 L 322,397 L 321,397 L 320,397 L 319,397 L 318,397 L 317,397 L 316,397 L 315,397 L 314,397 L 312,397 L 310,397 L 309,397 L 308,397 L 307,397 L 303,397 L 302,397 L 301,397 L 300,397 L 299,397 L 298,397 L 298,398 L 298,399 L 298,400 L 298,402 L 296,402 L 294,402 L 294,403 L 294,404 L 294,405 L 294,406 L 294,407 L 294,408 L 294,409 L 296,410 L 296,412 L 296,413 L 296,414 L 296,415 L 295,416 L 295,417 L 295,418 L 295,419 L 295,420 L 295,421 L 296,422 L 296,423 L 297,427 L 296,427 L 297,428 L 297,430 L 298,430 L 301,430 L 300,432 L 300,433 L 300,434 L 300,435 L 301,437 L 301,438 L 300,438 L 299,439 L 299,440 L 297,440 L 296,440 L 296,441 L 296,442 L 295,442 L 295,443 L 294,443 L 294,444 L 293,444 L 293,445 L 293,446 L 292,446 L 292,447 L 291,447 L 291,448 L 290,448 L 289,449 L 289,450 L 288,451 L 288,452 L 287,452 L 287,453 L 287,454 L 287,455 L 287,456 L 287,458 L 287,459 L 287,460 L 287,461 L 287,462 L 287,465 L 287,466 L 287,467 L 286,467 L 285,467 L 284,467 L 283,467 L 282,467 L 281,467 L 281,468 L 280,468 L 279,468 L 279,469 L 278,469 L 277,469 L 276,470 L 274,471 L 273,471 L 272,471 L 272,472 L 271,472 L 271,473 L 271,474 L 270,474 L 269,476 L 268,477 L 268,478 L 267,480 L 266,482 L 266,483 L 266,484 L 265,484 L 265,485 L 265,486 L 265,487 L 265,488 L 264,488 L 264,489 L 264,490 L 264,491 L 264,492 L 264,493 L 264,494 L 264,495 L 264,496 L 264,497 L 263,498 L 263,499 L 263,500 L 262,500 L 261,501 L 260,502 L 259,502 L 258,502 L 257,502 L 257,503 L 257,502 L 256,502 L 254,502 L 254,503 L 253,506 L 253,508 L 253,510 L 250,510 L 248,510 L 248,511 L 248,513 L 247,514 L 247,516 L 246,518 L 247,520 L 246,520 L 246,521 L 245,521 L 244,521 L 243,522 L 243,523 L 244,524 L 244,525 L 245,526 L 246,526 L 246,527 L 246,529 L 246,530 L 246,531 L 247,532 L 244,533 L 243,533 L 242,532 L 240,533 L 238,534 L 237,535 L 236,535 L 235,535 L 233,536 L 232,537 L 231,537 L 230,537 L 229,537 L 228,538 L 227,539 L 226,539 L 224,541 L 223,542 L 222,544 L 220,544 L 217,548 L 216,549 L 215,550 L 215,551 L 214,551 L 213,551 L 212,550 L 212,549 L 211,549 L 211,548 L 210,548 L 210,547 L 209,547 L 208,547 L 206,548 L 205,548 L 204,549 L 203,549 L 202,550 L 201,550 L 200,550 L 199,550 L 198,550 L 197,550 L 196,550 L 196,549 L 195,549 L 193,549 L 193,548 L 192,548 L 191,548 L 190,547 L 190,546 L 189,545 L 188,544 L 187,544 L 185,543 L 184,543 L 183,542 L 182,541 L 181,541 L 180,540 L 179,539 L 177,538 L 176,538 L 176,537 L 175,537 L 174,536 L 173,536 L 172,535 L 171,535 L 171,534 L 170,534 L 170,533 L 169,533 L 169,532 L 168,531 L 167,531 L 167,530 L 166,530 L 166,529 L 165,529 L 164,528 L 163,527 L 162,527 L 161,527 L 160,526 L 159,526 L 158,525 L 156,525 L 154,525 L 153,524 L 152,524 L 151,523 L 150,523 L 150,522 L 149,521 L 148,520 L 148,519 L 147,518 L 146,517 L 145,516 L 145,515 L 144,515 L 144,514 L 144,513 L 144,512 L 143,512 L 143,511 L 143,510 L 142,509 L 141,508 L 140,508 L 140,507 L 139,506 L 138,506 L 138,505 L 138,504 L 138,503 L 137,503 L 137,502 L 136,501 L 136,500 L 135,500 L 134,499 L 133,498 L 133,497 L 133,496 L 133,495 L 133,494 L 132,493 L 131,491 L 130,491 L 130,490 L 131,489 L 132,489 L 132,488 L 132,486 L 134,486 L 135,486 L 136,485 L 136,484 L 137,483 L 138,481 L 138,480 L 139,479 L 142,478 L 144,477 L 144,478 L 145,478 L 150,480 L 151,480 L 152,480 L 154,480 L 153,478 L 153,476 L 153,475 L 154,472 L 154,469 L 155,467 L 156,466 L 156,465 L 154,464 L 154,463 L 152,462 L 152,461 L 152,459 L 152,458 L 152,455 L 152,453 L 152,451 L 151,451 L 152,450 L 152,449 L 151,447 L 152,444 L 152,443 L 152,442 L 152,441 L 152,440 L 152,439 L 151,439 L 151,437 L 151,436 L 152,434 L 152,433 L 152,430 L 153,427 L 154,426 L 155,426 L 155,424 L 156,421 L 156,419 L 156,418 L 156,416 L 156,414 L 155,413 L 154,412 L 155,411 L 154,409 L 154,408 L 156,409 L 157,408 L 158,408 L 160,408 L 162,408 L 163,406 L 164,407 L 166,406 L 166,405 L 166,404 L 166,403 L 167,402 L 168,401 L 169,399 L 170,399 L 169,397 L 167,394 L 167,392 L 166,390 L 165,389 L 165,387 L 165,386 L 165,384 L 166,382 L 168,381 L 169,380 L 171,377 L 174,376 L 175,375 L 176,374 L 177,373 L 179,370 L 183,371 L 185,370 L 189,369 L 190,369 L 189,368 L 188,367 L 188,366 L 187,365 L 187,363 L 187,360 L 188,360 L 187,359 L 187,358 L 187,357 L 186,357 L 185,355 L 185,354 L 184,354 L 183,353 L 182,352 L 181,350 L 180,350 L 179,349 L 178,348 L 177,348 L 178,346 L 178,345 L 177,344 L 177,343 L 176,342 L 175,340 L 175,338 L 175,337 L 175,335 L 175,333 L 174,332 L 175,331 L 176,331 L 177,331 L 177,330 L 178,331 L 179,333 L 179,332 L 178,332 L 178,331 L 177,330 L 177,329 L 177,328 L 179,328 L 180,327 L 181,326 L 184,325 L 184,324 L 185,324 L 186,324 L 186,323 L 187,323 L 187,322 L 187,321 L 187,320 L 186,318 L 186,315 L 187,315 L 188,314 L 189,314 L 190,313 L 190,312 L 190,311 L 190,310 L 190,309 L 191,307 L 192,305 L 192,304 L 193,302 L 193,301 L 193,299 L 193,298 L 193,297 L 193,296 L 192,295 L 192,292 L 192,291 L 191,291 L 190,291 L 190,290 L 189,289 L 189,288 L 190,284 L 189,284 L 189,283 L 189,281 L 190,281 L 190,279 L 189,278 L 189,277 L 188,275 L 188,274 L 187,273 L 189,271 L 189,270 L 189,268 L 190,267 L 190,266 L 190,264 L 190,263 L 190,262 L 190,261 L 190,260 L 190,259 L 189,258 L 190,256 L 189,255 L 189,254 L 189,253 L 189,252 L 189,251 L 189,250 L 189,249 L 190,248 L 189,248 L 189,247 L 190,245 L 190,244 L 191,244 L 191,243 L 191,242 L 191,241 L 192,240 L 192,239 L 192,238 L 193,237 L 193,236 L 193,235 L 193,234 L 194,233 L 193,233 L 193,231 L 193,230 L 193,228 L 194,227 L 194,226 L 194,225 L 195,223 L 195,222 L 195,221 L 194,221 L 194,220 L 195,219 L 196,218 L 196,217 L 196,216 L 196,214 L 195,212 L 196,211 L 197,210 L 198,210 L 199,210 L 200,210 L 200,209 L 201,209 L 202,210 L 204,209 L 205,209 L 208,208 L 209,208 L 209,207 L 211,207 L 212,207 L 212,202 L 213,201 L 214,201 L 215,202 L 216,202 L 217,202 L 217,201 L 218,201 L 219,200 L 220,199 L 219,199 L 220,199 L 219,198 L 219,197 L 219,196 L 218,196 L 218,195 L 218,194 L 220,193 L 221,192 L 222,191 L 223,192 L 225,192 L 226,192 L 227,192 L 228,193 L 230,194 L 231,194 L 232,193 L 232,192 L 232,191 L 233,190 L 233,189 L 234,189 L 235,188 L 236,188 L 238,188 L 239,188 L 240,188 L 241,188 L 242,188 L 244,189 L 246,188 L 247,188 L 248,188 L 250,189 L 250,190 L 252,192 L 253,192 L 254,192 L 255,193 L 256,193 L 256,194 L 257,195 L 258,195 L 258,196 L 258,198 L 259,198 L 260,197 L 261,197 L 263,195 L 264,193 L 265,192 L 266,191 L 268,190 L 268,191 L 271,193 L 272,193 L 273,193 L 274,193 L 275,193 L 276,194 L 277,194 L 278,193 L 280,192 L 282,191 L 283,190 L 284,190 L 284,189 L 285,188 L 286,188 L 286,187 L 287,186 L 288,184 L 290,183 L 291,183 L 292,183 L 292,182 L 293,182 L 293,181 L 294,181 L 295,181 L 295,180 L 296,180 L 297,180 L 298,179 L 298,178 L 299,178 L 300,177 L 300,176 L 301,176 L 302,176 L 302,175 L 303,175 L 303,174 L 303,173 L 303,172 L 303,171 L 303,170 L 302,169 L 302,168 L 302,167 L 303,166 L 302,164 L 302,163 L 302,162 L 303,161 L 303,160 L 304,160 L 304,159 L 304,158 L 305,158 L 306,158 L 307,157 L 307,156 L 307,155 L 307,154 L 307,153 L 308,152 L 308,151 L 308,150 L 309,150 L 309,149 L 309,148 L 309,146 L 310,146 L 310,145 L 310,144 L 311,143 L 312,143 L 313,142 L 313,141 L 314,140 L 315,139 L 316,139 L 317,139 L 318,138 L 318,137 L 319,136 L 320,136 L 321,136 L 322,136 L 323,136 L 325,136 L 326,136 L 326,135 L 327,134 L 327,133 L 328,133 L 328,132 L 329,131 L 330,131 L 330,130 L 331,130 L 331,129 L 331,128 L 331,127 L 331,126 L 331,125 L 331,124 L 331,123 L 331,122 L 331,121 L 332,121 L 333,121 L 334,121 L 334,120 L 334,119 L 335,119 L 336,118 L 335,117 L 335,116 L 334,115 L 334,114 L 334,113 L 333,112 L 332,111 L 332,110 L 332,109 L 333,108 L 333,107 L 334,105 L 333,104 L 333,103 L 332,102 L 332,100 L 331,99 L 332,98 L 333,99 L 334,98 L 334,97 L 335,97 L 336,97 L 336,96 L 337,96 L 337,95 L 337,94 L 337,93 L 337,92 L 336,91 L 337,91 L 338,90 L 338,89 L 338,88 L 338,87 L 338,86 L 339,86 L 339,85 L 340,85 L 341,84 L 342,84 L 342,83 L 342,82 L 342,81 L 343,81 L 343,80 L 343,79 L 343,78 L 344,77 L 345,77 L 345,76 L 345,75 L 345,74 L 345,73 L 344,73 L 344,72 L 343,72 L 342,72 L 342,71 L 342,70 L 341,70 L 341,69 L 341,68 L 340,68 L 340,67 L 339,66 L 339,65 L 339,64 L 340,63 L 340,62 L 339,61 L 339,60 L 339,59 L 338,59 L 337,59 L 337,58 L 336,58 L 336,57 L 335,57 L 334,57 L 334,56 L 334,55 L 334,54 L 335,54 L 335,52 L 336,51 L 337,49 L 337,48 L 337,47 L 337,45 L 338,44 L 339,42 L 339,41 L 338,40 L 339,40 L 340,39 L 341,39 L 342,40 L 343,40 L 343,41 L 344,41 L 345,41 L 345,42 L 346,42 L 347,42 L 347,43 L 348,43 L 349,43 L 350,43 L 351,44 L 352,44 L 353,44 L 353,45 L 353,44 L 354,44 L 355,44 L 355,43 L 355,42 L 354,41 L 355,41 L 356,41 L 357,40 L 358,40 L 359,40 L 359,39 L 360,39 L 360,38 L 361,38 L 361,37 L 362,37 L 362,36 L 363,36 L 364,35 L 365,34 L 366,33 L 367,32 L 368,31 L 368,30 L 369,30 L 369,29 L 370,29 L 370,28 L 371,27 L 371,26 L 372,25 L 372,24 L 373,23 L 374,22 L 374,21 L 375,20 L 375,19 L 377,19 L 378,18 L 379,18 L 380,18 L 382,17 L 383,18 L 385,19 L 385,20 L 387,21 L 389,23 L 392,25 L 395,28 L 396,29 L 397,30 L 398,31 L 398,32 L 399,32 L 399,33 L 400,33 L 401,34 L 402,35 L 403,35 L 403,36 L 404,36 L 404,37 L 405,37 L 405,38 L 406,38 L 406,39 L 407,40 L 408,41 L 409,43 L 410,44 L 411,44 L 412,45 L 413,47 L 414,48 L 415,49 L 416,50 L 417,51 L 417,53 L 418,57 L 419,61 L 419,64 L 419,66 L 419,69 L 419,71 L 418,73 L 417,75 L 416,77 L 416,79 L 415,80 L 415,81 L 415,82 L 414,85 L 414,87 L 414,89 L 413,92 L 413,93 L 414,94 L 414,95 L 414,96 L 414,97 L 414,98 L 414,99 L 413,100 L 413,101 L 414,101 L 414,102 L 412,102 L 411,102 L 410,102 L 410,103 L 410,104 L 411,104 L 411,105 L 411,106 L 411,107 L 411,108 L 411,109 L 411,110 L 411,111 L 411,112 L 411,113 L 411,114 L 413,114 L 414,116 L 415,117 L 414,119 L 413,120 L 412,121 L 411,122 L 410,123 L 409,125 L 408,126 L 407,126 L 406,129 L 405,129 L 404,129 L 403,129 L 402,129 L 401,129 L 401,130 L 400,130 L 399,130 L 398,132 L 397,133 L 396,133 L 396,134 L 396,135 L 395,137 L 395,138 L 394,138 L 394,139 L 393,140 L 393,141 L 392,142 L 392,143 L 392,144 L 392,145 L 392,146 L 392,147 L 392,148 L 392,149 L 392,150 L 393,151 L 393,152 L 393,153 L 394,154 L 394,155 L 395,155 L 395,156 L 395,157 L 396,157 L 397,158 L 398,158 L 399,159 L 400,159 L 401,159 L 402,161 L 402,162 L 403,163 L 405,166 L 406,166 L 406,167 L 409,170 L 411,172 L 412,173 L 414,174 L 414,175 L 417,177 L 420,179 L 422,181 L 423,182 L 424,182 L 424,183 L 425,184 L 426,184 L 428,186 L 429,186 L 430,187 L 431,187 L 433,188 L 434,188 L 435,189 L 435,190 L 436,191 L 438,194 L 439,195 L 439,196 L 440,196 L 440,197 L 441,198 L 441,199 L 442,199 L 442,200 L 443,201 L 443,202 L 444,203 L 444,204 L 445,205 L 445,206 L 445,207 L 446,207 L 446,208 L 447,209 L 447,210 L 447,211 L 448,213 L 448,214 L 448,215 L 448,216 L 448,217 L 447,218 L 447,219 L 446,221 L 445,222 L 445,223 L 443,226 L 443,227 L 443,228 L 442,229 L 442,230 L 441,230 L 440,231 L 439,232 L 438,233 L 438,234 L 437,235 L 436,237 L 436,238 L 436,240 L 436,241 L 436,245 L 435,247 L 435,248 L 435,249 L 434,250 L 433,252 L 433,253 L 432,254 L 432,255 L 432,256 L 432,259 L 432,260 L 432,261 L 432,262 L 431,264 L 431,265 L 431,266 L 432,267 L 432,268 L 432,269 L 432,270 L 432,271 L 432,272 L 432,273 L 433,273 L 433,274 L 433,275 L 433,276 L 433,277 L 433,281 L 433,282 L 433,284 L 433,285 L 432,287 L 431,289 L 431,290 L 429,292 L 429,293 L 428,293 L 427,294 L 427,295 L 426,295 L 425,296 L 424,296 L 423,297 L 421,297 L 420,298 L 419,298 L 418,298 L 417,298 L 416,298 L 415,298 L 414,299 L 413,299 L 412,300 L 413,301 L 411,301 L 411,302 L 407,303 L 406,303 L 404,304 L 403,304 L 402,304 L 400,304 L 398,305 L 398,306 L 398,307 L 398,308 L 398,309 L 397,309 L 397,308 L 396,308 L 396,309 L 395,309 L 394,309 L 393,309 L 392,309 L 391,309 L 390,309 L 389,309 L 388,309 L 387,309 L 386,309 L 385,309 L 384,309 L 382,309 L 381,309 L 380,309 L 378,309 L 377,309 L 375,309 L 374,308 L 374,307 L 373,307 L 372,307 L 371,307 L 370,307 L 369,308 L 368,308 L 367,308 L 366,308 L 365,309 L 364,309 L 363,310 L 363,311 L 362,311 L 361,312 L 360,312 L 360,313 L 359,313 L 358,313 L 357,314 L 356,314 L 356,315 L 355,316 L 354,317 L 354,318 L 354,319 L 353,320 L 352,321 L 352,322 L 351,323 L 350,324 L 349,325 L 348,325 L 347,326 L 346,326 L 345,326 L 344,327 L 343,327 L 342,328 L 341,329 L 340,330 L 340,331 L 339,332 L 338,333 L 337,334 L 337,335 L 336,336 L 335,337 L 335,339 L 334,340 L 334,341 L 330,345 L 329,345 L 327,347 L 326,347 L 325,347 L 324,347 L 323,348 L 321,349 L 320,350 L 320,351 L 319,352 L 319,354 L 318,354 L 318,355 L 318,357 L 318,358 L 318,359 L 318,361 L 319,362 L 319,364 L 320,364 L 321,365 L 321,366 L 321,367 L 321,368 L 322,369 L 323,370 L 323,371 L 323,372 L 323,374 L 323,375 L 324,377 L 324,378 L 324,379 L 324,380 L 325,382 L 326,384 L 326,385 L 326,386 L 326,387 L 327,388 L 327,389 L 327,390 L 328,391 L 328,392 L 328,393 L 327,394 L 327,395 L 326,397 L 326,398 " />
</g>
<g id="25050" >
<path d="M 560,70 L 565,71 L 565,72 L 565,73 L 565,74 L 566,75 L 566,76 L 565,77 L 565,78 L 564,82 L 564,83 L 564,85 L 563,86 L 563,87 L 563,88 L 562,89 L 562,90 L 561,91 L 561,92 L 561,93 L 560,93 L 560,94 L 560,95 L 559,96 L 559,97 L 558,97 L 558,98 L 557,99 L 556,100 L 556,101 L 556,102 L 555,102 L 555,103 L 555,104 L 554,105 L 554,106 L 553,106 L 553,107 L 553,108 L 553,109 L 553,110 L 553,111 L 553,112 L 553,113 L 554,114 L 554,115 L 555,116 L 556,117 L 556,118 L 557,118 L 558,119 L 559,121 L 560,121 L 561,122 L 563,123 L 566,125 L 567,125 L 568,125 L 569,125 L 570,125 L 572,125 L 574,124 L 577,124 L 579,124 L 579,123 L 582,122 L 583,122 L 584,121 L 585,121 L 587,120 L 588,120 L 589,120 L 589,119 L 590,119 L 591,119 L 592,118 L 593,118 L 595,117 L 598,118 L 599,119 L 600,121 L 600,122 L 601,123 L 602,127 L 601,131 L 600,132 L 600,133 L 599,134 L 598,134 L 598,135 L 596,136 L 596,137 L 595,138 L 594,139 L 593,139 L 593,140 L 591,141 L 590,142 L 589,143 L 588,143 L 588,144 L 587,145 L 587,146 L 585,148 L 584,148 L 583,149 L 583,150 L 582,150 L 582,151 L 582,152 L 581,153 L 581,154 L 580,154 L 580,155 L 578,154 L 577,154 L 576,155 L 575,156 L 574,156 L 574,157 L 573,156 L 571,157 L 571,158 L 570,159 L 570,160 L 569,160 L 569,161 L 568,162 L 568,163 L 567,164 L 566,166 L 565,167 L 564,168 L 563,170 L 562,171 L 562,172 L 561,172 L 561,174 L 560,174 L 560,175 L 560,176 L 559,177 L 559,178 L 559,179 L 559,180 L 559,181 L 559,182 L 559,183 L 558,183 L 558,184 L 557,185 L 556,186 L 557,187 L 556,187 L 555,188 L 555,189 L 555,190 L 554,190 L 554,191 L 554,192 L 553,193 L 553,194 L 553,195 L 552,195 L 551,197 L 551,198 L 550,200 L 550,201 L 549,201 L 548,200 L 547,200 L 546,200 L 545,200 L 545,201 L 546,202 L 547,204 L 547,205 L 546,205 L 546,206 L 546,207 L 545,207 L 544,208 L 544,209 L 544,210 L 543,211 L 542,212 L 541,213 L 540,216 L 539,217 L 538,218 L 537,219 L 536,220 L 536,221 L 536,222 L 535,222 L 534,222 L 533,223 L 533,224 L 533,225 L 532,225 L 532,226 L 531,226 L 530,227 L 529,228 L 528,229 L 527,229 L 526,229 L 525,231 L 524,232 L 523,232 L 523,233 L 522,234 L 521,234 L 520,235 L 519,235 L 518,236 L 517,236 L 516,237 L 516,239 L 515,240 L 514,241 L 513,242 L 513,244 L 512,244 L 512,245 L 512,246 L 512,247 L 512,248 L 512,250 L 512,251 L 511,252 L 511,253 L 510,257 L 510,258 L 510,259 L 510,261 L 510,264 L 510,265 L 510,266 L 511,268 L 512,269 L 511,270 L 511,271 L 511,272 L 511,273 L 511,274 L 510,276 L 509,277 L 509,278 L 508,280 L 508,281 L 509,281 L 508,281 L 508,282 L 508,283 L 507,283 L 507,284 L 507,285 L 506,285 L 505,287 L 505,288 L 505,289 L 506,290 L 506,291 L 506,292 L 507,293 L 507,294 L 508,294 L 508,295 L 509,295 L 510,296 L 510,297 L 510,298 L 510,299 L 511,299 L 512,299 L 512,300 L 513,301 L 513,303 L 514,304 L 515,306 L 516,306 L 516,307 L 516,308 L 517,311 L 517,312 L 517,313 L 518,314 L 520,314 L 521,315 L 521,316 L 522,318 L 523,319 L 523,321 L 524,324 L 525,324 L 525,325 L 526,325 L 526,326 L 526,327 L 527,328 L 527,329 L 527,330 L 528,331 L 529,332 L 530,332 L 531,332 L 532,333 L 532,334 L 532,336 L 532,337 L 531,337 L 532,337 L 532,338 L 532,339 L 532,340 L 531,341 L 531,342 L 531,343 L 530,344 L 530,346 L 529,349 L 529,351 L 530,351 L 530,352 L 530,353 L 530,354 L 529,355 L 528,356 L 527,356 L 527,355 L 526,355 L 524,354 L 523,353 L 519,352 L 518,352 L 518,351 L 515,351 L 513,351 L 512,351 L 510,350 L 511,348 L 511,347 L 510,347 L 505,348 L 501,348 L 500,350 L 498,349 L 497,348 L 497,349 L 496,350 L 495,349 L 495,350 L 494,352 L 495,352 L 494,356 L 491,354 L 488,353 L 487,352 L 487,349 L 483,346 L 484,345 L 484,343 L 483,342 L 482,341 L 482,340 L 482,339 L 483,339 L 482,336 L 481,335 L 480,335 L 479,334 L 478,334 L 477,333 L 475,333 L 474,334 L 473,335 L 472,336 L 471,336 L 471,337 L 470,337 L 467,337 L 467,342 L 464,342 L 464,344 L 464,345 L 461,345 L 461,346 L 462,347 L 462,350 L 462,351 L 461,352 L 461,353 L 460,353 L 460,354 L 459,354 L 459,355 L 459,356 L 458,357 L 457,359 L 457,360 L 456,360 L 455,361 L 454,361 L 453,361 L 452,361 L 451,361 L 450,361 L 449,361 L 448,361 L 447,361 L 446,362 L 446,363 L 445,364 L 445,366 L 446,366 L 446,367 L 447,367 L 447,368 L 448,368 L 448,369 L 449,369 L 449,370 L 450,370 L 451,370 L 452,371 L 453,371 L 453,372 L 451,371 L 450,370 L 449,370 L 448,370 L 447,369 L 446,369 L 445,369 L 443,369 L 442,369 L 441,369 L 441,370 L 440,370 L 439,370 L 438,370 L 437,371 L 436,371 L 436,372 L 437,374 L 437,376 L 438,377 L 438,378 L 437,377 L 437,376 L 436,375 L 435,374 L 435,373 L 434,372 L 434,371 L 434,370 L 433,369 L 432,367 L 432,366 L 432,365 L 431,364 L 429,363 L 429,362 L 428,362 L 426,361 L 424,360 L 423,360 L 422,360 L 421,359 L 419,359 L 418,358 L 418,356 L 419,354 L 419,352 L 419,351 L 419,350 L 418,348 L 418,347 L 418,346 L 417,344 L 417,343 L 417,342 L 416,342 L 416,341 L 416,340 L 415,339 L 415,338 L 415,336 L 414,336 L 414,335 L 414,334 L 413,332 L 412,331 L 411,331 L 411,330 L 410,329 L 408,328 L 408,327 L 407,325 L 406,324 L 406,322 L 406,321 L 406,320 L 405,319 L 405,318 L 404,316 L 403,315 L 402,314 L 401,313 L 399,311 L 399,310 L 398,309 L 398,307 L 398,306 L 398,305 L 400,304 L 403,304 L 404,304 L 406,303 L 407,303 L 411,302 L 411,301 L 413,301 L 412,300 L 413,299 L 414,299 L 415,298 L 416,298 L 417,298 L 418,298 L 419,298 L 420,298 L 421,297 L 423,297 L 424,296 L 425,296 L 426,295 L 427,295 L 427,294 L 428,293 L 429,293 L 429,292 L 431,290 L 431,289 L 432,287 L 433,285 L 433,284 L 433,282 L 433,281 L 433,277 L 433,276 L 433,275 L 433,274 L 433,273 L 432,273 L 432,272 L 432,271 L 432,270 L 432,269 L 432,268 L 432,267 L 431,266 L 431,265 L 431,264 L 432,262 L 432,261 L 432,260 L 432,259 L 432,256 L 432,255 L 432,254 L 433,253 L 433,252 L 434,250 L 435,249 L 435,248 L 435,247 L 436,245 L 436,241 L 436,240 L 436,238 L 436,237 L 437,235 L 438,234 L 438,233 L 439,232 L 440,231 L 441,230 L 442,230 L 442,229 L 443,228 L 443,227 L 443,226 L 445,223 L 445,222 L 446,221 L 447,219 L 447,218 L 448,217 L 448,216 L 448,215 L 448,214 L 448,213 L 447,211 L 447,210 L 447,209 L 446,208 L 446,207 L 445,207 L 445,206 L 445,205 L 444,204 L 444,203 L 443,202 L 443,201 L 442,200 L 442,199 L 441,199 L 441,198 L 440,197 L 440,196 L 439,196 L 439,195 L 438,194 L 436,191 L 435,190 L 435,189 L 434,188 L 433,188 L 431,187 L 430,187 L 429,186 L 428,186 L 426,184 L 425,184 L 424,183 L 424,182 L 423,182 L 422,181 L 420,179 L 417,177 L 414,175 L 414,174 L 412,173 L 411,172 L 409,170 L 406,167 L 406,166 L 405,166 L 403,163 L 402,162 L 402,161 L 401,159 L 400,159 L 399,159 L 398,158 L 397,158 L 396,157 L 395,157 L 395,156 L 395,155 L 394,155 L 394,154 L 393,153 L 393,152 L 393,151 L 392,150 L 392,149 L 392,148 L 392,147 L 392,146 L 392,145 L 392,144 L 392,143 L 392,142 L 393,141 L 393,140 L 394,139 L 394,138 L 395,138 L 395,137 L 396,135 L 396,134 L 396,133 L 397,133 L 398,132 L 399,130 L 400,130 L 401,130 L 401,129 L 402,129 L 403,129 L 404,129 L 405,129 L 406,129 L 407,126 L 408,126 L 409,125 L 410,123 L 411,122 L 412,121 L 413,120 L 415,117 L 416,118 L 417,119 L 420,120 L 422,120 L 423,120 L 424,120 L 425,120 L 426,120 L 427,120 L 428,120 L 429,120 L 430,120 L 431,120 L 432,120 L 433,120 L 434,120 L 435,120 L 436,120 L 437,120 L 439,120 L 440,120 L 441,120 L 442,120 L 443,120 L 444,120 L 445,119 L 446,119 L 447,119 L 448,119 L 449,119 L 449,118 L 450,118 L 451,118 L 452,118 L 453,118 L 455,117 L 456,117 L 459,116 L 461,116 L 465,116 L 466,116 L 467,116 L 468,116 L 470,116 L 473,116 L 474,116 L 475,116 L 476,117 L 477,117 L 478,117 L 479,117 L 479,118 L 478,117 L 477,117 L 475,117 L 474,117 L 473,117 L 473,118 L 480,118 L 480,119 L 481,119 L 481,120 L 482,121 L 483,121 L 483,122 L 484,123 L 485,123 L 485,124 L 486,124 L 486,125 L 487,125 L 487,126 L 487,127 L 488,127 L 489,128 L 490,129 L 491,130 L 492,130 L 494,131 L 495,132 L 496,132 L 497,133 L 502,133 L 505,133 L 506,133 L 507,132 L 508,132 L 509,131 L 510,131 L 511,131 L 513,129 L 514,128 L 515,128 L 516,127 L 517,126 L 518,126 L 519,124 L 520,124 L 523,121 L 524,120 L 524,119 L 525,119 L 525,118 L 525,117 L 526,117 L 527,110 L 527,108 L 527,103 L 527,102 L 527,101 L 527,100 L 528,99 L 528,98 L 528,97 L 529,96 L 529,94 L 530,94 L 530,93 L 530,92 L 531,92 L 531,91 L 531,90 L 531,89 L 532,89 L 532,88 L 532,87 L 533,87 L 533,86 L 533,85 L 538,80 L 538,79 L 539,78 L 540,78 L 540,77 L 541,76 L 542,75 L 543,75 L 544,75 L 545,74 L 546,73 L 547,73 L 548,73 L 548,72 L 549,72 L 550,72 L 554,71 L 556,70 L 557,70 L 558,70 L 559,70 L 560,70 " />
</g>
</g>
</g>
</svg>