<?xml version="1.0" standalone="no"?>
<!DOCTYPE svg PUBLIC "-//W3C//DTD SVG 1.1//EN" "http://www.w3.org/Graphics/SVG/1.1/DTD/svg11.dtd">
<svg xmlns="http://www.w3.org/2000/svg" xmlns:inkscape="http://www.inkscape.org/namespaces/inkscape" xmlns:xlink="http://www.w3.org/1999/xlink" viewBox="30 80 650 650" version = "1.1">
<!-- svg generated using QGIS www.qgis.org -->
<g id="busan" inkscape:groupmode="layer" inkscape:label="busan">
<g stroke="none" fill="rgb(255,255,255)" stroke-linejoin="round" stroke-width="0.26" style="stroke:rgb(0,0,0);stroke-width:1">
<g id="21010" >
<path d="M 351,444 L 352,444 L 351,444 L 352,445 L 351,445 L 352,445 L 353,445 L 352,445 L 353,445 L 353,446 L 354,446 L 354,447 L 355,447 L 354,447 L 355,447 L 355,448 L 356,448 L 356,449 L 357,449 L 358,449 L 359,449 L 359,450 L 359,451 L 359,452 L 359,453 L 360,453 L 360,454 L 361,454 L 361,455 L 362,455 L 361,455 L 360,455 L 360,454 L 359,454 L 359,453 L 358,454 L 358,455 L 358,456 L 359,456 L 360,457 L 361,457 L 361,458 L 360,458 L 360,457 L 359,457 L 358,456 L 358,457 L 358,456 L 357,456 L 356,457 L 356,458 L 356,459 L 357,459 L 357,460 L 357,461 L 356,461 L 356,462 L 357,462 L 357,463 L 357,464 L 356,464 L 355,465 L 354,465 L 353,465 L 352,465 L 351,465 L 350,465 L 349,465 L 348,465 L 346,466 L 346,465 L 346,464 L 345,464 L 345,463 L 345,462 L 345,461 L 344,461 L 344,460 L 343,460 L 342,459 L 342,458 L 342,457 L 342,456 L 342,455 L 342,454 L 343,454 L 343,453 L 343,452 L 344,452 L 345,452 L 345,451 L 345,450 L 346,450 L 347,450 L 347,451 L 347,450 L 347,449 L 348,449 L 348,448 L 348,447 L 347,447 L 347,446 L 347,445 L 348,445 L 349,444 L 350,444 L 351,444 " />
</g>
<g id="21020" >
<path d="M 338,516 L 337,516 L 337,515 L 337,514 L 337,513 L 337,514 L 338,514 L 338,515 L 338,516 " />
<path d="M 343,487 L 344,487 L 343,487 " />
<path d="M 323,419 L 325,419 L 325,420 L 326,420 L 327,420 L 327,421 L 328,421 L 329,420 L 330,420 L 331,420 L 331,421 L 332,421 L 333,421 L 333,422 L 334,422 L 334,423 L 335,423 L 336,423 L 336,424 L 337,424 L 338,424 L 339,423 L 340,423 L 341,423 L 342,423 L 343,423 L 344,423 L 344,424 L 345,424 L 345,425 L 345,426 L 346,426 L 346,427 L 346,428 L 346,429 L 346,430 L 346,431 L 346,432 L 345,432 L 345,433 L 345,434 L 345,435 L 346,435 L 346,436 L 346,437 L 345,438 L 345,439 L 345,440 L 345,441 L 344,442 L 345,442 L 345,443 L 346,444 L 346,445 L 347,445 L 347,446 L 347,447 L 348,447 L 348,448 L 348,449 L 347,449 L 347,450 L 347,451 L 347,450 L 346,450 L 345,450 L 345,451 L 345,452 L 344,452 L 343,452 L 343,453 L 343,454 L 342,454 L 342,455 L 342,456 L 342,457 L 342,458 L 342,459 L 343,460 L 344,460 L 344,461 L 345,461 L 345,462 L 345,463 L 345,464 L 346,464 L 346,465 L 346,466 L 345,468 L 346,469 L 346,470 L 346,471 L 347,471 L 347,472 L 346,472 L 346,473 L 346,474 L 347,474 L 346,475 L 346,476 L 347,476 L 348,476 L 347,476 L 347,478 L 346,479 L 346,480 L 346,481 L 346,483 L 345,484 L 345,486 L 344,486 L 343,486 L 343,485 L 342,485 L 342,484 L 341,484 L 341,485 L 340,485 L 339,485 L 339,486 L 338,487 L 338,488 L 338,489 L 339,490 L 339,491 L 340,491 L 340,492 L 341,492 L 342,492 L 342,493 L 342,494 L 342,495 L 342,496 L 343,496 L 342,497 L 342,498 L 342,499 L 342,498 L 342,499 L 343,500 L 343,501 L 343,502 L 342,502 L 343,502 L 342,503 L 341,503 L 341,504 L 341,503 L 341,504 L 340,504 L 341,504 L 340,505 L 340,506 L 339,506 L 338,506 L 338,507 L 338,508 L 337,508 L 337,509 L 338,509 L 338,510 L 337,510 L 337,511 L 336,511 L 332,513 L 332,512 L 336,511 L 336,510 L 336,509 L 336,508 L 335,508 L 335,507 L 335,506 L 335,505 L 335,504 L 334,503 L 333,502 L 332,502 L 331,500 L 334,500 L 334,499 L 335,498 L 332,497 L 331,495 L 329,492 L 329,490 L 328,488 L 328,487 L 328,485 L 328,484 L 329,484 L 329,483 L 330,483 L 331,484 L 332,485 L 333,485 L 333,486 L 334,486 L 334,485 L 334,484 L 334,483 L 334,482 L 334,481 L 334,480 L 333,479 L 334,479 L 334,478 L 334,477 L 335,477 L 335,476 L 335,475 L 335,474 L 335,473 L 335,472 L 336,472 L 336,471 L 336,470 L 336,469 L 336,468 L 336,467 L 335,467 L 335,466 L 334,465 L 334,464 L 333,464 L 333,463 L 332,462 L 331,462 L 330,462 L 330,461 L 330,460 L 330,459 L 331,458 L 332,457 L 332,456 L 333,455 L 332,455 L 331,454 L 330,454 L 330,453 L 329,452 L 328,451 L 327,451 L 327,450 L 327,449 L 327,448 L 325,447 L 326,446 L 325,445 L 326,444 L 325,442 L 324,442 L 323,442 L 322,442 L 322,441 L 323,440 L 323,439 L 323,438 L 323,437 L 324,437 L 324,436 L 325,436 L 325,435 L 326,435 L 326,434 L 326,433 L 327,433 L 327,432 L 326,432 L 326,433 L 326,432 L 326,431 L 326,430 L 326,429 L 326,428 L 325,427 L 326,427 L 326,428 L 327,428 L 328,428 L 327,428 L 326,428 L 326,427 L 326,426 L 325,426 L 326,426 L 326,425 L 326,424 L 327,424 L 326,423 L 325,423 L 325,422 L 324,422 L 323,421 L 322,421 L 321,421 L 320,420 L 320,419 L 322,419 L 323,419 " />
</g>
<g id="21030" >
<path d="M 360,413 L 361,413 L 362,413 L 363,413 L 363,414 L 364,414 L 364,415 L 365,415 L 366,415 L 366,416 L 366,415 L 366,416 L 366,415 L 366,416 L 367,416 L 367,417 L 368,417 L 369,417 L 370,417 L 371,417 L 373,417 L 374,418 L 375,418 L 378,418 L 378,417 L 379,418 L 379,419 L 380,420 L 380,421 L 380,422 L 380,423 L 379,423 L 379,424 L 380,424 L 379,426 L 380,426 L 380,427 L 380,428 L 380,429 L 380,430 L 379,430 L 378,430 L 379,431 L 379,432 L 378,433 L 376,435 L 376,436 L 375,437 L 374,439 L 373,439 L 372,441 L 371,442 L 371,441 L 370,441 L 369,440 L 369,439 L 370,439 L 370,438 L 371,438 L 371,437 L 371,436 L 371,435 L 371,434 L 370,434 L 369,434 L 368,434 L 369,435 L 368,435 L 367,436 L 366,436 L 366,437 L 366,438 L 365,438 L 365,439 L 365,440 L 366,440 L 367,441 L 366,441 L 367,441 L 367,442 L 368,442 L 369,442 L 369,443 L 370,443 L 369,443 L 369,444 L 368,444 L 367,443 L 366,442 L 365,442 L 365,441 L 364,441 L 364,442 L 364,443 L 363,444 L 364,444 L 365,445 L 366,446 L 367,446 L 367,447 L 366,447 L 365,447 L 364,446 L 363,445 L 362,445 L 362,446 L 361,447 L 361,449 L 360,450 L 360,451 L 359,451 L 359,452 L 359,451 L 359,450 L 359,449 L 358,449 L 357,449 L 356,449 L 356,448 L 355,448 L 355,447 L 354,447 L 355,447 L 354,447 L 354,446 L 353,446 L 353,445 L 352,445 L 353,445 L 352,445 L 351,445 L 352,445 L 351,444 L 352,444 L 351,444 L 350,444 L 349,444 L 348,445 L 347,445 L 346,445 L 346,444 L 345,443 L 345,442 L 344,442 L 345,441 L 345,440 L 345,439 L 345,438 L 346,437 L 346,436 L 346,435 L 345,435 L 345,434 L 345,433 L 345,432 L 346,432 L 346,431 L 346,430 L 346,429 L 346,428 L 346,427 L 346,426 L 345,426 L 345,425 L 345,424 L 346,424 L 347,423 L 349,422 L 350,422 L 351,422 L 352,422 L 353,422 L 354,422 L 354,421 L 355,421 L 355,420 L 356,420 L 356,419 L 357,418 L 357,417 L 357,416 L 357,415 L 357,414 L 357,415 L 357,414 L 358,414 L 358,413 L 359,413 L 358,413 L 358,414 L 358,413 L 359,413 L 360,413 " />
</g>
<g id="21040" >
<path d="M 405,525 L 405,526 L 404,526 L 404,525 L 404,526 L 404,525 L 405,525 " />
<path d="M 414,482 L 408,483 L 408,482 L 411,482 L 414,482 " />
<path d="M 372,460 L 373,460 L 374,460 L 376,461 L 377,462 L 376,463 L 377,462 L 379,463 L 380,464 L 382,465 L 383,465 L 384,467 L 385,467 L 386,468 L 387,471 L 388,471 L 389,472 L 389,473 L 390,474 L 391,474 L 392,473 L 391,472 L 390,472 L 390,471 L 392,473 L 391,474 L 391,475 L 391,476 L 392,476 L 391,477 L 390,478 L 391,478 L 392,479 L 392,480 L 393,481 L 393,482 L 394,483 L 394,484 L 395,485 L 395,486 L 396,487 L 396,488 L 397,488 L 398,487 L 398,486 L 398,485 L 399,484 L 399,485 L 400,484 L 399,484 L 400,484 L 402,482 L 403,482 L 403,481 L 404,481 L 405,481 L 406,481 L 406,482 L 406,483 L 406,484 L 405,484 L 406,484 L 405,485 L 404,485 L 403,485 L 403,486 L 402,486 L 402,487 L 401,488 L 400,488 L 399,489 L 398,488 L 398,487 L 396,488 L 395,489 L 394,489 L 393,490 L 393,491 L 394,492 L 394,491 L 394,492 L 395,492 L 397,492 L 396,491 L 396,490 L 397,492 L 397,493 L 397,494 L 397,495 L 398,495 L 398,496 L 397,496 L 398,496 L 398,497 L 398,498 L 399,498 L 399,499 L 400,500 L 401,500 L 402,501 L 403,501 L 404,501 L 404,502 L 405,501 L 405,502 L 406,502 L 407,502 L 407,503 L 406,503 L 407,503 L 407,504 L 406,504 L 406,505 L 406,506 L 405,506 L 405,507 L 404,507 L 404,508 L 403,509 L 404,509 L 404,510 L 403,511 L 404,511 L 403,511 L 403,512 L 402,512 L 401,512 L 401,513 L 400,513 L 399,513 L 398,513 L 399,513 L 398,513 L 398,512 L 397,512 L 396,512 L 395,512 L 395,511 L 395,510 L 395,511 L 395,510 L 394,510 L 395,510 L 394,509 L 395,509 L 395,508 L 395,507 L 395,506 L 394,506 L 393,506 L 393,507 L 393,506 L 393,505 L 393,504 L 392,504 L 393,504 L 392,503 L 391,503 L 391,502 L 391,503 L 391,502 L 390,501 L 389,501 L 388,502 L 387,502 L 386,502 L 385,502 L 384,502 L 383,502 L 382,501 L 381,501 L 380,501 L 380,500 L 380,499 L 380,498 L 380,497 L 380,496 L 381,496 L 381,495 L 380,495 L 381,495 L 381,494 L 380,494 L 380,493 L 380,494 L 380,493 L 380,494 L 380,493 L 379,493 L 378,493 L 378,492 L 377,492 L 376,492 L 375,492 L 374,492 L 373,493 L 373,492 L 372,491 L 371,491 L 371,490 L 370,490 L 369,490 L 369,489 L 368,489 L 368,488 L 367,488 L 366,488 L 366,487 L 365,487 L 364,486 L 364,485 L 363,485 L 363,484 L 362,484 L 362,483 L 361,483 L 361,482 L 360,482 L 360,481 L 359,481 L 358,481 L 357,480 L 353,476 L 353,477 L 352,477 L 353,477 L 353,476 L 353,475 L 354,475 L 353,475 L 353,474 L 353,473 L 352,473 L 353,473 L 352,473 L 353,473 L 353,472 L 355,473 L 355,472 L 354,472 L 354,471 L 354,472 L 353,472 L 352,472 L 352,471 L 351,471 L 352,471 L 352,470 L 351,470 L 351,469 L 351,468 L 350,468 L 351,468 L 351,467 L 352,467 L 353,467 L 352,467 L 352,468 L 353,468 L 354,469 L 355,469 L 356,470 L 356,469 L 355,469 L 355,467 L 356,466 L 356,467 L 356,468 L 357,468 L 357,467 L 357,466 L 358,466 L 359,465 L 360,465 L 362,464 L 362,465 L 363,465 L 363,464 L 364,464 L 364,465 L 364,464 L 364,465 L 365,465 L 365,466 L 366,466 L 366,465 L 365,465 L 365,464 L 365,463 L 365,464 L 366,463 L 367,463 L 367,464 L 368,463 L 368,464 L 369,464 L 368,464 L 368,462 L 368,461 L 369,461 L 371,460 L 372,460 " />
<path d="M 368,462 L 369,464 L 368,462 " />
<path d="M 375,460 L 375,459 L 376,459 L 377,458 L 378,457 L 377,458 L 376,458 L 376,459 L 375,459 L 375,460 " />
</g>
<g id="21050" >
<path d="M 356,357 L 357,357 L 358,357 L 359,357 L 360,357 L 360,358 L 361,359 L 362,360 L 363,361 L 363,362 L 364,362 L 363,363 L 363,364 L 363,365 L 363,366 L 363,367 L 364,367 L 364,368 L 364,369 L 365,369 L 365,370 L 366,370 L 366,371 L 366,372 L 367,372 L 367,373 L 368,373 L 369,373 L 370,373 L 371,372 L 371,373 L 372,373 L 373,373 L 374,373 L 375,373 L 375,374 L 376,375 L 376,376 L 376,377 L 375,377 L 376,378 L 376,379 L 376,380 L 377,380 L 378,380 L 379,380 L 379,381 L 379,382 L 379,381 L 380,381 L 380,382 L 379,382 L 380,382 L 380,381 L 381,381 L 380,381 L 381,381 L 382,381 L 383,382 L 383,381 L 383,380 L 384,380 L 384,379 L 384,378 L 385,378 L 386,378 L 387,378 L 387,379 L 387,380 L 388,380 L 387,380 L 388,380 L 387,381 L 388,381 L 389,381 L 389,382 L 390,382 L 391,383 L 391,384 L 391,385 L 392,385 L 393,385 L 393,386 L 393,387 L 393,388 L 393,389 L 392,390 L 391,390 L 391,391 L 390,392 L 390,393 L 390,394 L 390,395 L 391,395 L 391,396 L 391,397 L 392,398 L 393,399 L 394,399 L 394,400 L 393,401 L 393,402 L 393,403 L 392,404 L 391,404 L 392,405 L 391,405 L 391,406 L 390,408 L 389,408 L 388,408 L 387,408 L 386,408 L 386,409 L 385,409 L 384,409 L 384,410 L 383,410 L 382,410 L 381,410 L 381,411 L 380,411 L 380,410 L 379,409 L 377,410 L 377,411 L 377,412 L 377,413 L 377,414 L 377,415 L 377,416 L 378,416 L 378,417 L 378,418 L 375,418 L 374,418 L 373,417 L 371,417 L 370,417 L 369,417 L 368,417 L 367,417 L 367,416 L 366,416 L 366,415 L 366,416 L 366,415 L 366,416 L 366,415 L 365,415 L 364,415 L 364,414 L 363,414 L 363,413 L 362,413 L 361,413 L 360,413 L 359,413 L 358,413 L 358,414 L 358,413 L 359,413 L 358,413 L 358,414 L 357,414 L 357,415 L 357,414 L 357,415 L 357,416 L 357,417 L 357,418 L 356,419 L 356,420 L 355,420 L 355,421 L 354,421 L 354,422 L 353,422 L 352,422 L 351,422 L 350,422 L 349,422 L 347,423 L 346,424 L 345,424 L 344,424 L 344,423 L 343,423 L 342,423 L 341,423 L 340,423 L 339,423 L 338,424 L 337,424 L 336,424 L 336,423 L 335,423 L 334,423 L 334,422 L 334,421 L 335,420 L 336,418 L 337,416 L 337,415 L 336,415 L 335,414 L 335,413 L 336,413 L 337,412 L 337,411 L 337,410 L 337,409 L 337,408 L 337,407 L 337,406 L 337,405 L 337,404 L 336,403 L 335,403 L 335,402 L 334,402 L 334,401 L 333,401 L 332,400 L 332,398 L 333,397 L 332,396 L 333,396 L 332,396 L 333,395 L 333,394 L 334,394 L 334,393 L 334,392 L 334,391 L 333,390 L 333,389 L 332,388 L 332,387 L 332,386 L 332,385 L 332,384 L 333,383 L 334,382 L 335,381 L 336,380 L 337,379 L 337,378 L 338,378 L 339,377 L 340,377 L 340,376 L 341,376 L 340,375 L 340,374 L 340,373 L 340,371 L 340,370 L 341,370 L 341,369 L 342,369 L 342,368 L 343,367 L 343,366 L 344,366 L 344,365 L 344,364 L 344,363 L 346,363 L 347,363 L 348,362 L 350,361 L 351,360 L 351,359 L 352,359 L 352,358 L 353,358 L 354,358 L 355,358 L 356,357 " />
</g>
<g id="21060" >
<path d="M 389,330 L 390,330 L 390,331 L 391,331 L 391,332 L 392,332 L 392,331 L 393,331 L 393,332 L 394,332 L 394,333 L 395,333 L 396,333 L 397,333 L 396,334 L 396,335 L 396,336 L 395,336 L 395,337 L 394,337 L 394,338 L 395,338 L 395,337 L 395,338 L 396,338 L 397,338 L 398,338 L 400,338 L 401,339 L 402,339 L 402,340 L 403,340 L 404,340 L 405,341 L 406,341 L 406,342 L 407,342 L 407,343 L 408,343 L 408,342 L 408,343 L 409,343 L 410,343 L 410,344 L 411,344 L 411,345 L 412,345 L 413,346 L 414,345 L 415,345 L 415,346 L 416,345 L 416,346 L 417,347 L 417,348 L 417,349 L 417,350 L 417,351 L 417,352 L 418,352 L 418,353 L 419,353 L 420,353 L 420,354 L 421,354 L 422,354 L 422,355 L 421,355 L 421,356 L 421,357 L 420,358 L 420,359 L 420,360 L 420,361 L 420,362 L 420,363 L 420,364 L 421,364 L 421,365 L 421,366 L 420,366 L 420,367 L 421,367 L 420,367 L 421,367 L 421,368 L 421,369 L 421,370 L 421,371 L 421,372 L 421,373 L 421,372 L 420,372 L 420,371 L 419,371 L 419,370 L 419,369 L 419,368 L 418,368 L 418,367 L 417,367 L 416,367 L 416,366 L 415,366 L 414,366 L 413,366 L 412,366 L 411,366 L 411,365 L 410,365 L 409,365 L 408,365 L 407,365 L 406,365 L 406,364 L 405,364 L 405,363 L 404,363 L 403,363 L 402,363 L 401,363 L 400,363 L 399,363 L 398,363 L 397,363 L 397,362 L 396,362 L 395,361 L 394,361 L 393,360 L 393,359 L 393,358 L 392,358 L 392,357 L 391,357 L 390,357 L 389,357 L 386,358 L 385,360 L 384,360 L 383,360 L 384,361 L 383,361 L 383,362 L 382,362 L 379,362 L 379,363 L 377,363 L 378,363 L 377,363 L 377,364 L 376,364 L 376,365 L 375,365 L 374,365 L 374,364 L 373,364 L 372,364 L 371,363 L 371,364 L 370,364 L 369,364 L 368,364 L 368,365 L 367,365 L 366,364 L 365,363 L 364,362 L 363,362 L 363,361 L 362,360 L 361,359 L 360,358 L 360,357 L 360,356 L 360,355 L 361,355 L 362,355 L 362,354 L 362,353 L 363,352 L 363,351 L 364,351 L 364,350 L 365,350 L 365,349 L 365,348 L 366,348 L 366,347 L 366,346 L 366,345 L 366,344 L 366,343 L 366,342 L 367,342 L 367,341 L 368,340 L 369,339 L 370,338 L 370,337 L 370,336 L 370,335 L 371,335 L 371,334 L 371,333 L 372,333 L 372,332 L 372,331 L 374,330 L 375,329 L 375,330 L 376,330 L 377,330 L 378,330 L 379,330 L 380,330 L 381,330 L 383,330 L 384,330 L 385,330 L 386,330 L 387,330 L 387,329 L 388,329 L 389,329 L 389,330 " />
</g>
<g id="21070" >
<path d="M 433,469 L 432,469 L 433,469 " />
<path d="M 433,469 L 432,469 L 432,468 L 433,468 L 433,469 " />
<path d="M 433,467 L 432,467 L 433,467 " />
<path d="M 432,466 L 432,467 L 432,466 L 433,466 L 432,466 " />
<path d="M 426,462 L 426,463 L 425,463 L 426,463 L 425,463 L 425,462 L 426,462 " />
<path d="M 431,463 L 430,463 L 430,462 L 431,462 L 431,463 " />
<path d="M 405,397 L 405,398 L 406,398 L 406,399 L 406,400 L 407,400 L 407,401 L 407,402 L 408,402 L 408,403 L 408,404 L 409,404 L 409,405 L 410,406 L 410,407 L 410,408 L 410,409 L 411,409 L 411,410 L 411,411 L 411,412 L 411,413 L 412,413 L 412,414 L 412,415 L 411,415 L 411,416 L 411,417 L 412,417 L 413,417 L 413,418 L 414,418 L 414,419 L 415,420 L 416,421 L 417,421 L 418,422 L 419,423 L 418,423 L 418,424 L 416,427 L 415,428 L 415,429 L 416,428 L 416,427 L 418,424 L 418,425 L 420,426 L 419,427 L 419,428 L 420,428 L 422,425 L 423,425 L 423,426 L 422,428 L 423,429 L 422,431 L 420,433 L 420,434 L 420,433 L 421,433 L 421,432 L 422,431 L 423,431 L 424,430 L 425,429 L 424,428 L 425,427 L 426,427 L 425,426 L 425,427 L 425,426 L 426,425 L 427,425 L 427,426 L 428,426 L 428,428 L 427,429 L 428,429 L 428,430 L 429,431 L 428,431 L 428,432 L 428,433 L 429,433 L 429,434 L 430,434 L 430,435 L 429,435 L 430,435 L 429,436 L 430,436 L 431,437 L 432,438 L 432,439 L 432,440 L 433,439 L 433,440 L 433,441 L 434,441 L 433,442 L 433,443 L 433,444 L 433,445 L 433,446 L 432,446 L 433,446 L 433,447 L 433,449 L 433,450 L 432,451 L 432,452 L 432,453 L 431,453 L 431,454 L 431,455 L 430,456 L 431,456 L 430,456 L 431,456 L 430,456 L 430,457 L 430,458 L 431,459 L 430,460 L 430,461 L 430,460 L 429,460 L 429,461 L 429,460 L 428,460 L 427,460 L 426,460 L 426,461 L 426,460 L 425,460 L 424,460 L 424,459 L 424,460 L 423,460 L 423,459 L 422,459 L 422,458 L 421,458 L 421,457 L 418,459 L 416,457 L 415,457 L 415,458 L 415,459 L 414,460 L 414,461 L 413,461 L 413,462 L 412,461 L 412,462 L 411,462 L 410,462 L 409,462 L 409,461 L 408,461 L 408,463 L 406,464 L 405,461 L 404,453 L 404,452 L 404,451 L 403,451 L 403,452 L 402,452 L 402,451 L 401,451 L 401,453 L 401,457 L 388,457 L 388,456 L 387,456 L 385,455 L 382,453 L 382,452 L 381,452 L 380,451 L 380,449 L 381,449 L 380,451 L 381,452 L 383,449 L 384,449 L 382,448 L 382,447 L 383,447 L 383,446 L 383,447 L 384,446 L 384,445 L 385,445 L 385,444 L 386,444 L 387,443 L 386,442 L 385,441 L 384,442 L 383,442 L 384,441 L 384,440 L 385,439 L 386,438 L 386,437 L 385,437 L 383,436 L 382,438 L 380,437 L 380,436 L 380,435 L 381,434 L 380,432 L 380,431 L 380,430 L 380,429 L 380,428 L 380,427 L 380,426 L 380,425 L 380,424 L 380,423 L 379,424 L 379,423 L 380,423 L 380,422 L 380,421 L 380,420 L 379,419 L 379,418 L 378,417 L 378,416 L 377,416 L 377,415 L 377,414 L 377,413 L 377,412 L 377,411 L 377,410 L 379,409 L 380,410 L 380,411 L 381,411 L 381,410 L 382,410 L 383,410 L 384,410 L 384,409 L 385,409 L 386,409 L 386,408 L 387,408 L 388,408 L 389,408 L 390,408 L 391,406 L 391,405 L 392,405 L 391,404 L 392,404 L 393,403 L 393,402 L 393,401 L 394,400 L 394,399 L 395,399 L 396,399 L 397,398 L 398,398 L 399,397 L 400,397 L 401,398 L 402,398 L 403,397 L 404,397 L 405,396 L 405,397 " />
</g>
<g id="21080" >
<path d="M 352,278 L 353,278 L 354,278 L 355,278 L 356,279 L 357,279 L 359,279 L 360,279 L 361,279 L 362,279 L 361,280 L 361,281 L 360,282 L 359,283 L 359,284 L 358,284 L 358,285 L 358,287 L 358,288 L 358,289 L 357,290 L 357,291 L 356,291 L 355,291 L 354,291 L 354,292 L 353,292 L 353,293 L 353,294 L 354,294 L 354,295 L 355,295 L 356,295 L 357,296 L 357,297 L 358,297 L 359,297 L 359,296 L 359,297 L 360,297 L 361,297 L 362,297 L 362,298 L 363,298 L 363,299 L 363,300 L 362,300 L 361,301 L 361,302 L 360,302 L 360,303 L 361,304 L 361,305 L 361,306 L 360,307 L 361,308 L 363,308 L 363,309 L 364,309 L 364,310 L 364,311 L 364,312 L 365,313 L 364,314 L 364,315 L 363,316 L 362,317 L 362,320 L 361,321 L 359,322 L 360,324 L 360,325 L 361,325 L 362,325 L 362,326 L 363,326 L 364,327 L 365,327 L 366,327 L 368,327 L 369,327 L 370,327 L 371,327 L 372,326 L 373,325 L 374,326 L 374,327 L 375,329 L 374,330 L 372,331 L 372,332 L 372,333 L 371,333 L 371,334 L 371,335 L 370,335 L 370,336 L 370,337 L 370,338 L 369,339 L 368,340 L 367,341 L 367,342 L 366,342 L 366,343 L 366,344 L 366,345 L 366,346 L 366,347 L 366,348 L 365,348 L 365,349 L 365,350 L 364,350 L 364,351 L 363,351 L 363,352 L 362,353 L 362,354 L 362,355 L 361,355 L 360,355 L 360,356 L 360,357 L 359,357 L 358,357 L 357,357 L 356,357 L 355,358 L 354,358 L 353,358 L 352,358 L 352,359 L 351,359 L 351,360 L 350,361 L 348,362 L 347,363 L 346,363 L 344,363 L 344,364 L 344,365 L 344,366 L 343,366 L 343,367 L 342,368 L 342,369 L 341,369 L 341,370 L 340,370 L 339,369 L 338,369 L 337,369 L 334,369 L 333,369 L 332,369 L 331,369 L 330,369 L 329,369 L 328,369 L 328,368 L 326,367 L 325,368 L 324,367 L 324,368 L 323,368 L 323,367 L 323,366 L 321,365 L 320,364 L 319,364 L 318,364 L 318,363 L 317,362 L 317,363 L 316,363 L 315,363 L 315,364 L 314,364 L 314,363 L 314,362 L 313,362 L 312,362 L 312,361 L 312,360 L 312,359 L 313,359 L 313,358 L 313,357 L 312,356 L 311,356 L 311,355 L 312,354 L 313,354 L 313,353 L 314,353 L 315,353 L 315,351 L 316,350 L 317,349 L 317,348 L 317,347 L 317,346 L 318,346 L 318,345 L 318,344 L 318,343 L 318,341 L 318,340 L 318,339 L 319,339 L 319,338 L 319,337 L 319,336 L 319,335 L 319,334 L 319,333 L 319,332 L 319,331 L 320,331 L 320,330 L 320,329 L 320,328 L 320,325 L 320,323 L 320,322 L 319,320 L 320,319 L 320,318 L 321,317 L 322,314 L 322,313 L 323,312 L 323,311 L 323,310 L 324,309 L 324,308 L 325,306 L 327,302 L 327,301 L 328,299 L 328,298 L 329,297 L 329,296 L 329,295 L 330,295 L 331,291 L 331,290 L 332,290 L 332,289 L 332,288 L 332,287 L 333,286 L 333,285 L 333,284 L 334,284 L 334,283 L 333,282 L 333,280 L 333,279 L 334,279 L 335,279 L 335,278 L 336,278 L 337,278 L 338,278 L 339,278 L 339,277 L 340,277 L 341,277 L 342,277 L 343,277 L 344,277 L 345,277 L 346,277 L 347,277 L 348,277 L 349,277 L 351,277 L 352,278 " />
</g>
<g id="21090" >
<path d="M 442,399 L 443,399 L 442,399 L 441,399 L 442,399 " />
<path d="M 450,308 L 451,308 L 452,308 L 453,308 L 454,308 L 454,309 L 455,309 L 456,311 L 456,313 L 455,314 L 454,314 L 454,315 L 455,315 L 454,317 L 455,318 L 456,318 L 457,318 L 458,318 L 459,318 L 460,318 L 459,318 L 460,318 L 459,318 L 459,319 L 460,319 L 460,320 L 461,320 L 461,321 L 462,321 L 462,322 L 463,323 L 464,323 L 465,324 L 465,325 L 466,325 L 466,326 L 466,327 L 466,328 L 466,329 L 466,330 L 465,330 L 465,331 L 465,332 L 464,333 L 463,334 L 464,335 L 464,336 L 463,337 L 463,338 L 463,339 L 462,340 L 461,341 L 461,342 L 460,342 L 459,343 L 459,344 L 459,345 L 459,346 L 459,347 L 459,348 L 460,348 L 460,349 L 461,349 L 462,349 L 463,350 L 463,351 L 463,352 L 464,352 L 465,353 L 466,353 L 468,354 L 468,353 L 469,353 L 470,353 L 472,354 L 473,354 L 474,355 L 475,356 L 476,357 L 477,357 L 478,357 L 479,357 L 480,358 L 481,359 L 481,361 L 480,362 L 480,363 L 479,364 L 479,365 L 480,365 L 481,366 L 482,366 L 484,366 L 484,365 L 485,365 L 485,364 L 486,362 L 487,362 L 487,361 L 488,361 L 488,360 L 489,359 L 489,358 L 489,357 L 489,356 L 490,356 L 493,355 L 493,354 L 493,355 L 494,355 L 494,356 L 495,356 L 496,356 L 497,356 L 498,357 L 499,357 L 499,358 L 500,358 L 499,358 L 500,359 L 500,360 L 500,361 L 500,362 L 499,362 L 499,363 L 499,364 L 500,365 L 500,366 L 500,367 L 499,367 L 500,367 L 500,368 L 500,369 L 500,370 L 500,371 L 500,372 L 501,372 L 501,373 L 500,373 L 499,373 L 499,374 L 500,374 L 499,374 L 499,375 L 500,375 L 499,375 L 499,376 L 498,376 L 498,375 L 497,375 L 496,375 L 495,375 L 494,376 L 494,377 L 493,377 L 493,378 L 492,378 L 492,379 L 492,380 L 492,381 L 492,382 L 492,383 L 492,384 L 492,385 L 492,386 L 492,387 L 492,388 L 491,388 L 491,389 L 491,390 L 491,391 L 491,392 L 490,393 L 490,394 L 489,394 L 489,395 L 489,396 L 488,396 L 487,397 L 488,396 L 487,396 L 486,396 L 485,396 L 484,396 L 484,397 L 483,397 L 482,398 L 482,399 L 481,399 L 481,400 L 480,401 L 479,401 L 479,402 L 478,402 L 477,402 L 476,402 L 475,401 L 474,401 L 473,401 L 472,400 L 471,400 L 471,399 L 470,399 L 469,399 L 470,399 L 470,398 L 470,399 L 469,398 L 468,397 L 467,397 L 466,397 L 465,397 L 464,397 L 463,397 L 462,397 L 462,398 L 461,398 L 460,398 L 459,398 L 458,399 L 457,399 L 456,399 L 456,400 L 455,401 L 455,402 L 455,403 L 454,403 L 455,403 L 455,404 L 455,403 L 455,404 L 454,404 L 454,405 L 453,405 L 452,405 L 451,404 L 452,404 L 452,403 L 451,403 L 452,403 L 452,402 L 452,401 L 453,401 L 453,400 L 454,400 L 454,399 L 453,399 L 452,400 L 453,400 L 452,400 L 451,400 L 450,400 L 450,401 L 449,401 L 449,402 L 449,403 L 449,404 L 448,404 L 447,403 L 445,403 L 445,402 L 444,402 L 444,401 L 444,400 L 443,400 L 442,400 L 443,400 L 444,400 L 445,399 L 443,397 L 442,396 L 441,396 L 440,397 L 441,398 L 440,397 L 440,396 L 439,396 L 439,395 L 438,396 L 438,395 L 439,395 L 439,396 L 440,395 L 439,395 L 440,395 L 439,394 L 438,395 L 437,394 L 436,394 L 435,393 L 434,393 L 435,393 L 434,392 L 433,391 L 432,391 L 431,391 L 430,390 L 430,389 L 429,389 L 429,388 L 429,387 L 429,386 L 428,386 L 428,385 L 428,384 L 427,384 L 426,383 L 426,382 L 425,381 L 425,380 L 424,379 L 424,378 L 424,377 L 423,377 L 423,376 L 424,375 L 423,375 L 423,374 L 423,373 L 422,373 L 422,372 L 422,371 L 422,370 L 421,370 L 421,369 L 421,368 L 421,367 L 420,367 L 421,367 L 420,367 L 420,366 L 421,366 L 421,365 L 421,364 L 420,364 L 420,363 L 420,362 L 420,361 L 420,360 L 420,359 L 420,358 L 421,357 L 421,356 L 421,355 L 422,355 L 422,354 L 421,354 L 420,354 L 420,353 L 419,353 L 418,353 L 418,352 L 417,352 L 417,351 L 417,350 L 417,349 L 417,348 L 417,347 L 416,346 L 416,345 L 417,345 L 417,344 L 417,343 L 418,343 L 419,342 L 420,342 L 421,342 L 421,341 L 422,341 L 423,341 L 424,341 L 424,342 L 424,341 L 424,340 L 424,339 L 424,338 L 423,337 L 423,336 L 423,335 L 422,335 L 422,333 L 422,332 L 422,331 L 423,330 L 424,330 L 424,329 L 425,329 L 425,328 L 426,329 L 427,328 L 428,328 L 429,328 L 429,327 L 430,327 L 431,327 L 431,326 L 432,325 L 433,324 L 433,323 L 433,322 L 433,321 L 433,320 L 434,320 L 434,319 L 435,318 L 436,318 L 436,317 L 437,317 L 438,317 L 438,316 L 439,316 L 439,315 L 440,315 L 440,314 L 441,313 L 441,312 L 442,312 L 443,311 L 442,310 L 442,309 L 443,309 L 443,308 L 444,307 L 444,306 L 444,305 L 444,304 L 445,303 L 445,302 L 446,302 L 446,303 L 447,303 L 447,304 L 448,304 L 448,305 L 449,305 L 449,306 L 449,307 L 450,308 " />
</g>
<g id="21100" >
<path d="M 289,682 L 289,681 L 289,680 L 290,680 L 290,681 L 290,682 L 289,682 " />
<path d="M 309,636 L 308,636 L 308,635 L 309,635 L 309,636 " />
<path d="M 297,540 L 297,541 L 296,541 L 296,542 L 295,542 L 295,543 L 295,542 L 294,543 L 293,543 L 293,542 L 294,542 L 294,541 L 295,541 L 294,541 L 295,541 L 296,541 L 297,540 " />
<path d="M 300,538 L 299,538 L 300,538 " />
<path d="M 305,536 L 305,535 L 305,536 " />
<path d="M 301,535 L 300,536 L 300,535 L 300,533 L 301,533 L 302,533 L 302,534 L 302,535 L 301,535 " />
<path d="M 310,528 L 309,528 L 309,527 L 310,527 L 310,528 " />
<path d="M 318,520 L 318,521 L 318,520 " />
<path d="M 309,519 L 309,520 L 309,519 " />
<path d="M 304,519 L 304,518 L 304,519 " />
<path d="M 276,505 L 277,505 L 278,505 L 279,505 L 280,505 L 280,506 L 279,506 L 278,507 L 277,507 L 276,507 L 275,507 L 274,507 L 273,508 L 272,508 L 271,509 L 270,509 L 270,510 L 271,510 L 271,511 L 272,511 L 273,511 L 274,511 L 275,511 L 276,511 L 276,510 L 277,510 L 278,510 L 278,509 L 279,509 L 280,509 L 280,510 L 279,510 L 278,510 L 277,510 L 277,511 L 276,511 L 275,511 L 274,511 L 274,512 L 273,512 L 272,512 L 271,512 L 271,511 L 270,511 L 270,510 L 269,510 L 269,509 L 269,508 L 269,507 L 268,507 L 268,506 L 268,505 L 269,505 L 270,505 L 269,506 L 270,506 L 270,505 L 271,505 L 272,505 L 273,505 L 274,505 L 275,505 L 276,505 " />
<path d="M 276,493 L 276,492 L 275,492 L 275,491 L 275,490 L 274,490 L 274,489 L 275,489 L 275,488 L 276,488 L 277,488 L 277,489 L 277,490 L 278,490 L 278,491 L 277,492 L 277,493 L 276,493 " />
<path d="M 288,443 L 289,444 L 289,443 L 289,442 L 289,441 L 290,441 L 291,441 L 292,440 L 292,439 L 293,439 L 293,440 L 294,440 L 295,440 L 296,440 L 297,440 L 297,441 L 298,441 L 298,442 L 299,442 L 300,442 L 301,443 L 303,444 L 304,444 L 305,444 L 306,444 L 307,444 L 308,442 L 308,441 L 309,440 L 310,439 L 311,438 L 312,436 L 313,436 L 314,436 L 315,436 L 316,436 L 318,437 L 319,437 L 321,437 L 323,437 L 323,438 L 323,439 L 323,440 L 322,441 L 322,442 L 323,442 L 324,442 L 325,442 L 326,444 L 325,445 L 326,446 L 325,447 L 327,448 L 327,449 L 327,450 L 327,451 L 328,451 L 329,452 L 330,453 L 330,454 L 331,454 L 332,455 L 333,455 L 332,456 L 332,457 L 331,458 L 330,459 L 330,460 L 330,461 L 330,462 L 331,462 L 332,462 L 333,463 L 333,464 L 334,464 L 334,465 L 335,466 L 335,467 L 336,467 L 336,468 L 336,469 L 336,470 L 336,471 L 336,472 L 335,472 L 335,473 L 335,474 L 335,475 L 335,476 L 335,477 L 334,477 L 334,478 L 334,479 L 333,479 L 334,480 L 334,481 L 334,482 L 334,483 L 334,484 L 334,485 L 334,486 L 333,486 L 333,485 L 332,485 L 331,484 L 330,483 L 329,483 L 329,484 L 328,484 L 328,483 L 328,481 L 328,480 L 329,480 L 330,480 L 330,479 L 330,478 L 329,478 L 329,479 L 330,479 L 329,479 L 329,480 L 328,480 L 328,479 L 328,478 L 328,477 L 327,476 L 326,476 L 326,477 L 326,478 L 325,477 L 325,478 L 324,479 L 323,479 L 324,480 L 324,481 L 325,481 L 325,482 L 325,483 L 324,482 L 323,482 L 322,481 L 322,480 L 322,479 L 321,479 L 319,479 L 318,478 L 318,479 L 318,480 L 318,481 L 318,482 L 318,483 L 317,483 L 318,484 L 320,487 L 320,488 L 319,489 L 318,489 L 319,489 L 318,489 L 318,490 L 319,490 L 318,490 L 318,491 L 319,491 L 319,492 L 320,492 L 320,493 L 320,494 L 320,495 L 320,496 L 320,500 L 322,504 L 322,505 L 322,506 L 323,507 L 323,508 L 323,509 L 324,509 L 324,510 L 324,511 L 324,512 L 325,512 L 325,513 L 325,514 L 325,515 L 326,516 L 325,516 L 324,516 L 325,516 L 325,517 L 324,517 L 323,517 L 323,518 L 323,519 L 324,519 L 323,519 L 324,519 L 323,519 L 323,520 L 323,519 L 322,519 L 322,520 L 321,520 L 321,519 L 320,519 L 320,518 L 320,519 L 320,518 L 320,519 L 320,518 L 319,519 L 319,518 L 319,519 L 318,519 L 318,518 L 318,519 L 318,518 L 318,517 L 318,516 L 318,515 L 314,506 L 314,505 L 314,506 L 314,505 L 313,505 L 312,505 L 312,504 L 311,504 L 307,506 L 308,508 L 307,508 L 308,508 L 307,506 L 306,506 L 306,507 L 306,506 L 305,506 L 305,507 L 305,508 L 304,508 L 304,507 L 303,507 L 302,507 L 301,507 L 301,508 L 301,509 L 301,510 L 302,510 L 302,511 L 303,511 L 304,511 L 305,511 L 306,511 L 307,511 L 308,511 L 309,512 L 310,512 L 310,511 L 311,511 L 311,510 L 310,510 L 311,511 L 310,511 L 310,512 L 309,513 L 309,514 L 309,515 L 309,516 L 309,517 L 308,517 L 307,517 L 307,516 L 306,516 L 305,516 L 304,516 L 303,516 L 303,517 L 303,516 L 303,515 L 302,515 L 301,515 L 300,515 L 300,516 L 299,516 L 298,517 L 298,518 L 298,519 L 299,519 L 299,520 L 300,520 L 301,521 L 302,521 L 302,522 L 304,522 L 305,523 L 305,524 L 304,524 L 303,523 L 302,523 L 301,524 L 301,525 L 300,525 L 300,526 L 300,527 L 299,527 L 298,527 L 297,528 L 297,529 L 296,530 L 297,531 L 297,532 L 296,531 L 295,531 L 294,531 L 295,529 L 294,528 L 295,527 L 296,526 L 296,525 L 297,525 L 296,524 L 296,523 L 297,523 L 297,522 L 297,521 L 298,521 L 298,520 L 298,519 L 297,518 L 297,517 L 296,517 L 296,516 L 295,516 L 294,516 L 292,515 L 291,515 L 290,515 L 290,514 L 289,514 L 288,513 L 289,513 L 288,512 L 288,511 L 288,510 L 287,506 L 286,503 L 287,503 L 288,502 L 289,502 L 290,502 L 291,502 L 291,501 L 291,502 L 291,503 L 291,502 L 292,502 L 292,501 L 291,501 L 291,500 L 290,500 L 290,501 L 288,502 L 286,502 L 286,501 L 285,498 L 285,497 L 285,495 L 284,494 L 284,493 L 284,491 L 286,491 L 287,491 L 288,490 L 288,491 L 288,490 L 286,491 L 284,491 L 283,488 L 282,485 L 282,484 L 283,484 L 288,482 L 289,481 L 292,480 L 293,480 L 294,480 L 295,479 L 294,479 L 293,479 L 291,480 L 290,480 L 288,481 L 282,483 L 282,482 L 282,481 L 282,480 L 282,479 L 282,478 L 282,477 L 283,477 L 283,476 L 283,475 L 284,474 L 284,473 L 284,472 L 285,472 L 285,471 L 285,470 L 285,469 L 285,468 L 285,467 L 286,464 L 286,463 L 286,462 L 286,461 L 286,459 L 287,459 L 288,458 L 287,458 L 286,458 L 286,457 L 286,456 L 286,455 L 282,455 L 281,455 L 280,457 L 280,460 L 279,460 L 280,457 L 281,455 L 280,455 L 279,456 L 279,457 L 279,459 L 278,460 L 278,461 L 278,462 L 278,463 L 279,463 L 279,464 L 278,465 L 278,467 L 277,468 L 277,469 L 277,470 L 277,471 L 277,472 L 276,473 L 276,474 L 276,475 L 275,474 L 274,474 L 274,475 L 273,475 L 271,474 L 271,475 L 270,475 L 270,476 L 269,476 L 268,476 L 268,475 L 268,474 L 267,472 L 267,471 L 267,470 L 267,469 L 268,468 L 268,467 L 268,466 L 268,465 L 268,464 L 269,463 L 269,461 L 269,460 L 269,458 L 270,458 L 270,457 L 270,456 L 269,455 L 270,455 L 271,455 L 271,454 L 271,453 L 272,453 L 271,453 L 270,453 L 269,452 L 268,452 L 268,451 L 268,450 L 269,449 L 270,448 L 271,447 L 271,446 L 272,444 L 273,444 L 273,443 L 274,442 L 276,440 L 277,440 L 277,439 L 278,439 L 279,439 L 279,437 L 280,436 L 280,435 L 281,434 L 281,433 L 281,432 L 282,431 L 283,430 L 284,429 L 284,428 L 285,427 L 285,426 L 286,426 L 286,425 L 287,425 L 288,424 L 292,424 L 291,424 L 291,425 L 290,426 L 290,427 L 290,428 L 290,429 L 289,430 L 289,431 L 288,432 L 288,433 L 288,434 L 287,434 L 287,435 L 287,436 L 287,437 L 287,438 L 287,439 L 287,440 L 287,441 L 287,442 L 288,442 L 288,443 " />
</g>
<g id="21110" >
<path d="M 411,245 L 412,245 L 413,245 L 413,246 L 413,247 L 414,247 L 415,247 L 416,247 L 417,248 L 418,248 L 419,248 L 419,249 L 420,249 L 421,249 L 422,249 L 423,249 L 424,249 L 425,249 L 426,250 L 426,251 L 427,251 L 428,251 L 429,251 L 429,252 L 430,252 L 430,253 L 431,253 L 432,253 L 432,254 L 432,256 L 433,258 L 434,260 L 433,260 L 431,261 L 430,262 L 430,264 L 430,265 L 429,266 L 429,267 L 429,268 L 429,269 L 428,269 L 428,270 L 427,271 L 428,272 L 429,274 L 428,274 L 428,275 L 428,276 L 428,277 L 428,278 L 428,279 L 427,279 L 426,280 L 426,281 L 425,282 L 425,283 L 425,284 L 425,285 L 424,285 L 425,286 L 425,287 L 425,288 L 425,289 L 425,290 L 426,290 L 426,291 L 425,291 L 425,292 L 425,291 L 426,291 L 427,291 L 428,291 L 429,291 L 430,291 L 431,292 L 432,292 L 432,293 L 433,292 L 434,292 L 435,292 L 436,293 L 436,294 L 438,292 L 439,292 L 440,292 L 441,293 L 440,294 L 440,295 L 440,296 L 440,297 L 440,298 L 440,299 L 441,300 L 442,301 L 443,301 L 443,302 L 445,302 L 445,303 L 444,304 L 444,305 L 444,306 L 444,307 L 443,308 L 443,309 L 442,309 L 442,310 L 443,311 L 442,312 L 441,312 L 441,313 L 440,314 L 440,315 L 439,315 L 439,316 L 438,316 L 438,317 L 437,317 L 436,317 L 436,318 L 435,318 L 434,319 L 434,320 L 433,320 L 433,321 L 433,322 L 433,323 L 433,324 L 432,325 L 431,326 L 431,327 L 430,327 L 429,327 L 429,328 L 428,328 L 427,328 L 426,329 L 425,328 L 425,329 L 424,329 L 424,330 L 423,330 L 422,331 L 422,332 L 422,333 L 422,335 L 423,335 L 423,336 L 423,337 L 424,338 L 424,339 L 424,340 L 424,341 L 424,342 L 424,341 L 423,341 L 422,341 L 421,341 L 421,342 L 420,342 L 419,342 L 418,343 L 417,343 L 417,344 L 417,345 L 416,345 L 415,346 L 415,345 L 414,345 L 413,346 L 412,345 L 411,345 L 411,344 L 410,344 L 410,343 L 409,343 L 408,343 L 408,342 L 408,343 L 407,343 L 407,342 L 406,342 L 406,341 L 405,341 L 404,340 L 403,340 L 402,340 L 402,339 L 401,339 L 400,338 L 398,338 L 397,338 L 396,338 L 395,338 L 395,337 L 395,338 L 394,338 L 394,337 L 395,337 L 395,336 L 396,336 L 396,335 L 396,334 L 397,333 L 396,333 L 395,333 L 394,333 L 394,332 L 393,332 L 393,331 L 392,331 L 392,332 L 391,332 L 391,331 L 390,331 L 390,330 L 389,330 L 389,329 L 388,329 L 387,329 L 387,330 L 386,330 L 385,330 L 384,330 L 383,330 L 381,330 L 380,330 L 379,330 L 378,330 L 377,330 L 376,330 L 375,330 L 375,329 L 374,327 L 374,326 L 373,325 L 372,326 L 371,327 L 370,327 L 369,327 L 368,327 L 366,327 L 365,327 L 364,327 L 363,326 L 362,326 L 362,325 L 361,325 L 360,325 L 360,324 L 359,322 L 361,321 L 362,320 L 362,317 L 363,316 L 364,315 L 364,314 L 365,313 L 364,312 L 364,311 L 364,310 L 364,309 L 363,309 L 363,308 L 361,308 L 360,307 L 361,306 L 361,305 L 361,304 L 360,303 L 360,302 L 361,302 L 361,301 L 362,300 L 363,300 L 363,299 L 363,298 L 362,298 L 362,297 L 361,297 L 360,297 L 359,297 L 359,296 L 359,297 L 358,297 L 357,297 L 357,296 L 356,295 L 355,295 L 354,295 L 354,294 L 353,294 L 353,293 L 353,292 L 354,292 L 354,291 L 355,291 L 356,291 L 357,291 L 357,290 L 358,289 L 358,288 L 358,287 L 358,285 L 358,284 L 359,284 L 359,283 L 360,282 L 361,281 L 361,280 L 362,279 L 362,278 L 361,277 L 362,277 L 362,276 L 362,275 L 363,275 L 363,274 L 364,273 L 366,272 L 367,271 L 367,270 L 366,269 L 366,268 L 365,267 L 366,266 L 366,265 L 366,264 L 367,264 L 367,263 L 368,262 L 368,261 L 369,261 L 370,259 L 370,258 L 371,257 L 372,257 L 374,257 L 376,258 L 378,258 L 380,258 L 381,258 L 382,258 L 382,259 L 383,260 L 384,261 L 385,261 L 385,260 L 386,260 L 387,258 L 388,257 L 389,257 L 389,256 L 390,256 L 390,255 L 391,254 L 392,254 L 392,253 L 393,253 L 393,252 L 394,251 L 394,250 L 396,249 L 397,248 L 398,248 L 399,248 L 400,248 L 401,248 L 402,248 L 403,248 L 404,248 L 405,248 L 405,247 L 406,247 L 407,247 L 408,246 L 409,246 L 410,245 L 411,245 " />
</g>
<g id="21120" >
<path d="M 132,555 L 132,556 L 132,557 L 133,557 L 132,557 L 131,558 L 130,557 L 129,556 L 130,556 L 129,556 L 129,555 L 129,554 L 130,554 L 130,553 L 131,553 L 132,554 L 132,555 " />
<path d="M 127,552 L 127,553 L 128,552 L 128,553 L 129,552 L 129,553 L 128,553 L 129,553 L 129,554 L 128,554 L 127,554 L 126,555 L 125,555 L 125,556 L 124,556 L 124,555 L 124,554 L 124,553 L 125,553 L 125,552 L 126,552 L 127,552 " />
<path d="M 121,552 L 120,551 L 120,550 L 121,550 L 122,551 L 121,552 " />
<path d="M 254,507 L 254,508 L 253,508 L 252,507 L 251,507 L 250,507 L 249,507 L 249,506 L 248,506 L 247,506 L 246,506 L 244,505 L 244,504 L 243,504 L 244,503 L 246,502 L 247,502 L 248,502 L 248,503 L 249,503 L 250,503 L 251,503 L 252,503 L 253,503 L 254,503 L 254,504 L 256,504 L 255,505 L 255,506 L 254,506 L 254,507 " />
<path d="M 231,503 L 232,504 L 233,504 L 234,503 L 235,504 L 236,503 L 238,505 L 240,506 L 241,506 L 243,507 L 244,508 L 246,508 L 248,509 L 250,509 L 252,510 L 253,510 L 253,511 L 254,511 L 254,512 L 253,512 L 254,512 L 255,512 L 257,511 L 258,511 L 258,512 L 257,512 L 256,513 L 254,513 L 253,513 L 252,512 L 251,512 L 250,511 L 249,511 L 248,511 L 246,510 L 245,509 L 244,509 L 243,509 L 242,508 L 241,508 L 240,508 L 239,508 L 238,507 L 237,507 L 236,507 L 235,507 L 233,506 L 232,506 L 231,506 L 231,505 L 230,505 L 229,504 L 228,504 L 228,503 L 227,503 L 226,502 L 227,502 L 227,501 L 227,500 L 228,500 L 229,500 L 229,502 L 230,503 L 231,503 " />
<path d="M 147,504 L 146,503 L 145,502 L 146,501 L 147,501 L 147,502 L 147,503 L 147,504 " />
<path d="M 155,501 L 154,502 L 153,501 L 153,500 L 154,500 L 155,500 L 155,501 " />
<path d="M 145,498 L 144,498 L 145,497 L 146,496 L 147,497 L 146,497 L 146,498 L 145,498 " />
<path d="M 206,495 L 207,495 L 208,495 L 210,495 L 212,495 L 213,495 L 214,495 L 215,495 L 216,495 L 218,496 L 219,496 L 220,496 L 221,496 L 223,497 L 224,497 L 225,497 L 226,496 L 226,497 L 226,498 L 226,499 L 225,500 L 224,500 L 223,500 L 222,501 L 221,501 L 220,501 L 219,501 L 217,501 L 216,501 L 215,501 L 214,500 L 213,500 L 212,499 L 211,499 L 209,498 L 208,497 L 207,497 L 206,497 L 205,496 L 204,496 L 204,495 L 203,495 L 203,494 L 204,494 L 205,494 L 206,494 L 206,495 " />
<path d="M 185,490 L 186,490 L 187,490 L 187,491 L 188,491 L 187,491 L 187,492 L 188,492 L 188,493 L 188,494 L 188,495 L 189,495 L 190,495 L 190,496 L 191,496 L 192,496 L 193,496 L 194,496 L 195,496 L 196,496 L 197,496 L 197,495 L 197,496 L 198,496 L 199,496 L 200,496 L 200,495 L 200,496 L 200,497 L 200,498 L 200,497 L 200,498 L 201,498 L 201,499 L 202,500 L 202,501 L 201,500 L 200,501 L 198,502 L 197,502 L 196,502 L 196,503 L 195,503 L 194,503 L 194,504 L 193,504 L 193,503 L 194,503 L 194,502 L 193,502 L 193,501 L 192,501 L 191,501 L 190,501 L 190,500 L 190,501 L 189,501 L 188,501 L 188,500 L 188,501 L 188,500 L 187,500 L 187,499 L 187,498 L 186,498 L 185,498 L 184,498 L 184,497 L 184,496 L 184,495 L 184,496 L 184,495 L 185,494 L 185,493 L 184,493 L 184,492 L 185,492 L 184,492 L 185,491 L 184,491 L 185,491 L 185,490 " />
<path d="M 259,486 L 259,487 L 258,487 L 257,487 L 257,488 L 257,489 L 256,489 L 257,489 L 257,488 L 256,488 L 255,488 L 254,488 L 253,488 L 252,488 L 251,488 L 250,489 L 249,489 L 248,489 L 248,490 L 247,490 L 246,490 L 246,491 L 245,491 L 245,492 L 244,492 L 244,493 L 243,493 L 243,494 L 242,494 L 242,495 L 241,495 L 241,494 L 241,493 L 241,492 L 241,493 L 241,492 L 242,492 L 243,492 L 243,491 L 244,491 L 245,491 L 245,490 L 246,490 L 246,489 L 247,489 L 247,488 L 248,488 L 249,488 L 248,488 L 249,488 L 249,487 L 249,488 L 250,488 L 250,487 L 251,487 L 252,487 L 253,487 L 253,486 L 254,486 L 255,486 L 256,486 L 257,486 L 257,485 L 258,485 L 259,485 L 259,486 " />
<path d="M 177,474 L 179,476 L 180,477 L 181,477 L 182,477 L 182,478 L 183,478 L 182,478 L 182,479 L 182,480 L 183,480 L 183,481 L 183,482 L 183,483 L 183,487 L 183,490 L 183,494 L 183,498 L 182,498 L 181,499 L 182,499 L 182,500 L 183,500 L 183,499 L 183,500 L 183,501 L 183,500 L 183,501 L 182,501 L 183,501 L 183,502 L 183,503 L 182,503 L 181,504 L 181,505 L 181,506 L 181,507 L 181,508 L 181,509 L 182,509 L 182,510 L 183,510 L 183,511 L 184,511 L 185,511 L 185,512 L 186,512 L 187,512 L 187,511 L 188,511 L 188,512 L 189,512 L 189,511 L 189,512 L 189,511 L 190,511 L 190,510 L 191,510 L 192,509 L 192,508 L 193,508 L 193,509 L 193,510 L 194,511 L 194,510 L 194,511 L 194,512 L 195,513 L 195,514 L 196,515 L 196,519 L 196,520 L 196,521 L 196,522 L 196,523 L 197,524 L 196,524 L 196,525 L 196,526 L 195,528 L 195,529 L 195,530 L 194,530 L 193,531 L 191,533 L 191,534 L 190,534 L 190,535 L 190,536 L 189,537 L 189,538 L 190,539 L 190,540 L 190,541 L 190,542 L 189,544 L 188,545 L 187,546 L 186,547 L 186,548 L 185,548 L 185,549 L 185,550 L 184,550 L 184,551 L 183,551 L 183,552 L 183,553 L 183,554 L 183,555 L 183,556 L 183,557 L 184,557 L 184,558 L 185,558 L 186,558 L 186,559 L 187,559 L 188,559 L 188,560 L 188,561 L 188,562 L 188,563 L 187,564 L 187,565 L 187,566 L 186,567 L 186,568 L 186,569 L 187,569 L 187,570 L 186,570 L 186,571 L 185,571 L 185,572 L 184,572 L 184,573 L 183,573 L 183,574 L 183,575 L 182,575 L 181,576 L 181,577 L 180,577 L 180,578 L 180,579 L 179,579 L 178,579 L 177,579 L 178,579 L 178,578 L 177,578 L 178,577 L 178,576 L 179,576 L 179,575 L 179,574 L 179,573 L 178,573 L 178,572 L 177,572 L 176,572 L 176,573 L 176,572 L 176,573 L 175,573 L 174,573 L 173,573 L 173,572 L 173,571 L 174,570 L 174,569 L 173,569 L 173,568 L 173,567 L 173,566 L 172,566 L 172,567 L 172,566 L 171,566 L 170,565 L 170,564 L 169,564 L 170,564 L 170,563 L 170,564 L 171,564 L 172,564 L 173,563 L 174,563 L 174,561 L 173,561 L 173,560 L 172,560 L 172,559 L 171,559 L 172,559 L 172,558 L 173,558 L 174,558 L 174,557 L 175,557 L 176,557 L 175,557 L 176,557 L 177,557 L 177,556 L 177,555 L 176,555 L 175,555 L 175,556 L 175,555 L 176,555 L 177,555 L 177,554 L 176,553 L 175,553 L 175,552 L 175,551 L 174,551 L 173,550 L 172,550 L 172,551 L 171,550 L 170,549 L 169,549 L 168,548 L 167,548 L 166,548 L 166,547 L 165,547 L 164,547 L 164,548 L 163,548 L 163,547 L 163,546 L 163,545 L 160,546 L 159,546 L 158,546 L 158,545 L 159,545 L 159,544 L 158,544 L 158,543 L 159,543 L 160,543 L 161,543 L 162,543 L 163,543 L 162,543 L 162,544 L 163,544 L 164,544 L 165,544 L 165,543 L 166,543 L 166,542 L 166,541 L 167,540 L 167,539 L 166,539 L 165,539 L 166,539 L 166,538 L 166,537 L 166,538 L 166,537 L 165,537 L 165,536 L 164,536 L 164,537 L 164,536 L 163,537 L 162,537 L 161,537 L 161,536 L 160,536 L 160,535 L 159,534 L 160,533 L 161,533 L 162,533 L 163,533 L 163,532 L 163,531 L 164,531 L 163,531 L 163,530 L 164,530 L 164,529 L 164,528 L 164,527 L 164,526 L 163,526 L 163,525 L 162,525 L 162,524 L 161,524 L 161,523 L 160,523 L 159,522 L 159,521 L 158,520 L 158,519 L 158,518 L 157,518 L 156,518 L 155,518 L 154,518 L 153,518 L 152,517 L 151,517 L 151,516 L 151,515 L 151,514 L 151,513 L 152,513 L 151,513 L 151,512 L 152,512 L 153,511 L 155,511 L 156,511 L 156,510 L 157,510 L 158,510 L 158,509 L 158,508 L 158,507 L 158,506 L 159,506 L 158,506 L 158,507 L 159,507 L 160,507 L 161,506 L 162,505 L 163,505 L 164,505 L 165,505 L 166,505 L 167,505 L 168,505 L 169,505 L 168,505 L 169,505 L 168,505 L 169,505 L 170,505 L 171,505 L 172,505 L 172,504 L 173,504 L 173,503 L 173,502 L 173,501 L 173,500 L 172,500 L 171,501 L 158,504 L 157,499 L 170,496 L 171,496 L 180,494 L 180,490 L 182,490 L 183,490 L 183,487 L 182,487 L 181,487 L 180,487 L 171,487 L 169,487 L 162,487 L 162,485 L 162,482 L 168,482 L 168,481 L 168,480 L 170,480 L 171,480 L 171,479 L 171,478 L 171,479 L 172,479 L 172,478 L 173,478 L 174,478 L 175,478 L 175,476 L 176,475 L 177,474 " />
<path d="M 262,469 L 261,469 L 262,469 " />
<path d="M 263,469 L 262,469 L 263,469 " />
<path d="M 263,468 L 263,469 L 263,468 L 262,468 L 263,468 " />
<path d="M 263,467 L 263,468 L 263,467 " />
<path d="M 173,468 L 172,468 L 173,468 " />
<path d="M 320,328 L 320,329 L 320,330 L 320,331 L 319,331 L 319,332 L 319,333 L 319,334 L 319,335 L 319,336 L 319,337 L 319,338 L 319,339 L 318,339 L 318,340 L 318,341 L 318,343 L 318,344 L 318,345 L 318,346 L 317,346 L 317,347 L 317,348 L 317,349 L 316,350 L 315,351 L 315,353 L 312,356 L 310,357 L 308,359 L 307,361 L 305,362 L 304,363 L 303,364 L 302,365 L 301,365 L 298,367 L 297,367 L 294,370 L 292,372 L 291,374 L 291,375 L 291,378 L 291,379 L 291,382 L 291,386 L 291,389 L 291,393 L 291,395 L 291,397 L 290,398 L 289,405 L 289,407 L 289,408 L 289,409 L 289,411 L 289,412 L 289,413 L 289,414 L 289,415 L 289,416 L 289,417 L 289,420 L 289,423 L 289,424 L 288,424 L 287,425 L 286,425 L 286,426 L 285,426 L 285,427 L 284,428 L 284,429 L 283,430 L 282,431 L 281,432 L 281,433 L 281,434 L 280,435 L 280,436 L 279,437 L 279,439 L 278,439 L 277,439 L 277,440 L 276,440 L 274,442 L 273,443 L 273,444 L 272,444 L 271,446 L 271,447 L 270,448 L 269,449 L 268,450 L 268,451 L 268,452 L 267,452 L 266,452 L 266,451 L 266,452 L 266,453 L 266,454 L 266,455 L 266,456 L 265,456 L 265,455 L 265,456 L 265,457 L 264,457 L 265,457 L 264,456 L 265,456 L 264,456 L 264,455 L 264,456 L 263,456 L 263,457 L 264,457 L 264,458 L 264,459 L 264,460 L 264,461 L 263,461 L 264,461 L 263,462 L 264,462 L 264,463 L 264,464 L 265,465 L 265,466 L 264,466 L 264,467 L 264,466 L 264,467 L 263,467 L 263,466 L 263,467 L 262,467 L 262,468 L 261,468 L 260,468 L 260,469 L 260,470 L 261,470 L 262,470 L 263,470 L 262,470 L 263,469 L 264,469 L 263,468 L 264,468 L 264,469 L 264,470 L 263,470 L 262,470 L 261,470 L 260,470 L 259,470 L 259,471 L 258,471 L 257,472 L 257,471 L 257,472 L 256,472 L 255,472 L 254,473 L 253,473 L 252,474 L 251,474 L 251,475 L 250,475 L 249,476 L 249,477 L 249,482 L 249,484 L 248,485 L 241,485 L 234,485 L 234,482 L 234,477 L 235,474 L 236,470 L 237,471 L 238,471 L 237,470 L 237,469 L 236,469 L 236,468 L 237,468 L 236,468 L 237,468 L 237,467 L 237,466 L 237,465 L 237,464 L 238,463 L 238,462 L 238,461 L 238,460 L 238,459 L 238,458 L 238,457 L 238,456 L 238,455 L 238,454 L 238,453 L 238,452 L 238,451 L 239,450 L 239,449 L 240,449 L 240,448 L 241,448 L 241,447 L 242,447 L 242,446 L 242,445 L 243,444 L 242,444 L 241,443 L 240,443 L 240,444 L 239,444 L 239,443 L 239,444 L 240,444 L 240,443 L 238,442 L 237,442 L 237,443 L 236,443 L 236,442 L 235,442 L 235,443 L 234,444 L 234,445 L 234,446 L 233,446 L 233,447 L 233,448 L 232,449 L 232,450 L 232,451 L 231,451 L 231,452 L 230,452 L 230,453 L 229,453 L 229,454 L 229,455 L 229,456 L 229,457 L 229,458 L 229,460 L 228,462 L 228,463 L 228,464 L 228,465 L 228,467 L 228,468 L 228,469 L 228,473 L 228,474 L 227,474 L 227,475 L 227,476 L 226,476 L 226,477 L 225,478 L 225,479 L 224,481 L 224,482 L 224,483 L 224,484 L 225,484 L 225,485 L 224,485 L 224,484 L 223,484 L 222,484 L 221,484 L 220,484 L 219,484 L 218,484 L 217,484 L 216,484 L 215,484 L 214,483 L 213,483 L 212,483 L 212,482 L 212,481 L 213,480 L 214,480 L 214,481 L 215,481 L 215,479 L 214,478 L 214,477 L 214,476 L 213,475 L 213,479 L 211,480 L 209,481 L 194,481 L 186,481 L 185,481 L 185,480 L 184,479 L 184,477 L 183,476 L 182,476 L 181,476 L 180,476 L 178,474 L 177,473 L 175,471 L 174,470 L 173,469 L 173,468 L 172,467 L 171,466 L 171,465 L 172,463 L 172,462 L 173,462 L 173,461 L 174,461 L 175,461 L 176,461 L 177,461 L 178,461 L 179,461 L 180,461 L 181,462 L 182,462 L 182,461 L 183,461 L 184,460 L 185,460 L 185,459 L 186,459 L 186,458 L 187,458 L 188,457 L 188,456 L 188,455 L 189,455 L 189,454 L 189,453 L 189,452 L 189,451 L 189,450 L 189,449 L 188,449 L 188,448 L 187,448 L 186,448 L 185,448 L 185,447 L 184,447 L 184,446 L 184,445 L 183,445 L 183,444 L 184,444 L 183,444 L 183,443 L 183,442 L 184,442 L 184,441 L 184,440 L 185,440 L 185,439 L 184,439 L 184,438 L 183,438 L 183,437 L 182,437 L 182,436 L 182,435 L 181,434 L 181,433 L 180,432 L 180,433 L 179,433 L 178,433 L 178,434 L 177,434 L 176,434 L 175,434 L 175,433 L 174,433 L 174,432 L 173,432 L 173,431 L 172,431 L 171,431 L 170,431 L 169,431 L 169,430 L 168,430 L 167,430 L 166,430 L 165,430 L 164,429 L 163,428 L 163,427 L 162,427 L 162,426 L 161,425 L 160,425 L 160,424 L 159,424 L 159,423 L 158,423 L 158,422 L 158,421 L 158,420 L 157,420 L 156,420 L 155,420 L 154,420 L 153,420 L 154,420 L 154,419 L 154,418 L 154,417 L 153,416 L 153,415 L 152,415 L 152,414 L 151,413 L 151,412 L 150,412 L 150,411 L 150,410 L 149,410 L 148,409 L 147,408 L 147,406 L 147,405 L 146,405 L 146,404 L 147,403 L 149,402 L 149,403 L 150,403 L 151,403 L 152,403 L 153,403 L 153,402 L 154,402 L 155,401 L 156,401 L 158,402 L 159,402 L 160,402 L 161,402 L 161,401 L 162,402 L 163,402 L 164,402 L 165,401 L 166,401 L 166,402 L 167,402 L 167,403 L 168,403 L 169,403 L 170,403 L 170,404 L 171,404 L 171,405 L 172,405 L 173,405 L 174,406 L 175,406 L 176,405 L 176,404 L 177,404 L 178,404 L 179,404 L 180,404 L 181,403 L 182,402 L 183,402 L 184,402 L 185,402 L 186,402 L 187,403 L 188,403 L 189,402 L 189,401 L 189,400 L 189,399 L 189,398 L 190,398 L 191,397 L 190,397 L 190,396 L 191,396 L 192,396 L 193,395 L 195,395 L 196,395 L 196,394 L 197,394 L 198,394 L 199,394 L 200,394 L 200,393 L 201,393 L 202,392 L 203,392 L 204,393 L 205,393 L 206,392 L 207,393 L 208,393 L 209,393 L 210,393 L 210,394 L 211,394 L 211,395 L 212,394 L 213,395 L 213,396 L 213,397 L 213,398 L 214,398 L 214,399 L 213,399 L 212,400 L 211,402 L 210,402 L 209,402 L 209,401 L 208,401 L 208,402 L 207,402 L 207,403 L 207,402 L 208,403 L 208,404 L 209,404 L 209,405 L 210,406 L 210,405 L 211,406 L 210,407 L 211,407 L 211,408 L 212,408 L 212,409 L 212,410 L 213,410 L 214,410 L 215,410 L 216,410 L 217,410 L 217,409 L 216,409 L 216,408 L 216,407 L 215,407 L 215,406 L 215,405 L 215,404 L 215,403 L 216,403 L 215,403 L 215,402 L 215,403 L 215,402 L 216,402 L 216,401 L 217,401 L 218,401 L 219,401 L 220,401 L 221,401 L 221,400 L 221,399 L 222,399 L 221,399 L 221,398 L 220,398 L 220,399 L 219,398 L 218,396 L 217,395 L 216,395 L 216,394 L 217,393 L 217,392 L 218,392 L 218,391 L 218,392 L 218,391 L 217,391 L 217,390 L 216,390 L 216,389 L 215,389 L 214,389 L 214,388 L 213,388 L 213,387 L 214,387 L 214,386 L 215,386 L 216,386 L 216,387 L 216,386 L 216,387 L 217,387 L 219,388 L 220,388 L 221,388 L 220,387 L 220,386 L 220,385 L 220,384 L 220,382 L 220,381 L 220,380 L 220,379 L 221,378 L 221,377 L 221,376 L 220,376 L 220,375 L 219,375 L 219,374 L 218,373 L 217,372 L 216,371 L 216,370 L 216,369 L 216,368 L 216,367 L 216,366 L 216,365 L 215,365 L 215,364 L 214,364 L 214,363 L 214,362 L 213,361 L 213,360 L 213,359 L 212,359 L 212,358 L 211,357 L 211,356 L 212,356 L 213,355 L 214,354 L 215,354 L 215,353 L 216,352 L 216,351 L 217,351 L 217,350 L 218,349 L 218,348 L 219,348 L 220,348 L 221,348 L 221,347 L 222,347 L 222,346 L 223,346 L 223,345 L 223,344 L 224,344 L 225,343 L 225,344 L 226,344 L 226,343 L 227,343 L 228,343 L 229,344 L 231,344 L 232,344 L 232,345 L 233,345 L 234,345 L 235,344 L 236,344 L 237,344 L 237,343 L 239,343 L 240,343 L 240,342 L 241,342 L 242,343 L 243,343 L 243,342 L 244,342 L 245,342 L 244,342 L 244,341 L 243,341 L 243,340 L 242,339 L 241,338 L 241,337 L 242,337 L 242,336 L 243,336 L 243,335 L 244,334 L 245,334 L 245,335 L 246,335 L 247,335 L 248,336 L 248,337 L 250,340 L 251,341 L 251,340 L 252,340 L 252,341 L 253,340 L 253,341 L 254,341 L 257,339 L 258,339 L 259,338 L 260,338 L 261,337 L 262,337 L 262,336 L 263,336 L 263,335 L 264,335 L 265,334 L 266,334 L 266,333 L 267,333 L 267,332 L 268,331 L 269,330 L 270,330 L 270,329 L 271,329 L 272,329 L 273,329 L 274,328 L 274,329 L 275,329 L 275,330 L 276,330 L 277,331 L 278,331 L 279,331 L 280,331 L 281,331 L 283,331 L 285,331 L 286,331 L 287,331 L 288,331 L 290,330 L 291,330 L 292,330 L 293,330 L 294,329 L 295,329 L 297,329 L 298,329 L 299,329 L 300,329 L 301,328 L 301,329 L 302,328 L 303,328 L 304,328 L 304,327 L 305,327 L 306,327 L 307,327 L 308,326 L 309,326 L 310,326 L 310,325 L 311,325 L 312,325 L 313,324 L 314,324 L 314,323 L 315,323 L 316,322 L 317,322 L 318,320 L 319,320 L 320,322 L 320,323 L 320,325 L 320,328 " />
</g>
<g id="21130" >
<path d="M 389,357 L 390,357 L 391,357 L 392,357 L 392,358 L 393,358 L 393,359 L 393,360 L 394,361 L 395,361 L 396,362 L 397,362 L 397,363 L 398,363 L 399,363 L 400,363 L 401,363 L 402,363 L 403,363 L 404,363 L 405,363 L 405,364 L 406,364 L 406,365 L 407,365 L 408,365 L 409,365 L 410,365 L 411,365 L 411,366 L 412,366 L 413,366 L 414,366 L 415,366 L 416,366 L 416,367 L 417,367 L 418,367 L 418,368 L 419,368 L 419,369 L 419,370 L 419,371 L 420,371 L 420,372 L 421,372 L 421,373 L 421,374 L 421,375 L 420,375 L 420,376 L 419,376 L 420,377 L 419,378 L 419,379 L 418,380 L 418,381 L 416,381 L 416,380 L 416,379 L 415,380 L 415,379 L 414,379 L 414,378 L 414,377 L 414,376 L 413,376 L 412,376 L 411,376 L 410,376 L 410,377 L 409,377 L 408,377 L 407,377 L 406,377 L 406,378 L 406,379 L 405,379 L 405,380 L 405,382 L 405,383 L 405,384 L 406,384 L 405,384 L 406,384 L 406,385 L 406,386 L 405,386 L 405,387 L 405,388 L 404,388 L 404,389 L 402,391 L 401,392 L 401,393 L 403,395 L 403,396 L 404,395 L 405,396 L 404,397 L 403,397 L 402,398 L 401,398 L 400,397 L 399,397 L 398,398 L 397,398 L 396,399 L 395,399 L 394,399 L 394,400 L 394,399 L 393,399 L 392,398 L 391,397 L 391,396 L 391,395 L 390,395 L 390,393 L 390,392 L 391,391 L 391,390 L 392,390 L 393,389 L 393,388 L 393,387 L 393,386 L 393,385 L 392,385 L 391,385 L 391,384 L 391,383 L 390,382 L 389,382 L 389,381 L 388,381 L 387,381 L 388,380 L 387,380 L 388,380 L 387,380 L 387,379 L 387,378 L 386,378 L 385,378 L 384,378 L 384,379 L 384,380 L 383,380 L 383,381 L 383,382 L 382,381 L 381,381 L 380,381 L 381,381 L 380,381 L 380,382 L 379,382 L 380,382 L 380,381 L 379,381 L 379,382 L 379,381 L 379,380 L 378,380 L 377,380 L 376,380 L 376,379 L 376,378 L 375,377 L 376,377 L 376,376 L 376,375 L 375,374 L 375,373 L 374,373 L 373,373 L 372,373 L 371,373 L 371,372 L 370,373 L 369,373 L 368,373 L 367,373 L 367,372 L 366,372 L 366,371 L 366,370 L 365,370 L 365,369 L 364,369 L 364,368 L 364,367 L 363,367 L 363,366 L 363,365 L 363,364 L 363,363 L 364,362 L 365,363 L 366,364 L 367,365 L 368,365 L 368,364 L 369,364 L 370,364 L 371,364 L 371,363 L 372,364 L 373,364 L 374,364 L 374,365 L 375,365 L 376,365 L 376,364 L 377,364 L 377,363 L 378,363 L 377,363 L 379,363 L 379,362 L 382,362 L 383,362 L 383,361 L 384,361 L 383,360 L 384,360 L 385,360 L 386,358 L 389,357 " />
</g>
<g id="21140" >
<path d="M 423,373 L 423,374 L 423,375 L 424,375 L 423,376 L 423,377 L 424,377 L 424,378 L 424,379 L 425,380 L 425,381 L 426,382 L 426,383 L 427,384 L 428,384 L 428,385 L 428,386 L 429,386 L 429,387 L 429,388 L 429,389 L 430,389 L 430,390 L 431,391 L 431,392 L 432,392 L 432,393 L 433,393 L 433,394 L 434,394 L 434,395 L 435,396 L 436,397 L 436,398 L 437,398 L 437,399 L 438,400 L 438,401 L 439,401 L 439,402 L 438,402 L 435,403 L 433,404 L 432,404 L 433,403 L 432,402 L 432,403 L 431,403 L 432,403 L 432,404 L 430,405 L 429,403 L 429,402 L 428,402 L 428,403 L 427,403 L 426,403 L 425,403 L 425,404 L 425,405 L 424,405 L 424,406 L 423,406 L 423,407 L 423,408 L 422,408 L 422,409 L 422,410 L 421,410 L 421,411 L 421,412 L 422,412 L 423,412 L 424,412 L 424,413 L 424,414 L 424,415 L 424,416 L 424,418 L 422,419 L 422,420 L 421,420 L 421,421 L 421,420 L 420,420 L 420,421 L 420,420 L 420,421 L 419,422 L 419,423 L 418,422 L 417,421 L 416,421 L 415,420 L 414,419 L 414,418 L 413,418 L 413,417 L 412,417 L 411,417 L 411,416 L 411,415 L 412,415 L 412,414 L 412,413 L 411,413 L 411,412 L 411,411 L 411,410 L 411,409 L 410,409 L 410,408 L 410,407 L 410,406 L 409,405 L 409,404 L 408,404 L 408,403 L 408,402 L 407,402 L 407,401 L 407,400 L 406,400 L 406,399 L 406,398 L 405,398 L 405,397 L 405,396 L 404,395 L 403,396 L 403,395 L 401,393 L 401,392 L 402,391 L 404,389 L 404,388 L 405,388 L 405,387 L 405,386 L 406,386 L 406,385 L 406,384 L 405,384 L 406,384 L 405,384 L 405,383 L 405,382 L 405,380 L 405,379 L 406,379 L 406,378 L 406,377 L 407,377 L 408,377 L 409,377 L 410,377 L 410,376 L 411,376 L 412,376 L 413,376 L 414,376 L 414,377 L 414,378 L 414,379 L 415,379 L 415,380 L 416,379 L 416,380 L 416,381 L 418,381 L 418,380 L 419,379 L 419,378 L 420,377 L 419,376 L 420,376 L 420,375 L 421,375 L 421,374 L 421,373 L 421,372 L 421,371 L 421,370 L 422,370 L 422,371 L 422,372 L 422,373 L 423,373 " />
</g>
<g id="21150" >
<path d="M 315,364 L 315,363 L 316,363 L 317,363 L 317,362 L 318,363 L 318,364 L 319,364 L 320,364 L 321,365 L 323,366 L 323,367 L 323,368 L 324,368 L 324,367 L 325,368 L 326,367 L 328,368 L 328,369 L 329,369 L 330,369 L 331,369 L 332,369 L 333,369 L 334,369 L 337,369 L 338,369 L 339,369 L 340,370 L 340,371 L 340,373 L 340,374 L 340,375 L 341,376 L 340,376 L 340,377 L 339,377 L 338,378 L 337,378 L 337,379 L 336,380 L 335,381 L 334,382 L 333,383 L 332,384 L 332,385 L 332,386 L 332,387 L 332,388 L 333,389 L 333,390 L 334,391 L 334,392 L 334,393 L 334,394 L 333,394 L 333,395 L 332,396 L 333,396 L 332,396 L 333,397 L 332,398 L 332,400 L 333,401 L 334,401 L 334,402 L 335,402 L 335,403 L 336,403 L 337,404 L 337,405 L 337,406 L 337,407 L 337,408 L 337,409 L 337,410 L 337,411 L 337,412 L 336,413 L 335,413 L 335,414 L 336,415 L 337,415 L 337,416 L 336,418 L 335,420 L 334,421 L 334,422 L 333,422 L 333,421 L 332,421 L 331,421 L 331,420 L 330,420 L 329,420 L 328,421 L 327,421 L 327,420 L 326,420 L 325,420 L 325,419 L 323,419 L 322,419 L 320,419 L 320,420 L 321,421 L 322,421 L 323,421 L 324,422 L 325,422 L 325,423 L 326,423 L 327,424 L 326,424 L 326,425 L 326,426 L 325,426 L 326,426 L 326,427 L 326,428 L 327,428 L 328,428 L 327,428 L 326,428 L 326,427 L 325,427 L 326,428 L 326,429 L 326,430 L 326,431 L 326,432 L 326,433 L 326,432 L 327,432 L 327,433 L 326,433 L 326,434 L 326,435 L 325,435 L 325,436 L 324,436 L 324,437 L 323,437 L 321,437 L 319,437 L 318,437 L 316,436 L 315,436 L 314,436 L 313,436 L 312,436 L 311,438 L 310,439 L 309,440 L 308,441 L 308,442 L 307,444 L 306,444 L 305,444 L 304,444 L 303,444 L 301,443 L 300,442 L 299,442 L 298,442 L 298,441 L 297,441 L 297,440 L 296,440 L 295,440 L 294,440 L 293,440 L 293,439 L 292,439 L 292,440 L 291,441 L 290,441 L 289,441 L 289,442 L 289,443 L 289,444 L 288,443 L 288,442 L 287,442 L 287,441 L 287,440 L 287,439 L 287,438 L 287,437 L 287,436 L 287,435 L 287,434 L 288,434 L 288,433 L 288,432 L 289,431 L 289,430 L 290,429 L 290,428 L 290,427 L 290,426 L 291,425 L 291,424 L 292,424 L 289,424 L 289,423 L 289,420 L 289,417 L 289,416 L 289,415 L 289,414 L 289,413 L 289,412 L 289,411 L 289,409 L 289,408 L 289,407 L 289,405 L 290,398 L 291,397 L 291,395 L 291,393 L 291,389 L 291,386 L 291,382 L 291,379 L 291,378 L 291,375 L 291,374 L 292,372 L 294,370 L 297,367 L 298,367 L 301,365 L 302,365 L 303,364 L 304,363 L 305,362 L 307,361 L 308,359 L 310,357 L 312,356 L 313,357 L 313,358 L 313,359 L 312,359 L 312,360 L 312,361 L 312,362 L 313,362 L 314,362 L 314,363 L 314,364 L 315,364 " />
</g>
<g id="21310" >
<path d="M 518,336 L 518,335 L 519,335 L 519,336 L 518,336 " />
<path d="M 567,227 L 566,227 L 566,226 L 566,225 L 567,225 L 567,224 L 566,224 L 566,223 L 566,222 L 567,222 L 567,221 L 566,221 L 566,222 L 565,221 L 566,222 L 566,223 L 566,224 L 565,224 L 564,224 L 564,222 L 564,221 L 563,222 L 564,221 L 563,221 L 562,221 L 561,221 L 561,220 L 561,219 L 561,220 L 561,221 L 560,221 L 561,221 L 560,221 L 559,221 L 559,222 L 558,222 L 557,222 L 557,223 L 558,223 L 559,223 L 558,223 L 557,223 L 556,223 L 555,223 L 555,224 L 554,224 L 554,225 L 553,225 L 552,225 L 551,225 L 551,226 L 550,226 L 549,226 L 549,227 L 548,227 L 548,228 L 549,228 L 550,228 L 549,228 L 548,228 L 547,228 L 547,229 L 546,229 L 546,230 L 546,231 L 545,231 L 545,232 L 545,233 L 544,232 L 544,233 L 543,233 L 543,234 L 544,234 L 544,233 L 544,234 L 545,234 L 544,234 L 545,234 L 545,235 L 544,235 L 544,236 L 544,237 L 544,238 L 544,239 L 544,240 L 544,239 L 543,239 L 543,240 L 543,241 L 542,242 L 543,243 L 542,242 L 541,243 L 541,244 L 541,243 L 541,244 L 541,245 L 542,245 L 542,246 L 543,246 L 544,246 L 544,245 L 543,246 L 543,247 L 543,248 L 543,249 L 543,250 L 544,251 L 543,251 L 543,252 L 544,252 L 543,251 L 544,251 L 544,252 L 544,251 L 545,251 L 545,250 L 545,251 L 544,251 L 544,252 L 545,252 L 544,252 L 545,252 L 545,253 L 544,253 L 544,254 L 544,255 L 544,256 L 543,256 L 543,257 L 543,258 L 544,258 L 543,258 L 543,259 L 542,259 L 542,260 L 543,261 L 542,261 L 542,260 L 541,260 L 541,261 L 541,262 L 541,263 L 542,262 L 542,263 L 543,263 L 542,263 L 542,262 L 543,262 L 542,262 L 543,263 L 542,263 L 542,264 L 542,265 L 543,266 L 543,267 L 543,268 L 542,268 L 542,267 L 541,267 L 541,268 L 541,267 L 541,268 L 540,268 L 540,269 L 540,270 L 540,271 L 540,272 L 540,273 L 540,274 L 540,275 L 539,276 L 539,277 L 538,278 L 538,279 L 537,279 L 537,280 L 536,279 L 536,280 L 536,279 L 536,278 L 535,278 L 535,279 L 534,279 L 534,278 L 533,278 L 533,279 L 532,279 L 532,280 L 532,281 L 532,280 L 532,279 L 532,278 L 531,278 L 530,279 L 530,280 L 530,281 L 529,281 L 530,282 L 530,283 L 530,284 L 530,285 L 529,285 L 529,286 L 528,286 L 527,286 L 527,287 L 527,286 L 526,286 L 525,286 L 525,287 L 524,287 L 524,286 L 523,286 L 522,286 L 523,287 L 522,287 L 522,288 L 521,288 L 521,289 L 521,290 L 521,291 L 521,292 L 522,292 L 522,293 L 523,293 L 523,294 L 524,294 L 524,293 L 525,293 L 525,294 L 526,294 L 527,294 L 527,293 L 528,293 L 528,292 L 529,292 L 530,292 L 530,291 L 531,291 L 531,292 L 531,293 L 532,293 L 533,292 L 533,291 L 533,290 L 532,290 L 533,290 L 533,291 L 534,292 L 535,292 L 536,292 L 536,291 L 537,291 L 537,292 L 537,293 L 537,294 L 537,295 L 536,295 L 536,296 L 536,295 L 536,296 L 536,297 L 537,297 L 537,298 L 537,299 L 537,300 L 536,299 L 535,299 L 534,299 L 534,298 L 533,299 L 534,299 L 534,298 L 534,299 L 535,299 L 536,299 L 537,300 L 537,301 L 538,301 L 538,302 L 538,303 L 538,304 L 538,305 L 538,306 L 538,305 L 538,306 L 537,306 L 538,306 L 537,306 L 537,307 L 536,308 L 535,308 L 535,307 L 534,307 L 534,306 L 533,306 L 533,307 L 532,308 L 531,308 L 531,307 L 531,308 L 531,309 L 531,310 L 532,310 L 532,309 L 533,309 L 534,308 L 534,309 L 533,309 L 533,310 L 534,310 L 534,311 L 534,312 L 534,313 L 533,313 L 533,312 L 533,313 L 532,313 L 532,314 L 531,314 L 530,314 L 530,315 L 530,314 L 530,315 L 530,316 L 530,317 L 531,317 L 531,318 L 531,319 L 531,320 L 531,321 L 532,321 L 532,322 L 531,322 L 530,322 L 530,323 L 529,323 L 528,323 L 528,324 L 527,324 L 528,324 L 528,325 L 527,325 L 527,326 L 527,327 L 528,328 L 527,328 L 527,329 L 526,329 L 527,329 L 527,330 L 526,330 L 526,331 L 525,331 L 525,332 L 524,332 L 524,333 L 521,333 L 520,333 L 519,332 L 518,332 L 518,331 L 519,331 L 519,329 L 518,329 L 517,329 L 516,330 L 517,330 L 517,331 L 517,332 L 517,333 L 518,333 L 517,333 L 517,334 L 518,335 L 517,336 L 517,335 L 517,336 L 516,336 L 515,337 L 515,338 L 515,339 L 514,339 L 514,338 L 514,339 L 513,339 L 513,340 L 514,340 L 513,340 L 512,340 L 512,341 L 512,342 L 513,342 L 513,343 L 513,344 L 513,345 L 514,345 L 514,346 L 515,346 L 515,347 L 516,347 L 517,348 L 517,349 L 518,349 L 518,350 L 519,350 L 519,351 L 518,352 L 519,352 L 519,353 L 519,354 L 519,355 L 519,356 L 519,357 L 518,357 L 518,358 L 517,358 L 517,359 L 517,358 L 516,358 L 516,357 L 515,357 L 515,358 L 516,358 L 515,358 L 515,359 L 515,360 L 515,361 L 515,362 L 514,362 L 514,363 L 514,364 L 513,365 L 514,365 L 514,366 L 514,367 L 513,367 L 514,368 L 514,369 L 513,369 L 513,370 L 512,370 L 511,370 L 510,371 L 510,370 L 509,370 L 509,369 L 509,368 L 508,367 L 507,368 L 506,368 L 506,369 L 505,369 L 505,370 L 505,371 L 504,371 L 505,371 L 504,371 L 504,370 L 504,371 L 504,370 L 504,371 L 504,372 L 505,372 L 504,372 L 504,373 L 503,373 L 503,372 L 502,372 L 502,373 L 502,372 L 502,373 L 501,373 L 501,372 L 500,372 L 500,371 L 500,370 L 500,369 L 500,368 L 500,367 L 499,367 L 500,367 L 500,366 L 500,365 L 499,364 L 499,363 L 499,362 L 500,362 L 500,361 L 500,360 L 500,359 L 499,358 L 500,358 L 499,358 L 499,357 L 498,357 L 497,356 L 496,356 L 495,356 L 494,356 L 494,355 L 493,355 L 493,354 L 493,355 L 490,356 L 489,356 L 489,357 L 489,358 L 488,358 L 489,359 L 488,360 L 488,361 L 487,361 L 487,362 L 486,362 L 485,364 L 485,365 L 484,365 L 484,366 L 482,366 L 481,366 L 480,365 L 479,365 L 479,364 L 480,363 L 480,362 L 481,361 L 481,359 L 480,358 L 479,357 L 478,357 L 477,357 L 476,357 L 475,356 L 474,355 L 473,354 L 472,354 L 470,353 L 469,353 L 468,353 L 468,354 L 466,353 L 465,353 L 464,352 L 463,352 L 463,351 L 463,350 L 462,349 L 461,349 L 460,349 L 460,348 L 459,348 L 459,347 L 459,346 L 459,345 L 459,344 L 459,343 L 460,342 L 461,342 L 461,341 L 462,340 L 463,339 L 463,338 L 463,337 L 464,336 L 464,335 L 463,334 L 464,333 L 465,332 L 465,331 L 465,330 L 466,330 L 466,329 L 466,328 L 466,327 L 466,326 L 466,325 L 465,325 L 465,324 L 464,323 L 463,323 L 462,322 L 462,321 L 461,321 L 461,320 L 460,320 L 460,319 L 459,319 L 459,318 L 460,318 L 459,318 L 460,318 L 459,318 L 458,318 L 457,318 L 456,318 L 455,318 L 454,317 L 455,315 L 454,315 L 454,314 L 455,314 L 456,313 L 456,311 L 455,309 L 454,309 L 454,308 L 453,308 L 452,308 L 451,308 L 450,308 L 449,307 L 449,306 L 449,305 L 448,305 L 448,304 L 447,304 L 447,303 L 446,303 L 446,302 L 445,302 L 443,302 L 443,301 L 442,301 L 441,300 L 440,299 L 440,298 L 440,297 L 440,296 L 440,295 L 440,294 L 441,293 L 440,292 L 439,292 L 438,292 L 436,294 L 436,293 L 435,292 L 434,292 L 433,292 L 432,293 L 432,292 L 431,292 L 430,291 L 429,291 L 428,291 L 427,291 L 426,291 L 425,291 L 425,292 L 425,291 L 426,291 L 426,290 L 425,290 L 425,289 L 425,288 L 425,287 L 425,286 L 424,285 L 425,285 L 425,284 L 425,283 L 425,282 L 426,281 L 426,280 L 427,279 L 428,279 L 428,278 L 428,277 L 428,276 L 428,275 L 428,274 L 429,274 L 428,272 L 427,271 L 428,270 L 428,269 L 429,269 L 429,268 L 429,267 L 429,266 L 430,265 L 430,264 L 430,262 L 431,261 L 433,260 L 434,260 L 433,258 L 432,256 L 432,254 L 432,253 L 431,253 L 430,253 L 430,252 L 429,252 L 429,251 L 428,251 L 427,251 L 426,251 L 426,250 L 425,249 L 424,249 L 423,249 L 422,249 L 421,249 L 420,249 L 419,249 L 419,248 L 418,248 L 417,248 L 416,247 L 415,247 L 414,247 L 413,247 L 414,246 L 414,245 L 415,245 L 415,244 L 416,244 L 416,243 L 416,242 L 416,241 L 417,241 L 417,240 L 417,239 L 417,238 L 416,238 L 416,237 L 416,236 L 416,235 L 416,234 L 416,233 L 417,233 L 417,232 L 417,231 L 417,230 L 418,230 L 419,229 L 420,229 L 420,228 L 421,228 L 422,227 L 422,226 L 422,225 L 423,225 L 423,224 L 423,223 L 423,222 L 424,222 L 424,221 L 424,220 L 425,220 L 426,220 L 426,219 L 427,219 L 427,218 L 428,218 L 428,217 L 428,216 L 428,215 L 427,215 L 427,214 L 427,213 L 426,213 L 426,212 L 426,211 L 427,211 L 427,210 L 428,210 L 428,209 L 428,208 L 428,207 L 429,207 L 429,206 L 429,207 L 429,206 L 430,206 L 430,205 L 429,205 L 429,204 L 429,203 L 430,203 L 430,202 L 430,201 L 431,201 L 431,200 L 432,200 L 432,199 L 433,199 L 434,199 L 434,198 L 435,198 L 435,197 L 435,196 L 435,195 L 434,195 L 434,194 L 434,193 L 434,192 L 433,192 L 433,191 L 432,191 L 432,190 L 431,190 L 431,189 L 430,189 L 429,188 L 429,187 L 429,188 L 429,187 L 428,187 L 428,186 L 427,185 L 426,185 L 425,185 L 424,185 L 424,184 L 423,183 L 423,182 L 421,181 L 420,181 L 421,180 L 421,179 L 422,180 L 423,181 L 424,181 L 425,181 L 425,180 L 426,180 L 428,180 L 429,180 L 429,181 L 430,181 L 431,181 L 431,182 L 432,182 L 433,182 L 434,183 L 435,182 L 436,182 L 437,182 L 438,182 L 438,183 L 438,182 L 439,182 L 439,183 L 441,183 L 442,183 L 443,184 L 444,184 L 444,183 L 444,184 L 445,184 L 446,184 L 447,184 L 448,184 L 449,184 L 449,185 L 451,185 L 451,186 L 453,186 L 453,187 L 455,187 L 456,188 L 457,189 L 458,190 L 458,191 L 459,191 L 460,192 L 461,192 L 462,193 L 464,194 L 465,194 L 466,195 L 467,195 L 468,196 L 469,196 L 470,197 L 471,197 L 472,196 L 473,196 L 473,195 L 474,195 L 474,194 L 475,194 L 476,194 L 476,193 L 476,192 L 477,192 L 477,191 L 477,190 L 478,189 L 480,188 L 481,188 L 482,188 L 483,187 L 484,187 L 485,186 L 485,185 L 485,184 L 486,183 L 487,183 L 487,182 L 488,182 L 488,181 L 489,181 L 489,180 L 489,179 L 489,177 L 489,176 L 489,174 L 489,173 L 490,172 L 490,171 L 489,170 L 488,169 L 487,168 L 487,167 L 486,166 L 485,164 L 485,163 L 486,163 L 487,162 L 487,161 L 488,160 L 488,159 L 489,158 L 489,157 L 490,157 L 491,158 L 492,159 L 493,160 L 494,161 L 495,162 L 496,163 L 497,163 L 497,164 L 500,165 L 500,166 L 501,166 L 502,166 L 503,166 L 504,167 L 506,167 L 508,167 L 509,166 L 511,166 L 513,166 L 514,166 L 515,165 L 516,165 L 517,165 L 518,165 L 519,166 L 520,166 L 521,166 L 521,165 L 521,164 L 521,163 L 522,163 L 522,162 L 523,162 L 524,162 L 525,161 L 526,162 L 528,162 L 529,162 L 530,162 L 530,163 L 531,163 L 532,163 L 533,162 L 533,161 L 534,161 L 534,160 L 533,159 L 533,158 L 534,158 L 535,158 L 535,159 L 536,159 L 537,160 L 538,160 L 538,161 L 539,161 L 540,161 L 541,161 L 542,161 L 543,160 L 544,160 L 545,159 L 545,158 L 546,158 L 546,159 L 546,160 L 547,160 L 547,161 L 547,162 L 547,163 L 548,163 L 548,164 L 548,165 L 549,166 L 550,166 L 550,167 L 551,167 L 551,168 L 552,168 L 552,169 L 553,170 L 553,171 L 554,171 L 555,172 L 555,173 L 556,174 L 557,174 L 557,176 L 557,178 L 558,179 L 558,180 L 559,180 L 560,180 L 561,181 L 562,181 L 562,182 L 561,182 L 561,183 L 561,184 L 561,185 L 560,185 L 560,186 L 560,187 L 560,189 L 560,190 L 560,191 L 561,191 L 561,192 L 562,192 L 562,193 L 563,193 L 563,194 L 563,195 L 563,196 L 563,197 L 562,198 L 562,199 L 563,199 L 563,200 L 563,201 L 562,201 L 562,202 L 561,202 L 561,203 L 560,204 L 560,205 L 559,205 L 559,206 L 560,206 L 561,207 L 562,207 L 563,207 L 564,208 L 565,208 L 566,207 L 567,207 L 567,206 L 568,208 L 569,208 L 569,209 L 570,210 L 570,209 L 571,209 L 572,209 L 572,210 L 573,210 L 573,211 L 574,211 L 575,211 L 576,211 L 577,211 L 578,210 L 579,211 L 580,211 L 580,212 L 579,212 L 579,213 L 579,214 L 579,215 L 580,216 L 580,217 L 581,217 L 581,218 L 581,220 L 581,221 L 582,223 L 581,223 L 581,224 L 580,225 L 577,226 L 578,226 L 577,226 L 577,227 L 577,228 L 577,227 L 578,227 L 579,226 L 578,227 L 577,228 L 576,229 L 575,229 L 574,229 L 573,229 L 572,229 L 571,229 L 570,229 L 569,229 L 570,229 L 569,229 L 568,229 L 567,229 L 567,228 L 566,228 L 565,228 L 565,227 L 566,227 L 566,228 L 567,228 L 567,227 " />
</g>
</g>
</g></svg>