<?xml version="1.0" standalone="no"?>
<!DOCTYPE svg PUBLIC "-//W3C//DTD SVG 1.1//EN" "http://www.w3.org/Graphics/SVG/1.1/DTD/svg11.dtd">
<svg xmlns="http://www.w3.org/2000/svg" xmlns:inkscape="http://www.inkscape.org/namespaces/inkscape" xmlns:xlink="http://www.w3.org/1999/xlink" viewBox = "220 150 700 700" version = "1.1">
<!-- svg generated using QGIS www.qgis.org -->
<g id="tl_scco_sig" inkscape:groupmode="layer" inkscape:label="tl_scco_sig">
<g stroke="none" fill="rgb(255,255,255)" stroke-linejoin="round" stroke-width="0.26" style="stroke:rgb(0,0,0);stroke-width:1">
<g id="11010" >
<path d="M 596,446 L 597,446 L 597,447 L 598,447 L 598,446 L 599,446 L 599,445 L 600,445 L 601,445 L 602,445 L 603,444 L 604,444 L 604,443 L 604,444 L 605,444 L 606,444 L 606,445 L 606,446 L 607,446 L 607,447 L 607,448 L 608,448 L 608,449 L 608,450 L 607,450 L 607,451 L 608,451 L 609,451 L 609,450 L 610,450 L 611,450 L 611,449 L 612,449 L 613,449 L 613,450 L 614,450 L 613,450 L 614,451 L 614,450 L 614,451 L 614,452 L 614,453 L 614,454 L 614,455 L 614,456 L 614,457 L 614,458 L 614,459 L 614,460 L 613,460 L 612,460 L 611,460 L 610,460 L 610,461 L 609,461 L 608,462 L 607,462 L 607,463 L 606,463 L 605,463 L 604,463 L 603,463 L 602,463 L 601,463 L 600,463 L 599,463 L 598,463 L 597,463 L 596,463 L 595,463 L 594,463 L 593,463 L 592,463 L 591,463 L 590,463 L 589,463 L 588,463 L 587,463 L 587,464 L 586,464 L 585,464 L 584,464 L 583,464 L 582,465 L 581,465 L 580,465 L 579,465 L 578,465 L 577,465 L 576,465 L 575,465 L 574,465 L 573,466 L 572,466 L 571,466 L 570,466 L 569,466 L 569,465 L 568,465 L 567,465 L 566,465 L 565,465 L 564,464 L 563,464 L 562,464 L 561,464 L 560,464 L 559,464 L 558,464 L 557,464 L 556,464 L 556,463 L 555,463 L 555,464 L 554,464 L 553,464 L 552,464 L 551,464 L 550,464 L 551,465 L 550,465 L 549,465 L 549,464 L 549,465 L 548,465 L 547,465 L 546,465 L 546,466 L 545,467 L 545,468 L 544,468 L 544,469 L 543,469 L 543,468 L 542,468 L 542,467 L 541,467 L 541,466 L 541,465 L 540,465 L 540,464 L 539,464 L 539,463 L 538,463 L 538,462 L 537,462 L 537,461 L 536,460 L 536,459 L 535,459 L 535,458 L 534,458 L 534,457 L 533,457 L 533,456 L 532,455 L 531,455 L 531,454 L 530,453 L 530,452 L 529,452 L 529,451 L 528,451 L 528,450 L 528,449 L 527,449 L 528,448 L 529,448 L 529,447 L 530,447 L 532,447 L 532,446 L 533,446 L 533,445 L 533,444 L 532,444 L 532,443 L 532,442 L 532,441 L 533,440 L 532,439 L 532,437 L 532,436 L 532,435 L 532,434 L 532,433 L 532,432 L 532,431 L 532,430 L 532,429 L 532,428 L 532,427 L 532,426 L 532,425 L 533,425 L 533,424 L 534,424 L 534,423 L 534,422 L 534,421 L 533,421 L 533,420 L 533,419 L 533,418 L 532,418 L 531,418 L 531,417 L 530,417 L 530,416 L 529,416 L 528,417 L 527,417 L 527,418 L 527,417 L 526,417 L 527,417 L 527,416 L 527,415 L 527,414 L 526,414 L 526,413 L 526,412 L 526,411 L 526,410 L 527,410 L 527,409 L 527,408 L 528,408 L 528,407 L 527,407 L 526,406 L 526,405 L 526,404 L 525,404 L 525,403 L 524,402 L 524,401 L 523,401 L 523,399 L 523,397 L 523,396 L 523,395 L 524,394 L 524,393 L 524,391 L 523,390 L 523,389 L 523,388 L 523,387 L 523,386 L 523,385 L 523,384 L 523,383 L 523,382 L 522,381 L 522,380 L 522,379 L 522,378 L 522,377 L 522,376 L 523,375 L 523,374 L 524,374 L 525,374 L 525,373 L 526,373 L 527,373 L 527,372 L 528,372 L 529,372 L 530,371 L 531,371 L 531,370 L 532,370 L 533,369 L 534,369 L 536,369 L 536,368 L 537,368 L 540,369 L 541,368 L 542,367 L 543,367 L 544,367 L 545,367 L 546,367 L 547,367 L 549,366 L 550,366 L 552,365 L 553,365 L 554,365 L 555,366 L 554,366 L 554,369 L 554,370 L 556,370 L 557,370 L 558,370 L 558,369 L 559,369 L 559,370 L 560,370 L 560,371 L 561,371 L 561,372 L 560,372 L 560,374 L 561,375 L 562,376 L 563,377 L 564,380 L 565,382 L 564,384 L 564,385 L 565,388 L 566,389 L 566,390 L 567,391 L 567,392 L 568,393 L 569,394 L 568,394 L 568,395 L 567,398 L 568,398 L 568,400 L 568,401 L 569,401 L 569,402 L 568,403 L 568,404 L 568,405 L 569,406 L 569,408 L 569,409 L 568,410 L 567,410 L 566,410 L 566,411 L 565,410 L 565,411 L 564,411 L 564,412 L 563,412 L 562,413 L 561,413 L 560,413 L 560,414 L 559,414 L 558,414 L 558,415 L 557,415 L 557,416 L 557,417 L 557,418 L 556,418 L 556,419 L 557,419 L 558,419 L 558,420 L 559,420 L 558,420 L 559,421 L 560,421 L 561,422 L 562,423 L 563,423 L 564,424 L 565,424 L 566,424 L 567,424 L 567,425 L 568,425 L 568,426 L 568,427 L 569,427 L 570,428 L 571,428 L 571,429 L 572,429 L 573,429 L 574,429 L 575,429 L 575,428 L 576,428 L 577,428 L 577,429 L 578,429 L 579,429 L 579,428 L 580,428 L 581,428 L 582,428 L 583,428 L 583,427 L 584,427 L 584,428 L 585,428 L 586,428 L 587,428 L 587,429 L 587,430 L 587,431 L 588,432 L 588,433 L 589,433 L 589,434 L 590,434 L 589,434 L 590,434 L 590,435 L 590,436 L 591,436 L 592,436 L 593,436 L 593,437 L 593,438 L 593,439 L 594,439 L 594,440 L 594,441 L 594,442 L 594,443 L 594,444 L 595,445 L 596,445 L 596,446 " />
</g>
<g id="11020" >
<path d="M 614,460 L 614,461 L 614,462 L 614,463 L 614,464 L 614,465 L 614,466 L 614,467 L 614,468 L 614,469 L 614,470 L 617,471 L 618,471 L 618,472 L 618,473 L 618,474 L 617,474 L 617,475 L 616,475 L 616,476 L 615,476 L 615,477 L 614,477 L 614,478 L 614,479 L 613,479 L 613,480 L 614,480 L 614,481 L 614,482 L 613,482 L 612,483 L 612,482 L 611,482 L 610,482 L 609,483 L 610,483 L 609,483 L 608,483 L 607,484 L 607,485 L 607,486 L 606,486 L 606,487 L 606,488 L 606,489 L 605,489 L 605,490 L 604,491 L 604,492 L 603,492 L 603,493 L 602,493 L 602,494 L 601,494 L 601,495 L 600,495 L 600,496 L 599,496 L 599,497 L 598,497 L 597,498 L 596,498 L 596,499 L 596,500 L 596,501 L 595,502 L 595,503 L 596,503 L 595,504 L 594,504 L 593,503 L 592,502 L 591,500 L 591,499 L 592,499 L 591,498 L 592,498 L 592,497 L 591,497 L 591,496 L 591,495 L 591,494 L 590,494 L 589,494 L 588,495 L 587,494 L 586,494 L 585,494 L 584,495 L 583,494 L 583,495 L 582,495 L 582,496 L 581,496 L 581,497 L 581,498 L 580,498 L 579,498 L 578,498 L 578,497 L 577,497 L 577,496 L 576,496 L 576,495 L 575,494 L 574,494 L 574,493 L 573,492 L 572,492 L 571,492 L 570,492 L 569,492 L 569,491 L 569,490 L 568,490 L 567,489 L 567,488 L 566,489 L 565,489 L 564,489 L 563,489 L 563,488 L 562,488 L 561,488 L 560,489 L 559,489 L 558,489 L 558,488 L 558,487 L 557,487 L 556,486 L 556,487 L 555,487 L 555,488 L 555,489 L 553,488 L 552,488 L 551,487 L 550,487 L 550,486 L 546,486 L 546,485 L 544,487 L 543,487 L 542,487 L 542,488 L 541,488 L 541,489 L 540,489 L 539,490 L 538,491 L 538,490 L 538,489 L 537,488 L 537,487 L 537,486 L 537,485 L 538,485 L 538,484 L 539,484 L 539,483 L 539,482 L 539,481 L 538,481 L 537,481 L 537,480 L 538,480 L 539,479 L 540,479 L 541,479 L 541,478 L 542,478 L 542,477 L 543,477 L 543,476 L 544,476 L 545,476 L 546,476 L 546,475 L 546,476 L 546,475 L 547,475 L 546,475 L 546,474 L 546,473 L 545,472 L 545,471 L 544,471 L 544,470 L 544,469 L 543,469 L 544,469 L 544,468 L 545,468 L 545,467 L 546,466 L 546,465 L 547,465 L 548,465 L 549,465 L 549,464 L 549,465 L 550,465 L 551,465 L 550,464 L 551,464 L 552,464 L 553,464 L 554,464 L 555,464 L 555,463 L 556,463 L 556,464 L 557,464 L 558,464 L 559,464 L 560,464 L 561,464 L 562,464 L 563,464 L 564,464 L 565,465 L 566,465 L 567,465 L 568,465 L 569,465 L 569,466 L 570,466 L 571,466 L 572,466 L 573,466 L 574,465 L 575,465 L 576,465 L 577,465 L 578,465 L 579,465 L 580,465 L 581,465 L 582,465 L 583,464 L 584,464 L 585,464 L 586,464 L 587,464 L 587,463 L 588,463 L 589,463 L 590,463 L 591,463 L 592,463 L 593,463 L 594,463 L 595,463 L 596,463 L 597,463 L 598,463 L 599,463 L 600,463 L 601,463 L 602,463 L 603,463 L 604,463 L 605,463 L 606,463 L 607,463 L 607,462 L 608,462 L 609,461 L 610,461 L 610,460 L 611,460 L 612,460 L 613,460 L 614,460 " />
</g>
<g id="11030" >
<path d="M 546,485 L 546,486 L 550,486 L 550,487 L 551,487 L 552,488 L 553,488 L 555,489 L 555,488 L 555,487 L 556,487 L 556,486 L 557,487 L 558,487 L 558,488 L 558,489 L 559,489 L 560,489 L 561,488 L 562,488 L 563,488 L 563,489 L 564,489 L 565,489 L 566,489 L 567,488 L 567,489 L 568,490 L 569,490 L 569,491 L 569,492 L 570,492 L 571,492 L 572,492 L 573,492 L 574,493 L 574,494 L 575,494 L 576,495 L 576,496 L 577,496 L 577,497 L 578,497 L 578,498 L 579,498 L 580,498 L 581,498 L 581,497 L 581,496 L 582,496 L 582,495 L 583,495 L 583,494 L 584,495 L 585,494 L 586,494 L 587,494 L 588,495 L 589,494 L 590,494 L 591,494 L 591,495 L 591,496 L 591,497 L 592,497 L 592,498 L 591,498 L 592,499 L 591,499 L 591,500 L 592,502 L 593,503 L 594,504 L 595,504 L 596,503 L 596,504 L 596,506 L 596,507 L 596,508 L 596,509 L 597,510 L 597,511 L 598,511 L 599,512 L 599,511 L 600,511 L 601,511 L 601,512 L 602,512 L 602,511 L 602,512 L 603,512 L 604,512 L 604,513 L 605,513 L 606,513 L 606,514 L 607,514 L 607,519 L 606,520 L 605,521 L 604,522 L 603,522 L 603,523 L 602,524 L 601,525 L 600,526 L 599,528 L 598,529 L 598,530 L 597,530 L 597,531 L 596,531 L 596,532 L 595,533 L 594,534 L 594,535 L 593,535 L 593,536 L 592,536 L 592,537 L 591,538 L 590,538 L 590,539 L 589,539 L 589,540 L 588,540 L 587,541 L 586,542 L 585,542 L 585,543 L 584,543 L 583,544 L 582,545 L 581,545 L 581,546 L 580,546 L 580,547 L 579,547 L 578,548 L 577,549 L 576,550 L 574,551 L 573,552 L 572,553 L 572,554 L 571,555 L 570,556 L 570,557 L 569,558 L 568,559 L 568,560 L 568,561 L 567,561 L 567,562 L 566,562 L 565,562 L 564,562 L 563,562 L 562,562 L 561,562 L 560,562 L 559,562 L 558,562 L 557,562 L 556,562 L 555,562 L 554,562 L 553,562 L 553,561 L 552,561 L 551,560 L 550,560 L 549,559 L 548,559 L 547,559 L 547,558 L 546,558 L 545,558 L 544,557 L 543,557 L 542,557 L 541,556 L 540,555 L 540,554 L 539,554 L 538,553 L 537,552 L 536,552 L 536,551 L 535,551 L 534,551 L 534,550 L 533,550 L 532,550 L 532,549 L 531,549 L 530,548 L 529,548 L 528,547 L 527,547 L 526,547 L 526,546 L 525,546 L 524,546 L 523,545 L 522,545 L 522,544 L 522,541 L 522,538 L 522,536 L 522,535 L 522,534 L 522,533 L 522,532 L 522,531 L 522,530 L 521,529 L 521,528 L 520,528 L 520,527 L 520,526 L 519,526 L 519,525 L 519,524 L 518,524 L 517,521 L 516,521 L 515,519 L 516,519 L 516,518 L 516,517 L 517,517 L 516,517 L 517,517 L 517,516 L 518,516 L 518,517 L 519,517 L 519,516 L 520,516 L 521,516 L 522,516 L 523,516 L 524,515 L 525,515 L 525,514 L 526,514 L 526,513 L 527,513 L 527,512 L 527,511 L 528,511 L 529,511 L 529,510 L 530,510 L 530,509 L 530,508 L 531,508 L 531,507 L 532,507 L 532,506 L 533,505 L 532,505 L 531,505 L 532,504 L 532,503 L 532,502 L 532,501 L 533,501 L 534,500 L 535,500 L 535,499 L 536,499 L 536,498 L 537,498 L 537,497 L 538,497 L 538,496 L 539,496 L 539,495 L 540,495 L 540,494 L 539,494 L 539,493 L 538,492 L 538,491 L 539,490 L 540,489 L 541,489 L 541,488 L 542,488 L 542,487 L 543,487 L 544,487 L 546,485 " />
</g>
<g id="11040" >
<path d="M 639,459 L 642,461 L 644,462 L 645,462 L 646,463 L 648,465 L 651,468 L 652,469 L 653,470 L 655,472 L 656,473 L 658,475 L 659,475 L 660,475 L 660,476 L 663,476 L 666,477 L 672,478 L 673,478 L 674,478 L 675,479 L 677,480 L 671,493 L 669,497 L 665,507 L 663,510 L 661,515 L 658,523 L 655,529 L 654,528 L 653,528 L 653,527 L 652,527 L 652,526 L 651,526 L 650,525 L 649,524 L 648,523 L 647,523 L 647,522 L 646,522 L 645,521 L 644,521 L 644,520 L 643,520 L 642,519 L 641,519 L 640,518 L 636,517 L 635,517 L 634,517 L 631,517 L 630,517 L 629,517 L 628,517 L 626,517 L 625,517 L 624,517 L 623,517 L 622,517 L 621,517 L 620,517 L 618,517 L 616,517 L 614,517 L 613,517 L 612,517 L 611,517 L 610,517 L 609,518 L 608,518 L 607,519 L 607,514 L 606,514 L 606,513 L 605,513 L 604,513 L 604,512 L 603,512 L 602,512 L 602,511 L 602,512 L 601,512 L 601,511 L 600,511 L 599,511 L 599,512 L 598,511 L 597,511 L 597,510 L 596,509 L 596,508 L 596,507 L 596,506 L 596,504 L 596,503 L 595,503 L 595,502 L 596,501 L 596,500 L 596,499 L 596,498 L 597,498 L 598,497 L 599,497 L 599,496 L 600,496 L 600,495 L 601,495 L 601,494 L 602,494 L 602,493 L 603,493 L 603,492 L 604,492 L 604,491 L 605,490 L 605,489 L 606,489 L 606,488 L 606,487 L 606,486 L 607,486 L 607,485 L 607,484 L 608,483 L 609,483 L 610,483 L 609,483 L 610,482 L 611,482 L 612,482 L 612,483 L 613,482 L 614,482 L 614,481 L 614,480 L 613,480 L 613,479 L 614,479 L 614,478 L 614,477 L 615,477 L 615,476 L 616,476 L 616,475 L 617,475 L 617,474 L 618,474 L 618,473 L 618,472 L 618,471 L 617,471 L 614,470 L 614,469 L 614,468 L 614,467 L 614,466 L 614,465 L 614,464 L 614,463 L 614,462 L 614,461 L 614,460 L 615,461 L 616,461 L 617,462 L 617,461 L 618,461 L 619,461 L 620,462 L 621,463 L 623,463 L 624,463 L 625,463 L 626,463 L 626,462 L 628,461 L 628,460 L 629,460 L 630,460 L 631,459 L 632,459 L 633,459 L 633,458 L 637,458 L 638,458 L 638,459 L 639,459 " />
</g>
<g id="11050" >
<path d="M 712,460 L 713,460 L 714,460 L 715,460 L 715,461 L 715,463 L 714,463 L 714,464 L 714,465 L 714,466 L 714,467 L 713,468 L 713,469 L 713,470 L 713,471 L 713,472 L 712,473 L 712,474 L 712,475 L 712,476 L 712,477 L 711,477 L 711,478 L 712,478 L 712,479 L 712,480 L 713,480 L 713,481 L 714,481 L 714,482 L 715,482 L 715,483 L 716,483 L 716,484 L 716,485 L 717,485 L 718,485 L 718,484 L 719,484 L 719,483 L 720,483 L 720,482 L 721,482 L 722,482 L 722,481 L 722,482 L 723,482 L 724,482 L 724,481 L 725,481 L 726,481 L 727,481 L 727,482 L 727,483 L 727,484 L 728,484 L 729,484 L 728,486 L 728,488 L 727,489 L 727,490 L 726,492 L 725,492 L 725,493 L 725,494 L 724,494 L 724,497 L 724,499 L 724,500 L 724,501 L 723,503 L 722,503 L 721,505 L 721,506 L 720,507 L 720,508 L 720,509 L 719,509 L 719,510 L 718,510 L 718,511 L 717,511 L 717,512 L 716,512 L 716,513 L 715,513 L 715,514 L 714,514 L 714,515 L 713,516 L 712,516 L 712,517 L 711,517 L 711,518 L 710,518 L 710,519 L 709,519 L 709,520 L 702,526 L 702,527 L 701,527 L 700,528 L 700,529 L 699,529 L 699,530 L 698,530 L 698,531 L 697,531 L 696,532 L 695,532 L 695,533 L 694,533 L 693,533 L 693,534 L 692,534 L 691,535 L 690,535 L 689,535 L 688,536 L 687,536 L 686,536 L 686,537 L 685,537 L 684,537 L 683,537 L 682,538 L 681,538 L 680,538 L 678,537 L 677,537 L 676,537 L 675,537 L 675,536 L 674,536 L 673,536 L 672,536 L 671,536 L 670,535 L 669,535 L 669,534 L 668,534 L 667,534 L 666,534 L 664,533 L 662,531 L 661,531 L 660,531 L 659,530 L 658,530 L 657,529 L 656,529 L 655,529 L 658,523 L 665,507 L 669,497 L 671,493 L 677,480 L 675,479 L 676,479 L 676,478 L 676,477 L 676,476 L 677,474 L 678,472 L 678,471 L 680,468 L 681,466 L 683,461 L 683,460 L 685,460 L 685,461 L 686,461 L 687,461 L 688,461 L 689,461 L 690,461 L 691,461 L 692,462 L 693,463 L 694,463 L 696,463 L 698,464 L 701,463 L 702,463 L 703,462 L 704,462 L 705,462 L 705,461 L 706,461 L 707,460 L 708,460 L 708,459 L 709,459 L 711,458 L 711,457 L 711,458 L 712,459 L 712,460 " />
</g>
<g id="11060" >
<path d="M 674,405 L 674,406 L 674,407 L 675,408 L 675,409 L 675,410 L 676,411 L 676,412 L 676,413 L 676,414 L 676,415 L 676,416 L 675,417 L 674,418 L 673,419 L 673,420 L 672,420 L 672,423 L 672,424 L 673,426 L 673,427 L 673,428 L 674,429 L 674,430 L 673,430 L 673,431 L 673,432 L 673,433 L 674,433 L 674,434 L 675,434 L 675,435 L 675,436 L 676,437 L 676,438 L 676,439 L 675,440 L 676,440 L 676,441 L 677,441 L 677,442 L 677,443 L 678,443 L 678,444 L 679,445 L 679,446 L 680,446 L 680,447 L 681,447 L 681,448 L 681,449 L 681,450 L 681,451 L 681,452 L 681,455 L 681,456 L 682,456 L 682,457 L 682,458 L 682,459 L 683,460 L 683,461 L 681,466 L 680,468 L 678,471 L 678,472 L 677,474 L 676,476 L 676,477 L 676,478 L 676,479 L 675,479 L 674,478 L 673,478 L 672,478 L 666,477 L 663,476 L 660,476 L 660,475 L 659,475 L 658,475 L 656,473 L 655,472 L 653,470 L 652,469 L 651,468 L 648,465 L 646,463 L 645,462 L 644,462 L 642,461 L 639,459 L 638,459 L 638,458 L 637,458 L 633,458 L 633,459 L 632,459 L 631,459 L 630,460 L 629,460 L 628,460 L 628,461 L 626,462 L 626,463 L 625,463 L 624,463 L 623,463 L 621,463 L 620,462 L 619,461 L 618,461 L 617,461 L 617,462 L 616,461 L 615,461 L 614,460 L 614,459 L 614,458 L 614,457 L 614,456 L 614,455 L 614,454 L 614,453 L 614,452 L 614,451 L 614,450 L 615,449 L 616,448 L 617,448 L 617,447 L 618,446 L 620,445 L 621,444 L 622,443 L 623,442 L 623,441 L 624,441 L 624,440 L 624,439 L 625,439 L 625,438 L 626,438 L 625,438 L 626,438 L 626,437 L 627,437 L 627,436 L 628,435 L 628,434 L 629,434 L 630,433 L 630,432 L 631,431 L 630,430 L 631,430 L 632,430 L 633,430 L 634,430 L 634,429 L 634,428 L 635,427 L 635,424 L 636,423 L 637,423 L 637,422 L 638,421 L 639,421 L 640,422 L 641,422 L 642,421 L 643,421 L 643,422 L 644,422 L 645,421 L 645,420 L 646,420 L 646,419 L 647,419 L 647,418 L 647,417 L 647,416 L 648,416 L 648,415 L 649,414 L 650,415 L 650,416 L 651,416 L 651,415 L 652,415 L 653,415 L 654,414 L 655,414 L 656,414 L 657,414 L 658,414 L 659,414 L 660,414 L 660,413 L 661,413 L 660,413 L 660,412 L 660,411 L 661,411 L 661,410 L 662,409 L 663,409 L 663,408 L 664,408 L 665,408 L 665,407 L 666,407 L 667,407 L 668,407 L 669,407 L 669,406 L 670,406 L 671,406 L 671,405 L 672,405 L 673,405 L 673,404 L 674,404 L 674,405 " />
</g>
<g id="11070" >
<path d="M 725,384 L 726,384 L 727,385 L 728,385 L 729,386 L 730,385 L 731,386 L 731,387 L 730,387 L 731,388 L 732,388 L 732,389 L 732,390 L 732,391 L 731,391 L 731,392 L 731,393 L 732,394 L 732,395 L 732,396 L 732,397 L 732,398 L 732,399 L 731,400 L 731,401 L 731,402 L 732,403 L 733,403 L 733,404 L 733,405 L 733,406 L 733,407 L 733,408 L 733,409 L 732,410 L 732,411 L 731,411 L 731,412 L 730,413 L 730,414 L 729,414 L 729,415 L 728,416 L 728,417 L 728,418 L 729,419 L 730,420 L 730,421 L 731,422 L 731,423 L 731,425 L 731,426 L 730,426 L 729,426 L 728,427 L 727,427 L 726,429 L 725,430 L 724,433 L 723,434 L 723,435 L 723,436 L 723,437 L 723,438 L 722,439 L 722,440 L 722,441 L 722,442 L 721,442 L 721,443 L 720,443 L 719,444 L 718,444 L 718,445 L 717,445 L 716,445 L 716,446 L 715,446 L 714,447 L 714,448 L 714,449 L 714,450 L 713,450 L 713,451 L 713,452 L 712,452 L 712,453 L 712,454 L 712,455 L 712,456 L 711,456 L 711,457 L 711,458 L 709,459 L 708,459 L 708,460 L 707,460 L 706,461 L 705,461 L 705,462 L 704,462 L 703,462 L 702,463 L 701,463 L 698,464 L 696,463 L 694,463 L 693,463 L 692,462 L 691,461 L 690,461 L 689,461 L 688,461 L 687,461 L 686,461 L 685,461 L 685,460 L 683,460 L 682,459 L 682,458 L 682,457 L 682,456 L 681,456 L 681,455 L 681,452 L 681,451 L 681,450 L 681,449 L 681,448 L 681,447 L 680,447 L 680,446 L 679,446 L 679,445 L 678,444 L 678,443 L 677,443 L 677,442 L 677,441 L 676,441 L 676,440 L 675,440 L 676,439 L 676,438 L 676,437 L 675,436 L 675,435 L 675,434 L 674,434 L 674,433 L 673,433 L 673,432 L 673,431 L 673,430 L 674,430 L 674,429 L 673,428 L 673,427 L 673,426 L 672,424 L 672,423 L 672,420 L 673,420 L 674,418 L 675,417 L 676,416 L 676,415 L 676,414 L 676,413 L 676,412 L 676,411 L 675,410 L 675,409 L 675,408 L 674,407 L 674,406 L 674,405 L 674,404 L 674,403 L 674,402 L 674,400 L 675,400 L 675,399 L 675,398 L 675,397 L 675,395 L 675,394 L 674,393 L 673,392 L 674,391 L 674,390 L 675,390 L 676,390 L 677,390 L 678,390 L 678,389 L 679,389 L 680,389 L 681,389 L 682,388 L 683,388 L 684,387 L 685,387 L 686,387 L 687,386 L 688,386 L 689,386 L 690,385 L 691,385 L 692,385 L 692,384 L 693,384 L 694,384 L 695,384 L 695,385 L 696,385 L 696,384 L 697,384 L 697,385 L 698,385 L 698,386 L 699,386 L 700,386 L 700,387 L 701,387 L 701,388 L 702,388 L 703,386 L 704,386 L 705,386 L 706,386 L 706,385 L 707,385 L 708,385 L 708,384 L 709,384 L 710,385 L 711,385 L 711,386 L 712,386 L 713,386 L 713,385 L 714,385 L 715,384 L 715,385 L 716,385 L 717,385 L 717,384 L 717,385 L 718,384 L 719,384 L 720,384 L 722,384 L 723,384 L 724,383 L 725,384 " />
</g>
<g id="11080" >
<path d="M 598,447 L 597,447 L 597,446 L 596,446 L 596,445 L 595,445 L 594,444 L 594,443 L 594,442 L 594,441 L 594,440 L 594,439 L 593,439 L 593,438 L 593,437 L 593,436 L 592,436 L 591,436 L 590,436 L 590,435 L 590,434 L 589,434 L 590,434 L 589,434 L 589,433 L 588,433 L 588,432 L 587,431 L 587,430 L 587,429 L 587,428 L 586,428 L 585,428 L 584,428 L 584,427 L 583,427 L 583,428 L 582,428 L 581,428 L 580,428 L 579,428 L 579,429 L 578,429 L 577,429 L 577,428 L 576,428 L 575,428 L 575,429 L 574,429 L 573,429 L 572,429 L 571,429 L 571,428 L 570,428 L 569,427 L 568,427 L 568,426 L 568,425 L 567,425 L 567,424 L 566,424 L 565,424 L 564,424 L 563,423 L 562,423 L 561,422 L 560,421 L 559,421 L 558,420 L 559,420 L 558,420 L 558,419 L 557,419 L 556,419 L 556,418 L 557,418 L 557,417 L 557,416 L 557,415 L 558,415 L 558,414 L 559,414 L 560,414 L 560,413 L 561,413 L 562,413 L 563,412 L 564,412 L 564,411 L 565,411 L 565,410 L 566,411 L 566,410 L 567,410 L 568,410 L 569,409 L 569,408 L 569,406 L 568,405 L 568,404 L 568,403 L 569,402 L 569,401 L 568,401 L 568,400 L 568,398 L 567,398 L 568,395 L 568,394 L 569,394 L 567,392 L 567,391 L 566,390 L 566,389 L 565,388 L 564,385 L 564,384 L 565,382 L 564,380 L 563,377 L 562,376 L 561,375 L 560,374 L 560,372 L 561,372 L 560,371 L 560,370 L 559,370 L 559,369 L 558,369 L 558,370 L 557,370 L 556,370 L 554,370 L 554,369 L 554,366 L 555,366 L 555,365 L 556,365 L 556,364 L 557,364 L 557,363 L 558,362 L 559,362 L 560,362 L 561,361 L 562,361 L 563,361 L 563,360 L 564,359 L 565,358 L 566,358 L 567,359 L 568,359 L 568,360 L 569,360 L 570,361 L 571,361 L 571,362 L 572,362 L 573,363 L 573,364 L 574,364 L 575,364 L 575,365 L 576,365 L 577,366 L 578,366 L 578,367 L 579,367 L 579,368 L 580,368 L 581,369 L 581,370 L 581,371 L 582,371 L 582,372 L 583,372 L 584,373 L 584,374 L 585,374 L 585,375 L 586,375 L 588,375 L 588,376 L 589,376 L 590,376 L 590,377 L 590,378 L 591,378 L 592,378 L 593,378 L 594,378 L 595,378 L 595,379 L 595,380 L 595,381 L 595,382 L 595,383 L 594,383 L 595,383 L 594,383 L 595,384 L 595,385 L 596,385 L 596,386 L 596,387 L 597,387 L 598,388 L 598,389 L 599,390 L 600,390 L 601,391 L 602,391 L 603,392 L 603,393 L 604,393 L 605,392 L 606,392 L 607,392 L 607,393 L 607,392 L 607,393 L 608,393 L 608,394 L 609,394 L 610,395 L 611,396 L 612,396 L 613,396 L 613,397 L 613,398 L 614,398 L 614,397 L 615,397 L 616,397 L 617,397 L 618,397 L 618,396 L 619,396 L 620,396 L 621,396 L 622,396 L 623,396 L 623,397 L 623,398 L 623,399 L 623,400 L 623,402 L 625,401 L 625,400 L 626,400 L 627,399 L 630,397 L 630,396 L 631,396 L 630,396 L 631,396 L 632,396 L 632,395 L 633,395 L 633,394 L 634,394 L 634,393 L 635,392 L 635,391 L 635,390 L 636,391 L 636,390 L 637,390 L 637,389 L 638,389 L 638,388 L 639,388 L 639,387 L 640,387 L 640,386 L 641,386 L 641,385 L 642,385 L 642,384 L 642,383 L 643,382 L 643,381 L 644,381 L 644,380 L 645,380 L 645,379 L 646,379 L 647,378 L 648,378 L 649,379 L 649,380 L 650,380 L 651,381 L 651,382 L 652,383 L 652,384 L 653,384 L 653,385 L 654,385 L 655,386 L 656,386 L 656,387 L 657,388 L 657,389 L 658,389 L 659,389 L 659,390 L 660,390 L 661,391 L 661,392 L 662,392 L 662,393 L 663,393 L 664,393 L 664,394 L 665,393 L 666,393 L 667,393 L 668,393 L 668,392 L 671,392 L 672,391 L 673,391 L 673,392 L 674,393 L 675,394 L 675,395 L 675,397 L 675,398 L 675,399 L 675,400 L 674,400 L 674,402 L 674,403 L 674,404 L 673,404 L 673,405 L 672,405 L 671,405 L 671,406 L 670,406 L 669,406 L 669,407 L 668,407 L 667,407 L 666,407 L 665,407 L 665,408 L 664,408 L 663,408 L 663,409 L 662,409 L 661,410 L 661,411 L 660,411 L 660,412 L 660,413 L 661,413 L 660,413 L 660,414 L 659,414 L 658,414 L 657,414 L 656,414 L 655,414 L 654,414 L 653,415 L 652,415 L 651,415 L 651,416 L 650,416 L 650,415 L 649,414 L 648,415 L 648,416 L 647,416 L 647,417 L 647,418 L 647,419 L 646,419 L 646,420 L 645,420 L 645,421 L 644,422 L 643,422 L 643,421 L 642,421 L 641,422 L 640,422 L 639,421 L 638,421 L 637,422 L 637,423 L 636,423 L 635,424 L 635,427 L 634,428 L 634,429 L 634,430 L 633,430 L 632,430 L 630,430 L 631,431 L 630,432 L 630,433 L 629,434 L 628,434 L 628,435 L 627,436 L 627,437 L 626,437 L 626,438 L 625,438 L 626,438 L 625,438 L 625,439 L 624,439 L 624,440 L 624,441 L 623,441 L 623,442 L 622,443 L 621,444 L 618,446 L 617,447 L 617,448 L 616,448 L 615,449 L 614,450 L 614,451 L 613,450 L 614,450 L 613,450 L 613,449 L 612,449 L 611,449 L 611,450 L 610,450 L 609,450 L 609,451 L 608,451 L 607,451 L 607,450 L 608,450 L 608,449 L 608,448 L 607,448 L 607,447 L 607,446 L 606,446 L 606,445 L 606,444 L 605,444 L 604,444 L 604,443 L 604,444 L 603,444 L 602,445 L 601,445 L 600,445 L 599,445 L 599,446 L 598,446 L 598,447 " />
</g>
<g id="11090" >
<path d="M 592,282 L 593,282 L 594,282 L 595,282 L 596,283 L 597,283 L 597,284 L 596,285 L 597,286 L 597,287 L 597,289 L 598,291 L 600,291 L 601,291 L 601,292 L 602,292 L 602,293 L 603,293 L 603,294 L 603,295 L 603,296 L 603,297 L 604,298 L 604,299 L 605,299 L 606,300 L 606,299 L 607,301 L 607,302 L 608,302 L 607,303 L 608,303 L 608,304 L 609,305 L 609,304 L 609,305 L 609,306 L 609,307 L 609,308 L 608,308 L 608,309 L 607,309 L 606,309 L 606,310 L 605,311 L 605,312 L 605,313 L 606,314 L 605,314 L 605,315 L 605,316 L 606,316 L 606,317 L 607,318 L 606,319 L 605,319 L 604,319 L 604,318 L 604,319 L 604,320 L 604,321 L 604,322 L 603,322 L 603,323 L 603,324 L 603,325 L 603,326 L 603,327 L 602,329 L 602,330 L 602,331 L 602,332 L 601,332 L 602,332 L 601,332 L 601,333 L 601,334 L 601,335 L 602,335 L 602,336 L 603,336 L 603,337 L 604,337 L 604,338 L 605,338 L 605,339 L 606,339 L 607,339 L 608,339 L 609,339 L 610,339 L 611,339 L 612,339 L 613,339 L 613,340 L 614,340 L 614,341 L 615,341 L 616,341 L 617,341 L 617,342 L 617,343 L 618,343 L 618,344 L 620,345 L 621,346 L 622,347 L 624,348 L 626,350 L 626,351 L 627,351 L 627,352 L 627,353 L 628,353 L 628,354 L 628,355 L 628,356 L 629,356 L 629,357 L 630,357 L 630,358 L 631,358 L 632,358 L 632,359 L 633,359 L 633,360 L 633,361 L 633,362 L 634,363 L 634,364 L 635,365 L 636,366 L 637,366 L 637,367 L 638,367 L 638,368 L 639,368 L 640,369 L 640,370 L 641,371 L 642,371 L 643,372 L 644,373 L 645,373 L 646,374 L 646,375 L 647,376 L 647,377 L 648,378 L 647,378 L 646,379 L 645,379 L 645,380 L 644,380 L 644,381 L 643,381 L 643,382 L 642,383 L 642,384 L 642,385 L 641,385 L 641,386 L 640,386 L 640,387 L 639,387 L 639,388 L 638,388 L 638,389 L 637,389 L 637,390 L 636,390 L 636,391 L 635,390 L 635,391 L 635,392 L 634,393 L 634,394 L 633,394 L 633,395 L 632,395 L 632,396 L 631,396 L 630,396 L 631,396 L 630,396 L 630,397 L 629,397 L 627,399 L 626,400 L 625,400 L 625,401 L 623,402 L 623,400 L 623,399 L 623,398 L 623,397 L 623,396 L 622,396 L 621,396 L 620,396 L 619,396 L 618,396 L 618,397 L 617,397 L 616,397 L 615,397 L 614,397 L 614,398 L 613,398 L 613,397 L 613,396 L 612,396 L 611,396 L 610,395 L 609,394 L 608,394 L 608,393 L 607,393 L 607,392 L 607,393 L 607,392 L 606,392 L 605,392 L 604,393 L 603,393 L 603,392 L 602,391 L 601,391 L 600,390 L 599,390 L 598,389 L 598,388 L 597,387 L 596,387 L 596,386 L 596,385 L 595,385 L 595,384 L 594,383 L 595,383 L 594,383 L 595,383 L 595,382 L 595,381 L 595,380 L 595,379 L 595,378 L 594,378 L 593,378 L 592,378 L 591,378 L 590,378 L 590,377 L 590,376 L 589,376 L 588,376 L 588,375 L 586,375 L 585,375 L 585,374 L 584,374 L 584,373 L 583,372 L 582,372 L 582,371 L 581,371 L 581,370 L 581,369 L 580,368 L 579,368 L 579,367 L 578,367 L 578,366 L 577,366 L 576,365 L 575,365 L 575,364 L 574,364 L 573,364 L 573,363 L 572,362 L 571,362 L 571,361 L 570,361 L 569,360 L 568,360 L 568,359 L 567,359 L 566,358 L 567,358 L 567,357 L 567,356 L 567,355 L 567,354 L 568,353 L 568,352 L 568,351 L 567,351 L 567,350 L 566,350 L 565,349 L 565,348 L 565,347 L 565,346 L 566,346 L 566,345 L 566,344 L 567,344 L 567,343 L 568,343 L 567,343 L 567,342 L 567,341 L 566,341 L 566,340 L 566,339 L 566,338 L 564,336 L 564,335 L 563,334 L 563,333 L 562,333 L 562,332 L 561,331 L 561,329 L 560,327 L 562,327 L 564,327 L 565,326 L 565,325 L 566,325 L 567,324 L 568,323 L 569,322 L 570,320 L 570,319 L 570,317 L 571,316 L 571,315 L 571,314 L 572,314 L 573,314 L 575,313 L 576,313 L 577,313 L 577,312 L 578,311 L 578,310 L 578,309 L 578,308 L 578,307 L 579,306 L 578,305 L 578,301 L 578,299 L 578,298 L 578,297 L 577,297 L 577,296 L 577,295 L 577,294 L 577,293 L 577,292 L 576,291 L 576,290 L 578,290 L 579,289 L 579,288 L 580,288 L 580,287 L 581,287 L 581,286 L 582,286 L 582,285 L 583,284 L 585,284 L 586,284 L 587,284 L 587,283 L 588,283 L 588,284 L 589,284 L 590,284 L 590,283 L 591,282 L 592,282 " />
</g>
<g id="11100">
<path d="M 605,338 L 604,338 L 604,337 L 603,337 L 603,336 L 602,336 L 602,335 L 601,335 L 601,334 L 601,333 L 601,332 L 602,332 L 601,332 L 602,332 L 602,331 L 602,330 L 602,329 L 603,327 L 603,326 L 603,325 L 603,324 L 603,323 L 603,322 L 604,322 L 604,321 L 604,320 L 604,319 L 604,318 L 604,319 L 605,319 L 606,319 L 607,318 L 606,317 L 606,316 L 605,316 L 605,315 L 605,314 L 606,314 L 605,313 L 605,312 L 605,311 L 606,310 L 606,309 L 607,309 L 608,309 L 608,308 L 609,308 L 609,307 L 609,306 L 609,305 L 609,304 L 609,305 L 608,304 L 608,303 L 607,303 L 608,302 L 607,302 L 607,301 L 606,299 L 606,300 L 605,299 L 604,299 L 604,298 L 603,297 L 603,296 L 603,295 L 603,294 L 603,293 L 602,293 L 602,292 L 601,292 L 601,291 L 600,291 L 598,291 L 597,289 L 597,287 L 597,286 L 596,285 L 597,284 L 597,283 L 597,282 L 597,281 L 597,278 L 596,277 L 596,276 L 596,274 L 596,273 L 596,272 L 596,271 L 598,269 L 598,264 L 601,263 L 603,260 L 605,258 L 605,257 L 605,256 L 607,257 L 608,257 L 611,257 L 614,259 L 615,258 L 618,259 L 620,258 L 620,257 L 621,257 L 621,258 L 622,259 L 623,260 L 623,261 L 623,262 L 623,264 L 624,266 L 624,267 L 624,268 L 625,269 L 625,270 L 626,270 L 626,271 L 627,271 L 628,271 L 629,271 L 630,271 L 631,270 L 631,271 L 631,270 L 632,270 L 633,269 L 634,269 L 635,269 L 635,268 L 636,268 L 636,267 L 637,266 L 638,266 L 639,266 L 640,266 L 640,267 L 640,268 L 640,269 L 641,269 L 641,270 L 642,270 L 642,271 L 643,271 L 644,271 L 644,270 L 645,270 L 645,269 L 646,269 L 646,268 L 647,268 L 647,269 L 647,270 L 647,271 L 648,272 L 648,273 L 648,274 L 648,275 L 648,276 L 648,277 L 648,278 L 649,279 L 649,280 L 650,280 L 650,281 L 651,281 L 651,282 L 651,283 L 651,285 L 651,286 L 650,287 L 650,288 L 650,289 L 650,290 L 649,290 L 649,291 L 649,292 L 649,293 L 648,294 L 648,295 L 647,298 L 647,300 L 646,301 L 646,302 L 646,304 L 646,305 L 646,306 L 646,307 L 647,308 L 647,310 L 648,311 L 649,312 L 649,314 L 650,315 L 650,317 L 650,319 L 650,321 L 650,322 L 651,323 L 652,325 L 652,326 L 653,327 L 653,328 L 653,329 L 653,330 L 653,331 L 653,332 L 653,333 L 653,334 L 653,336 L 653,337 L 654,338 L 654,339 L 655,339 L 655,340 L 655,341 L 655,342 L 655,343 L 655,344 L 655,346 L 655,347 L 655,348 L 654,349 L 654,350 L 654,351 L 655,351 L 655,352 L 655,353 L 654,353 L 654,352 L 653,352 L 653,351 L 652,351 L 652,350 L 651,350 L 651,349 L 651,348 L 650,347 L 650,346 L 650,345 L 650,346 L 649,346 L 649,345 L 649,346 L 649,347 L 648,347 L 648,348 L 647,349 L 647,350 L 646,350 L 646,351 L 645,351 L 644,351 L 644,352 L 644,353 L 644,354 L 643,355 L 643,356 L 642,357 L 642,358 L 642,359 L 642,360 L 641,360 L 641,361 L 641,362 L 641,363 L 641,362 L 641,363 L 640,363 L 640,364 L 639,364 L 639,365 L 638,365 L 638,366 L 639,367 L 639,368 L 638,368 L 638,367 L 637,367 L 637,366 L 636,366 L 635,365 L 634,364 L 634,363 L 633,362 L 633,361 L 633,360 L 633,359 L 632,359 L 632,358 L 631,358 L 630,358 L 630,357 L 629,357 L 629,356 L 628,356 L 628,355 L 628,354 L 628,353 L 627,353 L 627,352 L 627,351 L 626,351 L 626,350 L 624,348 L 622,347 L 621,346 L 620,345 L 618,344 L 618,343 L 617,343 L 617,342 L 617,341 L 616,341 L 615,341 L 614,341 L 614,340 L 613,340 L 613,339 L 612,339 L 611,339 L 610,339 L 609,339 L 608,339 L 607,339 L 606,339 L 605,339 L 605,338 " />
</g>
<g id="11110" >
<path d="M 724,356 L 725,356 L 725,357 L 726,358 L 725,358 L 726,358 L 726,359 L 726,360 L 726,361 L 726,362 L 725,363 L 726,365 L 725,367 L 724,368 L 723,369 L 722,370 L 719,372 L 718,373 L 717,376 L 717,377 L 717,379 L 716,380 L 716,382 L 717,382 L 717,383 L 718,384 L 717,384 L 717,385 L 716,385 L 715,385 L 715,384 L 714,385 L 713,385 L 713,386 L 712,386 L 711,386 L 711,385 L 710,385 L 709,384 L 708,384 L 708,385 L 707,385 L 706,385 L 706,386 L 705,386 L 704,386 L 703,386 L 702,388 L 701,388 L 701,387 L 700,387 L 700,386 L 699,386 L 698,386 L 698,385 L 697,385 L 697,384 L 696,384 L 696,385 L 695,385 L 695,384 L 694,384 L 693,384 L 692,384 L 692,385 L 691,385 L 690,385 L 689,386 L 688,386 L 687,386 L 686,387 L 685,387 L 684,387 L 683,388 L 682,388 L 681,389 L 680,389 L 679,389 L 678,389 L 678,390 L 677,390 L 676,390 L 675,390 L 674,390 L 674,391 L 673,392 L 673,391 L 672,391 L 671,392 L 670,392 L 668,392 L 668,393 L 667,393 L 666,393 L 665,393 L 664,394 L 664,393 L 663,393 L 662,393 L 662,392 L 661,392 L 661,391 L 660,391 L 660,390 L 659,390 L 659,389 L 658,389 L 657,389 L 657,388 L 656,387 L 656,386 L 655,386 L 654,385 L 653,385 L 653,384 L 652,384 L 652,383 L 651,382 L 651,381 L 650,380 L 649,380 L 649,379 L 648,378 L 647,377 L 647,376 L 646,375 L 646,374 L 645,373 L 644,373 L 643,372 L 642,371 L 641,371 L 640,370 L 640,369 L 639,368 L 639,367 L 638,366 L 638,365 L 639,365 L 639,364 L 640,364 L 640,363 L 641,363 L 641,362 L 641,363 L 641,362 L 641,361 L 641,360 L 642,360 L 642,359 L 642,358 L 642,357 L 643,356 L 643,355 L 644,354 L 644,353 L 644,352 L 644,351 L 645,351 L 646,351 L 646,350 L 647,350 L 647,349 L 648,348 L 648,347 L 649,347 L 649,346 L 649,345 L 649,346 L 650,346 L 650,345 L 650,346 L 650,347 L 651,348 L 651,349 L 651,350 L 652,350 L 652,351 L 653,351 L 653,352 L 654,352 L 654,353 L 655,353 L 655,352 L 655,351 L 654,351 L 654,350 L 654,349 L 655,348 L 655,347 L 655,346 L 655,344 L 655,343 L 655,342 L 655,341 L 655,340 L 655,339 L 654,339 L 654,338 L 653,337 L 653,336 L 653,334 L 653,333 L 653,332 L 653,331 L 653,330 L 653,329 L 653,328 L 653,327 L 652,326 L 652,325 L 651,323 L 650,322 L 650,321 L 650,319 L 650,317 L 650,315 L 649,314 L 649,312 L 648,311 L 647,310 L 647,308 L 646,307 L 646,306 L 646,305 L 646,304 L 646,302 L 646,301 L 647,300 L 647,298 L 648,295 L 648,294 L 649,293 L 649,292 L 649,291 L 649,290 L 650,290 L 650,289 L 650,288 L 650,287 L 651,286 L 651,285 L 651,283 L 651,282 L 651,281 L 651,280 L 651,279 L 651,278 L 652,278 L 653,278 L 653,277 L 654,277 L 654,276 L 655,276 L 656,276 L 657,276 L 657,275 L 658,275 L 659,275 L 660,274 L 661,274 L 662,273 L 662,271 L 663,271 L 663,270 L 664,270 L 664,269 L 664,268 L 664,267 L 665,267 L 667,267 L 668,267 L 669,268 L 670,267 L 671,267 L 671,268 L 672,268 L 672,269 L 673,269 L 673,268 L 674,269 L 675,269 L 677,269 L 677,268 L 678,268 L 678,267 L 679,267 L 680,266 L 681,266 L 684,265 L 687,265 L 691,268 L 691,270 L 691,272 L 692,274 L 694,275 L 696,275 L 699,275 L 701,275 L 702,275 L 704,276 L 705,276 L 706,276 L 705,277 L 706,278 L 706,279 L 706,281 L 706,282 L 706,283 L 704,285 L 704,286 L 703,286 L 703,287 L 702,288 L 702,289 L 702,290 L 702,291 L 701,292 L 701,294 L 702,294 L 702,295 L 703,296 L 703,297 L 704,299 L 704,301 L 705,302 L 706,303 L 705,304 L 706,304 L 705,305 L 706,306 L 706,307 L 706,308 L 704,310 L 704,312 L 704,314 L 705,316 L 703,317 L 702,319 L 701,321 L 700,323 L 700,325 L 701,326 L 701,329 L 702,330 L 702,331 L 702,332 L 703,332 L 703,333 L 703,334 L 703,335 L 702,336 L 702,337 L 701,338 L 702,339 L 701,339 L 701,340 L 702,340 L 702,341 L 703,341 L 703,342 L 703,343 L 703,344 L 704,344 L 704,345 L 704,346 L 708,347 L 709,347 L 710,346 L 713,346 L 714,345 L 716,345 L 717,345 L 719,345 L 720,346 L 721,346 L 721,347 L 721,348 L 722,348 L 722,349 L 723,349 L 724,349 L 725,349 L 725,350 L 725,351 L 725,352 L 726,353 L 725,354 L 724,353 L 724,354 L 724,355 L 724,356 " />
</g>
<g id="11120" >
<path d="M 525,329 L 526,329 L 527,329 L 528,329 L 528,328 L 528,329 L 529,329 L 529,330 L 530,330 L 530,331 L 531,331 L 531,332 L 532,332 L 533,334 L 533,336 L 533,337 L 533,338 L 533,339 L 533,340 L 534,340 L 534,341 L 534,342 L 534,343 L 535,343 L 534,345 L 535,346 L 534,346 L 535,347 L 535,348 L 535,349 L 536,350 L 536,352 L 536,353 L 537,354 L 537,355 L 538,356 L 538,357 L 539,359 L 539,360 L 539,361 L 540,363 L 538,364 L 538,365 L 537,366 L 536,367 L 535,369 L 534,369 L 533,369 L 532,370 L 531,370 L 531,371 L 530,371 L 529,372 L 528,372 L 527,372 L 527,373 L 526,373 L 525,373 L 525,374 L 524,374 L 523,374 L 523,375 L 522,376 L 522,377 L 522,378 L 522,379 L 522,380 L 522,381 L 523,382 L 523,383 L 523,384 L 523,385 L 523,386 L 523,387 L 523,388 L 523,389 L 523,390 L 524,391 L 524,393 L 524,394 L 523,395 L 523,396 L 523,397 L 523,399 L 522,399 L 522,400 L 521,400 L 521,401 L 521,402 L 519,402 L 518,404 L 517,404 L 517,405 L 516,405 L 515,405 L 515,406 L 515,407 L 514,407 L 513,407 L 513,408 L 512,409 L 512,410 L 511,410 L 510,410 L 510,411 L 510,412 L 511,412 L 511,413 L 512,413 L 512,414 L 512,415 L 512,416 L 511,417 L 511,418 L 510,418 L 510,419 L 509,419 L 508,419 L 507,419 L 507,418 L 507,419 L 506,419 L 505,420 L 504,420 L 503,420 L 502,420 L 502,421 L 501,421 L 500,422 L 499,423 L 498,424 L 497,424 L 497,425 L 497,426 L 496,426 L 496,427 L 495,428 L 495,429 L 495,430 L 495,431 L 495,432 L 495,433 L 495,434 L 494,434 L 494,435 L 493,435 L 492,435 L 491,435 L 490,435 L 490,436 L 490,437 L 489,437 L 489,438 L 488,438 L 488,439 L 487,439 L 487,440 L 488,440 L 487,440 L 487,441 L 486,442 L 485,442 L 485,441 L 484,441 L 483,441 L 482,441 L 481,441 L 480,442 L 480,441 L 480,440 L 480,439 L 480,438 L 481,437 L 480,437 L 480,438 L 479,438 L 479,437 L 480,437 L 479,437 L 479,436 L 478,436 L 477,436 L 477,435 L 476,435 L 476,436 L 475,437 L 475,438 L 474,438 L 474,439 L 473,439 L 473,440 L 472,440 L 472,441 L 471,441 L 471,442 L 470,442 L 470,443 L 470,444 L 469,444 L 469,445 L 468,445 L 468,446 L 467,446 L 467,447 L 466,447 L 466,448 L 465,448 L 465,449 L 465,448 L 464,449 L 464,450 L 463,451 L 462,452 L 463,452 L 463,453 L 457,448 L 456,447 L 448,440 L 447,440 L 446,439 L 444,437 L 442,435 L 442,434 L 441,434 L 441,433 L 440,433 L 440,432 L 439,431 L 439,430 L 438,430 L 438,429 L 438,428 L 439,428 L 440,428 L 440,427 L 441,426 L 441,425 L 442,425 L 442,424 L 443,424 L 444,424 L 444,425 L 444,426 L 443,426 L 443,427 L 442,428 L 442,429 L 442,430 L 442,431 L 443,431 L 443,432 L 444,432 L 444,433 L 445,433 L 446,432 L 447,432 L 448,432 L 448,433 L 449,433 L 450,433 L 452,432 L 453,432 L 454,432 L 455,432 L 455,433 L 456,433 L 457,432 L 458,432 L 458,431 L 459,431 L 460,431 L 460,430 L 460,429 L 460,428 L 459,427 L 459,426 L 460,425 L 461,424 L 462,423 L 462,422 L 462,421 L 462,420 L 461,419 L 462,419 L 462,418 L 462,417 L 462,416 L 461,415 L 461,413 L 460,412 L 460,411 L 460,410 L 461,410 L 462,410 L 463,409 L 463,408 L 463,407 L 462,406 L 462,405 L 462,404 L 461,402 L 461,401 L 461,400 L 461,399 L 461,397 L 461,396 L 462,395 L 461,395 L 462,395 L 463,393 L 463,392 L 463,391 L 463,390 L 463,389 L 463,388 L 464,388 L 464,387 L 464,386 L 465,386 L 465,385 L 466,385 L 467,385 L 467,384 L 467,382 L 468,381 L 469,380 L 469,379 L 469,378 L 469,377 L 469,376 L 470,375 L 471,374 L 472,372 L 472,369 L 471,369 L 471,368 L 470,366 L 469,365 L 469,363 L 468,363 L 469,362 L 471,362 L 472,361 L 473,360 L 474,359 L 475,359 L 474,357 L 473,355 L 473,354 L 474,353 L 474,352 L 475,351 L 475,350 L 476,346 L 476,345 L 475,345 L 474,344 L 473,344 L 472,344 L 472,343 L 471,343 L 471,342 L 470,342 L 470,341 L 469,341 L 469,340 L 468,340 L 468,339 L 467,338 L 468,338 L 468,339 L 469,339 L 470,339 L 470,340 L 471,340 L 471,341 L 471,340 L 472,341 L 473,341 L 473,342 L 474,342 L 474,343 L 475,343 L 475,344 L 476,344 L 477,344 L 478,345 L 479,344 L 480,344 L 482,344 L 483,344 L 485,344 L 485,343 L 486,343 L 488,343 L 489,343 L 490,343 L 491,343 L 491,342 L 492,342 L 492,341 L 493,341 L 493,340 L 494,340 L 495,340 L 495,339 L 496,338 L 497,338 L 497,337 L 498,337 L 498,336 L 499,336 L 500,336 L 501,336 L 502,336 L 503,335 L 504,335 L 505,335 L 506,334 L 507,334 L 507,333 L 508,332 L 508,331 L 508,330 L 509,330 L 509,329 L 509,328 L 510,328 L 510,327 L 511,326 L 512,326 L 512,325 L 513,325 L 513,324 L 514,324 L 515,324 L 516,324 L 517,324 L 517,323 L 518,323 L 519,323 L 520,322 L 520,323 L 521,323 L 521,324 L 521,325 L 520,325 L 521,325 L 521,326 L 522,326 L 522,327 L 523,327 L 523,328 L 524,328 L 525,328 L 525,329 " />
</g>
<g id="11130" >
<path d="M 526,411 L 526,412 L 526,413 L 526,414 L 527,414 L 527,415 L 527,416 L 527,417 L 526,417 L 527,417 L 527,418 L 527,417 L 528,417 L 529,416 L 530,416 L 530,417 L 531,417 L 531,418 L 532,418 L 533,418 L 533,419 L 533,420 L 533,421 L 534,421 L 534,422 L 534,423 L 534,424 L 533,424 L 533,425 L 532,425 L 532,426 L 532,427 L 532,428 L 532,429 L 532,430 L 532,431 L 532,432 L 532,433 L 532,434 L 532,435 L 532,436 L 532,437 L 532,439 L 533,440 L 532,441 L 532,442 L 532,443 L 532,444 L 533,444 L 533,445 L 533,446 L 532,446 L 532,447 L 530,447 L 529,447 L 529,448 L 528,448 L 527,449 L 528,449 L 528,450 L 528,451 L 529,451 L 529,452 L 530,452 L 530,453 L 531,454 L 531,455 L 532,455 L 533,456 L 533,457 L 534,457 L 534,458 L 535,458 L 535,459 L 536,459 L 536,460 L 537,461 L 537,462 L 538,462 L 538,463 L 539,463 L 539,464 L 540,464 L 540,465 L 541,465 L 541,466 L 541,467 L 542,467 L 542,468 L 543,468 L 543,469 L 544,469 L 544,470 L 544,471 L 545,471 L 545,472 L 546,473 L 546,474 L 546,475 L 547,475 L 546,475 L 546,476 L 546,475 L 546,476 L 545,476 L 544,476 L 543,476 L 543,477 L 542,477 L 542,478 L 541,478 L 541,479 L 540,479 L 539,479 L 538,480 L 537,480 L 536,480 L 536,481 L 535,481 L 535,482 L 534,482 L 534,483 L 533,482 L 530,482 L 529,482 L 528,482 L 526,483 L 522,483 L 521,483 L 520,483 L 519,483 L 518,483 L 513,483 L 512,483 L 511,484 L 506,486 L 501,483 L 500,483 L 499,483 L 499,482 L 498,482 L 497,481 L 496,481 L 494,480 L 493,480 L 493,479 L 493,477 L 493,476 L 494,475 L 495,473 L 495,472 L 493,470 L 492,470 L 492,469 L 491,469 L 490,469 L 489,468 L 488,468 L 487,468 L 486,468 L 485,467 L 483,467 L 482,466 L 481,466 L 481,465 L 480,465 L 479,465 L 478,464 L 477,464 L 477,463 L 476,463 L 475,462 L 474,462 L 474,461 L 473,461 L 472,461 L 472,460 L 471,460 L 470,459 L 469,458 L 468,458 L 468,457 L 467,456 L 466,455 L 465,455 L 464,454 L 464,453 L 463,453 L 463,452 L 462,452 L 463,451 L 464,450 L 464,449 L 465,448 L 465,449 L 465,448 L 466,448 L 466,447 L 467,447 L 467,446 L 468,446 L 468,445 L 469,445 L 469,444 L 470,444 L 470,443 L 470,442 L 471,442 L 471,441 L 472,441 L 472,440 L 473,440 L 473,439 L 474,439 L 474,438 L 475,438 L 475,437 L 476,436 L 476,435 L 477,435 L 477,436 L 478,436 L 479,436 L 479,437 L 480,437 L 479,437 L 479,438 L 480,438 L 480,437 L 481,437 L 480,438 L 480,439 L 480,440 L 480,441 L 480,442 L 481,441 L 482,441 L 483,441 L 484,441 L 485,441 L 485,442 L 486,442 L 487,441 L 487,440 L 488,440 L 487,440 L 487,439 L 488,439 L 488,438 L 489,438 L 489,437 L 490,437 L 490,436 L 490,435 L 491,435 L 492,435 L 493,435 L 494,435 L 494,434 L 495,434 L 495,433 L 495,432 L 495,431 L 495,430 L 495,429 L 495,428 L 496,427 L 496,426 L 497,426 L 497,425 L 497,424 L 498,424 L 499,423 L 500,422 L 501,421 L 502,421 L 502,420 L 503,420 L 504,420 L 505,420 L 506,419 L 507,419 L 507,418 L 507,419 L 508,419 L 509,419 L 510,419 L 510,418 L 511,418 L 511,417 L 512,416 L 512,415 L 512,414 L 512,413 L 511,413 L 511,412 L 510,412 L 510,411 L 510,410 L 511,410 L 512,410 L 512,409 L 513,408 L 513,407 L 514,407 L 515,407 L 515,406 L 515,405 L 516,405 L 517,405 L 517,404 L 518,404 L 519,402 L 521,402 L 521,401 L 521,400 L 522,400 L 522,399 L 523,399 L 523,401 L 524,401 L 524,402 L 525,403 L 525,404 L 526,404 L 526,405 L 526,406 L 527,407 L 528,407 L 528,408 L 527,408 L 527,409 L 527,410 L 526,410 L 526,411 " />
</g>
<g id="11140" >
<path d="M 446,439 L 447,440 L 448,440 L 456,447 L 457,448 L 463,453 L 464,453 L 464,454 L 465,455 L 466,455 L 467,456 L 468,457 L 468,458 L 469,458 L 470,459 L 471,460 L 472,460 L 472,461 L 473,461 L 474,461 L 474,462 L 475,462 L 476,463 L 477,463 L 477,464 L 478,464 L 479,465 L 480,465 L 481,465 L 481,466 L 482,466 L 483,467 L 485,467 L 486,468 L 487,468 L 488,468 L 489,468 L 490,469 L 491,469 L 492,469 L 492,470 L 493,470 L 495,472 L 495,473 L 494,475 L 493,476 L 493,477 L 493,479 L 493,480 L 494,480 L 496,481 L 497,481 L 498,482 L 499,482 L 499,483 L 500,483 L 501,483 L 506,486 L 511,484 L 512,483 L 513,483 L 518,483 L 519,483 L 520,483 L 521,483 L 522,483 L 526,483 L 528,482 L 529,482 L 530,482 L 533,482 L 534,483 L 534,482 L 535,482 L 535,481 L 536,481 L 536,480 L 537,480 L 537,481 L 538,481 L 539,481 L 539,482 L 539,483 L 539,484 L 538,484 L 538,485 L 537,485 L 537,486 L 537,487 L 537,488 L 538,489 L 538,490 L 538,491 L 538,492 L 539,493 L 539,494 L 540,494 L 540,495 L 539,495 L 539,496 L 538,496 L 538,497 L 537,497 L 537,498 L 536,498 L 536,499 L 535,499 L 535,500 L 534,500 L 533,501 L 532,501 L 532,502 L 532,503 L 532,504 L 531,505 L 532,505 L 533,505 L 532,506 L 532,507 L 531,507 L 531,508 L 530,508 L 530,509 L 530,510 L 529,510 L 529,511 L 528,511 L 527,511 L 527,512 L 527,513 L 526,513 L 526,514 L 525,514 L 525,515 L 524,515 L 523,516 L 522,516 L 521,516 L 520,516 L 519,516 L 519,517 L 518,517 L 518,516 L 517,516 L 517,517 L 516,517 L 517,517 L 516,517 L 516,518 L 516,519 L 515,519 L 514,518 L 513,517 L 512,516 L 511,516 L 511,515 L 510,515 L 508,513 L 507,513 L 507,512 L 506,512 L 505,511 L 504,510 L 503,510 L 502,510 L 501,509 L 499,508 L 498,507 L 497,508 L 496,509 L 495,509 L 495,510 L 494,511 L 493,511 L 492,510 L 491,510 L 490,509 L 489,509 L 488,509 L 488,508 L 488,507 L 487,507 L 481,507 L 480,507 L 479,507 L 478,507 L 477,507 L 475,507 L 474,507 L 473,507 L 472,507 L 471,507 L 470,507 L 469,507 L 468,507 L 467,507 L 466,507 L 465,507 L 464,505 L 462,503 L 462,502 L 462,501 L 461,500 L 461,499 L 460,499 L 458,497 L 456,496 L 454,495 L 453,494 L 452,494 L 451,493 L 450,492 L 449,492 L 448,491 L 446,491 L 445,490 L 444,489 L 443,488 L 442,488 L 441,487 L 440,487 L 439,486 L 438,485 L 437,485 L 436,484 L 435,483 L 433,482 L 429,479 L 428,478 L 426,477 L 423,476 L 422,475 L 421,475 L 421,474 L 420,474 L 419,473 L 418,473 L 416,471 L 415,470 L 414,470 L 413,469 L 412,468 L 411,468 L 411,467 L 410,466 L 409,466 L 409,465 L 408,465 L 407,465 L 407,464 L 406,464 L 406,463 L 405,463 L 405,462 L 404,461 L 403,460 L 402,459 L 402,456 L 403,455 L 405,455 L 407,455 L 408,454 L 409,454 L 409,453 L 410,453 L 411,452 L 412,452 L 413,451 L 414,451 L 415,450 L 416,450 L 419,450 L 420,450 L 421,450 L 422,449 L 423,449 L 424,449 L 426,449 L 427,449 L 429,449 L 430,449 L 430,448 L 431,448 L 432,447 L 432,446 L 432,445 L 431,445 L 431,444 L 431,443 L 431,442 L 431,441 L 431,440 L 432,440 L 431,439 L 431,440 L 431,439 L 432,438 L 432,437 L 432,436 L 433,436 L 434,436 L 434,435 L 434,434 L 435,433 L 435,432 L 435,431 L 436,431 L 436,430 L 437,430 L 438,430 L 437,429 L 438,429 L 438,430 L 439,430 L 439,431 L 440,432 L 440,433 L 441,433 L 441,434 L 442,434 L 442,435 L 444,437 L 446,439 " />
</g>
<g id="11150" >
<path d="M 427,498 L 428,498 L 429,498 L 430,498 L 431,498 L 432,498 L 433,498 L 435,497 L 435,496 L 436,496 L 436,497 L 437,497 L 437,498 L 437,499 L 438,499 L 438,500 L 439,501 L 440,501 L 440,502 L 440,503 L 440,504 L 441,504 L 441,505 L 441,506 L 441,507 L 442,507 L 442,508 L 442,509 L 443,509 L 443,510 L 443,511 L 444,512 L 444,513 L 445,514 L 445,515 L 446,515 L 446,516 L 447,516 L 447,517 L 447,518 L 447,519 L 447,520 L 446,520 L 445,520 L 445,521 L 445,522 L 446,522 L 447,522 L 448,522 L 448,523 L 447,523 L 447,524 L 447,525 L 446,525 L 446,524 L 445,524 L 444,524 L 443,524 L 443,525 L 442,525 L 442,526 L 441,526 L 440,526 L 440,527 L 439,527 L 439,528 L 439,529 L 438,529 L 437,528 L 436,528 L 435,528 L 435,529 L 436,530 L 436,531 L 435,531 L 434,531 L 433,531 L 433,532 L 433,533 L 433,534 L 433,535 L 433,536 L 433,537 L 433,538 L 434,538 L 434,539 L 434,540 L 433,540 L 433,541 L 432,541 L 432,542 L 432,543 L 433,543 L 433,544 L 434,544 L 433,544 L 432,544 L 433,545 L 433,546 L 432,546 L 432,547 L 432,548 L 431,548 L 431,549 L 431,550 L 432,550 L 432,551 L 431,551 L 431,550 L 430,550 L 430,551 L 430,552 L 429,552 L 429,553 L 428,553 L 428,552 L 428,553 L 427,554 L 427,555 L 428,555 L 428,554 L 428,553 L 429,554 L 430,554 L 430,555 L 429,554 L 429,555 L 428,555 L 428,556 L 429,556 L 429,557 L 428,557 L 427,557 L 426,558 L 427,558 L 427,559 L 428,559 L 428,560 L 427,560 L 427,561 L 428,561 L 428,562 L 427,562 L 427,563 L 427,564 L 426,564 L 426,565 L 426,566 L 425,566 L 425,565 L 424,565 L 424,564 L 423,564 L 424,564 L 423,564 L 423,563 L 422,563 L 421,564 L 420,564 L 419,564 L 418,563 L 417,564 L 417,563 L 416,563 L 415,563 L 415,564 L 414,564 L 413,564 L 413,563 L 413,562 L 413,561 L 412,561 L 413,561 L 413,560 L 414,560 L 414,559 L 413,559 L 413,560 L 412,560 L 411,560 L 411,561 L 410,561 L 409,560 L 408,559 L 408,557 L 407,556 L 406,557 L 404,557 L 403,556 L 402,556 L 401,555 L 400,555 L 399,555 L 398,556 L 397,556 L 396,556 L 396,557 L 395,557 L 395,558 L 394,557 L 393,557 L 392,557 L 392,558 L 392,559 L 391,559 L 390,560 L 390,561 L 390,562 L 390,563 L 389,562 L 388,562 L 388,563 L 387,563 L 386,562 L 385,562 L 385,563 L 384,563 L 384,564 L 383,565 L 383,564 L 382,565 L 382,566 L 381,566 L 380,566 L 380,567 L 378,567 L 377,567 L 377,566 L 376,566 L 376,565 L 375,565 L 374,564 L 374,563 L 373,563 L 373,562 L 372,562 L 372,561 L 372,560 L 373,560 L 373,559 L 372,559 L 371,558 L 370,558 L 369,558 L 368,558 L 368,557 L 367,557 L 368,556 L 368,555 L 364,555 L 364,554 L 364,552 L 365,551 L 365,550 L 365,549 L 364,548 L 363,548 L 363,546 L 364,545 L 364,544 L 365,544 L 365,543 L 366,541 L 366,540 L 366,539 L 366,538 L 366,537 L 366,536 L 366,535 L 366,534 L 367,534 L 367,533 L 367,532 L 368,532 L 369,531 L 370,531 L 370,530 L 370,529 L 369,528 L 369,527 L 370,526 L 369,525 L 368,525 L 367,525 L 366,524 L 365,523 L 365,522 L 364,521 L 364,520 L 364,519 L 364,518 L 363,518 L 362,517 L 362,516 L 363,514 L 362,513 L 362,512 L 362,511 L 362,510 L 361,509 L 362,507 L 363,507 L 364,507 L 364,506 L 365,506 L 366,506 L 366,505 L 367,504 L 367,503 L 367,502 L 367,501 L 367,500 L 368,500 L 368,499 L 368,498 L 369,498 L 369,497 L 369,496 L 369,497 L 370,497 L 371,497 L 371,496 L 372,496 L 372,497 L 372,498 L 372,499 L 373,499 L 373,500 L 372,500 L 372,501 L 372,502 L 372,503 L 372,504 L 372,505 L 372,506 L 373,506 L 374,506 L 375,506 L 376,506 L 376,508 L 377,508 L 377,509 L 377,510 L 378,512 L 378,513 L 378,514 L 377,514 L 378,515 L 378,516 L 379,518 L 380,519 L 381,522 L 382,524 L 382,525 L 383,525 L 383,526 L 384,527 L 384,528 L 384,529 L 385,529 L 385,530 L 387,530 L 387,529 L 388,529 L 389,529 L 390,529 L 391,529 L 392,528 L 395,528 L 396,528 L 397,528 L 397,527 L 398,527 L 399,527 L 400,527 L 401,527 L 403,527 L 407,526 L 408,526 L 409,526 L 412,525 L 414,525 L 414,523 L 414,520 L 414,518 L 414,517 L 414,516 L 414,515 L 414,514 L 414,512 L 414,511 L 414,510 L 414,509 L 414,508 L 414,507 L 414,506 L 413,505 L 413,504 L 412,503 L 412,502 L 413,501 L 413,500 L 413,499 L 413,498 L 413,497 L 414,497 L 414,496 L 414,495 L 414,494 L 414,493 L 415,493 L 415,492 L 415,491 L 416,492 L 417,492 L 417,493 L 418,493 L 419,493 L 419,494 L 420,494 L 420,495 L 421,495 L 421,496 L 422,496 L 423,496 L 423,497 L 424,497 L 425,498 L 426,498 L 427,498 " />
</g>
<g id="11160" >
<path d="M 346,413 L 347,413 L 348,414 L 348,415 L 349,416 L 351,417 L 353,418 L 353,419 L 354,419 L 355,420 L 356,421 L 357,421 L 358,423 L 358,424 L 359,424 L 359,425 L 360,426 L 361,427 L 362,427 L 362,428 L 363,428 L 363,429 L 365,430 L 366,431 L 367,431 L 367,432 L 368,432 L 368,433 L 369,433 L 369,434 L 370,434 L 371,434 L 371,435 L 373,435 L 374,436 L 375,437 L 376,438 L 378,439 L 380,440 L 380,441 L 381,441 L 381,442 L 383,443 L 384,444 L 387,446 L 387,447 L 388,447 L 389,448 L 390,449 L 394,452 L 395,453 L 399,456 L 400,457 L 401,458 L 402,459 L 403,460 L 404,461 L 405,462 L 405,463 L 406,463 L 406,464 L 407,464 L 407,465 L 408,465 L 409,465 L 409,466 L 410,466 L 411,467 L 411,468 L 412,468 L 413,469 L 414,470 L 415,470 L 416,471 L 418,473 L 419,473 L 420,474 L 421,474 L 421,475 L 422,475 L 423,476 L 426,477 L 428,478 L 429,479 L 433,482 L 435,483 L 435,484 L 435,485 L 434,485 L 434,486 L 434,488 L 433,488 L 432,488 L 432,489 L 432,490 L 432,491 L 433,491 L 433,492 L 434,492 L 434,493 L 434,494 L 435,494 L 435,495 L 435,496 L 436,496 L 435,496 L 435,497 L 433,498 L 432,498 L 431,498 L 430,498 L 429,498 L 428,498 L 427,498 L 426,498 L 425,498 L 424,497 L 423,497 L 423,496 L 422,496 L 421,496 L 421,495 L 420,495 L 420,494 L 419,494 L 419,493 L 418,493 L 417,493 L 417,492 L 416,492 L 415,491 L 415,492 L 415,493 L 414,493 L 414,494 L 414,495 L 414,496 L 414,497 L 413,497 L 413,498 L 413,499 L 413,500 L 413,501 L 412,502 L 412,503 L 413,504 L 413,505 L 414,506 L 414,507 L 414,508 L 414,509 L 414,510 L 414,511 L 414,512 L 414,514 L 414,515 L 414,516 L 414,517 L 414,518 L 414,520 L 414,523 L 414,525 L 412,525 L 409,526 L 408,526 L 407,526 L 403,527 L 401,527 L 400,527 L 399,527 L 398,527 L 397,527 L 397,528 L 396,528 L 395,528 L 392,528 L 391,529 L 390,529 L 389,529 L 388,529 L 387,529 L 387,530 L 385,530 L 385,529 L 384,529 L 384,528 L 384,527 L 383,526 L 383,525 L 382,525 L 382,524 L 381,522 L 380,519 L 379,518 L 378,516 L 378,515 L 377,514 L 378,514 L 378,513 L 378,512 L 377,510 L 377,509 L 377,508 L 376,508 L 376,506 L 375,506 L 374,506 L 373,506 L 372,506 L 372,505 L 372,504 L 372,503 L 372,502 L 372,501 L 372,500 L 373,500 L 373,499 L 372,499 L 372,498 L 372,497 L 372,496 L 371,496 L 371,497 L 370,497 L 369,497 L 369,496 L 369,497 L 369,498 L 368,498 L 368,499 L 368,500 L 367,500 L 367,501 L 367,502 L 367,503 L 367,504 L 366,505 L 366,506 L 365,506 L 364,506 L 364,507 L 363,507 L 362,507 L 361,507 L 360,507 L 359,507 L 358,507 L 357,507 L 356,507 L 356,508 L 355,508 L 354,508 L 353,507 L 352,507 L 351,507 L 350,507 L 349,507 L 348,506 L 347,506 L 347,505 L 346,505 L 346,504 L 345,504 L 345,503 L 344,503 L 343,502 L 342,502 L 342,501 L 342,502 L 343,502 L 344,503 L 343,503 L 342,503 L 341,503 L 340,503 L 339,503 L 338,504 L 337,504 L 336,504 L 336,505 L 335,505 L 335,506 L 334,506 L 335,506 L 335,507 L 334,507 L 334,508 L 333,508 L 333,509 L 334,509 L 334,510 L 333,510 L 334,511 L 334,512 L 333,512 L 332,512 L 332,513 L 332,512 L 332,513 L 331,513 L 330,513 L 329,513 L 329,514 L 328,514 L 328,515 L 327,515 L 327,514 L 327,513 L 327,512 L 327,511 L 327,510 L 327,509 L 326,509 L 326,508 L 327,508 L 328,507 L 328,506 L 327,506 L 326,506 L 325,506 L 325,505 L 324,505 L 324,504 L 324,503 L 324,502 L 323,502 L 322,502 L 322,501 L 321,501 L 320,501 L 320,500 L 319,500 L 319,499 L 318,499 L 317,499 L 316,499 L 315,499 L 314,499 L 313,499 L 313,498 L 312,498 L 312,499 L 312,498 L 311,498 L 310,498 L 309,498 L 308,498 L 307,498 L 306,498 L 306,497 L 306,496 L 306,495 L 305,495 L 304,494 L 303,494 L 302,494 L 301,494 L 300,494 L 300,495 L 299,495 L 299,494 L 298,494 L 298,493 L 297,493 L 297,492 L 297,491 L 297,490 L 297,491 L 296,490 L 295,490 L 295,489 L 294,489 L 294,488 L 294,487 L 294,486 L 293,486 L 292,486 L 292,485 L 293,485 L 292,485 L 292,484 L 291,484 L 290,484 L 291,483 L 292,483 L 293,482 L 292,481 L 293,481 L 293,482 L 294,482 L 295,482 L 296,482 L 296,481 L 297,481 L 298,481 L 299,481 L 300,481 L 301,481 L 301,480 L 300,480 L 300,479 L 299,479 L 300,479 L 300,478 L 301,478 L 301,477 L 302,477 L 303,477 L 302,477 L 302,476 L 303,476 L 303,475 L 303,474 L 303,475 L 304,474 L 305,474 L 306,475 L 306,476 L 307,476 L 307,477 L 307,476 L 307,475 L 307,474 L 307,473 L 306,473 L 305,473 L 306,472 L 306,471 L 306,470 L 305,470 L 305,469 L 305,468 L 304,468 L 304,467 L 304,466 L 303,466 L 303,465 L 303,464 L 304,464 L 304,465 L 305,465 L 305,466 L 305,467 L 306,467 L 306,466 L 307,466 L 308,465 L 309,465 L 309,464 L 310,464 L 310,465 L 310,464 L 311,463 L 312,463 L 312,462 L 311,462 L 311,461 L 310,461 L 310,460 L 311,460 L 311,461 L 312,461 L 313,460 L 312,459 L 312,458 L 312,457 L 313,457 L 312,457 L 312,456 L 313,456 L 313,455 L 314,455 L 315,454 L 316,454 L 316,453 L 317,453 L 318,453 L 319,452 L 320,452 L 320,451 L 320,452 L 321,452 L 321,451 L 320,450 L 321,450 L 321,449 L 322,449 L 323,449 L 323,448 L 323,447 L 323,446 L 323,445 L 323,444 L 324,444 L 324,443 L 325,444 L 325,445 L 325,446 L 326,446 L 326,447 L 326,448 L 326,449 L 326,450 L 326,449 L 326,448 L 326,447 L 326,446 L 326,445 L 327,445 L 327,444 L 327,443 L 327,442 L 327,441 L 327,440 L 327,439 L 327,438 L 327,439 L 328,439 L 328,440 L 328,441 L 329,440 L 329,439 L 329,438 L 329,437 L 329,438 L 329,439 L 330,439 L 330,440 L 330,439 L 331,439 L 331,438 L 330,438 L 331,437 L 331,438 L 331,437 L 332,437 L 332,436 L 332,435 L 332,434 L 333,434 L 333,433 L 334,433 L 335,433 L 336,433 L 336,432 L 336,431 L 337,431 L 336,431 L 336,430 L 336,429 L 335,429 L 335,428 L 334,428 L 334,427 L 334,426 L 335,426 L 335,427 L 335,426 L 336,426 L 335,426 L 335,425 L 334,425 L 334,424 L 333,424 L 333,423 L 332,422 L 332,421 L 332,420 L 332,419 L 332,418 L 331,418 L 332,418 L 332,417 L 332,416 L 332,415 L 332,414 L 333,414 L 333,413 L 333,414 L 334,413 L 334,412 L 335,412 L 335,411 L 335,410 L 336,409 L 337,408 L 337,407 L 338,407 L 338,406 L 339,406 L 339,407 L 340,408 L 341,408 L 341,409 L 342,409 L 342,410 L 343,410 L 343,411 L 344,411 L 345,412 L 346,412 L 346,413 " />
</g>
<g id="11170" >
<path d="M 434,544 L 437,546 L 437,547 L 438,547 L 438,548 L 439,549 L 440,549 L 440,550 L 441,550 L 441,551 L 442,551 L 443,551 L 444,551 L 444,552 L 445,553 L 446,553 L 447,553 L 446,553 L 447,554 L 448,555 L 448,556 L 449,556 L 449,557 L 450,558 L 450,559 L 450,560 L 450,561 L 451,561 L 451,562 L 451,563 L 452,564 L 451,565 L 451,566 L 450,566 L 450,567 L 451,568 L 450,568 L 450,569 L 450,570 L 450,571 L 450,572 L 451,572 L 451,573 L 451,574 L 452,574 L 452,575 L 452,576 L 452,577 L 452,578 L 452,579 L 452,580 L 453,580 L 453,581 L 453,582 L 453,583 L 453,584 L 453,585 L 454,585 L 454,586 L 454,587 L 454,588 L 454,589 L 455,589 L 455,590 L 456,591 L 457,593 L 458,593 L 458,594 L 459,594 L 460,595 L 461,595 L 462,595 L 462,596 L 463,596 L 462,597 L 462,598 L 461,598 L 461,599 L 460,600 L 460,601 L 459,601 L 459,602 L 459,603 L 458,603 L 458,604 L 458,605 L 457,605 L 456,605 L 455,605 L 454,605 L 454,606 L 453,606 L 452,606 L 451,605 L 450,605 L 449,605 L 448,605 L 447,604 L 446,604 L 445,604 L 445,603 L 444,603 L 444,602 L 443,602 L 443,601 L 442,601 L 442,600 L 442,599 L 441,599 L 440,598 L 439,598 L 439,597 L 438,597 L 438,596 L 437,596 L 437,595 L 436,595 L 435,594 L 434,594 L 433,594 L 433,593 L 432,593 L 431,593 L 431,594 L 430,594 L 429,594 L 428,594 L 428,595 L 427,595 L 427,594 L 428,594 L 428,593 L 428,592 L 429,592 L 430,591 L 430,590 L 430,589 L 429,589 L 428,590 L 427,590 L 427,589 L 426,590 L 425,590 L 425,589 L 425,588 L 425,587 L 426,587 L 427,587 L 427,588 L 427,587 L 428,586 L 427,586 L 427,585 L 426,586 L 425,586 L 424,587 L 424,586 L 423,586 L 423,587 L 424,587 L 423,587 L 423,588 L 422,588 L 422,587 L 421,587 L 421,586 L 422,586 L 421,586 L 421,585 L 421,584 L 422,584 L 421,583 L 422,582 L 421,582 L 421,581 L 421,580 L 420,580 L 420,579 L 419,579 L 419,580 L 418,580 L 418,581 L 419,581 L 419,582 L 418,582 L 418,583 L 417,583 L 417,584 L 416,584 L 416,585 L 415,585 L 415,586 L 414,586 L 413,586 L 412,586 L 412,587 L 411,587 L 410,588 L 410,589 L 409,590 L 408,591 L 408,592 L 407,593 L 406,594 L 405,594 L 404,594 L 403,595 L 403,596 L 402,596 L 402,597 L 402,598 L 401,598 L 401,599 L 400,599 L 400,600 L 399,600 L 399,601 L 398,601 L 397,601 L 396,600 L 395,600 L 394,600 L 393,600 L 392,600 L 392,601 L 391,602 L 391,603 L 391,604 L 391,605 L 391,606 L 391,607 L 391,608 L 391,609 L 391,610 L 391,611 L 391,612 L 391,613 L 390,613 L 389,612 L 389,611 L 389,612 L 388,612 L 388,611 L 387,611 L 386,611 L 385,611 L 384,611 L 383,611 L 383,610 L 383,611 L 383,610 L 382,610 L 381,610 L 381,611 L 380,611 L 379,611 L 379,612 L 378,612 L 377,612 L 377,611 L 377,610 L 377,609 L 376,609 L 376,608 L 376,607 L 375,607 L 374,607 L 372,607 L 371,608 L 370,609 L 369,609 L 366,609 L 365,609 L 364,609 L 364,608 L 363,609 L 362,609 L 361,609 L 361,610 L 361,609 L 360,609 L 359,609 L 358,609 L 358,608 L 358,609 L 358,610 L 357,610 L 357,612 L 356,613 L 355,613 L 354,612 L 353,612 L 352,611 L 352,610 L 352,609 L 353,609 L 353,608 L 354,608 L 354,607 L 355,606 L 357,606 L 357,605 L 358,604 L 358,603 L 358,602 L 358,601 L 359,601 L 359,600 L 359,599 L 358,599 L 358,598 L 358,597 L 358,596 L 358,595 L 358,594 L 359,594 L 360,593 L 361,593 L 361,592 L 362,592 L 363,591 L 363,590 L 363,589 L 363,588 L 362,588 L 362,587 L 361,587 L 361,586 L 360,586 L 359,586 L 358,585 L 357,585 L 356,585 L 356,584 L 355,584 L 354,583 L 353,582 L 352,582 L 352,581 L 352,580 L 351,579 L 351,578 L 350,577 L 351,576 L 352,575 L 352,574 L 353,574 L 353,575 L 354,575 L 355,575 L 355,574 L 356,574 L 357,573 L 358,573 L 359,573 L 359,572 L 358,572 L 358,571 L 358,570 L 359,570 L 359,569 L 360,569 L 360,568 L 361,568 L 361,567 L 361,566 L 362,565 L 361,565 L 361,564 L 362,564 L 362,563 L 362,562 L 362,561 L 362,560 L 362,559 L 363,559 L 364,559 L 364,558 L 365,558 L 366,558 L 367,558 L 368,558 L 369,558 L 370,558 L 371,558 L 372,559 L 373,559 L 373,560 L 372,560 L 372,561 L 372,562 L 373,562 L 373,563 L 374,563 L 374,564 L 375,565 L 376,565 L 376,566 L 377,566 L 377,567 L 378,567 L 380,567 L 380,566 L 381,566 L 382,566 L 382,565 L 383,564 L 383,565 L 384,564 L 384,563 L 385,563 L 385,562 L 386,562 L 387,563 L 388,563 L 388,562 L 389,562 L 390,563 L 390,562 L 390,561 L 390,560 L 391,559 L 392,559 L 392,558 L 392,557 L 393,557 L 394,557 L 395,558 L 395,557 L 396,557 L 396,556 L 397,556 L 398,556 L 399,555 L 400,555 L 401,555 L 402,556 L 403,556 L 404,557 L 406,557 L 407,556 L 408,557 L 408,559 L 409,560 L 410,561 L 411,561 L 411,560 L 412,560 L 413,560 L 413,559 L 414,559 L 414,560 L 413,560 L 413,561 L 412,561 L 413,561 L 413,562 L 413,563 L 413,564 L 414,564 L 415,564 L 415,563 L 416,563 L 417,563 L 417,564 L 418,563 L 419,564 L 420,564 L 421,564 L 422,563 L 423,563 L 423,564 L 424,564 L 423,564 L 424,564 L 424,565 L 425,565 L 425,566 L 426,566 L 426,565 L 426,564 L 427,564 L 427,563 L 427,562 L 428,562 L 428,561 L 427,561 L 427,560 L 428,560 L 428,559 L 427,559 L 427,558 L 426,558 L 427,557 L 428,557 L 429,557 L 429,556 L 428,556 L 428,555 L 429,555 L 429,554 L 430,555 L 430,554 L 429,554 L 428,553 L 428,554 L 428,555 L 427,555 L 427,554 L 428,553 L 428,552 L 428,553 L 429,553 L 429,552 L 430,552 L 430,551 L 430,550 L 431,550 L 431,551 L 432,551 L 432,550 L 431,550 L 431,549 L 431,548 L 432,548 L 432,547 L 432,546 L 433,546 L 433,545 L 432,544 L 433,544 L 434,544 " />
</g>
<g id="11180" >
<path d="M 427,595 L 428,595 L 428,594 L 429,594 L 430,594 L 431,594 L 431,593 L 432,593 L 433,593 L 433,594 L 434,594 L 435,594 L 436,595 L 437,595 L 437,596 L 438,596 L 438,597 L 439,597 L 439,598 L 440,598 L 441,599 L 442,599 L 442,600 L 442,601 L 443,601 L 443,602 L 444,602 L 444,603 L 445,603 L 445,604 L 446,604 L 447,604 L 448,605 L 449,605 L 450,605 L 451,605 L 452,606 L 453,606 L 454,606 L 454,605 L 455,605 L 456,605 L 457,605 L 458,605 L 460,605 L 463,604 L 464,604 L 466,603 L 466,604 L 466,603 L 467,603 L 468,603 L 469,603 L 470,603 L 471,602 L 471,603 L 470,603 L 470,604 L 470,605 L 470,606 L 471,607 L 471,606 L 472,606 L 472,607 L 474,607 L 474,608 L 474,609 L 473,610 L 473,611 L 473,612 L 473,613 L 472,614 L 471,614 L 470,614 L 470,615 L 469,615 L 469,616 L 470,616 L 470,617 L 471,617 L 471,618 L 471,619 L 471,620 L 472,620 L 472,621 L 471,621 L 472,622 L 473,622 L 473,623 L 473,624 L 474,625 L 474,626 L 475,626 L 476,626 L 476,627 L 476,628 L 475,628 L 475,629 L 475,630 L 476,630 L 476,631 L 476,632 L 477,632 L 477,633 L 477,634 L 477,635 L 476,636 L 477,637 L 476,637 L 476,638 L 477,639 L 478,639 L 479,639 L 480,639 L 481,639 L 481,640 L 482,640 L 483,640 L 484,640 L 485,640 L 486,640 L 487,640 L 487,641 L 487,642 L 487,643 L 488,643 L 488,644 L 489,645 L 489,646 L 490,646 L 491,646 L 491,647 L 492,647 L 492,648 L 493,649 L 494,649 L 494,650 L 494,651 L 494,652 L 493,652 L 493,653 L 492,653 L 492,654 L 491,654 L 491,655 L 490,656 L 489,656 L 489,657 L 488,657 L 488,658 L 487,658 L 487,659 L 487,660 L 487,661 L 486,661 L 486,662 L 485,662 L 485,663 L 485,664 L 484,665 L 484,666 L 483,667 L 482,666 L 481,666 L 480,666 L 479,666 L 478,667 L 477,667 L 476,667 L 476,668 L 475,668 L 474,669 L 473,670 L 473,671 L 473,672 L 473,673 L 472,673 L 472,674 L 471,675 L 471,676 L 470,676 L 469,676 L 468,676 L 468,677 L 467,677 L 467,676 L 466,676 L 465,676 L 464,676 L 463,676 L 462,676 L 462,675 L 462,674 L 462,673 L 461,672 L 460,671 L 459,671 L 459,670 L 459,669 L 458,669 L 458,668 L 457,668 L 457,667 L 458,667 L 459,667 L 458,667 L 458,666 L 458,665 L 457,664 L 457,663 L 457,662 L 456,661 L 456,660 L 456,659 L 455,658 L 455,657 L 454,657 L 453,657 L 452,656 L 452,655 L 452,654 L 452,653 L 453,653 L 454,653 L 454,654 L 454,653 L 453,653 L 453,652 L 453,651 L 452,650 L 452,649 L 452,648 L 452,647 L 451,647 L 451,646 L 450,646 L 450,647 L 449,647 L 448,647 L 447,647 L 446,647 L 446,646 L 446,645 L 445,644 L 445,643 L 444,643 L 444,642 L 443,642 L 442,641 L 442,640 L 441,640 L 441,639 L 441,638 L 442,637 L 442,636 L 441,636 L 440,636 L 440,635 L 441,635 L 441,634 L 441,633 L 442,633 L 443,633 L 444,633 L 444,634 L 445,634 L 445,633 L 444,633 L 444,632 L 443,630 L 442,630 L 441,630 L 441,631 L 440,631 L 439,630 L 438,629 L 438,628 L 437,628 L 437,627 L 438,627 L 439,626 L 440,626 L 440,625 L 439,625 L 439,624 L 438,624 L 437,623 L 437,622 L 436,622 L 436,621 L 436,620 L 436,619 L 435,619 L 435,618 L 434,618 L 434,617 L 433,616 L 433,615 L 432,614 L 432,613 L 431,613 L 431,612 L 431,611 L 430,611 L 430,610 L 430,609 L 429,609 L 429,608 L 429,607 L 428,607 L 428,606 L 428,605 L 428,604 L 427,604 L 427,603 L 427,602 L 426,602 L 426,601 L 426,600 L 426,599 L 425,600 L 425,599 L 425,598 L 425,597 L 426,597 L 425,597 L 425,596 L 424,596 L 424,595 L 424,594 L 425,594 L 425,593 L 425,594 L 426,594 L 426,595 L 427,595 " />
</g>
<g id="11190" >
<path d="M 435,483 L 436,484 L 437,485 L 438,485 L 439,486 L 440,487 L 441,487 L 442,488 L 443,488 L 444,489 L 445,490 L 446,491 L 448,491 L 449,492 L 450,492 L 451,493 L 452,494 L 453,494 L 454,495 L 456,496 L 458,497 L 460,499 L 461,499 L 461,500 L 462,501 L 462,502 L 462,503 L 464,505 L 465,507 L 466,507 L 467,507 L 468,507 L 469,507 L 470,507 L 471,507 L 472,507 L 473,507 L 474,507 L 475,507 L 477,507 L 478,507 L 479,507 L 480,507 L 481,507 L 487,507 L 488,507 L 488,508 L 488,509 L 489,509 L 490,509 L 491,510 L 492,510 L 493,511 L 494,511 L 495,510 L 496,509 L 496,508 L 498,507 L 499,508 L 501,509 L 502,510 L 503,510 L 504,510 L 505,511 L 506,512 L 507,512 L 507,513 L 508,513 L 510,515 L 511,515 L 511,516 L 512,516 L 513,517 L 514,518 L 515,519 L 516,521 L 517,521 L 518,524 L 519,524 L 519,525 L 519,526 L 520,526 L 520,527 L 520,528 L 521,528 L 521,529 L 522,530 L 522,531 L 522,532 L 522,533 L 522,534 L 522,535 L 522,536 L 522,538 L 522,541 L 522,544 L 522,545 L 521,545 L 520,545 L 519,545 L 518,545 L 516,546 L 514,546 L 512,546 L 511,547 L 510,547 L 509,547 L 508,547 L 507,547 L 506,547 L 505,547 L 504,547 L 503,547 L 502,547 L 501,547 L 501,548 L 500,548 L 498,548 L 497,548 L 496,548 L 495,548 L 494,548 L 493,548 L 493,549 L 493,550 L 493,551 L 493,552 L 492,552 L 491,552 L 491,553 L 491,554 L 490,555 L 490,556 L 490,557 L 489,558 L 489,559 L 489,560 L 488,561 L 488,562 L 488,563 L 487,564 L 487,565 L 487,566 L 486,567 L 486,568 L 486,569 L 486,570 L 485,570 L 485,571 L 485,572 L 485,574 L 485,575 L 484,575 L 484,576 L 483,576 L 482,576 L 481,577 L 480,577 L 479,577 L 478,577 L 477,577 L 477,578 L 476,578 L 475,578 L 474,578 L 474,579 L 473,580 L 473,581 L 472,582 L 472,583 L 471,583 L 471,584 L 470,585 L 470,586 L 469,586 L 469,587 L 469,588 L 468,588 L 468,589 L 467,589 L 467,590 L 466,590 L 466,591 L 466,592 L 465,592 L 465,593 L 464,593 L 464,594 L 464,595 L 463,595 L 463,596 L 462,596 L 462,595 L 461,595 L 460,595 L 459,594 L 458,594 L 458,593 L 457,593 L 456,591 L 455,590 L 455,589 L 454,589 L 454,588 L 454,587 L 454,586 L 454,585 L 453,585 L 453,584 L 453,583 L 453,582 L 453,581 L 453,580 L 452,580 L 452,579 L 452,578 L 452,577 L 452,576 L 452,575 L 452,574 L 451,574 L 451,573 L 451,572 L 450,572 L 450,571 L 450,570 L 450,569 L 450,568 L 451,568 L 450,567 L 450,566 L 451,566 L 451,565 L 452,564 L 451,563 L 451,562 L 451,561 L 450,561 L 450,560 L 450,559 L 450,558 L 449,557 L 449,556 L 448,556 L 448,555 L 447,554 L 446,553 L 447,553 L 446,553 L 445,553 L 444,552 L 444,551 L 443,551 L 442,551 L 441,551 L 441,550 L 440,550 L 440,549 L 439,549 L 438,548 L 438,547 L 437,547 L 437,546 L 434,544 L 433,544 L 433,543 L 432,543 L 432,542 L 432,541 L 433,541 L 433,540 L 434,540 L 434,539 L 434,538 L 433,538 L 433,537 L 433,536 L 433,535 L 433,534 L 433,533 L 433,532 L 433,531 L 434,531 L 435,531 L 436,531 L 436,530 L 435,529 L 435,528 L 436,528 L 437,528 L 438,529 L 439,529 L 439,528 L 439,527 L 440,527 L 440,526 L 441,526 L 442,526 L 442,525 L 443,525 L 443,524 L 444,524 L 445,524 L 446,524 L 446,525 L 447,525 L 447,524 L 447,523 L 448,523 L 448,522 L 447,522 L 446,522 L 445,522 L 445,521 L 445,520 L 446,520 L 447,520 L 447,519 L 447,518 L 447,517 L 447,516 L 446,516 L 446,515 L 445,515 L 445,514 L 444,513 L 444,512 L 443,511 L 443,510 L 442,509 L 442,508 L 442,507 L 441,507 L 441,506 L 441,505 L 441,504 L 440,504 L 440,503 L 440,502 L 440,501 L 439,501 L 438,500 L 438,499 L 437,499 L 437,498 L 437,497 L 436,497 L 436,496 L 435,496 L 435,495 L 435,494 L 434,494 L 434,493 L 434,492 L 433,492 L 433,491 L 432,491 L 432,490 L 432,489 L 432,488 L 433,488 L 434,488 L 434,486 L 434,485 L 435,485 L 435,484 L 435,483 " />
</g>
<g id="11200" >
<path d="M 528,547 L 529,548 L 530,548 L 531,549 L 532,549 L 532,550 L 533,550 L 534,550 L 534,551 L 535,551 L 536,551 L 536,552 L 537,552 L 538,553 L 539,554 L 540,554 L 540,555 L 541,556 L 542,557 L 543,557 L 544,557 L 545,558 L 546,558 L 547,558 L 547,559 L 548,559 L 549,559 L 550,560 L 551,560 L 552,561 L 553,561 L 553,562 L 554,562 L 555,562 L 556,562 L 557,562 L 558,562 L 559,562 L 560,562 L 560,563 L 560,564 L 560,565 L 560,566 L 559,566 L 560,567 L 560,568 L 561,569 L 562,569 L 562,570 L 563,570 L 563,571 L 564,571 L 565,572 L 566,573 L 566,574 L 565,574 L 564,575 L 564,576 L 563,577 L 563,578 L 563,579 L 563,580 L 563,581 L 563,582 L 563,583 L 563,584 L 563,585 L 563,586 L 563,587 L 563,588 L 563,589 L 562,589 L 562,590 L 562,591 L 562,592 L 562,593 L 562,594 L 562,595 L 562,596 L 562,597 L 562,598 L 562,599 L 562,600 L 562,601 L 562,603 L 561,604 L 561,605 L 561,606 L 561,607 L 561,608 L 561,609 L 561,610 L 561,609 L 560,609 L 559,609 L 557,609 L 556,610 L 552,610 L 549,611 L 547,611 L 547,610 L 547,609 L 545,609 L 544,608 L 544,607 L 543,607 L 543,606 L 542,606 L 541,605 L 540,605 L 540,604 L 539,603 L 539,602 L 538,602 L 538,601 L 537,600 L 537,599 L 536,599 L 536,598 L 536,597 L 537,596 L 537,595 L 536,595 L 536,594 L 537,593 L 536,593 L 536,592 L 537,591 L 537,590 L 536,590 L 536,589 L 536,588 L 535,588 L 535,587 L 536,586 L 536,585 L 536,584 L 535,584 L 536,583 L 535,583 L 535,582 L 534,582 L 533,582 L 533,583 L 533,584 L 532,584 L 531,584 L 531,585 L 530,585 L 530,586 L 529,586 L 528,586 L 528,587 L 527,587 L 526,587 L 525,586 L 524,585 L 523,585 L 522,584 L 521,584 L 521,583 L 520,583 L 520,582 L 519,582 L 518,582 L 517,582 L 517,583 L 516,583 L 515,583 L 515,584 L 514,584 L 513,584 L 513,585 L 512,585 L 511,585 L 511,584 L 510,584 L 510,583 L 509,583 L 509,584 L 508,584 L 508,585 L 508,584 L 507,584 L 507,585 L 506,585 L 505,585 L 504,584 L 503,584 L 503,583 L 502,583 L 501,583 L 500,583 L 499,583 L 498,583 L 498,582 L 497,582 L 496,581 L 495,581 L 495,580 L 494,580 L 493,580 L 493,581 L 492,581 L 492,582 L 492,583 L 491,583 L 491,584 L 491,585 L 491,586 L 490,586 L 490,587 L 489,587 L 489,588 L 488,588 L 487,588 L 486,588 L 486,587 L 485,587 L 484,587 L 483,587 L 483,588 L 482,588 L 481,588 L 480,589 L 479,589 L 478,590 L 477,590 L 476,591 L 476,592 L 475,592 L 475,593 L 474,593 L 474,594 L 473,594 L 472,594 L 471,594 L 470,595 L 469,595 L 467,595 L 467,596 L 466,596 L 464,596 L 463,596 L 463,595 L 464,595 L 464,594 L 464,593 L 465,593 L 465,592 L 466,592 L 466,591 L 466,590 L 467,590 L 467,589 L 468,589 L 468,588 L 469,588 L 469,587 L 469,586 L 470,586 L 470,585 L 471,584 L 471,583 L 472,583 L 472,582 L 473,581 L 473,580 L 474,579 L 474,578 L 475,578 L 476,578 L 477,578 L 477,577 L 478,577 L 479,577 L 480,577 L 481,577 L 482,576 L 483,576 L 484,576 L 484,575 L 485,575 L 485,574 L 485,572 L 485,571 L 485,570 L 486,570 L 486,569 L 486,568 L 486,567 L 487,566 L 487,565 L 487,564 L 488,563 L 488,562 L 488,561 L 489,560 L 489,559 L 489,558 L 490,557 L 490,556 L 490,555 L 491,554 L 491,553 L 491,552 L 492,552 L 493,552 L 493,551 L 493,550 L 493,549 L 493,548 L 494,548 L 495,548 L 496,548 L 497,548 L 498,548 L 500,548 L 501,548 L 501,547 L 502,547 L 503,547 L 504,547 L 505,547 L 506,547 L 507,547 L 508,547 L 509,547 L 510,547 L 511,547 L 512,546 L 514,546 L 516,546 L 518,545 L 519,545 L 520,545 L 521,545 L 522,545 L 523,545 L 524,546 L 525,546 L 526,546 L 526,547 L 527,547 L 528,547 " />
</g>
<g id="11210" >
<path d="M 494,580 L 495,580 L 495,581 L 496,581 L 497,582 L 498,582 L 498,583 L 499,583 L 500,583 L 501,583 L 502,583 L 503,583 L 503,584 L 504,584 L 505,585 L 506,585 L 507,585 L 507,584 L 508,584 L 508,585 L 508,584 L 509,584 L 509,583 L 510,583 L 510,584 L 511,584 L 511,585 L 512,585 L 513,585 L 513,584 L 514,584 L 515,584 L 515,583 L 516,583 L 517,583 L 517,582 L 518,582 L 519,582 L 520,582 L 520,583 L 521,583 L 521,584 L 522,584 L 523,585 L 524,585 L 525,586 L 526,587 L 527,587 L 528,587 L 528,586 L 529,586 L 530,586 L 530,585 L 531,585 L 531,584 L 532,584 L 533,584 L 533,583 L 533,582 L 534,582 L 535,582 L 535,583 L 536,583 L 535,584 L 536,584 L 536,585 L 536,586 L 535,587 L 535,588 L 536,588 L 536,589 L 536,590 L 537,590 L 537,591 L 536,592 L 536,593 L 537,593 L 536,594 L 536,595 L 537,595 L 537,596 L 536,597 L 536,598 L 536,599 L 537,599 L 537,600 L 538,601 L 538,602 L 539,602 L 539,603 L 540,604 L 540,605 L 541,605 L 542,606 L 543,606 L 543,607 L 544,607 L 544,608 L 545,609 L 547,609 L 547,610 L 547,611 L 549,611 L 552,610 L 556,610 L 557,609 L 559,609 L 560,609 L 561,609 L 561,610 L 561,611 L 561,612 L 562,612 L 562,614 L 562,615 L 563,616 L 563,617 L 564,618 L 564,619 L 565,619 L 565,620 L 566,621 L 567,622 L 567,623 L 568,623 L 568,624 L 568,625 L 569,625 L 569,626 L 569,627 L 569,628 L 569,629 L 570,629 L 569,630 L 569,631 L 569,632 L 569,633 L 569,634 L 568,634 L 568,635 L 569,635 L 569,636 L 569,637 L 569,638 L 570,638 L 570,639 L 569,639 L 568,639 L 568,640 L 567,640 L 566,640 L 565,640 L 563,640 L 562,640 L 561,640 L 562,641 L 562,642 L 561,642 L 559,642 L 557,642 L 556,643 L 555,643 L 552,644 L 552,645 L 551,645 L 551,646 L 550,647 L 549,648 L 548,650 L 547,652 L 546,652 L 546,653 L 545,653 L 543,654 L 541,655 L 541,656 L 540,656 L 540,657 L 539,657 L 539,658 L 539,659 L 539,660 L 539,661 L 539,662 L 539,663 L 540,664 L 539,664 L 539,665 L 539,666 L 538,666 L 537,666 L 536,666 L 535,666 L 534,666 L 533,667 L 533,668 L 532,668 L 531,668 L 530,669 L 529,669 L 528,669 L 527,669 L 527,668 L 526,668 L 525,668 L 524,668 L 524,669 L 523,669 L 522,669 L 521,669 L 520,669 L 519,669 L 518,669 L 517,670 L 516,671 L 515,671 L 514,671 L 513,671 L 512,671 L 511,671 L 510,671 L 510,672 L 509,672 L 509,673 L 508,673 L 507,673 L 507,672 L 506,671 L 506,670 L 506,669 L 505,669 L 505,668 L 506,667 L 506,666 L 505,665 L 505,664 L 504,664 L 504,663 L 503,663 L 503,662 L 502,662 L 502,661 L 501,661 L 501,660 L 500,660 L 499,659 L 498,659 L 498,658 L 497,658 L 497,657 L 496,657 L 497,656 L 497,655 L 497,654 L 497,653 L 496,653 L 496,652 L 495,652 L 495,651 L 494,651 L 494,650 L 494,649 L 493,649 L 492,648 L 492,647 L 491,647 L 491,646 L 490,646 L 489,646 L 489,645 L 488,644 L 488,643 L 487,643 L 487,642 L 487,641 L 487,640 L 486,640 L 485,640 L 484,640 L 483,640 L 482,640 L 481,640 L 481,639 L 480,639 L 479,639 L 478,639 L 477,639 L 476,638 L 476,637 L 477,637 L 476,636 L 477,635 L 477,634 L 477,633 L 477,632 L 476,632 L 476,631 L 476,630 L 475,630 L 475,629 L 475,628 L 476,628 L 476,627 L 476,626 L 475,626 L 474,626 L 474,625 L 473,624 L 473,623 L 473,622 L 472,622 L 471,621 L 472,621 L 472,620 L 471,620 L 471,619 L 471,618 L 471,617 L 470,617 L 470,616 L 469,616 L 469,615 L 470,615 L 470,614 L 471,614 L 472,614 L 473,613 L 473,612 L 473,611 L 473,610 L 474,609 L 474,608 L 474,607 L 472,607 L 472,606 L 471,606 L 471,607 L 470,606 L 470,605 L 470,604 L 470,603 L 471,603 L 471,602 L 470,603 L 469,603 L 468,603 L 467,603 L 466,603 L 466,604 L 466,603 L 464,604 L 463,604 L 460,605 L 458,605 L 458,604 L 458,603 L 459,603 L 459,602 L 459,601 L 460,601 L 460,600 L 461,599 L 461,598 L 462,598 L 462,597 L 463,596 L 464,596 L 466,596 L 467,596 L 467,595 L 469,595 L 470,595 L 471,594 L 472,594 L 473,594 L 474,594 L 474,593 L 475,593 L 475,592 L 476,592 L 476,591 L 477,590 L 478,590 L 479,589 L 480,589 L 481,588 L 482,588 L 483,588 L 483,587 L 484,587 L 485,587 L 486,587 L 486,588 L 487,588 L 488,588 L 489,588 L 489,587 L 490,587 L 490,586 L 491,586 L 491,585 L 491,584 L 491,583 L 492,583 L 492,582 L 492,581 L 493,581 L 493,580 L 494,580 " />
</g>
<g id="11220" >
<path d="M 601,537 L 602,537 L 602,536 L 602,535 L 603,535 L 603,534 L 604,534 L 604,535 L 605,535 L 606,537 L 607,539 L 607,541 L 608,541 L 608,542 L 608,543 L 608,544 L 608,545 L 609,546 L 609,547 L 609,548 L 610,553 L 611,555 L 615,566 L 619,576 L 624,589 L 627,598 L 627,597 L 628,597 L 629,597 L 630,597 L 631,597 L 632,597 L 633,597 L 633,596 L 634,596 L 635,596 L 636,596 L 637,596 L 636,596 L 637,596 L 637,597 L 637,598 L 637,599 L 638,601 L 638,602 L 639,602 L 639,603 L 639,604 L 639,605 L 640,606 L 640,608 L 641,609 L 644,613 L 648,618 L 647,618 L 647,619 L 646,619 L 646,620 L 645,620 L 646,620 L 647,621 L 648,621 L 648,622 L 648,623 L 648,624 L 648,625 L 648,624 L 649,624 L 650,624 L 650,623 L 651,623 L 652,623 L 653,622 L 654,622 L 654,623 L 655,623 L 655,622 L 656,622 L 657,622 L 658,622 L 659,622 L 660,622 L 661,622 L 662,622 L 662,621 L 663,621 L 663,622 L 664,622 L 665,622 L 665,621 L 666,621 L 667,621 L 667,620 L 668,620 L 669,620 L 669,619 L 670,619 L 671,619 L 672,619 L 673,618 L 674,618 L 674,617 L 675,617 L 676,617 L 676,616 L 677,616 L 678,615 L 679,615 L 679,614 L 680,614 L 680,613 L 681,612 L 682,613 L 683,613 L 687,612 L 688,612 L 689,612 L 690,612 L 691,612 L 690,612 L 690,613 L 690,614 L 690,615 L 690,616 L 690,617 L 691,619 L 692,619 L 693,619 L 693,620 L 693,621 L 694,621 L 694,622 L 695,623 L 696,623 L 696,624 L 697,625 L 698,626 L 698,627 L 699,627 L 699,628 L 699,629 L 699,630 L 699,631 L 699,633 L 700,633 L 701,634 L 702,634 L 702,635 L 703,635 L 704,635 L 704,636 L 703,636 L 703,637 L 703,639 L 704,640 L 703,641 L 703,642 L 702,642 L 701,643 L 701,644 L 700,646 L 699,646 L 698,647 L 698,648 L 697,650 L 696,650 L 696,652 L 695,652 L 695,653 L 695,654 L 695,655 L 695,656 L 695,657 L 695,658 L 694,659 L 694,660 L 693,660 L 692,661 L 691,661 L 689,661 L 689,662 L 689,663 L 688,663 L 688,664 L 687,665 L 686,666 L 685,666 L 684,666 L 684,665 L 683,665 L 682,665 L 681,665 L 680,665 L 680,664 L 679,664 L 678,664 L 677,664 L 676,664 L 675,664 L 674,664 L 674,665 L 674,666 L 674,667 L 674,668 L 674,669 L 675,670 L 676,671 L 676,672 L 676,673 L 675,673 L 674,674 L 673,674 L 673,675 L 673,676 L 674,676 L 673,676 L 674,676 L 674,677 L 673,677 L 673,678 L 673,679 L 672,679 L 672,680 L 673,680 L 673,681 L 673,682 L 673,683 L 672,683 L 672,682 L 671,682 L 670,682 L 670,683 L 670,682 L 669,682 L 669,683 L 667,683 L 667,684 L 666,684 L 666,685 L 665,685 L 665,684 L 665,685 L 664,684 L 663,684 L 660,683 L 660,684 L 659,684 L 658,684 L 657,683 L 656,683 L 655,684 L 654,684 L 653,684 L 652,684 L 652,685 L 651,685 L 650,685 L 650,686 L 649,686 L 649,685 L 648,685 L 648,684 L 647,684 L 647,683 L 646,683 L 645,682 L 644,682 L 643,682 L 643,681 L 643,680 L 642,679 L 642,678 L 641,678 L 641,677 L 640,677 L 640,676 L 639,676 L 639,675 L 638,674 L 638,673 L 637,673 L 637,672 L 636,672 L 635,671 L 635,670 L 634,670 L 633,670 L 632,670 L 631,670 L 630,670 L 629,669 L 628,669 L 629,668 L 628,668 L 628,667 L 628,666 L 629,665 L 630,664 L 630,663 L 631,662 L 631,661 L 632,660 L 632,659 L 632,658 L 631,658 L 631,657 L 631,656 L 631,655 L 631,654 L 631,653 L 631,652 L 631,651 L 630,650 L 630,649 L 629,649 L 629,648 L 628,648 L 628,647 L 628,646 L 629,645 L 630,645 L 630,644 L 631,643 L 630,643 L 630,642 L 630,641 L 629,640 L 628,640 L 628,639 L 628,638 L 628,637 L 628,636 L 627,636 L 627,635 L 626,634 L 626,633 L 627,633 L 626,633 L 627,633 L 627,632 L 627,631 L 627,630 L 628,630 L 628,629 L 627,629 L 626,629 L 626,628 L 625,628 L 625,627 L 624,627 L 623,627 L 622,627 L 621,627 L 621,628 L 621,629 L 621,630 L 621,631 L 621,632 L 620,632 L 620,633 L 619,633 L 619,634 L 619,635 L 620,635 L 620,636 L 619,636 L 618,636 L 617,636 L 617,637 L 617,638 L 617,639 L 616,639 L 616,640 L 615,640 L 614,640 L 613,640 L 612,640 L 612,641 L 611,642 L 610,642 L 609,642 L 608,642 L 607,642 L 606,642 L 605,642 L 605,643 L 604,643 L 604,644 L 603,644 L 602,644 L 601,643 L 600,643 L 599,643 L 598,643 L 597,642 L 597,641 L 596,641 L 596,640 L 595,640 L 595,639 L 595,638 L 594,638 L 594,637 L 594,636 L 593,636 L 593,635 L 592,634 L 592,633 L 592,632 L 591,632 L 591,631 L 590,631 L 590,630 L 590,629 L 590,628 L 590,627 L 590,626 L 590,625 L 589,624 L 588,624 L 587,624 L 586,624 L 585,624 L 585,625 L 584,624 L 583,624 L 582,625 L 581,625 L 581,624 L 580,624 L 580,625 L 579,625 L 580,626 L 580,627 L 580,628 L 580,629 L 581,629 L 581,630 L 580,631 L 580,632 L 580,633 L 579,633 L 578,633 L 577,633 L 576,633 L 576,634 L 575,634 L 575,635 L 574,635 L 573,635 L 573,636 L 572,636 L 571,637 L 571,638 L 570,638 L 569,638 L 569,637 L 569,636 L 569,635 L 568,635 L 568,634 L 569,634 L 569,633 L 569,632 L 569,631 L 569,630 L 570,629 L 569,629 L 569,628 L 569,627 L 569,626 L 569,625 L 568,625 L 568,624 L 568,623 L 567,623 L 567,622 L 566,621 L 565,620 L 565,619 L 564,619 L 564,618 L 563,617 L 563,616 L 562,615 L 562,614 L 562,612 L 561,612 L 561,611 L 561,610 L 561,609 L 561,608 L 561,607 L 561,606 L 561,605 L 561,604 L 562,603 L 562,601 L 562,600 L 562,599 L 562,598 L 562,597 L 562,596 L 562,595 L 562,594 L 562,593 L 562,592 L 562,591 L 562,590 L 562,589 L 563,589 L 563,588 L 563,587 L 563,586 L 563,585 L 563,584 L 563,583 L 563,582 L 563,581 L 563,580 L 563,579 L 563,578 L 563,577 L 564,576 L 564,575 L 565,574 L 566,574 L 566,573 L 565,572 L 564,571 L 563,571 L 563,570 L 562,570 L 562,569 L 561,569 L 560,568 L 560,567 L 559,566 L 560,566 L 560,565 L 560,564 L 560,563 L 560,562 L 561,562 L 562,562 L 563,562 L 564,562 L 565,562 L 566,562 L 567,562 L 567,561 L 568,561 L 568,560 L 568,559 L 569,558 L 570,557 L 570,556 L 571,555 L 572,554 L 572,553 L 573,552 L 574,551 L 576,550 L 577,549 L 578,548 L 579,547 L 580,547 L 580,546 L 581,546 L 581,545 L 582,545 L 583,544 L 584,543 L 585,543 L 585,542 L 586,542 L 587,541 L 588,540 L 589,540 L 589,539 L 590,539 L 590,538 L 591,538 L 592,537 L 592,536 L 593,536 L 593,535 L 594,535 L 594,534 L 595,533 L 596,533 L 597,534 L 598,535 L 599,536 L 600,536 L 600,537 L 601,537 " />
</g>
<g id="11230" >
<path d="M 634,517 L 635,517 L 636,517 L 640,518 L 641,519 L 642,519 L 643,520 L 644,520 L 644,521 L 645,521 L 646,522 L 647,522 L 647,523 L 648,523 L 649,524 L 650,525 L 651,526 L 652,526 L 652,527 L 653,527 L 653,528 L 654,528 L 655,529 L 656,529 L 657,529 L 658,530 L 659,530 L 660,531 L 661,531 L 662,531 L 664,533 L 666,534 L 667,534 L 668,534 L 669,534 L 669,535 L 669,538 L 669,539 L 669,540 L 669,542 L 669,543 L 670,543 L 670,544 L 670,545 L 670,546 L 670,548 L 670,550 L 670,554 L 671,554 L 671,555 L 671,556 L 671,557 L 671,558 L 671,559 L 671,560 L 671,561 L 671,562 L 671,563 L 672,567 L 672,568 L 672,569 L 673,569 L 674,569 L 675,569 L 676,569 L 677,569 L 677,570 L 678,570 L 679,570 L 680,570 L 681,570 L 682,570 L 682,571 L 685,572 L 686,572 L 687,572 L 687,573 L 688,573 L 689,573 L 689,574 L 690,574 L 691,574 L 692,575 L 693,575 L 694,575 L 695,576 L 696,576 L 697,576 L 697,577 L 698,577 L 699,577 L 700,577 L 700,578 L 701,578 L 702,578 L 703,578 L 703,579 L 704,579 L 705,579 L 706,580 L 707,580 L 707,581 L 706,581 L 707,581 L 708,581 L 708,582 L 709,582 L 710,582 L 710,583 L 711,583 L 712,583 L 712,584 L 713,584 L 713,585 L 714,585 L 715,585 L 715,586 L 716,586 L 716,587 L 717,587 L 717,588 L 718,588 L 718,589 L 719,589 L 719,590 L 719,591 L 720,591 L 720,592 L 721,593 L 721,594 L 722,594 L 722,595 L 722,596 L 723,596 L 723,597 L 723,598 L 724,598 L 724,599 L 724,600 L 725,600 L 725,601 L 725,602 L 726,602 L 726,603 L 727,604 L 727,605 L 728,606 L 728,607 L 729,607 L 729,608 L 730,609 L 730,610 L 731,610 L 731,611 L 731,612 L 732,612 L 732,613 L 733,615 L 734,616 L 734,617 L 734,616 L 734,617 L 735,617 L 735,618 L 736,619 L 736,620 L 737,620 L 737,621 L 737,622 L 738,622 L 738,623 L 738,624 L 739,624 L 739,625 L 739,626 L 740,626 L 739,626 L 739,627 L 738,627 L 738,628 L 737,628 L 737,629 L 736,629 L 736,630 L 735,630 L 735,631 L 733,631 L 732,632 L 731,633 L 731,634 L 731,635 L 731,636 L 731,637 L 731,638 L 730,638 L 729,639 L 729,638 L 728,638 L 728,637 L 727,637 L 726,637 L 726,636 L 725,636 L 725,635 L 726,635 L 726,634 L 725,634 L 724,634 L 723,633 L 722,633 L 721,633 L 720,633 L 719,633 L 718,633 L 718,632 L 717,632 L 717,633 L 716,633 L 715,633 L 715,634 L 715,635 L 714,635 L 714,636 L 714,637 L 713,637 L 713,636 L 713,637 L 712,637 L 712,638 L 711,638 L 711,639 L 710,640 L 709,640 L 709,641 L 708,641 L 708,642 L 707,642 L 706,642 L 705,642 L 704,642 L 703,642 L 703,641 L 704,640 L 703,639 L 703,637 L 703,636 L 704,636 L 704,635 L 703,635 L 702,635 L 702,634 L 701,634 L 700,633 L 699,633 L 699,631 L 699,630 L 699,629 L 699,628 L 699,627 L 698,627 L 698,626 L 697,625 L 696,624 L 696,623 L 695,623 L 694,622 L 694,621 L 693,621 L 693,620 L 693,619 L 692,619 L 691,619 L 690,617 L 690,616 L 690,615 L 690,614 L 690,613 L 690,612 L 691,612 L 690,612 L 689,612 L 688,612 L 687,612 L 683,613 L 682,613 L 681,612 L 680,613 L 680,614 L 679,614 L 679,615 L 678,615 L 677,616 L 676,616 L 676,617 L 675,617 L 674,617 L 674,618 L 673,618 L 672,619 L 671,619 L 670,619 L 669,619 L 669,620 L 668,620 L 667,620 L 667,621 L 666,621 L 665,621 L 665,622 L 664,622 L 663,622 L 663,621 L 662,621 L 662,622 L 661,622 L 660,622 L 659,622 L 658,622 L 657,622 L 656,622 L 655,622 L 655,623 L 654,623 L 654,622 L 653,622 L 652,623 L 651,623 L 650,623 L 650,624 L 649,624 L 648,624 L 648,625 L 648,624 L 648,623 L 648,622 L 648,621 L 647,621 L 646,620 L 645,620 L 646,620 L 646,619 L 647,619 L 647,618 L 648,618 L 644,613 L 641,609 L 640,608 L 640,606 L 639,605 L 639,604 L 639,603 L 639,602 L 638,602 L 638,601 L 637,599 L 637,598 L 637,597 L 637,596 L 636,596 L 637,596 L 636,596 L 635,596 L 634,596 L 633,596 L 633,597 L 632,597 L 631,597 L 630,597 L 629,597 L 628,597 L 627,597 L 627,598 L 624,589 L 619,576 L 615,566 L 611,555 L 610,553 L 609,548 L 609,547 L 609,546 L 608,545 L 608,544 L 608,543 L 608,542 L 608,541 L 607,541 L 607,539 L 606,537 L 605,535 L 604,535 L 604,534 L 603,534 L 603,535 L 602,535 L 602,536 L 602,537 L 601,537 L 600,537 L 600,536 L 599,536 L 598,535 L 597,534 L 596,533 L 595,533 L 596,532 L 596,531 L 597,531 L 597,530 L 598,530 L 598,529 L 599,528 L 600,526 L 601,525 L 602,524 L 603,523 L 603,522 L 604,522 L 605,521 L 606,520 L 607,519 L 608,518 L 609,518 L 610,517 L 611,517 L 612,517 L 613,517 L 614,517 L 616,517 L 618,517 L 620,517 L 621,517 L 622,517 L 623,517 L 624,517 L 625,517 L 626,517 L 628,517 L 629,517 L 630,517 L 631,517 L 634,517 " />
</g>
<g id="11240" >
<path d="M 726,506 L 727,506 L 728,506 L 728,507 L 729,507 L 730,507 L 731,507 L 731,508 L 732,508 L 733,509 L 734,509 L 733,509 L 734,509 L 735,510 L 736,510 L 736,511 L 737,511 L 737,512 L 738,512 L 739,513 L 739,514 L 739,515 L 738,516 L 738,517 L 738,518 L 737,519 L 737,520 L 737,521 L 737,522 L 736,522 L 736,523 L 736,524 L 736,525 L 736,526 L 735,526 L 735,527 L 734,530 L 736,531 L 738,532 L 739,532 L 741,534 L 744,535 L 745,536 L 746,536 L 747,537 L 749,538 L 750,539 L 752,540 L 753,540 L 754,541 L 755,541 L 755,542 L 756,542 L 757,542 L 757,543 L 758,543 L 759,544 L 760,544 L 761,545 L 762,545 L 763,546 L 764,547 L 765,547 L 766,547 L 767,548 L 766,548 L 766,549 L 765,549 L 764,549 L 763,549 L 762,549 L 761,549 L 761,550 L 762,550 L 762,551 L 763,551 L 764,551 L 764,552 L 764,553 L 764,554 L 763,554 L 762,554 L 761,554 L 761,555 L 761,556 L 761,557 L 760,557 L 760,558 L 760,559 L 760,560 L 760,561 L 760,562 L 761,562 L 761,563 L 762,563 L 761,563 L 761,564 L 761,565 L 762,565 L 762,566 L 763,566 L 764,567 L 765,567 L 766,567 L 766,568 L 767,568 L 767,569 L 768,569 L 768,568 L 769,568 L 769,569 L 770,568 L 771,568 L 771,567 L 772,567 L 773,566 L 773,567 L 774,568 L 775,569 L 776,569 L 777,569 L 778,570 L 780,570 L 780,571 L 782,569 L 783,570 L 784,571 L 785,572 L 786,573 L 787,573 L 787,574 L 786,574 L 787,574 L 786,574 L 786,575 L 786,576 L 786,577 L 785,577 L 785,578 L 784,579 L 785,580 L 785,581 L 785,582 L 785,583 L 784,583 L 784,584 L 784,585 L 783,585 L 783,586 L 783,587 L 783,588 L 782,588 L 782,589 L 781,589 L 782,589 L 782,590 L 783,590 L 782,590 L 782,591 L 781,591 L 780,591 L 780,592 L 779,592 L 779,593 L 778,593 L 777,594 L 776,595 L 775,595 L 775,596 L 774,596 L 773,596 L 773,597 L 772,597 L 771,598 L 771,599 L 770,599 L 770,600 L 769,601 L 769,602 L 769,603 L 769,604 L 769,606 L 769,607 L 769,608 L 769,609 L 768,609 L 767,609 L 765,609 L 765,610 L 765,611 L 765,612 L 764,612 L 764,613 L 764,614 L 764,615 L 762,614 L 761,614 L 760,614 L 759,614 L 758,614 L 757,614 L 756,614 L 755,614 L 754,614 L 753,614 L 752,614 L 751,614 L 751,613 L 750,614 L 750,616 L 750,617 L 750,618 L 751,618 L 751,619 L 750,619 L 750,620 L 749,621 L 750,621 L 750,622 L 750,623 L 751,623 L 750,623 L 749,624 L 748,624 L 747,624 L 746,624 L 745,623 L 744,623 L 743,623 L 742,623 L 742,622 L 741,622 L 741,621 L 741,622 L 741,623 L 741,624 L 741,625 L 740,625 L 740,626 L 739,626 L 739,625 L 739,624 L 738,624 L 738,623 L 738,622 L 737,622 L 737,621 L 737,620 L 736,620 L 736,619 L 735,618 L 735,617 L 734,617 L 734,616 L 734,617 L 734,616 L 733,615 L 732,613 L 732,612 L 731,612 L 731,611 L 731,610 L 730,610 L 730,609 L 729,608 L 729,607 L 728,607 L 728,606 L 727,605 L 727,604 L 726,603 L 726,602 L 725,602 L 725,601 L 725,600 L 724,600 L 724,599 L 724,598 L 723,598 L 723,597 L 723,596 L 722,596 L 722,595 L 722,594 L 721,594 L 721,593 L 720,592 L 720,591 L 719,591 L 719,590 L 719,589 L 718,589 L 718,588 L 717,588 L 717,587 L 716,587 L 716,586 L 715,586 L 715,585 L 714,585 L 713,585 L 713,584 L 712,584 L 712,583 L 711,583 L 710,583 L 710,582 L 709,582 L 708,582 L 708,581 L 707,581 L 706,581 L 707,581 L 707,580 L 706,580 L 705,579 L 704,579 L 703,579 L 703,578 L 702,578 L 701,578 L 700,578 L 700,577 L 699,577 L 698,577 L 697,577 L 697,576 L 696,576 L 695,576 L 694,575 L 693,575 L 692,575 L 691,574 L 690,574 L 689,574 L 689,573 L 688,573 L 687,573 L 687,572 L 686,572 L 685,572 L 682,571 L 682,570 L 681,570 L 680,570 L 679,570 L 678,570 L 677,570 L 677,569 L 676,569 L 675,569 L 674,569 L 673,569 L 672,569 L 672,568 L 672,567 L 671,563 L 671,562 L 671,561 L 671,560 L 671,559 L 671,558 L 671,557 L 671,556 L 671,555 L 671,554 L 670,554 L 670,550 L 670,548 L 670,546 L 670,545 L 670,544 L 670,543 L 669,543 L 669,542 L 669,540 L 669,539 L 669,538 L 669,535 L 670,535 L 671,536 L 672,536 L 673,536 L 674,536 L 675,536 L 675,537 L 676,537 L 677,537 L 678,537 L 680,538 L 681,538 L 682,538 L 683,537 L 684,537 L 685,537 L 686,537 L 686,536 L 687,536 L 688,536 L 689,535 L 690,535 L 691,535 L 692,534 L 693,534 L 693,533 L 694,533 L 695,533 L 695,532 L 696,532 L 697,531 L 698,531 L 698,530 L 699,530 L 699,529 L 700,529 L 700,528 L 701,527 L 702,527 L 702,526 L 709,520 L 709,519 L 710,519 L 710,518 L 711,518 L 711,517 L 712,517 L 712,516 L 713,516 L 714,515 L 714,514 L 715,514 L 715,513 L 716,513 L 716,512 L 717,512 L 717,511 L 718,511 L 718,510 L 719,510 L 719,509 L 720,509 L 720,508 L 720,507 L 721,506 L 722,506 L 723,506 L 724,506 L 725,506 L 726,506 " />
</g>
<g id="11250" >
<path d="M 808,463 L 808,464 L 809,464 L 809,465 L 809,466 L 809,467 L 810,467 L 809,467 L 809,468 L 809,469 L 809,470 L 810,470 L 810,471 L 810,472 L 811,473 L 811,474 L 812,474 L 812,475 L 812,476 L 812,477 L 813,477 L 813,478 L 813,479 L 813,480 L 812,481 L 812,482 L 812,483 L 812,484 L 812,485 L 812,486 L 812,487 L 812,486 L 812,487 L 812,488 L 812,489 L 812,490 L 812,491 L 813,492 L 814,492 L 814,493 L 814,494 L 814,495 L 814,496 L 814,497 L 814,498 L 813,498 L 813,499 L 813,500 L 814,500 L 813,500 L 813,501 L 814,501 L 814,502 L 815,502 L 814,503 L 814,502 L 813,502 L 813,501 L 812,501 L 810,501 L 809,501 L 808,501 L 807,501 L 806,502 L 805,502 L 805,503 L 804,503 L 803,503 L 803,502 L 802,502 L 801,502 L 800,502 L 799,502 L 799,503 L 798,503 L 797,503 L 796,503 L 795,503 L 794,503 L 793,503 L 794,504 L 793,504 L 792,504 L 791,504 L 791,503 L 790,503 L 789,503 L 789,504 L 788,504 L 788,505 L 787,505 L 787,506 L 786,507 L 786,508 L 785,508 L 785,509 L 784,509 L 784,510 L 783,511 L 782,512 L 782,513 L 781,513 L 781,514 L 781,515 L 780,515 L 780,516 L 779,517 L 779,518 L 778,519 L 777,519 L 777,520 L 777,521 L 777,522 L 777,523 L 777,524 L 777,525 L 777,526 L 776,527 L 777,527 L 776,528 L 776,529 L 775,529 L 774,530 L 774,531 L 773,531 L 773,532 L 772,532 L 772,533 L 772,534 L 771,535 L 771,536 L 771,537 L 770,538 L 770,539 L 767,539 L 767,540 L 767,541 L 766,541 L 766,542 L 766,543 L 766,544 L 766,545 L 766,546 L 766,547 L 765,547 L 764,547 L 763,546 L 762,545 L 761,545 L 760,544 L 759,544 L 758,543 L 757,543 L 757,542 L 756,542 L 755,542 L 755,541 L 754,541 L 753,540 L 752,540 L 750,539 L 749,538 L 747,537 L 746,536 L 745,536 L 744,535 L 741,534 L 739,532 L 738,532 L 736,531 L 734,530 L 735,527 L 735,526 L 736,526 L 736,525 L 736,524 L 736,523 L 736,522 L 737,522 L 737,521 L 737,520 L 737,519 L 738,518 L 738,517 L 738,516 L 739,515 L 739,514 L 739,513 L 738,512 L 737,512 L 737,511 L 736,511 L 736,510 L 735,510 L 734,509 L 733,509 L 734,509 L 733,509 L 732,508 L 731,508 L 731,507 L 730,507 L 729,507 L 728,507 L 728,506 L 727,506 L 726,506 L 725,506 L 724,506 L 723,506 L 722,506 L 721,506 L 721,505 L 722,503 L 723,503 L 724,501 L 724,500 L 724,499 L 724,497 L 724,494 L 725,493 L 726,492 L 726,490 L 727,489 L 728,488 L 728,486 L 729,484 L 730,483 L 732,480 L 732,479 L 733,479 L 734,478 L 735,478 L 735,477 L 739,474 L 742,472 L 743,471 L 744,470 L 745,470 L 746,470 L 747,469 L 748,469 L 749,468 L 750,468 L 751,467 L 752,467 L 753,467 L 754,467 L 755,466 L 756,466 L 757,466 L 760,466 L 767,466 L 771,466 L 774,464 L 776,463 L 779,460 L 781,459 L 786,455 L 788,454 L 788,453 L 794,450 L 795,450 L 796,450 L 798,450 L 800,449 L 803,448 L 804,448 L 804,447 L 805,447 L 806,446 L 807,446 L 807,447 L 807,448 L 807,449 L 806,449 L 806,450 L 805,450 L 805,451 L 804,451 L 804,452 L 804,453 L 805,453 L 805,454 L 805,455 L 805,456 L 805,457 L 806,457 L 806,458 L 806,459 L 807,459 L 807,460 L 808,461 L 807,461 L 808,461 L 808,462 L 808,463 " />
</g>
</g>
</g>
</svg>