<?xml version="1.0" standalone="no"?>
<!DOCTYPE svg PUBLIC "-//W3C//DTD SVG 1.1//EN" "http://www.w3.org/Graphics/SVG/1.1/DTD/svg11.dtd">
<svg xmlns="http://www.w3.org/2000/svg" xmlns:inkscape="http://www.inkscape.org/namespaces/inkscape" xmlns:xlink="http://www.w3.org/1999/xlink" viewBox = "0 0 836 755" version = "1.1">
<!-- svg generated using QGIS www.qgis.org -->
<g id="sejong" inkscape:groupmode="layer" inkscape:label="sejong">
<g stroke="none" fill="rgb(255,255,255)" stroke-linejoin="round" stroke-width="0.26" style="stroke:rgb(0,0,0);stroke-width:1">
<g id="361100" >
<path d="M 256,318 L 255,318 L 253,319 L 252,319 L 251,319 L 250,319 L 249,319 L 248,320 L 247,319 L 246,320 L 246,321 L 245,321 L 245,319 L 245,318 L 245,317 L 244,317 L 244,316 L 243,316 L 243,315 L 242,314 L 242,313 L 240,313 L 240,312 L 238,310 L 238,309 L 237,308 L 237,307 L 237,306 L 236,306 L 236,305 L 236,304 L 235,304 L 235,305 L 234,305 L 233,305 L 232,305 L 232,304 L 231,304 L 231,303 L 230,303 L 229,303 L 229,302 L 228,302 L 228,301 L 227,301 L 226,300 L 226,301 L 226,300 L 225,300 L 224,300 L 223,300 L 223,299 L 222,299 L 221,299 L 220,298 L 219,297 L 218,297 L 217,297 L 216,297 L 215,296 L 215,295 L 215,293 L 215,292 L 215,291 L 216,291 L 215,289 L 215,288 L 215,287 L 215,285 L 214,284 L 215,283 L 214,282 L 215,282 L 215,280 L 216,279 L 216,277 L 216,276 L 215,276 L 214,275 L 214,274 L 213,274 L 211,272 L 210,271 L 208,271 L 207,270 L 206,269 L 206,267 L 207,266 L 208,265 L 208,264 L 209,264 L 209,263 L 210,263 L 211,263 L 211,262 L 212,261 L 213,259 L 213,258 L 214,258 L 215,258 L 216,258 L 217,258 L 219,259 L 220,258 L 222,258 L 223,258 L 224,257 L 224,256 L 224,255 L 224,253 L 223,253 L 222,254 L 219,252 L 218,251 L 218,250 L 218,249 L 217,248 L 217,247 L 217,246 L 217,245 L 217,244 L 216,243 L 217,241 L 218,241 L 219,240 L 218,239 L 218,238 L 219,237 L 219,236 L 219,235 L 220,234 L 220,233 L 220,232 L 219,232 L 219,231 L 218,231 L 218,230 L 218,229 L 217,228 L 218,227 L 218,226 L 219,225 L 219,224 L 218,224 L 217,223 L 216,221 L 217,220 L 216,220 L 216,219 L 215,219 L 214,218 L 213,217 L 213,216 L 212,215 L 212,214 L 212,213 L 212,212 L 211,212 L 212,210 L 212,209 L 213,208 L 212,206 L 213,205 L 213,203 L 213,202 L 214,200 L 214,199 L 213,196 L 214,195 L 215,195 L 216,194 L 217,193 L 219,192 L 220,192 L 221,190 L 223,189 L 223,188 L 225,188 L 224,186 L 224,185 L 223,185 L 223,182 L 224,182 L 222,181 L 223,180 L 222,179 L 222,178 L 222,177 L 222,176 L 221,175 L 220,175 L 219,175 L 219,174 L 218,174 L 217,174 L 217,173 L 217,172 L 216,171 L 215,171 L 215,170 L 214,170 L 214,169 L 215,168 L 215,167 L 216,164 L 216,163 L 217,161 L 217,160 L 217,159 L 218,159 L 219,158 L 219,157 L 220,156 L 220,155 L 221,154 L 221,153 L 221,152 L 221,151 L 222,150 L 223,149 L 225,148 L 225,147 L 226,147 L 227,145 L 228,145 L 228,144 L 230,144 L 230,142 L 230,141 L 231,140 L 231,139 L 231,138 L 230,138 L 231,137 L 231,136 L 230,136 L 230,135 L 230,133 L 230,132 L 229,131 L 229,130 L 229,129 L 228,128 L 228,127 L 228,126 L 228,125 L 227,123 L 227,122 L 226,122 L 226,120 L 225,119 L 225,118 L 225,117 L 224,117 L 224,116 L 225,116 L 225,115 L 226,114 L 226,113 L 226,112 L 226,111 L 225,110 L 225,109 L 225,108 L 224,107 L 223,106 L 222,105 L 222,104 L 221,103 L 221,102 L 220,102 L 219,101 L 219,102 L 219,103 L 219,104 L 218,104 L 218,105 L 218,106 L 218,107 L 218,108 L 218,109 L 218,110 L 218,111 L 217,111 L 217,112 L 216,112 L 215,112 L 214,112 L 213,112 L 212,111 L 211,112 L 211,113 L 210,113 L 209,113 L 209,114 L 208,114 L 208,115 L 208,114 L 207,114 L 206,114 L 205,114 L 205,113 L 205,112 L 204,111 L 204,112 L 203,112 L 202,112 L 201,113 L 200,113 L 199,113 L 198,115 L 197,115 L 196,115 L 195,116 L 194,114 L 192,113 L 191,113 L 191,112 L 192,111 L 192,110 L 193,110 L 194,110 L 194,109 L 193,108 L 193,107 L 193,106 L 192,106 L 192,104 L 191,104 L 190,104 L 189,103 L 190,100 L 190,99 L 190,98 L 190,97 L 189,97 L 187,95 L 186,95 L 186,94 L 185,92 L 186,92 L 185,90 L 185,88 L 186,88 L 183,87 L 183,86 L 182,85 L 181,84 L 182,82 L 182,80 L 181,80 L 180,78 L 179,78 L 179,77 L 179,76 L 178,76 L 178,77 L 178,76 L 177,77 L 176,77 L 175,77 L 175,78 L 174,78 L 173,77 L 172,77 L 171,76 L 171,77 L 170,75 L 169,75 L 168,74 L 167,74 L 167,73 L 167,72 L 168,71 L 169,70 L 170,69 L 172,69 L 173,69 L 174,69 L 175,68 L 176,67 L 175,67 L 176,66 L 177,65 L 177,64 L 179,63 L 179,62 L 181,63 L 182,62 L 183,62 L 183,61 L 184,61 L 185,60 L 185,59 L 186,59 L 187,59 L 187,58 L 188,57 L 189,57 L 190,56 L 189,55 L 190,55 L 190,54 L 191,55 L 192,55 L 192,54 L 193,54 L 194,54 L 195,53 L 196,53 L 196,54 L 198,53 L 198,52 L 199,52 L 199,50 L 200,50 L 201,49 L 202,49 L 202,48 L 203,48 L 204,46 L 204,45 L 204,44 L 203,44 L 202,44 L 202,43 L 202,42 L 203,42 L 204,41 L 204,40 L 205,39 L 205,38 L 205,37 L 205,36 L 206,36 L 205,36 L 205,35 L 206,35 L 206,34 L 207,34 L 208,34 L 209,34 L 209,33 L 210,33 L 210,32 L 210,31 L 210,30 L 210,29 L 210,28 L 211,28 L 211,29 L 212,29 L 213,29 L 214,29 L 214,30 L 215,30 L 215,31 L 216,31 L 217,31 L 217,32 L 218,32 L 218,31 L 219,31 L 220,31 L 221,29 L 220,28 L 220,26 L 221,26 L 221,25 L 221,24 L 222,24 L 223,23 L 223,22 L 223,20 L 224,19 L 225,20 L 226,19 L 227,19 L 228,19 L 229,19 L 230,18 L 231,18 L 232,17 L 234,18 L 235,18 L 236,18 L 236,19 L 235,19 L 236,20 L 236,19 L 237,19 L 237,20 L 236,20 L 236,21 L 237,21 L 237,20 L 238,20 L 238,19 L 239,19 L 240,19 L 240,20 L 241,20 L 241,21 L 242,21 L 242,20 L 243,20 L 243,21 L 244,21 L 244,22 L 245,22 L 245,23 L 245,24 L 245,25 L 246,25 L 246,26 L 247,27 L 247,28 L 248,29 L 249,29 L 249,28 L 250,27 L 250,28 L 251,28 L 253,29 L 254,29 L 257,29 L 259,28 L 262,27 L 263,26 L 264,26 L 265,25 L 266,26 L 267,26 L 267,27 L 268,27 L 269,27 L 269,28 L 270,28 L 271,29 L 271,30 L 272,30 L 273,30 L 274,31 L 275,31 L 276,31 L 276,30 L 277,29 L 278,29 L 280,29 L 281,29 L 282,29 L 283,30 L 284,31 L 287,29 L 287,30 L 288,30 L 290,30 L 290,31 L 292,32 L 293,32 L 294,32 L 295,33 L 296,34 L 297,35 L 298,34 L 299,34 L 300,34 L 301,36 L 302,37 L 301,40 L 301,41 L 302,43 L 302,44 L 302,45 L 303,45 L 303,46 L 306,46 L 308,49 L 309,49 L 309,50 L 308,50 L 309,50 L 308,50 L 311,51 L 312,51 L 313,52 L 314,52 L 315,52 L 316,52 L 317,52 L 317,51 L 317,52 L 317,51 L 318,50 L 319,51 L 320,51 L 321,52 L 321,53 L 321,54 L 321,55 L 322,55 L 323,56 L 323,57 L 326,58 L 327,58 L 328,58 L 329,58 L 330,58 L 332,58 L 333,58 L 334,58 L 335,58 L 336,58 L 336,57 L 337,58 L 337,59 L 337,60 L 336,61 L 336,62 L 336,63 L 336,65 L 336,66 L 337,66 L 337,68 L 338,68 L 339,69 L 341,70 L 343,72 L 344,73 L 345,74 L 346,74 L 346,73 L 347,75 L 348,75 L 349,74 L 349,73 L 350,73 L 351,72 L 352,72 L 353,72 L 354,72 L 355,73 L 355,74 L 356,75 L 357,76 L 358,76 L 359,76 L 359,77 L 360,78 L 359,78 L 360,79 L 360,80 L 360,81 L 360,82 L 360,83 L 361,83 L 362,84 L 363,85 L 364,85 L 364,87 L 365,87 L 366,87 L 366,88 L 367,88 L 367,89 L 368,89 L 369,89 L 371,90 L 372,90 L 373,90 L 373,91 L 373,92 L 372,93 L 371,93 L 372,94 L 372,95 L 372,96 L 373,98 L 374,99 L 374,100 L 375,101 L 378,100 L 378,102 L 379,102 L 379,103 L 380,102 L 381,102 L 382,102 L 383,101 L 384,100 L 385,99 L 386,99 L 387,100 L 388,101 L 390,103 L 391,103 L 391,104 L 392,104 L 394,105 L 395,106 L 395,107 L 396,107 L 396,108 L 397,109 L 398,109 L 400,108 L 401,109 L 402,109 L 402,108 L 403,108 L 405,108 L 406,109 L 408,109 L 410,109 L 411,109 L 411,108 L 412,109 L 413,108 L 414,108 L 414,107 L 415,107 L 416,106 L 417,106 L 418,105 L 418,104 L 419,104 L 421,104 L 422,104 L 423,103 L 424,102 L 424,103 L 425,103 L 425,104 L 428,106 L 428,107 L 429,109 L 430,109 L 430,110 L 431,110 L 432,111 L 433,111 L 434,110 L 436,109 L 437,110 L 437,112 L 438,112 L 438,113 L 439,113 L 440,113 L 442,113 L 443,113 L 444,113 L 445,113 L 445,112 L 446,113 L 448,113 L 449,114 L 450,115 L 451,115 L 452,117 L 452,118 L 455,119 L 457,120 L 459,121 L 463,122 L 464,122 L 465,123 L 466,123 L 467,123 L 468,123 L 470,123 L 471,124 L 472,125 L 473,124 L 474,123 L 475,124 L 476,124 L 477,124 L 477,125 L 478,125 L 479,125 L 479,126 L 479,127 L 480,128 L 481,128 L 481,130 L 483,130 L 483,131 L 484,132 L 484,133 L 484,134 L 484,135 L 484,136 L 484,137 L 484,138 L 484,139 L 484,140 L 483,141 L 483,142 L 483,144 L 482,146 L 481,147 L 481,148 L 480,148 L 480,149 L 480,150 L 481,150 L 480,151 L 480,152 L 481,153 L 482,153 L 481,155 L 481,156 L 481,157 L 480,159 L 480,161 L 479,162 L 480,163 L 479,164 L 478,164 L 477,165 L 476,166 L 476,167 L 475,167 L 473,171 L 473,173 L 473,175 L 470,175 L 468,176 L 468,177 L 467,177 L 466,177 L 465,178 L 465,179 L 464,179 L 464,180 L 464,181 L 463,180 L 462,180 L 461,181 L 460,180 L 458,180 L 457,181 L 455,181 L 452,181 L 451,182 L 451,183 L 451,184 L 451,186 L 451,187 L 450,188 L 450,189 L 449,190 L 448,191 L 448,192 L 447,192 L 447,193 L 447,194 L 447,195 L 447,196 L 446,197 L 446,198 L 447,199 L 446,201 L 446,202 L 444,202 L 443,202 L 443,203 L 443,204 L 442,205 L 441,207 L 442,207 L 441,208 L 440,208 L 440,209 L 440,210 L 439,211 L 438,212 L 439,215 L 439,217 L 440,219 L 439,219 L 436,221 L 435,222 L 434,222 L 434,221 L 433,221 L 432,221 L 432,220 L 431,220 L 430,220 L 429,221 L 429,222 L 429,223 L 428,223 L 428,224 L 428,225 L 429,226 L 429,227 L 429,228 L 430,229 L 430,230 L 430,231 L 431,231 L 431,232 L 432,232 L 432,233 L 433,233 L 433,234 L 433,235 L 433,236 L 433,237 L 434,237 L 434,238 L 435,238 L 435,237 L 436,237 L 436,236 L 437,236 L 438,236 L 439,235 L 440,236 L 441,236 L 442,236 L 443,236 L 444,236 L 444,237 L 445,237 L 446,236 L 446,235 L 446,234 L 447,234 L 447,233 L 448,233 L 448,232 L 449,232 L 449,231 L 450,231 L 451,231 L 452,230 L 453,230 L 454,230 L 454,231 L 455,231 L 457,233 L 457,234 L 457,235 L 457,236 L 456,236 L 456,237 L 456,238 L 456,239 L 455,239 L 455,240 L 455,241 L 454,241 L 454,242 L 454,243 L 454,244 L 454,245 L 454,246 L 455,247 L 455,248 L 455,249 L 455,250 L 455,251 L 455,252 L 455,253 L 456,254 L 456,255 L 456,256 L 457,257 L 458,257 L 459,258 L 460,258 L 461,258 L 462,258 L 462,257 L 463,257 L 464,258 L 464,259 L 464,260 L 464,261 L 464,262 L 464,263 L 463,264 L 463,265 L 463,266 L 463,267 L 463,268 L 464,269 L 464,270 L 469,270 L 469,271 L 470,272 L 470,273 L 471,274 L 471,275 L 471,276 L 471,277 L 471,278 L 471,279 L 471,280 L 471,281 L 471,282 L 472,283 L 473,283 L 474,283 L 474,284 L 474,285 L 474,286 L 474,287 L 473,287 L 473,286 L 473,287 L 473,288 L 473,289 L 473,290 L 473,291 L 473,292 L 472,293 L 471,293 L 471,294 L 472,294 L 472,295 L 473,295 L 473,296 L 474,296 L 474,297 L 475,297 L 475,298 L 476,298 L 476,299 L 477,300 L 478,300 L 478,301 L 479,302 L 480,303 L 481,304 L 481,305 L 481,306 L 482,306 L 482,307 L 482,308 L 482,309 L 482,310 L 482,311 L 482,312 L 482,313 L 481,314 L 481,315 L 481,316 L 480,317 L 480,318 L 479,318 L 479,319 L 479,320 L 479,321 L 479,322 L 479,323 L 479,324 L 479,325 L 479,326 L 479,327 L 479,328 L 479,329 L 479,330 L 479,331 L 478,332 L 477,333 L 477,334 L 476,333 L 476,334 L 475,334 L 475,335 L 474,336 L 473,337 L 472,337 L 471,338 L 470,338 L 470,339 L 470,340 L 469,340 L 469,341 L 470,341 L 470,342 L 471,342 L 471,343 L 472,343 L 473,343 L 474,344 L 474,345 L 475,345 L 475,346 L 476,346 L 476,347 L 477,348 L 478,348 L 479,348 L 480,348 L 480,349 L 481,349 L 482,349 L 483,349 L 484,349 L 485,349 L 486,349 L 487,349 L 488,349 L 489,349 L 490,349 L 491,349 L 492,349 L 493,349 L 494,349 L 495,349 L 495,348 L 496,348 L 497,348 L 498,348 L 499,348 L 500,348 L 501,348 L 502,348 L 503,347 L 504,347 L 505,347 L 506,347 L 507,347 L 508,347 L 509,348 L 509,349 L 510,349 L 510,350 L 511,351 L 510,352 L 509,352 L 508,352 L 509,353 L 510,354 L 511,354 L 512,354 L 513,354 L 514,354 L 514,355 L 515,355 L 515,356 L 514,357 L 514,358 L 515,358 L 515,359 L 515,360 L 516,361 L 517,362 L 517,363 L 518,363 L 518,364 L 519,364 L 520,364 L 520,365 L 521,365 L 522,365 L 522,366 L 523,366 L 523,367 L 525,366 L 526,366 L 527,367 L 527,368 L 527,369 L 527,370 L 528,371 L 528,372 L 529,372 L 530,372 L 530,373 L 531,373 L 531,374 L 532,374 L 533,374 L 534,375 L 533,376 L 534,376 L 534,377 L 535,377 L 534,378 L 534,379 L 533,380 L 533,381 L 532,381 L 533,383 L 533,384 L 534,384 L 534,385 L 534,386 L 535,387 L 535,388 L 535,389 L 535,390 L 536,390 L 535,390 L 535,391 L 536,392 L 536,393 L 537,393 L 537,394 L 538,394 L 538,393 L 539,393 L 540,393 L 541,392 L 542,392 L 542,391 L 543,391 L 544,391 L 545,391 L 545,390 L 546,390 L 546,389 L 547,389 L 548,389 L 549,390 L 548,390 L 547,389 L 547,390 L 548,390 L 549,390 L 550,390 L 552,390 L 553,390 L 554,389 L 554,390 L 555,391 L 557,391 L 558,391 L 558,392 L 559,393 L 560,394 L 562,394 L 563,394 L 564,394 L 567,393 L 568,393 L 568,394 L 569,394 L 569,395 L 570,395 L 571,395 L 572,395 L 573,395 L 574,395 L 575,395 L 576,394 L 577,394 L 578,394 L 578,393 L 578,392 L 579,392 L 579,391 L 579,390 L 580,390 L 581,389 L 581,390 L 582,390 L 583,390 L 584,390 L 585,390 L 586,390 L 587,390 L 587,391 L 588,390 L 589,389 L 590,389 L 590,388 L 591,388 L 591,387 L 591,386 L 591,385 L 592,385 L 593,385 L 594,385 L 595,385 L 596,385 L 597,384 L 598,384 L 599,384 L 600,384 L 601,384 L 601,383 L 602,383 L 603,383 L 604,383 L 605,383 L 605,382 L 606,382 L 607,382 L 606,385 L 604,386 L 603,387 L 601,388 L 599,389 L 599,390 L 598,391 L 598,392 L 598,391 L 599,391 L 600,391 L 601,390 L 602,390 L 603,390 L 604,390 L 605,390 L 606,390 L 606,391 L 607,391 L 607,392 L 608,392 L 608,393 L 607,393 L 607,394 L 606,394 L 606,395 L 605,395 L 605,396 L 605,397 L 604,398 L 603,399 L 600,399 L 599,399 L 599,400 L 599,401 L 600,402 L 600,403 L 600,404 L 601,404 L 602,404 L 603,404 L 604,404 L 604,405 L 605,405 L 605,406 L 606,407 L 607,407 L 607,408 L 608,409 L 608,410 L 609,411 L 609,412 L 610,414 L 610,415 L 610,416 L 609,416 L 610,418 L 609,419 L 609,421 L 609,422 L 610,422 L 612,423 L 613,423 L 615,424 L 616,425 L 617,426 L 617,428 L 616,429 L 618,431 L 618,432 L 619,433 L 619,434 L 618,434 L 619,435 L 618,435 L 618,436 L 618,437 L 618,438 L 618,439 L 618,440 L 619,440 L 621,441 L 622,440 L 623,441 L 624,441 L 624,440 L 625,440 L 625,441 L 626,441 L 627,442 L 628,442 L 629,442 L 632,442 L 633,442 L 633,443 L 634,443 L 635,443 L 637,442 L 638,443 L 639,443 L 641,443 L 642,443 L 643,443 L 644,442 L 645,441 L 646,441 L 646,440 L 647,440 L 647,439 L 648,439 L 649,440 L 650,440 L 651,441 L 651,442 L 651,443 L 652,444 L 652,445 L 652,446 L 653,447 L 653,448 L 654,448 L 655,448 L 656,449 L 656,451 L 656,452 L 656,454 L 656,456 L 657,458 L 657,460 L 657,462 L 658,464 L 659,465 L 659,466 L 660,466 L 661,467 L 662,468 L 662,469 L 661,470 L 662,471 L 662,472 L 661,473 L 662,475 L 662,476 L 662,478 L 662,479 L 660,480 L 659,480 L 658,479 L 657,479 L 656,479 L 655,478 L 652,480 L 650,479 L 649,481 L 648,481 L 647,482 L 646,483 L 643,484 L 643,485 L 643,486 L 644,486 L 645,487 L 646,487 L 647,488 L 647,489 L 648,489 L 649,489 L 649,490 L 650,491 L 651,491 L 651,492 L 652,492 L 654,493 L 654,494 L 654,495 L 654,497 L 656,502 L 655,503 L 656,504 L 656,505 L 657,505 L 658,505 L 658,506 L 659,507 L 660,508 L 661,508 L 662,509 L 663,509 L 663,510 L 662,511 L 663,512 L 663,513 L 663,514 L 663,515 L 663,516 L 663,517 L 662,517 L 662,519 L 662,520 L 661,521 L 661,524 L 660,524 L 661,525 L 661,526 L 663,527 L 662,528 L 662,529 L 661,530 L 661,531 L 661,532 L 662,532 L 663,533 L 664,533 L 664,534 L 665,534 L 666,535 L 666,536 L 666,537 L 666,538 L 666,539 L 665,539 L 665,540 L 664,541 L 663,541 L 662,541 L 661,541 L 661,542 L 659,542 L 657,543 L 656,543 L 656,544 L 655,544 L 655,545 L 653,545 L 652,545 L 650,545 L 647,545 L 643,547 L 642,548 L 640,549 L 639,548 L 638,547 L 635,545 L 634,544 L 634,543 L 633,542 L 632,541 L 631,540 L 629,539 L 628,538 L 628,537 L 627,537 L 627,536 L 626,536 L 625,535 L 624,534 L 623,533 L 622,533 L 621,532 L 619,531 L 618,530 L 616,531 L 613,531 L 612,532 L 611,533 L 610,534 L 610,536 L 607,540 L 601,547 L 599,549 L 599,550 L 598,550 L 597,551 L 596,551 L 595,552 L 592,553 L 592,554 L 592,556 L 591,556 L 590,556 L 589,556 L 587,555 L 586,555 L 585,555 L 583,554 L 582,553 L 581,552 L 580,552 L 579,551 L 578,551 L 577,551 L 576,552 L 577,553 L 576,556 L 575,558 L 575,561 L 574,563 L 573,564 L 573,565 L 572,565 L 572,566 L 572,567 L 572,568 L 573,569 L 574,569 L 574,568 L 574,569 L 574,570 L 575,570 L 576,571 L 577,571 L 577,572 L 578,573 L 577,574 L 577,575 L 577,576 L 577,577 L 577,578 L 578,578 L 578,579 L 578,580 L 579,580 L 579,581 L 580,581 L 580,582 L 579,582 L 580,582 L 580,583 L 581,583 L 581,584 L 583,585 L 583,586 L 583,587 L 582,587 L 582,588 L 581,589 L 581,590 L 580,592 L 580,593 L 580,594 L 580,595 L 579,595 L 577,595 L 577,596 L 576,596 L 576,597 L 576,599 L 576,600 L 575,601 L 574,602 L 575,602 L 575,603 L 575,604 L 576,604 L 576,605 L 575,606 L 575,607 L 574,607 L 574,608 L 574,609 L 575,610 L 574,610 L 574,609 L 573,609 L 573,608 L 573,607 L 572,608 L 571,609 L 570,608 L 569,609 L 569,610 L 570,610 L 570,611 L 571,613 L 571,615 L 572,615 L 571,617 L 571,618 L 570,619 L 571,619 L 570,621 L 571,622 L 572,622 L 572,623 L 572,624 L 572,625 L 573,625 L 573,626 L 574,627 L 573,628 L 572,630 L 571,631 L 570,631 L 570,632 L 569,632 L 568,632 L 569,633 L 569,634 L 569,635 L 569,636 L 569,637 L 569,638 L 569,639 L 569,640 L 568,640 L 567,640 L 566,641 L 566,642 L 565,643 L 565,644 L 564,645 L 562,647 L 561,646 L 560,646 L 560,645 L 559,645 L 558,645 L 557,646 L 556,647 L 557,647 L 556,647 L 555,648 L 554,648 L 553,649 L 552,650 L 552,651 L 551,651 L 551,652 L 550,653 L 549,653 L 549,654 L 549,655 L 548,655 L 548,656 L 548,657 L 548,658 L 547,659 L 547,660 L 546,662 L 546,663 L 546,664 L 546,665 L 545,666 L 545,667 L 545,666 L 544,666 L 543,666 L 543,667 L 543,668 L 542,669 L 542,670 L 541,670 L 541,671 L 541,672 L 542,673 L 542,674 L 541,675 L 541,676 L 541,677 L 542,677 L 542,678 L 542,679 L 542,680 L 542,681 L 542,682 L 541,683 L 540,684 L 539,685 L 538,686 L 537,687 L 536,687 L 536,688 L 535,688 L 534,688 L 533,689 L 532,690 L 531,691 L 530,691 L 529,691 L 528,692 L 527,693 L 527,694 L 525,695 L 524,696 L 523,697 L 522,698 L 521,699 L 520,699 L 519,699 L 518,700 L 517,701 L 516,701 L 515,700 L 514,700 L 512,700 L 511,700 L 509,698 L 508,698 L 506,699 L 505,700 L 504,703 L 503,703 L 502,704 L 501,704 L 499,705 L 499,703 L 498,702 L 497,702 L 496,701 L 495,700 L 495,699 L 494,699 L 493,699 L 490,698 L 490,697 L 489,696 L 488,695 L 487,695 L 487,696 L 485,696 L 483,695 L 482,695 L 481,695 L 479,695 L 477,696 L 476,696 L 475,696 L 474,697 L 473,699 L 473,700 L 473,701 L 472,702 L 471,701 L 469,700 L 469,699 L 467,699 L 465,699 L 464,699 L 463,699 L 462,699 L 462,700 L 459,701 L 459,702 L 460,702 L 459,702 L 459,703 L 460,703 L 461,703 L 461,704 L 461,705 L 461,706 L 460,707 L 460,708 L 459,708 L 458,709 L 457,709 L 456,709 L 456,708 L 455,708 L 454,709 L 454,714 L 453,714 L 451,714 L 450,714 L 450,715 L 448,715 L 447,716 L 446,716 L 444,716 L 443,716 L 442,716 L 442,717 L 440,717 L 438,718 L 438,717 L 436,716 L 435,716 L 434,716 L 431,717 L 431,718 L 431,717 L 431,716 L 430,715 L 430,716 L 431,717 L 430,718 L 430,719 L 429,719 L 428,719 L 427,719 L 426,719 L 425,719 L 425,718 L 424,718 L 423,718 L 423,717 L 422,717 L 421,717 L 421,716 L 420,715 L 419,715 L 418,715 L 417,715 L 417,714 L 416,714 L 415,714 L 415,713 L 414,713 L 413,713 L 412,712 L 411,712 L 410,712 L 409,712 L 408,712 L 407,712 L 406,712 L 405,713 L 404,713 L 403,713 L 402,714 L 401,714 L 400,714 L 398,715 L 398,716 L 397,717 L 396,718 L 396,719 L 396,720 L 397,721 L 397,723 L 397,724 L 398,725 L 398,726 L 398,727 L 398,728 L 398,729 L 397,729 L 397,730 L 396,730 L 396,731 L 395,731 L 394,732 L 392,732 L 391,732 L 390,732 L 389,732 L 388,732 L 388,733 L 387,733 L 387,734 L 386,734 L 385,734 L 385,733 L 384,733 L 384,734 L 383,734 L 382,735 L 382,734 L 381,733 L 380,732 L 380,731 L 380,729 L 379,728 L 378,727 L 378,726 L 377,726 L 376,726 L 376,725 L 376,724 L 375,723 L 374,722 L 374,721 L 373,720 L 372,718 L 371,717 L 370,717 L 369,716 L 369,715 L 369,713 L 369,711 L 370,711 L 371,709 L 370,709 L 370,708 L 369,708 L 368,708 L 367,709 L 366,708 L 365,709 L 363,709 L 362,709 L 361,709 L 360,709 L 359,708 L 358,708 L 357,708 L 356,708 L 354,707 L 353,707 L 352,707 L 351,706 L 350,706 L 349,706 L 349,705 L 349,704 L 349,701 L 348,701 L 347,700 L 346,700 L 345,700 L 344,700 L 344,699 L 343,699 L 343,700 L 342,701 L 341,702 L 340,703 L 339,701 L 338,701 L 338,700 L 338,699 L 338,698 L 337,697 L 338,696 L 337,695 L 337,694 L 337,691 L 336,690 L 334,690 L 334,689 L 333,688 L 332,687 L 331,685 L 330,683 L 328,682 L 327,682 L 327,681 L 327,680 L 326,679 L 325,678 L 325,677 L 325,676 L 324,675 L 322,675 L 321,675 L 320,674 L 319,674 L 318,673 L 317,673 L 316,673 L 315,673 L 315,671 L 313,671 L 311,671 L 309,670 L 306,670 L 305,670 L 303,669 L 302,668 L 300,667 L 297,666 L 295,665 L 294,664 L 293,663 L 292,663 L 291,662 L 292,661 L 292,660 L 293,659 L 294,659 L 295,659 L 295,658 L 294,658 L 295,658 L 295,657 L 295,656 L 295,654 L 294,652 L 294,651 L 295,649 L 296,649 L 296,648 L 295,646 L 295,645 L 295,644 L 295,643 L 295,642 L 294,640 L 294,639 L 292,638 L 290,636 L 290,635 L 291,634 L 293,633 L 294,632 L 295,630 L 296,630 L 298,630 L 299,629 L 298,627 L 298,626 L 299,625 L 299,623 L 299,622 L 300,621 L 301,619 L 300,617 L 301,616 L 300,615 L 300,613 L 300,612 L 300,611 L 299,611 L 299,610 L 299,607 L 297,605 L 296,604 L 295,603 L 293,604 L 292,605 L 290,605 L 289,605 L 288,603 L 286,600 L 285,599 L 284,598 L 283,596 L 282,595 L 282,594 L 282,593 L 282,592 L 281,590 L 280,589 L 279,585 L 279,584 L 278,582 L 279,582 L 276,575 L 277,574 L 278,573 L 279,572 L 280,571 L 281,570 L 281,568 L 281,567 L 282,567 L 282,566 L 282,565 L 283,564 L 284,564 L 284,563 L 284,562 L 284,561 L 284,560 L 284,559 L 284,558 L 284,557 L 284,556 L 284,555 L 284,554 L 283,555 L 282,555 L 283,555 L 283,554 L 284,554 L 284,553 L 283,553 L 282,553 L 280,552 L 280,551 L 279,551 L 278,551 L 277,550 L 276,550 L 275,550 L 275,549 L 275,548 L 274,547 L 274,548 L 274,547 L 273,547 L 272,546 L 271,546 L 270,546 L 269,546 L 268,546 L 268,545 L 267,545 L 266,545 L 265,544 L 264,545 L 264,544 L 263,545 L 261,545 L 260,545 L 259,546 L 258,546 L 258,547 L 258,548 L 257,548 L 256,548 L 256,547 L 255,546 L 255,547 L 254,546 L 253,546 L 252,546 L 252,545 L 251,544 L 251,543 L 250,542 L 249,542 L 249,541 L 248,540 L 248,539 L 248,538 L 248,537 L 247,537 L 246,536 L 246,535 L 246,534 L 246,533 L 246,532 L 247,531 L 248,531 L 248,530 L 249,530 L 249,529 L 250,529 L 251,529 L 251,530 L 252,530 L 253,530 L 253,529 L 253,528 L 253,527 L 254,527 L 254,526 L 255,526 L 255,525 L 255,524 L 254,525 L 253,525 L 253,524 L 252,524 L 252,523 L 251,523 L 250,522 L 252,520 L 251,519 L 251,518 L 250,518 L 250,519 L 249,519 L 249,518 L 248,518 L 248,517 L 248,516 L 247,516 L 247,515 L 247,514 L 246,514 L 245,513 L 245,512 L 243,512 L 242,512 L 241,511 L 240,510 L 242,509 L 241,509 L 242,506 L 240,505 L 241,504 L 242,503 L 243,502 L 245,500 L 246,500 L 246,498 L 246,497 L 247,497 L 247,496 L 248,496 L 249,495 L 250,493 L 251,493 L 252,493 L 253,492 L 254,491 L 255,490 L 256,489 L 257,489 L 258,488 L 258,487 L 258,486 L 259,486 L 260,485 L 262,484 L 262,483 L 261,481 L 260,481 L 260,480 L 258,479 L 258,478 L 257,478 L 257,477 L 258,476 L 257,475 L 256,474 L 256,473 L 255,472 L 254,471 L 254,470 L 254,469 L 252,468 L 251,468 L 251,467 L 250,467 L 250,466 L 249,464 L 250,462 L 250,461 L 249,460 L 249,459 L 249,458 L 248,457 L 247,457 L 246,457 L 246,455 L 246,454 L 246,453 L 245,452 L 245,451 L 246,450 L 246,449 L 247,448 L 247,447 L 248,446 L 249,446 L 248,444 L 248,443 L 248,442 L 248,441 L 247,441 L 248,438 L 248,437 L 249,436 L 250,436 L 251,435 L 253,433 L 254,432 L 255,431 L 256,430 L 257,430 L 258,430 L 259,430 L 260,430 L 262,431 L 263,432 L 263,433 L 265,434 L 267,434 L 268,433 L 269,432 L 269,431 L 270,431 L 270,430 L 279,429 L 279,428 L 279,427 L 278,426 L 277,426 L 277,425 L 276,425 L 275,424 L 274,424 L 274,423 L 274,422 L 273,421 L 273,420 L 272,420 L 272,419 L 271,419 L 271,418 L 270,417 L 269,416 L 269,415 L 270,414 L 271,414 L 272,414 L 273,413 L 273,412 L 274,412 L 274,411 L 274,410 L 274,409 L 274,408 L 275,407 L 275,406 L 275,405 L 275,404 L 276,404 L 276,403 L 277,403 L 277,402 L 276,402 L 276,401 L 277,401 L 277,400 L 277,399 L 277,398 L 278,398 L 279,397 L 279,396 L 279,395 L 280,395 L 281,394 L 281,393 L 280,392 L 281,392 L 281,391 L 281,390 L 282,389 L 283,388 L 284,388 L 285,388 L 286,388 L 287,388 L 288,388 L 289,388 L 289,389 L 289,388 L 290,388 L 291,388 L 292,388 L 293,387 L 293,386 L 294,385 L 295,385 L 296,384 L 297,384 L 298,383 L 299,382 L 299,381 L 299,379 L 299,378 L 299,377 L 300,377 L 299,375 L 300,374 L 300,373 L 300,372 L 300,371 L 301,370 L 301,369 L 302,368 L 303,367 L 304,367 L 305,366 L 305,365 L 306,365 L 306,364 L 307,363 L 307,362 L 307,361 L 307,360 L 307,359 L 307,358 L 307,357 L 306,356 L 305,355 L 305,354 L 304,354 L 304,353 L 303,353 L 302,352 L 301,352 L 300,351 L 299,351 L 298,351 L 297,350 L 296,350 L 295,350 L 295,349 L 294,349 L 293,349 L 292,349 L 292,350 L 291,351 L 290,351 L 289,351 L 289,352 L 288,352 L 287,352 L 286,352 L 286,353 L 285,353 L 284,353 L 283,353 L 282,353 L 281,353 L 281,352 L 280,350 L 280,349 L 279,348 L 278,348 L 278,347 L 278,346 L 278,345 L 277,344 L 276,342 L 275,341 L 275,340 L 275,339 L 275,338 L 275,337 L 275,336 L 276,336 L 276,335 L 276,334 L 276,333 L 277,332 L 277,331 L 277,330 L 277,329 L 278,327 L 278,325 L 278,324 L 277,323 L 276,323 L 275,323 L 274,323 L 273,324 L 272,324 L 271,325 L 271,326 L 271,327 L 271,328 L 270,328 L 269,329 L 268,329 L 267,329 L 267,330 L 266,330 L 265,330 L 265,329 L 263,327 L 262,326 L 262,325 L 262,321 L 261,321 L 260,320 L 259,320 L 258,320 L 257,319 L 256,318 L 256,319 L 255,320 L 256,319 L 256,318 " />
</g>
</g>
</g>
</svg>