<?xml version="1.0" standalone="no"?>
<!DOCTYPE svg PUBLIC "-//W3C//DTD SVG 1.1//EN" "http://www.w3.org/Graphics/SVG/1.1/DTD/svg11.dtd">
<svg xmlns="http://www.w3.org/2000/svg" xmlns:inkscape="http://www.inkscape.org/namespaces/inkscape" xmlns:xlink="http://www.w3.org/1999/xlink" viewBox = "0 0 836 755" version = "1.1">
<!-- svg generated using QGIS www.qgis.org -->
<g id="ulsan" inkscape:groupmode="layer" inkscape:label="ulsan">
<g stroke="none" fill="rgb(255,255,255)" stroke-linejoin="round" stroke-width="0.26" style="stroke:rgb(0,0,0);stroke-width:1">
<g id="26010" >
<path d="M 586,245 L 585,246 L 585,247 L 585,248 L 586,249 L 587,250 L 588,251 L 589,251 L 590,252 L 591,252 L 591,251 L 592,251 L 593,251 L 593,250 L 594,250 L 594,249 L 596,248 L 597,248 L 598,248 L 599,247 L 600,247 L 601,247 L 602,247 L 604,247 L 605,247 L 606,247 L 607,247 L 608,248 L 609,248 L 609,249 L 610,249 L 611,249 L 610,250 L 611,251 L 611,252 L 611,253 L 611,252 L 610,252 L 610,253 L 611,253 L 611,254 L 611,255 L 612,256 L 611,256 L 612,257 L 612,258 L 612,259 L 611,259 L 611,260 L 611,263 L 611,265 L 611,266 L 611,267 L 611,268 L 611,270 L 612,271 L 612,273 L 612,274 L 613,276 L 613,277 L 614,278 L 614,279 L 615,280 L 615,281 L 616,282 L 616,283 L 617,283 L 617,284 L 617,285 L 617,286 L 617,287 L 617,288 L 618,288 L 618,289 L 618,290 L 617,291 L 617,292 L 617,293 L 617,294 L 617,295 L 617,296 L 617,297 L 617,298 L 617,299 L 618,299 L 618,300 L 618,301 L 618,302 L 619,302 L 619,303 L 619,304 L 620,306 L 620,307 L 620,308 L 620,309 L 620,310 L 619,312 L 619,313 L 618,313 L 617,314 L 616,314 L 615,314 L 615,315 L 614,315 L 614,316 L 614,317 L 614,318 L 614,319 L 615,320 L 615,321 L 615,322 L 615,323 L 616,323 L 616,324 L 615,325 L 615,326 L 614,326 L 614,327 L 614,328 L 615,328 L 615,327 L 615,328 L 615,329 L 616,329 L 616,330 L 616,331 L 617,332 L 617,333 L 618,333 L 618,334 L 618,333 L 617,333 L 616,333 L 616,332 L 615,332 L 614,332 L 613,332 L 612,331 L 612,332 L 611,332 L 610,332 L 609,332 L 608,332 L 607,332 L 606,332 L 605,332 L 605,333 L 604,333 L 603,333 L 602,333 L 601,333 L 600,333 L 599,333 L 598,332 L 597,332 L 596,332 L 595,332 L 594,332 L 593,332 L 592,332 L 591,332 L 590,332 L 590,331 L 589,331 L 588,331 L 587,331 L 583,332 L 582,332 L 581,332 L 580,332 L 579,332 L 578,332 L 577,332 L 576,332 L 575,332 L 574,332 L 573,332 L 572,332 L 571,332 L 570,332 L 569,331 L 568,331 L 567,331 L 566,331 L 565,331 L 564,331 L 563,331 L 562,331 L 561,330 L 560,330 L 559,329 L 558,329 L 557,329 L 556,329 L 555,329 L 555,328 L 554,328 L 553,328 L 552,327 L 551,327 L 550,327 L 549,327 L 548,327 L 548,328 L 547,328 L 546,329 L 545,330 L 545,331 L 545,332 L 545,333 L 545,334 L 545,335 L 545,336 L 545,337 L 545,338 L 545,339 L 544,339 L 544,340 L 543,340 L 542,340 L 541,341 L 540,341 L 539,341 L 538,341 L 537,341 L 537,342 L 536,342 L 535,342 L 534,342 L 533,342 L 533,341 L 532,341 L 532,340 L 531,340 L 530,340 L 529,340 L 528,340 L 528,339 L 527,339 L 527,338 L 526,338 L 526,337 L 525,337 L 525,336 L 525,335 L 524,335 L 524,334 L 523,334 L 523,333 L 522,333 L 522,332 L 521,332 L 520,332 L 519,332 L 518,332 L 518,331 L 517,331 L 516,331 L 516,330 L 515,330 L 515,329 L 514,329 L 513,329 L 513,328 L 512,328 L 511,327 L 510,327 L 509,327 L 508,327 L 508,326 L 507,326 L 506,326 L 505,326 L 504,326 L 503,326 L 502,326 L 501,326 L 500,327 L 499,327 L 498,327 L 497,327 L 496,327 L 495,326 L 494,326 L 494,325 L 493,325 L 492,325 L 492,324 L 491,324 L 491,323 L 490,323 L 490,322 L 490,321 L 489,321 L 489,320 L 488,320 L 488,319 L 487,319 L 486,318 L 486,317 L 486,316 L 485,316 L 485,315 L 484,314 L 483,314 L 483,313 L 482,313 L 481,313 L 480,313 L 479,313 L 479,312 L 479,311 L 478,310 L 478,308 L 477,307 L 478,306 L 478,305 L 477,305 L 477,304 L 476,303 L 475,302 L 476,301 L 476,300 L 476,299 L 477,298 L 478,297 L 478,296 L 477,296 L 477,295 L 477,294 L 477,293 L 476,292 L 477,291 L 477,290 L 477,289 L 478,289 L 480,289 L 480,288 L 479,288 L 479,287 L 478,285 L 479,285 L 479,284 L 479,283 L 478,283 L 478,282 L 477,281 L 475,281 L 474,280 L 474,279 L 473,279 L 473,278 L 473,277 L 473,276 L 472,276 L 472,275 L 472,274 L 472,273 L 473,273 L 473,272 L 472,271 L 472,270 L 472,269 L 471,269 L 471,268 L 470,268 L 471,267 L 471,266 L 471,265 L 471,264 L 469,264 L 469,262 L 468,262 L 468,261 L 469,260 L 470,260 L 470,261 L 471,261 L 472,261 L 472,262 L 473,261 L 474,261 L 474,262 L 474,261 L 475,261 L 475,262 L 476,262 L 476,263 L 477,263 L 477,264 L 478,264 L 478,265 L 479,265 L 480,265 L 481,266 L 482,266 L 483,266 L 483,267 L 484,267 L 485,267 L 486,267 L 487,267 L 487,268 L 487,269 L 488,268 L 489,269 L 489,268 L 489,267 L 490,267 L 490,266 L 491,266 L 491,265 L 491,266 L 492,266 L 493,266 L 493,265 L 494,265 L 495,265 L 496,265 L 497,266 L 498,266 L 499,267 L 500,267 L 501,267 L 501,268 L 502,268 L 503,268 L 504,268 L 505,268 L 506,268 L 507,268 L 508,269 L 509,269 L 510,269 L 511,269 L 511,270 L 512,270 L 513,270 L 514,271 L 513,271 L 512,271 L 511,274 L 511,276 L 513,277 L 513,278 L 514,279 L 515,279 L 515,280 L 515,281 L 516,281 L 517,281 L 518,282 L 520,282 L 520,281 L 521,282 L 522,282 L 523,282 L 524,281 L 525,281 L 526,281 L 527,281 L 527,282 L 528,282 L 528,283 L 529,283 L 529,284 L 530,284 L 531,284 L 531,285 L 531,284 L 531,283 L 530,283 L 530,282 L 530,281 L 530,280 L 530,279 L 530,278 L 530,277 L 529,277 L 529,276 L 528,276 L 528,275 L 528,274 L 528,273 L 528,272 L 528,271 L 529,271 L 529,270 L 530,270 L 530,269 L 530,268 L 530,267 L 529,267 L 529,266 L 529,265 L 528,265 L 528,264 L 527,263 L 526,262 L 526,261 L 526,260 L 526,259 L 526,258 L 526,257 L 526,256 L 525,256 L 524,256 L 525,255 L 525,254 L 526,255 L 528,255 L 529,255 L 530,255 L 531,255 L 532,255 L 532,254 L 533,254 L 533,253 L 534,253 L 534,252 L 535,252 L 536,252 L 537,252 L 538,252 L 539,252 L 540,252 L 541,252 L 542,252 L 543,252 L 544,252 L 545,252 L 545,253 L 545,254 L 546,254 L 547,254 L 547,255 L 547,256 L 546,256 L 546,257 L 547,257 L 547,258 L 548,259 L 549,259 L 549,260 L 550,261 L 552,261 L 553,261 L 554,261 L 555,260 L 556,259 L 556,258 L 557,258 L 557,257 L 558,256 L 559,256 L 559,255 L 560,255 L 560,254 L 561,254 L 562,253 L 563,253 L 564,252 L 564,251 L 565,251 L 566,252 L 567,252 L 568,252 L 570,251 L 571,250 L 571,249 L 572,249 L 572,248 L 572,247 L 572,246 L 572,245 L 573,244 L 574,243 L 575,243 L 576,243 L 577,244 L 578,244 L 578,245 L 579,245 L 579,244 L 580,244 L 581,244 L 582,243 L 583,243 L 583,242 L 584,242 L 585,242 L 586,242 L 586,243 L 586,244 L 586,245 " />
</g>
<g id="26020" >
<path d="M 617,482 L 616,482 L 617,482 " />
<path d="M 489,321 L 490,321 L 490,322 L 490,323 L 491,323 L 491,324 L 492,324 L 492,325 L 493,325 L 494,325 L 494,326 L 495,326 L 496,327 L 497,327 L 498,327 L 499,327 L 500,327 L 501,326 L 502,326 L 503,326 L 504,326 L 505,326 L 506,326 L 507,326 L 508,326 L 508,327 L 509,327 L 510,327 L 511,327 L 512,328 L 513,328 L 513,329 L 514,329 L 515,329 L 515,330 L 516,330 L 516,331 L 517,331 L 518,331 L 518,332 L 519,332 L 520,332 L 521,332 L 522,332 L 522,333 L 523,333 L 523,334 L 524,334 L 524,335 L 525,335 L 525,336 L 525,337 L 526,337 L 526,338 L 527,338 L 527,339 L 528,339 L 528,340 L 529,340 L 530,340 L 531,340 L 532,340 L 532,341 L 533,341 L 533,342 L 534,342 L 535,342 L 536,342 L 537,342 L 537,341 L 538,341 L 539,341 L 540,341 L 541,341 L 542,340 L 543,340 L 544,340 L 544,339 L 545,339 L 545,338 L 545,337 L 545,336 L 545,335 L 545,334 L 545,333 L 545,332 L 545,331 L 545,330 L 546,329 L 547,328 L 548,328 L 548,327 L 549,327 L 550,327 L 551,327 L 552,327 L 553,328 L 554,328 L 555,328 L 555,329 L 556,329 L 557,329 L 558,329 L 559,329 L 560,330 L 561,330 L 562,331 L 563,331 L 564,331 L 565,331 L 566,331 L 567,331 L 568,331 L 569,331 L 570,332 L 571,332 L 572,332 L 573,332 L 574,332 L 575,332 L 576,332 L 577,332 L 578,332 L 579,332 L 580,332 L 581,332 L 582,332 L 583,332 L 587,331 L 588,331 L 589,331 L 590,331 L 590,332 L 591,332 L 592,332 L 593,332 L 594,332 L 595,332 L 596,332 L 597,332 L 598,332 L 599,333 L 600,333 L 601,333 L 602,333 L 603,333 L 604,333 L 605,333 L 605,332 L 606,332 L 607,332 L 608,332 L 609,332 L 610,332 L 611,332 L 612,332 L 613,333 L 614,333 L 615,334 L 616,335 L 617,335 L 620,336 L 621,337 L 622,337 L 623,337 L 624,337 L 624,338 L 625,338 L 626,338 L 627,339 L 628,339 L 629,339 L 629,340 L 630,340 L 631,340 L 632,340 L 633,341 L 634,341 L 635,342 L 636,343 L 637,343 L 637,344 L 636,344 L 636,345 L 635,346 L 635,347 L 634,347 L 635,348 L 636,347 L 636,348 L 637,348 L 638,348 L 638,349 L 639,349 L 639,350 L 640,350 L 640,351 L 641,351 L 641,352 L 642,353 L 643,354 L 644,354 L 644,355 L 645,356 L 645,357 L 646,358 L 648,360 L 649,361 L 651,363 L 652,364 L 654,366 L 654,367 L 655,368 L 656,368 L 656,369 L 657,370 L 656,370 L 655,369 L 654,369 L 652,368 L 651,370 L 651,371 L 651,372 L 652,373 L 651,373 L 651,374 L 650,377 L 648,376 L 647,376 L 645,376 L 645,375 L 644,375 L 643,375 L 642,375 L 642,374 L 640,374 L 639,374 L 638,373 L 637,373 L 636,373 L 636,372 L 635,372 L 634,372 L 633,372 L 633,371 L 632,371 L 631,371 L 630,371 L 629,370 L 628,370 L 627,370 L 627,369 L 627,370 L 628,370 L 628,371 L 629,371 L 630,371 L 631,372 L 632,372 L 633,372 L 633,373 L 634,373 L 635,373 L 636,373 L 637,374 L 638,374 L 639,374 L 640,375 L 641,375 L 642,375 L 645,376 L 646,377 L 647,377 L 647,378 L 647,379 L 648,379 L 649,379 L 649,378 L 649,379 L 650,379 L 651,379 L 652,380 L 654,380 L 655,381 L 654,381 L 654,382 L 654,383 L 654,384 L 654,385 L 654,386 L 653,386 L 654,386 L 654,387 L 653,389 L 653,390 L 655,390 L 656,390 L 657,390 L 659,390 L 660,390 L 660,391 L 661,391 L 665,392 L 668,392 L 668,394 L 668,395 L 669,395 L 670,395 L 670,396 L 670,397 L 670,399 L 670,400 L 670,401 L 669,401 L 668,401 L 668,402 L 670,402 L 670,403 L 670,405 L 671,405 L 671,406 L 671,407 L 673,407 L 673,408 L 672,409 L 672,411 L 672,412 L 673,412 L 674,413 L 673,412 L 672,412 L 673,413 L 672,414 L 672,415 L 672,414 L 672,416 L 672,417 L 672,418 L 671,418 L 671,419 L 670,419 L 670,420 L 669,420 L 668,419 L 667,419 L 666,418 L 665,418 L 664,418 L 664,417 L 663,417 L 662,417 L 662,416 L 658,417 L 656,418 L 654,419 L 653,419 L 650,420 L 649,420 L 648,420 L 647,420 L 646,420 L 646,419 L 645,419 L 645,418 L 644,418 L 644,417 L 643,417 L 642,417 L 642,416 L 642,415 L 642,414 L 641,415 L 641,414 L 640,414 L 640,413 L 639,413 L 639,412 L 639,413 L 638,412 L 636,412 L 634,411 L 633,411 L 632,411 L 631,410 L 630,410 L 628,409 L 627,409 L 626,408 L 625,408 L 624,407 L 624,408 L 623,408 L 624,409 L 625,409 L 626,410 L 627,410 L 628,411 L 629,411 L 630,412 L 631,412 L 632,412 L 632,413 L 633,413 L 633,412 L 633,413 L 634,413 L 635,413 L 635,414 L 636,414 L 637,415 L 638,416 L 639,418 L 640,419 L 639,420 L 639,419 L 639,420 L 639,421 L 640,422 L 641,423 L 641,424 L 642,425 L 642,426 L 643,426 L 644,426 L 645,425 L 646,425 L 647,425 L 648,425 L 648,426 L 648,427 L 649,427 L 650,427 L 650,426 L 650,425 L 650,426 L 651,426 L 651,425 L 651,426 L 651,425 L 652,425 L 652,424 L 653,423 L 653,424 L 654,424 L 654,423 L 655,423 L 655,422 L 655,421 L 656,421 L 656,422 L 657,422 L 658,422 L 659,422 L 660,422 L 661,422 L 661,423 L 662,425 L 663,426 L 663,427 L 664,427 L 664,428 L 665,428 L 665,429 L 666,430 L 666,431 L 667,431 L 667,432 L 668,433 L 669,434 L 669,436 L 670,437 L 671,437 L 671,438 L 671,439 L 671,440 L 672,440 L 673,441 L 674,442 L 675,443 L 675,444 L 674,444 L 674,445 L 673,446 L 672,447 L 671,448 L 670,449 L 669,449 L 669,450 L 669,451 L 670,452 L 671,452 L 672,451 L 671,452 L 670,452 L 670,455 L 668,456 L 668,457 L 668,456 L 668,457 L 669,457 L 668,457 L 668,458 L 668,459 L 668,460 L 668,461 L 668,462 L 668,464 L 668,465 L 669,466 L 668,466 L 668,465 L 668,466 L 667,467 L 666,468 L 666,469 L 665,470 L 664,472 L 664,473 L 663,473 L 662,473 L 661,472 L 660,472 L 659,472 L 659,473 L 658,473 L 657,473 L 657,474 L 656,474 L 656,475 L 655,475 L 656,476 L 655,476 L 655,477 L 655,476 L 654,476 L 654,477 L 653,478 L 653,479 L 654,479 L 649,483 L 647,485 L 643,488 L 641,490 L 639,491 L 638,493 L 635,495 L 636,496 L 637,497 L 638,498 L 639,498 L 638,499 L 638,498 L 637,498 L 636,497 L 636,496 L 635,495 L 634,496 L 633,496 L 632,496 L 631,496 L 630,496 L 629,496 L 628,496 L 627,495 L 627,494 L 626,494 L 627,493 L 626,493 L 626,492 L 626,491 L 625,491 L 624,491 L 624,490 L 623,490 L 623,489 L 623,488 L 622,488 L 622,487 L 622,486 L 622,485 L 621,485 L 621,484 L 620,484 L 620,483 L 619,482 L 618,482 L 618,481 L 618,480 L 618,479 L 617,479 L 616,478 L 615,478 L 614,478 L 614,477 L 613,477 L 612,476 L 613,476 L 613,475 L 613,474 L 613,473 L 614,473 L 613,473 L 613,472 L 613,471 L 613,470 L 613,469 L 612,469 L 611,469 L 610,469 L 609,469 L 608,469 L 606,469 L 606,470 L 605,470 L 605,469 L 605,468 L 605,467 L 604,467 L 603,467 L 602,467 L 602,466 L 602,465 L 602,464 L 602,463 L 602,462 L 602,461 L 602,460 L 601,460 L 601,459 L 601,458 L 600,458 L 600,457 L 599,456 L 599,455 L 598,455 L 598,454 L 597,454 L 597,453 L 596,453 L 595,452 L 594,452 L 594,451 L 593,451 L 592,451 L 591,451 L 591,450 L 591,449 L 589,449 L 588,449 L 588,448 L 587,448 L 586,449 L 586,448 L 585,447 L 586,447 L 584,444 L 583,443 L 582,442 L 581,443 L 580,443 L 580,444 L 579,444 L 579,445 L 578,445 L 578,446 L 577,446 L 576,446 L 575,446 L 574,446 L 573,446 L 572,445 L 572,444 L 572,443 L 571,443 L 571,442 L 571,441 L 571,440 L 570,440 L 570,439 L 570,438 L 571,438 L 570,438 L 570,437 L 570,436 L 569,436 L 568,436 L 567,436 L 566,436 L 565,436 L 565,437 L 564,437 L 564,438 L 563,438 L 562,438 L 562,437 L 561,437 L 560,437 L 559,437 L 558,437 L 558,436 L 557,436 L 557,435 L 556,435 L 556,434 L 556,433 L 555,433 L 555,432 L 555,431 L 554,431 L 554,430 L 554,429 L 553,429 L 552,429 L 552,428 L 551,428 L 551,429 L 550,430 L 550,431 L 549,431 L 549,432 L 548,432 L 547,433 L 546,433 L 545,432 L 544,432 L 544,433 L 543,431 L 543,430 L 542,429 L 541,429 L 540,429 L 540,428 L 540,427 L 539,427 L 538,426 L 538,425 L 538,423 L 537,422 L 537,421 L 536,421 L 535,420 L 534,419 L 533,419 L 532,417 L 532,416 L 532,415 L 531,415 L 531,414 L 530,414 L 530,413 L 530,411 L 529,411 L 528,411 L 528,410 L 528,409 L 528,408 L 527,408 L 526,408 L 525,407 L 526,406 L 525,406 L 525,405 L 525,404 L 525,403 L 525,402 L 524,402 L 524,401 L 524,400 L 524,399 L 524,397 L 524,396 L 523,396 L 522,395 L 521,395 L 520,395 L 519,394 L 518,395 L 518,394 L 517,394 L 517,393 L 516,393 L 515,393 L 514,393 L 514,392 L 513,392 L 512,390 L 512,389 L 513,389 L 514,389 L 514,388 L 513,388 L 513,387 L 512,386 L 510,385 L 508,384 L 507,384 L 506,384 L 506,383 L 505,383 L 505,382 L 504,381 L 503,381 L 502,381 L 502,380 L 503,380 L 502,378 L 502,377 L 501,376 L 502,375 L 502,374 L 503,374 L 503,373 L 504,372 L 503,372 L 503,371 L 502,372 L 501,372 L 501,371 L 500,371 L 500,370 L 499,370 L 499,371 L 498,371 L 497,371 L 497,372 L 496,371 L 495,371 L 495,370 L 494,369 L 493,369 L 492,369 L 491,369 L 490,369 L 490,370 L 489,370 L 489,369 L 488,369 L 488,368 L 487,368 L 487,369 L 485,369 L 485,370 L 485,372 L 485,371 L 484,371 L 482,371 L 483,371 L 482,371 L 483,371 L 483,370 L 482,370 L 483,370 L 482,370 L 483,370 L 482,370 L 482,369 L 481,369 L 480,369 L 479,369 L 479,368 L 478,367 L 478,366 L 478,365 L 478,364 L 478,363 L 477,363 L 477,362 L 476,362 L 475,362 L 475,361 L 473,361 L 473,362 L 474,363 L 473,364 L 472,365 L 471,364 L 470,363 L 469,364 L 468,364 L 467,364 L 467,365 L 467,364 L 466,364 L 465,364 L 464,364 L 463,364 L 463,363 L 462,363 L 462,362 L 461,362 L 460,360 L 460,359 L 458,360 L 457,360 L 456,361 L 456,360 L 455,360 L 454,360 L 453,360 L 452,360 L 451,360 L 450,360 L 449,359 L 448,359 L 447,359 L 446,359 L 447,357 L 448,356 L 449,354 L 449,353 L 450,353 L 452,353 L 454,352 L 455,351 L 455,350 L 456,350 L 457,348 L 457,347 L 459,347 L 460,346 L 465,344 L 465,343 L 465,342 L 464,341 L 465,339 L 467,339 L 468,338 L 468,337 L 469,336 L 469,335 L 470,334 L 470,333 L 471,333 L 471,332 L 471,331 L 471,330 L 471,329 L 472,329 L 472,328 L 473,328 L 473,327 L 474,327 L 474,326 L 475,326 L 476,326 L 476,327 L 477,327 L 477,328 L 478,328 L 479,329 L 480,330 L 481,330 L 482,330 L 483,330 L 482,329 L 482,328 L 483,326 L 483,325 L 484,323 L 485,322 L 487,323 L 488,322 L 488,321 L 489,321 " />
</g>
<g id="26030" >
<path d="M 759,435 L 760,435 L 759,436 L 760,436 L 760,437 L 759,437 L 759,436 L 759,435 " />
<path d="M 776,314 L 775,314 L 776,314 " />
<path d="M 766,289 L 767,289 L 767,290 L 767,291 L 768,291 L 768,292 L 768,293 L 769,293 L 769,294 L 769,295 L 769,296 L 770,296 L 770,297 L 770,298 L 771,298 L 771,299 L 771,300 L 772,300 L 772,301 L 773,301 L 774,301 L 774,302 L 775,302 L 775,303 L 774,303 L 774,304 L 774,305 L 774,306 L 773,306 L 773,307 L 774,308 L 774,309 L 775,310 L 775,311 L 775,312 L 776,313 L 775,313 L 775,314 L 775,315 L 775,316 L 775,317 L 776,317 L 776,318 L 775,319 L 775,320 L 776,320 L 776,321 L 776,322 L 775,323 L 774,323 L 774,324 L 773,324 L 773,325 L 772,325 L 772,326 L 771,326 L 771,327 L 771,329 L 772,330 L 772,331 L 771,332 L 770,333 L 769,333 L 769,334 L 769,335 L 769,336 L 769,337 L 769,338 L 768,339 L 768,340 L 768,341 L 769,341 L 770,342 L 769,343 L 768,345 L 768,346 L 767,347 L 767,348 L 767,349 L 767,350 L 766,351 L 766,352 L 766,353 L 766,354 L 766,355 L 767,357 L 767,358 L 767,359 L 767,360 L 766,361 L 766,362 L 766,363 L 766,364 L 765,364 L 765,365 L 766,365 L 766,366 L 766,367 L 767,367 L 767,368 L 768,369 L 769,370 L 770,371 L 771,372 L 770,371 L 769,370 L 768,369 L 767,369 L 767,368 L 766,368 L 765,368 L 764,368 L 763,367 L 762,367 L 763,367 L 761,366 L 761,367 L 761,366 L 760,366 L 759,366 L 759,367 L 757,367 L 752,367 L 749,367 L 748,368 L 748,369 L 748,371 L 748,373 L 748,374 L 748,375 L 748,376 L 748,377 L 748,378 L 748,379 L 748,383 L 749,383 L 750,384 L 750,383 L 750,381 L 750,380 L 750,379 L 751,379 L 752,379 L 753,379 L 756,379 L 758,379 L 757,379 L 759,379 L 759,378 L 760,377 L 760,375 L 759,375 L 758,375 L 756,374 L 756,373 L 757,373 L 760,375 L 761,373 L 761,372 L 762,372 L 762,373 L 762,374 L 763,374 L 764,374 L 765,374 L 764,379 L 761,386 L 761,387 L 761,390 L 761,391 L 760,391 L 760,392 L 759,395 L 758,399 L 758,400 L 757,400 L 755,402 L 754,402 L 754,403 L 753,403 L 753,402 L 753,401 L 753,399 L 753,400 L 752,400 L 751,400 L 750,400 L 750,399 L 749,399 L 748,399 L 746,399 L 745,399 L 741,399 L 740,400 L 739,406 L 739,408 L 739,409 L 739,410 L 742,412 L 744,410 L 745,409 L 746,408 L 747,408 L 748,408 L 748,407 L 750,407 L 752,407 L 752,408 L 753,407 L 754,408 L 755,409 L 756,409 L 756,412 L 756,415 L 755,417 L 753,417 L 752,417 L 751,417 L 750,417 L 750,418 L 750,419 L 749,419 L 748,419 L 747,419 L 746,419 L 746,420 L 745,420 L 744,420 L 744,419 L 743,419 L 742,419 L 742,418 L 742,419 L 741,419 L 740,419 L 740,420 L 739,420 L 739,421 L 738,421 L 738,422 L 738,423 L 737,423 L 737,424 L 737,425 L 737,426 L 737,427 L 737,428 L 737,429 L 737,430 L 738,431 L 738,432 L 739,433 L 740,434 L 742,434 L 742,435 L 742,436 L 742,435 L 742,434 L 743,434 L 744,434 L 745,434 L 745,433 L 746,433 L 747,433 L 747,432 L 748,432 L 748,433 L 749,433 L 750,432 L 751,431 L 751,430 L 751,429 L 751,428 L 752,429 L 752,428 L 753,428 L 753,429 L 754,429 L 754,430 L 754,429 L 755,430 L 756,431 L 757,432 L 757,433 L 757,434 L 758,434 L 758,435 L 757,435 L 757,434 L 756,434 L 755,434 L 754,434 L 753,435 L 752,435 L 751,436 L 751,437 L 750,438 L 750,439 L 751,440 L 750,441 L 750,442 L 751,442 L 750,442 L 750,443 L 750,444 L 749,444 L 749,445 L 749,446 L 747,447 L 747,448 L 746,449 L 745,450 L 744,451 L 744,452 L 743,452 L 743,453 L 743,454 L 742,455 L 741,455 L 740,456 L 739,456 L 739,459 L 739,460 L 738,460 L 733,460 L 734,460 L 738,460 L 738,459 L 739,458 L 739,457 L 739,456 L 740,455 L 739,455 L 739,454 L 740,454 L 739,453 L 739,454 L 738,454 L 738,453 L 738,452 L 738,451 L 737,451 L 738,451 L 738,450 L 737,449 L 736,450 L 736,449 L 737,449 L 736,448 L 735,448 L 734,448 L 734,447 L 733,447 L 733,448 L 732,448 L 731,448 L 731,447 L 732,447 L 731,447 L 731,446 L 731,447 L 730,447 L 729,447 L 729,448 L 728,448 L 728,449 L 728,450 L 729,451 L 729,452 L 729,453 L 729,454 L 732,454 L 733,455 L 735,456 L 735,457 L 733,455 L 729,454 L 728,454 L 728,455 L 727,455 L 726,455 L 725,455 L 724,455 L 724,454 L 724,453 L 723,453 L 722,453 L 723,453 L 722,453 L 722,452 L 721,452 L 720,452 L 719,452 L 719,453 L 718,453 L 719,453 L 719,454 L 718,454 L 718,455 L 717,455 L 716,455 L 716,456 L 715,456 L 715,457 L 714,457 L 714,458 L 714,459 L 713,459 L 713,460 L 714,460 L 715,462 L 715,463 L 716,463 L 716,464 L 715,465 L 713,467 L 713,468 L 712,469 L 711,470 L 710,471 L 709,471 L 709,472 L 708,472 L 707,472 L 706,472 L 705,472 L 704,472 L 703,472 L 702,471 L 701,471 L 703,469 L 699,463 L 697,464 L 697,463 L 696,462 L 698,462 L 698,461 L 698,460 L 698,459 L 698,456 L 698,454 L 698,452 L 698,446 L 698,445 L 699,444 L 699,443 L 700,442 L 700,441 L 700,440 L 701,440 L 701,439 L 704,433 L 702,431 L 702,430 L 699,426 L 699,425 L 698,424 L 697,422 L 696,421 L 694,421 L 690,420 L 687,419 L 685,419 L 686,413 L 686,412 L 687,409 L 687,408 L 687,407 L 687,404 L 687,403 L 687,401 L 687,400 L 687,399 L 687,398 L 686,398 L 686,397 L 686,393 L 683,389 L 682,387 L 681,387 L 681,386 L 680,385 L 679,384 L 679,383 L 678,382 L 677,380 L 674,374 L 673,373 L 672,372 L 672,371 L 672,372 L 673,372 L 674,373 L 675,374 L 676,375 L 678,378 L 678,379 L 679,379 L 679,380 L 680,380 L 680,381 L 681,381 L 682,381 L 683,381 L 684,381 L 685,381 L 686,381 L 686,382 L 687,382 L 687,383 L 688,383 L 689,384 L 690,384 L 691,384 L 692,384 L 693,384 L 694,384 L 695,384 L 696,384 L 697,385 L 697,386 L 698,387 L 699,387 L 699,388 L 699,389 L 700,389 L 700,390 L 701,390 L 701,391 L 702,391 L 703,391 L 704,390 L 704,389 L 704,387 L 705,386 L 705,385 L 704,385 L 705,384 L 705,383 L 704,382 L 704,381 L 705,381 L 706,380 L 706,378 L 705,378 L 706,377 L 705,376 L 704,375 L 703,375 L 702,374 L 701,373 L 699,372 L 698,371 L 697,371 L 696,370 L 695,370 L 694,370 L 693,370 L 693,369 L 693,368 L 692,367 L 693,366 L 694,365 L 694,364 L 694,363 L 695,362 L 695,361 L 696,360 L 697,360 L 697,359 L 698,357 L 698,356 L 698,355 L 698,354 L 699,353 L 700,352 L 700,351 L 699,350 L 699,349 L 698,347 L 698,346 L 698,345 L 700,343 L 700,342 L 701,342 L 701,340 L 701,339 L 702,338 L 702,337 L 701,336 L 701,335 L 701,334 L 700,333 L 700,332 L 700,331 L 700,330 L 700,329 L 701,328 L 701,326 L 702,326 L 703,325 L 704,325 L 706,324 L 707,323 L 708,322 L 708,321 L 709,321 L 709,320 L 709,319 L 710,317 L 710,316 L 711,315 L 709,313 L 710,312 L 711,311 L 713,310 L 714,309 L 715,308 L 716,307 L 717,306 L 718,305 L 718,304 L 719,304 L 720,304 L 721,304 L 721,303 L 722,303 L 722,302 L 723,302 L 724,302 L 725,302 L 726,302 L 726,301 L 725,301 L 726,301 L 727,301 L 728,301 L 729,301 L 730,300 L 731,300 L 732,299 L 732,298 L 733,298 L 734,298 L 735,298 L 735,297 L 736,297 L 736,298 L 737,298 L 738,298 L 739,298 L 740,298 L 741,298 L 741,297 L 742,297 L 743,297 L 743,298 L 744,298 L 745,298 L 745,297 L 745,296 L 746,296 L 747,296 L 748,295 L 749,295 L 750,295 L 749,296 L 749,297 L 750,296 L 751,296 L 751,295 L 752,295 L 752,296 L 753,296 L 754,296 L 755,296 L 756,297 L 756,296 L 757,296 L 757,295 L 757,294 L 758,294 L 759,294 L 760,293 L 760,292 L 759,292 L 760,291 L 760,290 L 761,290 L 762,291 L 763,291 L 764,291 L 764,290 L 764,289 L 765,289 L 766,289 " />
</g>
<g id="26040" >
<path d="M 619,95 L 620,95 L 621,95 L 622,95 L 623,95 L 624,95 L 625,95 L 626,96 L 627,96 L 630,96 L 631,95 L 631,96 L 632,96 L 632,97 L 632,98 L 632,99 L 633,101 L 634,102 L 635,102 L 636,102 L 636,103 L 637,104 L 637,105 L 637,106 L 638,106 L 639,106 L 640,106 L 641,106 L 642,107 L 643,108 L 644,109 L 645,111 L 644,113 L 647,112 L 649,112 L 650,112 L 651,111 L 652,111 L 653,111 L 654,110 L 657,109 L 658,109 L 660,109 L 661,110 L 663,110 L 664,111 L 665,111 L 666,111 L 667,111 L 668,112 L 670,113 L 673,114 L 674,114 L 675,114 L 676,114 L 677,115 L 677,114 L 678,115 L 679,114 L 680,114 L 680,115 L 681,115 L 682,115 L 683,115 L 684,115 L 685,115 L 686,115 L 686,116 L 687,116 L 687,117 L 687,118 L 688,118 L 688,119 L 688,120 L 689,120 L 689,121 L 689,122 L 690,122 L 690,123 L 691,124 L 692,124 L 693,124 L 694,124 L 695,124 L 696,124 L 697,123 L 697,122 L 698,122 L 699,122 L 700,122 L 701,122 L 702,122 L 703,122 L 704,122 L 704,123 L 706,123 L 707,124 L 709,125 L 710,126 L 711,126 L 711,127 L 712,128 L 713,128 L 714,128 L 715,128 L 715,129 L 716,129 L 717,130 L 718,130 L 719,131 L 720,131 L 721,132 L 722,132 L 722,133 L 723,133 L 724,133 L 725,133 L 726,133 L 726,134 L 727,134 L 728,135 L 728,136 L 729,136 L 730,136 L 732,135 L 733,134 L 734,134 L 734,135 L 735,135 L 735,137 L 735,138 L 735,139 L 736,140 L 737,141 L 738,142 L 739,141 L 740,140 L 741,138 L 742,138 L 744,137 L 745,137 L 746,138 L 747,138 L 748,137 L 749,137 L 749,138 L 750,138 L 751,138 L 751,139 L 752,139 L 753,140 L 754,140 L 754,141 L 755,141 L 756,142 L 757,143 L 758,144 L 759,144 L 760,144 L 760,145 L 759,145 L 759,146 L 758,146 L 758,147 L 758,148 L 758,149 L 757,149 L 757,150 L 756,151 L 756,152 L 755,152 L 755,153 L 754,153 L 754,154 L 754,153 L 754,152 L 754,153 L 753,152 L 753,153 L 752,153 L 751,153 L 750,153 L 750,154 L 750,155 L 750,154 L 750,153 L 749,153 L 749,154 L 748,154 L 748,155 L 748,156 L 747,156 L 747,157 L 747,158 L 747,159 L 747,160 L 747,161 L 747,162 L 747,163 L 747,164 L 748,165 L 747,165 L 746,165 L 746,166 L 746,167 L 747,167 L 747,166 L 747,167 L 748,167 L 748,169 L 748,170 L 748,171 L 749,171 L 749,172 L 750,172 L 750,173 L 750,174 L 750,175 L 749,175 L 750,175 L 749,175 L 749,176 L 749,175 L 749,176 L 748,176 L 747,177 L 747,178 L 747,179 L 747,180 L 747,181 L 747,182 L 748,183 L 748,184 L 748,185 L 749,186 L 749,187 L 749,188 L 750,189 L 750,190 L 751,191 L 751,192 L 751,193 L 752,193 L 752,194 L 752,195 L 753,195 L 755,197 L 756,197 L 756,198 L 757,198 L 757,199 L 758,200 L 759,200 L 760,200 L 761,202 L 762,202 L 762,203 L 763,203 L 762,203 L 763,203 L 765,203 L 766,204 L 766,205 L 768,207 L 767,207 L 766,205 L 765,204 L 763,204 L 762,204 L 761,206 L 761,207 L 761,208 L 761,209 L 762,209 L 762,210 L 762,211 L 763,211 L 765,208 L 766,208 L 765,208 L 765,209 L 764,210 L 764,211 L 763,211 L 762,211 L 762,212 L 763,212 L 764,212 L 765,212 L 766,212 L 767,212 L 768,212 L 770,212 L 770,211 L 771,211 L 771,212 L 772,212 L 772,211 L 773,211 L 773,212 L 774,212 L 774,213 L 773,213 L 773,214 L 773,215 L 773,216 L 772,216 L 772,217 L 772,218 L 772,219 L 772,220 L 772,221 L 773,222 L 774,223 L 774,224 L 774,223 L 775,223 L 774,224 L 775,224 L 775,225 L 776,225 L 777,225 L 777,224 L 777,223 L 777,224 L 777,223 L 778,223 L 779,224 L 779,225 L 779,226 L 780,227 L 779,227 L 780,227 L 780,228 L 780,229 L 781,229 L 781,230 L 781,231 L 781,232 L 781,233 L 781,234 L 782,235 L 782,236 L 782,237 L 783,237 L 783,238 L 783,239 L 782,240 L 782,241 L 781,241 L 782,241 L 782,242 L 782,241 L 782,242 L 783,242 L 782,243 L 782,244 L 782,245 L 782,246 L 782,247 L 782,248 L 783,248 L 783,249 L 783,248 L 782,248 L 781,248 L 781,249 L 781,250 L 782,250 L 781,250 L 782,251 L 782,252 L 782,253 L 782,254 L 782,255 L 782,256 L 782,257 L 783,257 L 782,258 L 783,258 L 783,259 L 782,259 L 782,260 L 782,261 L 782,262 L 783,262 L 783,263 L 782,263 L 782,264 L 781,264 L 780,264 L 780,265 L 779,265 L 778,265 L 777,265 L 776,265 L 776,264 L 775,264 L 774,264 L 773,264 L 773,265 L 773,266 L 773,267 L 773,268 L 773,269 L 772,270 L 772,271 L 772,272 L 771,272 L 770,272 L 769,272 L 768,272 L 767,272 L 767,273 L 766,273 L 766,274 L 767,274 L 767,275 L 766,275 L 766,276 L 766,277 L 767,277 L 767,278 L 767,279 L 768,278 L 768,277 L 769,277 L 768,277 L 768,278 L 767,279 L 767,280 L 767,281 L 767,282 L 767,283 L 767,284 L 767,285 L 767,286 L 766,287 L 766,288 L 766,289 L 765,289 L 764,289 L 764,290 L 764,291 L 763,291 L 762,291 L 761,290 L 760,290 L 760,291 L 759,292 L 760,292 L 760,293 L 759,294 L 758,294 L 757,294 L 757,295 L 757,296 L 756,296 L 756,297 L 755,296 L 754,296 L 753,296 L 752,296 L 752,295 L 751,295 L 751,296 L 750,296 L 749,297 L 749,296 L 750,295 L 749,295 L 748,295 L 747,296 L 746,296 L 745,296 L 745,297 L 745,298 L 744,298 L 743,298 L 743,297 L 742,297 L 741,297 L 741,298 L 740,298 L 739,298 L 738,298 L 737,298 L 736,298 L 736,297 L 735,297 L 735,298 L 734,298 L 733,298 L 732,298 L 732,299 L 731,300 L 730,300 L 729,301 L 728,301 L 727,301 L 726,301 L 725,301 L 726,301 L 726,302 L 725,302 L 724,302 L 723,302 L 722,302 L 722,303 L 721,303 L 721,304 L 720,304 L 719,304 L 718,304 L 718,305 L 717,306 L 716,307 L 715,308 L 714,309 L 713,310 L 711,311 L 710,312 L 709,313 L 711,315 L 710,316 L 710,317 L 709,319 L 709,320 L 709,321 L 708,321 L 708,322 L 707,323 L 706,324 L 704,325 L 703,325 L 702,326 L 701,326 L 701,328 L 700,329 L 700,330 L 700,331 L 700,332 L 700,333 L 701,334 L 701,335 L 701,336 L 702,337 L 702,338 L 701,339 L 701,340 L 701,342 L 700,342 L 700,343 L 698,345 L 698,346 L 698,347 L 699,349 L 699,350 L 700,351 L 700,352 L 699,353 L 698,354 L 698,355 L 698,356 L 698,357 L 697,359 L 697,360 L 696,360 L 695,361 L 695,362 L 694,363 L 694,364 L 694,365 L 693,366 L 692,367 L 693,368 L 693,369 L 693,370 L 694,370 L 695,370 L 696,370 L 697,371 L 698,371 L 699,372 L 701,373 L 702,374 L 703,375 L 704,375 L 705,376 L 706,377 L 705,378 L 706,378 L 706,380 L 705,381 L 704,381 L 704,382 L 705,383 L 705,384 L 704,385 L 705,385 L 705,386 L 704,387 L 704,389 L 704,390 L 703,391 L 702,391 L 701,391 L 701,390 L 700,390 L 700,389 L 699,389 L 699,388 L 699,387 L 698,387 L 697,386 L 697,385 L 696,384 L 695,384 L 694,384 L 693,384 L 692,384 L 691,384 L 690,384 L 689,384 L 688,383 L 687,383 L 687,382 L 686,382 L 686,381 L 685,381 L 684,381 L 683,381 L 682,381 L 681,381 L 680,381 L 680,380 L 679,380 L 679,379 L 678,379 L 678,378 L 676,375 L 675,374 L 674,373 L 673,372 L 672,372 L 672,371 L 670,369 L 669,367 L 666,365 L 664,361 L 662,358 L 661,357 L 659,355 L 659,354 L 658,354 L 658,353 L 657,353 L 656,353 L 655,352 L 654,352 L 654,351 L 653,351 L 653,350 L 652,350 L 652,349 L 651,350 L 650,350 L 650,351 L 649,351 L 648,351 L 647,351 L 646,351 L 645,351 L 645,350 L 644,350 L 643,349 L 642,349 L 642,348 L 641,347 L 641,346 L 640,346 L 640,345 L 640,344 L 639,344 L 638,344 L 637,344 L 637,343 L 636,343 L 635,342 L 634,341 L 633,341 L 632,340 L 631,340 L 630,340 L 629,340 L 629,339 L 628,339 L 627,339 L 626,338 L 625,338 L 624,338 L 624,337 L 623,337 L 622,337 L 621,337 L 620,336 L 617,335 L 616,335 L 615,334 L 614,333 L 613,333 L 612,332 L 612,331 L 613,332 L 614,332 L 615,332 L 616,332 L 616,333 L 617,333 L 618,333 L 618,334 L 618,333 L 617,333 L 617,332 L 616,331 L 616,330 L 616,329 L 615,329 L 615,328 L 615,327 L 615,328 L 614,328 L 614,327 L 614,326 L 615,326 L 615,325 L 616,324 L 616,323 L 615,323 L 615,322 L 615,321 L 615,320 L 614,319 L 614,318 L 614,317 L 614,316 L 614,315 L 615,315 L 615,314 L 616,314 L 617,314 L 618,313 L 619,313 L 619,312 L 620,310 L 620,309 L 620,308 L 620,307 L 620,306 L 619,304 L 619,303 L 619,302 L 618,302 L 618,301 L 618,300 L 618,299 L 617,299 L 617,298 L 617,297 L 617,296 L 617,295 L 617,294 L 617,293 L 617,292 L 617,291 L 618,290 L 618,289 L 618,288 L 617,288 L 617,287 L 617,286 L 617,285 L 617,284 L 617,283 L 616,283 L 616,282 L 615,281 L 615,280 L 614,279 L 614,278 L 613,277 L 613,276 L 612,274 L 612,273 L 612,271 L 611,270 L 611,268 L 611,267 L 611,266 L 611,265 L 611,263 L 611,260 L 611,259 L 612,259 L 612,258 L 612,257 L 611,256 L 612,256 L 611,255 L 611,254 L 611,253 L 610,253 L 610,252 L 611,252 L 611,253 L 611,252 L 611,251 L 610,250 L 611,249 L 610,249 L 609,249 L 609,248 L 608,248 L 607,247 L 606,247 L 605,247 L 604,247 L 602,247 L 601,247 L 600,247 L 599,247 L 598,248 L 597,248 L 596,248 L 594,249 L 594,250 L 593,250 L 593,251 L 592,251 L 591,251 L 591,252 L 590,252 L 589,251 L 588,251 L 587,250 L 586,249 L 585,248 L 585,247 L 585,246 L 586,245 L 586,244 L 586,243 L 586,242 L 585,242 L 584,242 L 583,242 L 583,243 L 582,243 L 581,244 L 580,244 L 579,244 L 579,245 L 578,245 L 578,244 L 577,244 L 576,243 L 575,243 L 574,243 L 573,244 L 572,245 L 572,246 L 572,247 L 572,248 L 572,249 L 571,249 L 571,250 L 570,251 L 568,252 L 567,252 L 566,252 L 565,251 L 564,251 L 564,252 L 563,253 L 562,253 L 561,254 L 560,254 L 560,255 L 559,255 L 559,256 L 558,256 L 557,257 L 557,258 L 556,258 L 556,259 L 555,260 L 554,261 L 553,261 L 552,261 L 550,261 L 549,260 L 549,259 L 548,259 L 547,258 L 547,257 L 546,257 L 546,256 L 547,256 L 547,255 L 547,254 L 546,254 L 545,254 L 545,253 L 545,252 L 544,252 L 543,252 L 542,252 L 541,252 L 540,252 L 539,252 L 538,252 L 537,252 L 536,252 L 535,252 L 534,252 L 534,253 L 533,253 L 533,254 L 532,254 L 532,255 L 531,255 L 530,255 L 529,255 L 528,255 L 526,255 L 525,254 L 524,253 L 525,252 L 524,251 L 523,250 L 523,249 L 523,248 L 524,248 L 524,247 L 524,246 L 525,246 L 525,245 L 526,245 L 526,244 L 527,243 L 526,242 L 527,242 L 527,241 L 528,241 L 528,240 L 527,239 L 528,238 L 528,237 L 529,237 L 529,236 L 529,235 L 530,235 L 530,234 L 532,234 L 532,233 L 532,232 L 533,231 L 532,231 L 533,229 L 532,228 L 532,227 L 533,227 L 534,226 L 535,226 L 536,225 L 537,224 L 537,223 L 537,222 L 538,222 L 537,219 L 537,218 L 537,217 L 537,216 L 537,215 L 538,215 L 538,214 L 537,213 L 537,212 L 536,212 L 536,211 L 535,210 L 534,210 L 533,210 L 533,209 L 532,209 L 531,209 L 530,208 L 530,207 L 530,206 L 530,205 L 529,205 L 529,204 L 530,202 L 531,201 L 530,200 L 530,199 L 530,198 L 530,197 L 530,196 L 530,195 L 530,194 L 530,193 L 531,192 L 532,191 L 533,190 L 534,188 L 534,187 L 535,184 L 535,183 L 535,182 L 535,181 L 534,181 L 534,180 L 533,179 L 533,178 L 532,176 L 532,175 L 532,173 L 532,172 L 532,171 L 532,170 L 532,169 L 532,168 L 532,166 L 532,165 L 533,164 L 533,163 L 532,162 L 532,161 L 532,160 L 532,159 L 533,158 L 533,157 L 533,156 L 534,156 L 534,155 L 535,154 L 536,155 L 537,155 L 538,154 L 540,153 L 541,154 L 542,153 L 542,152 L 541,151 L 542,151 L 542,150 L 541,150 L 541,149 L 540,149 L 540,148 L 540,147 L 541,147 L 542,147 L 543,147 L 543,146 L 543,145 L 542,143 L 543,142 L 543,141 L 543,140 L 543,139 L 543,138 L 543,137 L 544,137 L 545,136 L 546,136 L 547,137 L 548,137 L 548,136 L 549,135 L 550,135 L 550,134 L 550,133 L 551,133 L 551,132 L 552,132 L 552,131 L 553,131 L 554,131 L 555,131 L 557,132 L 558,133 L 558,134 L 559,135 L 560,134 L 560,133 L 561,133 L 562,133 L 563,133 L 564,133 L 564,134 L 565,134 L 565,135 L 565,136 L 565,137 L 565,138 L 566,138 L 567,138 L 567,137 L 568,137 L 568,136 L 569,135 L 570,135 L 571,134 L 572,134 L 573,134 L 574,135 L 575,135 L 576,135 L 576,134 L 577,134 L 578,134 L 578,133 L 579,134 L 580,134 L 581,133 L 581,132 L 581,131 L 582,131 L 581,130 L 580,130 L 579,130 L 579,129 L 579,127 L 579,126 L 580,126 L 580,125 L 581,125 L 581,124 L 582,124 L 581,124 L 581,123 L 581,122 L 582,122 L 582,121 L 583,121 L 584,121 L 585,122 L 585,121 L 585,120 L 585,119 L 586,118 L 586,117 L 586,116 L 586,115 L 587,115 L 587,114 L 587,113 L 588,113 L 589,114 L 590,114 L 591,114 L 592,114 L 593,114 L 594,114 L 594,113 L 595,113 L 596,113 L 597,113 L 597,112 L 598,111 L 599,111 L 599,110 L 600,110 L 600,109 L 601,109 L 601,108 L 602,107 L 603,106 L 604,105 L 605,105 L 606,104 L 606,103 L 607,102 L 608,101 L 608,100 L 608,99 L 609,99 L 610,98 L 611,98 L 612,97 L 613,97 L 613,96 L 614,96 L 615,96 L 616,95 L 618,95 L 619,95 " />
</g>
<g id="26310" >
<path d="M 612,486 L 613,487 L 612,487 L 613,488 L 615,502 L 617,509 L 612,509 L 613,514 L 613,515 L 614,515 L 613,515 L 614,515 L 614,514 L 614,513 L 615,513 L 616,514 L 616,515 L 615,515 L 615,516 L 615,517 L 615,520 L 616,520 L 616,521 L 615,521 L 616,521 L 616,522 L 616,521 L 616,522 L 617,522 L 618,523 L 619,523 L 619,524 L 620,524 L 620,523 L 621,522 L 622,522 L 622,521 L 623,520 L 624,520 L 624,519 L 625,520 L 626,520 L 627,520 L 627,519 L 628,518 L 629,518 L 630,517 L 631,518 L 632,518 L 632,517 L 633,517 L 633,520 L 634,520 L 632,526 L 631,526 L 628,528 L 625,530 L 623,530 L 623,531 L 622,531 L 621,531 L 621,532 L 621,533 L 621,534 L 622,534 L 623,534 L 623,533 L 623,534 L 624,535 L 624,536 L 625,537 L 626,537 L 626,536 L 627,536 L 627,535 L 627,534 L 628,534 L 629,534 L 630,533 L 631,533 L 632,532 L 633,532 L 634,531 L 634,532 L 636,531 L 637,530 L 640,529 L 641,529 L 641,530 L 639,535 L 639,536 L 640,537 L 641,540 L 643,541 L 645,542 L 645,543 L 646,543 L 646,544 L 646,545 L 646,546 L 645,547 L 645,548 L 644,548 L 644,549 L 644,548 L 643,548 L 642,548 L 641,548 L 640,549 L 640,550 L 640,551 L 640,552 L 639,552 L 638,552 L 637,552 L 637,553 L 636,553 L 635,553 L 636,553 L 635,553 L 634,553 L 634,554 L 633,554 L 634,554 L 633,554 L 633,553 L 633,554 L 632,553 L 632,554 L 631,554 L 630,554 L 629,554 L 628,554 L 627,554 L 627,553 L 626,553 L 625,553 L 624,553 L 624,554 L 624,555 L 623,555 L 623,556 L 622,557 L 624,557 L 624,559 L 624,563 L 626,563 L 626,569 L 623,569 L 622,569 L 622,570 L 622,571 L 622,572 L 622,573 L 623,573 L 623,574 L 623,575 L 624,575 L 625,576 L 624,576 L 625,576 L 625,577 L 626,577 L 627,577 L 627,576 L 628,576 L 628,577 L 628,578 L 627,578 L 627,579 L 628,585 L 628,586 L 635,585 L 636,585 L 637,585 L 637,584 L 638,584 L 638,585 L 638,586 L 639,587 L 638,587 L 637,587 L 637,588 L 637,589 L 637,590 L 637,591 L 636,591 L 636,592 L 636,593 L 635,593 L 635,594 L 634,594 L 634,595 L 633,595 L 632,595 L 631,595 L 631,596 L 631,597 L 631,598 L 631,599 L 629,599 L 629,598 L 628,598 L 627,598 L 625,598 L 625,599 L 624,599 L 623,599 L 622,599 L 622,600 L 622,601 L 623,601 L 624,602 L 625,603 L 626,603 L 627,603 L 627,604 L 627,605 L 627,606 L 626,607 L 626,608 L 626,609 L 626,608 L 626,609 L 626,610 L 627,610 L 627,611 L 627,612 L 628,612 L 628,613 L 628,614 L 628,615 L 627,616 L 627,617 L 626,618 L 625,618 L 624,618 L 623,618 L 622,618 L 622,619 L 621,619 L 620,619 L 619,619 L 619,620 L 618,620 L 618,621 L 617,621 L 616,622 L 615,622 L 615,623 L 614,623 L 615,623 L 616,624 L 616,625 L 615,625 L 616,626 L 615,625 L 615,626 L 615,627 L 616,628 L 616,629 L 617,630 L 617,631 L 616,631 L 615,633 L 615,634 L 614,634 L 614,636 L 613,637 L 613,639 L 612,639 L 613,639 L 612,641 L 612,642 L 612,643 L 612,644 L 612,645 L 611,644 L 611,645 L 610,645 L 609,645 L 610,645 L 611,645 L 612,645 L 611,645 L 612,645 L 613,645 L 614,645 L 614,646 L 613,646 L 613,647 L 614,647 L 613,648 L 614,648 L 614,649 L 613,649 L 613,650 L 613,651 L 614,651 L 614,652 L 615,652 L 616,652 L 616,653 L 616,654 L 616,653 L 617,653 L 618,653 L 618,652 L 619,652 L 620,652 L 621,652 L 622,652 L 622,653 L 622,654 L 623,654 L 623,655 L 624,655 L 625,655 L 626,655 L 627,655 L 627,656 L 628,656 L 629,657 L 628,657 L 628,658 L 629,658 L 629,659 L 629,660 L 630,661 L 631,661 L 632,661 L 632,662 L 632,661 L 631,661 L 630,661 L 629,661 L 629,662 L 628,662 L 628,663 L 628,664 L 628,665 L 628,666 L 629,666 L 630,665 L 631,666 L 632,668 L 633,668 L 636,669 L 636,670 L 637,670 L 638,671 L 638,672 L 637,671 L 636,671 L 636,672 L 636,673 L 636,675 L 637,676 L 637,677 L 638,677 L 639,677 L 639,678 L 639,679 L 638,680 L 638,681 L 637,682 L 636,683 L 636,684 L 635,685 L 634,685 L 634,686 L 633,686 L 632,686 L 631,686 L 630,687 L 629,687 L 628,686 L 627,687 L 626,687 L 627,687 L 628,687 L 628,686 L 627,686 L 627,685 L 626,685 L 626,686 L 626,685 L 625,685 L 624,685 L 624,686 L 623,686 L 622,686 L 621,686 L 622,686 L 621,687 L 621,688 L 620,688 L 619,688 L 618,688 L 618,689 L 617,690 L 617,691 L 616,691 L 615,691 L 614,691 L 614,692 L 614,691 L 614,690 L 614,689 L 614,688 L 613,688 L 612,687 L 613,687 L 612,687 L 611,687 L 611,688 L 610,688 L 609,688 L 610,688 L 611,687 L 610,687 L 610,688 L 610,687 L 611,687 L 611,686 L 611,685 L 610,685 L 610,684 L 609,684 L 608,684 L 607,683 L 606,683 L 605,683 L 605,684 L 604,684 L 603,684 L 602,684 L 601,684 L 600,684 L 600,685 L 599,685 L 599,686 L 598,685 L 598,686 L 598,687 L 597,687 L 597,688 L 597,689 L 597,690 L 597,691 L 597,692 L 597,693 L 597,694 L 596,695 L 596,696 L 595,697 L 595,698 L 594,699 L 595,699 L 595,700 L 595,701 L 594,700 L 593,701 L 594,701 L 593,701 L 592,701 L 591,701 L 590,702 L 589,702 L 589,703 L 588,703 L 589,703 L 589,702 L 589,701 L 589,700 L 588,700 L 588,701 L 586,701 L 585,700 L 585,701 L 584,702 L 585,702 L 585,703 L 584,702 L 584,703 L 583,703 L 583,702 L 582,702 L 581,702 L 580,703 L 580,704 L 580,705 L 579,705 L 579,706 L 579,707 L 578,707 L 578,708 L 578,709 L 579,709 L 578,709 L 577,709 L 576,709 L 576,710 L 577,711 L 578,711 L 579,710 L 579,711 L 578,711 L 578,712 L 578,713 L 577,713 L 577,714 L 577,715 L 577,716 L 577,717 L 577,718 L 576,718 L 576,719 L 575,719 L 575,718 L 574,717 L 573,717 L 572,717 L 572,718 L 571,718 L 571,719 L 571,720 L 570,720 L 571,720 L 570,721 L 570,722 L 570,723 L 570,724 L 569,724 L 569,726 L 568,726 L 568,727 L 568,728 L 567,729 L 567,730 L 567,731 L 566,731 L 566,732 L 566,733 L 564,734 L 563,734 L 562,735 L 562,734 L 561,734 L 561,733 L 561,734 L 560,733 L 559,733 L 559,734 L 559,733 L 560,733 L 560,732 L 560,731 L 559,731 L 557,732 L 556,732 L 555,733 L 554,733 L 554,732 L 553,732 L 553,731 L 552,730 L 552,729 L 551,728 L 551,727 L 551,726 L 551,725 L 552,725 L 552,724 L 553,724 L 553,723 L 552,723 L 551,722 L 550,721 L 549,722 L 548,723 L 547,723 L 547,722 L 546,722 L 545,722 L 544,722 L 542,722 L 541,722 L 541,721 L 540,721 L 539,720 L 539,719 L 537,720 L 536,720 L 536,721 L 535,721 L 534,719 L 534,718 L 533,717 L 532,717 L 531,715 L 530,715 L 530,716 L 529,716 L 528,716 L 527,717 L 526,717 L 525,717 L 523,716 L 522,716 L 521,716 L 521,715 L 520,715 L 519,715 L 518,714 L 517,713 L 518,712 L 518,711 L 518,710 L 518,711 L 519,711 L 519,710 L 520,709 L 521,708 L 521,707 L 521,706 L 522,706 L 523,705 L 523,703 L 523,702 L 523,701 L 522,701 L 522,700 L 523,699 L 524,697 L 524,696 L 524,695 L 523,694 L 523,693 L 524,693 L 523,692 L 522,692 L 522,691 L 521,690 L 520,689 L 520,688 L 519,688 L 518,686 L 518,685 L 518,684 L 518,682 L 518,681 L 518,680 L 519,679 L 519,678 L 519,677 L 520,676 L 520,674 L 520,672 L 521,672 L 521,671 L 521,670 L 520,670 L 518,669 L 516,668 L 515,666 L 514,665 L 513,661 L 512,659 L 512,657 L 510,656 L 509,655 L 509,654 L 507,653 L 507,652 L 506,652 L 505,649 L 505,648 L 503,647 L 502,646 L 502,645 L 501,644 L 499,643 L 498,643 L 498,642 L 498,641 L 497,639 L 497,638 L 496,638 L 496,637 L 495,637 L 495,636 L 495,635 L 495,634 L 495,633 L 495,632 L 494,631 L 494,630 L 494,631 L 493,631 L 492,632 L 491,633 L 490,633 L 490,634 L 489,634 L 487,635 L 486,635 L 485,635 L 484,636 L 483,636 L 482,636 L 481,635 L 480,635 L 479,634 L 478,634 L 478,633 L 477,632 L 475,631 L 474,631 L 472,630 L 472,631 L 472,633 L 472,635 L 472,636 L 471,637 L 469,638 L 468,638 L 467,639 L 466,639 L 466,638 L 465,638 L 464,637 L 463,637 L 462,637 L 459,638 L 459,637 L 459,636 L 458,635 L 457,635 L 457,636 L 456,636 L 454,637 L 453,637 L 452,638 L 451,639 L 451,640 L 451,641 L 450,643 L 450,644 L 448,643 L 446,643 L 445,643 L 444,642 L 442,642 L 440,643 L 438,643 L 437,643 L 434,644 L 432,645 L 429,645 L 427,646 L 424,646 L 421,646 L 421,645 L 420,645 L 419,644 L 418,644 L 415,644 L 414,643 L 413,643 L 409,641 L 408,640 L 408,639 L 406,638 L 404,637 L 404,636 L 403,635 L 402,634 L 402,633 L 400,632 L 398,631 L 399,630 L 399,628 L 399,627 L 399,626 L 399,625 L 400,624 L 400,623 L 400,622 L 401,621 L 402,621 L 404,619 L 405,618 L 406,618 L 407,617 L 407,616 L 408,616 L 408,615 L 408,614 L 408,613 L 409,612 L 409,611 L 409,610 L 409,609 L 410,609 L 411,609 L 412,609 L 413,609 L 413,608 L 414,608 L 414,607 L 415,606 L 417,604 L 417,603 L 419,602 L 419,600 L 421,598 L 424,595 L 424,594 L 424,592 L 424,591 L 423,589 L 423,587 L 421,586 L 420,585 L 418,584 L 417,583 L 416,583 L 416,582 L 416,581 L 415,579 L 415,578 L 415,577 L 414,576 L 413,575 L 412,574 L 413,574 L 412,573 L 411,572 L 410,573 L 410,572 L 409,572 L 408,572 L 407,572 L 406,572 L 405,572 L 404,572 L 403,571 L 403,570 L 402,570 L 400,570 L 399,570 L 399,569 L 398,569 L 398,568 L 399,567 L 398,567 L 397,566 L 396,565 L 396,564 L 396,563 L 396,562 L 396,560 L 396,559 L 397,557 L 396,555 L 395,554 L 395,553 L 396,553 L 397,551 L 398,550 L 398,549 L 397,548 L 396,547 L 396,546 L 395,546 L 395,545 L 395,544 L 394,544 L 395,544 L 395,545 L 395,544 L 394,544 L 394,543 L 393,543 L 393,542 L 393,541 L 392,541 L 392,540 L 391,540 L 390,540 L 390,539 L 389,539 L 388,540 L 387,540 L 386,540 L 385,540 L 385,541 L 384,541 L 385,542 L 385,543 L 384,543 L 383,543 L 382,543 L 381,544 L 381,545 L 380,545 L 379,545 L 380,545 L 379,545 L 378,545 L 378,546 L 377,546 L 377,545 L 376,545 L 375,545 L 374,545 L 373,545 L 372,546 L 371,546 L 371,547 L 370,547 L 369,547 L 369,548 L 368,548 L 367,548 L 366,548 L 365,548 L 365,549 L 364,549 L 363,550 L 363,551 L 362,551 L 362,550 L 361,550 L 361,549 L 361,548 L 360,548 L 359,548 L 359,549 L 358,549 L 357,549 L 357,548 L 356,548 L 355,548 L 354,548 L 353,548 L 352,548 L 351,549 L 351,550 L 350,550 L 349,551 L 348,551 L 347,551 L 346,551 L 345,551 L 344,551 L 343,550 L 343,549 L 343,548 L 342,548 L 341,547 L 340,547 L 339,546 L 338,546 L 336,546 L 336,545 L 335,544 L 334,544 L 334,543 L 333,543 L 332,543 L 332,542 L 331,541 L 330,540 L 329,540 L 329,539 L 328,539 L 327,538 L 326,537 L 325,537 L 325,536 L 324,535 L 323,533 L 322,533 L 321,532 L 320,531 L 319,531 L 318,531 L 318,530 L 317,529 L 316,529 L 316,530 L 315,530 L 314,530 L 313,529 L 312,528 L 312,527 L 310,527 L 309,526 L 308,524 L 307,524 L 306,523 L 305,522 L 304,522 L 304,521 L 303,518 L 302,515 L 300,514 L 298,513 L 296,511 L 294,509 L 293,508 L 292,508 L 291,504 L 288,501 L 284,498 L 277,495 L 275,491 L 276,489 L 277,487 L 276,483 L 274,481 L 273,479 L 272,479 L 271,476 L 271,475 L 271,474 L 270,474 L 270,473 L 270,472 L 269,471 L 268,471 L 266,470 L 265,470 L 264,469 L 262,468 L 261,468 L 261,467 L 259,466 L 258,466 L 258,465 L 258,464 L 257,464 L 257,463 L 257,462 L 257,461 L 257,460 L 256,459 L 256,458 L 256,457 L 257,457 L 257,456 L 258,456 L 258,455 L 258,454 L 258,453 L 258,452 L 257,451 L 256,450 L 255,449 L 254,448 L 254,446 L 254,445 L 253,444 L 253,443 L 254,442 L 253,440 L 254,439 L 254,437 L 253,437 L 252,437 L 251,436 L 252,436 L 252,435 L 250,434 L 249,433 L 248,433 L 247,433 L 246,434 L 245,435 L 243,435 L 242,435 L 241,434 L 240,433 L 239,433 L 239,432 L 238,432 L 237,432 L 236,432 L 236,433 L 235,433 L 235,434 L 235,433 L 234,433 L 233,432 L 232,432 L 231,432 L 230,432 L 229,432 L 229,431 L 228,431 L 228,430 L 227,430 L 227,429 L 226,429 L 226,428 L 225,428 L 224,427 L 224,426 L 223,426 L 224,426 L 223,425 L 222,425 L 221,425 L 220,425 L 219,425 L 218,425 L 217,424 L 216,424 L 215,424 L 214,424 L 213,424 L 212,423 L 211,423 L 210,423 L 210,422 L 209,422 L 207,421 L 205,420 L 204,420 L 203,420 L 203,419 L 202,419 L 201,419 L 200,419 L 199,418 L 198,418 L 197,417 L 196,416 L 195,415 L 194,415 L 193,415 L 193,414 L 192,414 L 190,413 L 186,412 L 182,409 L 178,406 L 176,405 L 174,405 L 173,404 L 172,399 L 172,397 L 170,395 L 170,394 L 172,391 L 172,389 L 172,385 L 173,383 L 175,383 L 178,380 L 178,379 L 178,376 L 178,375 L 179,374 L 177,371 L 174,372 L 173,373 L 171,374 L 169,374 L 168,375 L 167,375 L 166,376 L 165,376 L 162,376 L 159,377 L 158,377 L 157,378 L 152,380 L 148,381 L 147,382 L 144,382 L 144,383 L 142,384 L 142,383 L 140,383 L 139,383 L 135,381 L 132,382 L 131,383 L 130,383 L 128,384 L 124,387 L 123,386 L 122,386 L 121,387 L 120,387 L 119,387 L 118,387 L 118,386 L 117,387 L 116,388 L 115,388 L 114,388 L 113,389 L 112,389 L 111,389 L 110,388 L 109,388 L 108,387 L 107,387 L 107,386 L 107,385 L 107,384 L 108,383 L 108,382 L 108,381 L 108,380 L 108,379 L 106,379 L 105,378 L 104,378 L 102,378 L 100,378 L 97,378 L 91,380 L 88,380 L 87,380 L 86,380 L 86,379 L 86,377 L 86,376 L 87,374 L 88,373 L 88,372 L 88,371 L 88,370 L 88,369 L 88,367 L 88,366 L 88,365 L 89,364 L 91,362 L 92,361 L 91,360 L 92,358 L 91,357 L 91,355 L 89,354 L 89,353 L 88,351 L 89,349 L 88,349 L 85,348 L 84,345 L 83,345 L 82,345 L 81,344 L 81,343 L 80,342 L 79,340 L 77,337 L 74,339 L 72,341 L 70,343 L 69,344 L 67,345 L 65,347 L 64,346 L 63,343 L 62,342 L 62,341 L 59,338 L 58,336 L 57,335 L 56,335 L 56,334 L 54,331 L 53,329 L 51,329 L 52,328 L 52,326 L 51,324 L 50,323 L 50,322 L 51,322 L 52,321 L 54,320 L 57,319 L 59,317 L 60,316 L 62,316 L 64,315 L 66,315 L 68,313 L 70,314 L 73,312 L 76,311 L 77,310 L 77,311 L 79,310 L 83,308 L 84,309 L 85,308 L 87,307 L 87,306 L 88,304 L 90,303 L 92,300 L 94,299 L 96,297 L 97,294 L 98,292 L 99,291 L 100,290 L 100,289 L 101,289 L 102,288 L 104,285 L 106,284 L 107,283 L 108,283 L 111,280 L 112,279 L 114,280 L 118,279 L 120,278 L 121,277 L 120,276 L 121,273 L 120,272 L 121,271 L 122,270 L 123,269 L 124,268 L 125,267 L 126,264 L 126,262 L 126,261 L 125,258 L 126,256 L 126,255 L 128,251 L 129,248 L 128,246 L 128,245 L 126,244 L 126,243 L 126,241 L 127,233 L 127,231 L 127,230 L 126,228 L 126,227 L 126,224 L 125,222 L 122,220 L 120,220 L 119,220 L 116,219 L 111,220 L 109,220 L 106,220 L 104,219 L 103,219 L 101,215 L 101,214 L 100,214 L 98,213 L 95,212 L 97,209 L 98,208 L 100,206 L 101,205 L 104,202 L 106,201 L 110,199 L 113,198 L 116,196 L 118,194 L 119,192 L 120,189 L 121,186 L 122,184 L 123,184 L 126,184 L 127,183 L 128,182 L 130,182 L 131,182 L 133,184 L 134,185 L 136,186 L 137,186 L 139,187 L 140,188 L 143,189 L 144,189 L 144,190 L 145,189 L 146,189 L 146,187 L 147,187 L 147,184 L 148,184 L 148,183 L 151,182 L 151,181 L 151,182 L 151,181 L 151,180 L 153,177 L 154,176 L 154,175 L 155,174 L 155,173 L 155,172 L 156,171 L 156,170 L 157,168 L 157,167 L 157,166 L 158,163 L 158,161 L 159,160 L 159,158 L 160,157 L 160,156 L 161,156 L 162,156 L 163,156 L 164,156 L 165,156 L 165,157 L 166,157 L 168,158 L 169,158 L 170,158 L 172,159 L 175,159 L 176,159 L 179,161 L 182,162 L 185,162 L 186,162 L 186,163 L 187,164 L 188,164 L 191,164 L 192,164 L 193,164 L 194,164 L 194,165 L 195,165 L 196,165 L 196,166 L 197,166 L 197,167 L 198,167 L 203,173 L 206,171 L 207,171 L 207,170 L 208,170 L 209,170 L 209,169 L 210,169 L 211,168 L 211,167 L 211,166 L 212,165 L 212,164 L 212,163 L 211,162 L 211,161 L 211,160 L 211,159 L 210,159 L 210,158 L 209,158 L 209,157 L 207,156 L 204,154 L 203,153 L 203,152 L 200,149 L 199,148 L 199,147 L 198,146 L 198,145 L 197,145 L 197,144 L 196,143 L 196,142 L 195,140 L 193,140 L 192,140 L 191,140 L 191,136 L 191,135 L 190,134 L 192,131 L 192,128 L 191,126 L 191,125 L 192,122 L 193,121 L 190,117 L 191,114 L 192,113 L 196,109 L 198,106 L 197,106 L 196,105 L 195,104 L 194,101 L 193,99 L 194,97 L 196,93 L 198,92 L 199,89 L 200,88 L 199,87 L 200,87 L 200,86 L 200,85 L 201,85 L 202,84 L 202,83 L 202,82 L 203,82 L 203,81 L 203,80 L 203,79 L 204,79 L 204,78 L 204,77 L 206,75 L 207,75 L 208,75 L 208,74 L 208,73 L 209,73 L 209,72 L 209,71 L 210,71 L 212,70 L 213,69 L 215,68 L 217,68 L 218,67 L 219,66 L 220,65 L 221,64 L 222,63 L 223,62 L 223,61 L 223,60 L 223,59 L 224,59 L 225,59 L 226,59 L 227,59 L 228,59 L 229,59 L 229,58 L 230,58 L 230,57 L 231,57 L 232,57 L 233,56 L 234,56 L 235,56 L 236,56 L 237,56 L 237,55 L 238,55 L 239,54 L 240,53 L 241,53 L 242,53 L 242,52 L 243,52 L 245,52 L 246,52 L 247,52 L 248,52 L 249,52 L 250,52 L 251,52 L 252,51 L 253,51 L 253,50 L 254,51 L 255,50 L 256,49 L 257,48 L 258,49 L 259,49 L 261,48 L 263,50 L 264,51 L 267,51 L 268,50 L 269,49 L 270,49 L 271,49 L 271,50 L 272,50 L 271,49 L 272,49 L 273,48 L 274,48 L 274,46 L 274,45 L 275,45 L 275,44 L 275,43 L 275,42 L 276,42 L 276,41 L 276,40 L 276,39 L 277,38 L 278,38 L 279,38 L 280,38 L 280,39 L 281,39 L 282,40 L 283,40 L 284,40 L 285,40 L 286,40 L 287,40 L 288,41 L 290,41 L 291,40 L 292,40 L 292,39 L 291,39 L 291,38 L 291,37 L 291,36 L 292,35 L 293,33 L 294,32 L 296,30 L 293,25 L 294,23 L 297,22 L 298,21 L 298,20 L 299,19 L 300,19 L 303,18 L 306,17 L 307,18 L 308,18 L 309,20 L 310,20 L 311,20 L 312,21 L 313,21 L 314,22 L 315,22 L 316,22 L 316,23 L 317,22 L 317,23 L 318,23 L 318,24 L 319,24 L 319,25 L 320,25 L 320,26 L 321,27 L 322,27 L 322,28 L 323,29 L 323,30 L 324,30 L 324,31 L 325,31 L 325,32 L 326,33 L 326,34 L 327,34 L 327,35 L 327,36 L 329,35 L 331,35 L 333,35 L 334,35 L 335,35 L 337,34 L 338,34 L 339,34 L 340,35 L 342,35 L 343,36 L 344,37 L 345,37 L 346,37 L 346,36 L 347,35 L 348,35 L 349,34 L 350,34 L 350,33 L 351,34 L 352,33 L 352,32 L 353,32 L 353,31 L 354,31 L 354,30 L 354,29 L 355,28 L 354,27 L 357,25 L 357,24 L 357,23 L 358,23 L 358,22 L 358,21 L 358,19 L 359,19 L 361,20 L 364,22 L 365,23 L 366,24 L 366,26 L 369,27 L 372,27 L 374,28 L 375,28 L 376,29 L 376,30 L 376,31 L 377,31 L 378,31 L 380,32 L 382,32 L 383,33 L 383,34 L 383,35 L 384,35 L 386,33 L 387,33 L 387,32 L 388,32 L 388,31 L 387,30 L 387,29 L 388,29 L 388,28 L 388,27 L 389,27 L 389,26 L 391,26 L 391,25 L 392,25 L 392,24 L 393,24 L 393,23 L 394,23 L 396,22 L 397,22 L 398,23 L 399,23 L 399,24 L 400,24 L 400,25 L 400,26 L 400,27 L 400,28 L 401,28 L 402,28 L 403,29 L 406,32 L 407,33 L 408,33 L 409,34 L 410,34 L 411,35 L 411,36 L 412,36 L 413,37 L 414,36 L 415,36 L 416,35 L 417,36 L 418,37 L 419,39 L 420,40 L 420,41 L 421,41 L 423,43 L 426,45 L 427,44 L 428,44 L 431,45 L 432,45 L 434,45 L 435,47 L 436,47 L 436,48 L 436,49 L 437,49 L 437,50 L 436,51 L 436,52 L 437,53 L 437,54 L 438,54 L 441,53 L 443,53 L 444,53 L 445,53 L 448,53 L 449,55 L 452,56 L 456,57 L 458,56 L 460,57 L 461,57 L 462,57 L 464,57 L 465,57 L 466,57 L 470,58 L 471,59 L 472,60 L 473,62 L 474,63 L 475,63 L 475,64 L 476,66 L 476,67 L 476,69 L 479,72 L 480,75 L 480,76 L 480,77 L 480,78 L 480,79 L 479,80 L 479,82 L 480,86 L 479,86 L 479,87 L 477,89 L 475,90 L 474,91 L 474,92 L 476,96 L 478,98 L 478,99 L 478,102 L 477,105 L 477,107 L 476,108 L 476,110 L 476,111 L 476,112 L 475,113 L 474,114 L 472,117 L 472,118 L 470,121 L 469,121 L 469,122 L 469,124 L 470,124 L 470,126 L 470,128 L 470,130 L 470,132 L 474,135 L 475,138 L 477,140 L 477,141 L 477,142 L 478,142 L 478,143 L 486,144 L 487,146 L 489,146 L 491,148 L 492,149 L 494,148 L 495,148 L 495,147 L 496,147 L 497,146 L 498,146 L 500,145 L 502,145 L 502,146 L 503,147 L 504,147 L 504,149 L 505,149 L 506,149 L 507,150 L 508,150 L 509,150 L 509,149 L 510,148 L 511,148 L 511,147 L 512,147 L 512,148 L 513,149 L 514,149 L 515,149 L 515,150 L 516,150 L 516,151 L 517,151 L 518,151 L 518,152 L 519,152 L 520,152 L 520,153 L 520,152 L 520,153 L 521,153 L 522,154 L 523,154 L 523,155 L 522,155 L 523,156 L 523,157 L 522,157 L 523,157 L 524,157 L 524,158 L 525,159 L 527,159 L 528,160 L 529,160 L 529,161 L 530,161 L 531,161 L 531,162 L 532,162 L 533,163 L 533,164 L 532,165 L 532,166 L 532,168 L 532,169 L 532,170 L 532,171 L 532,172 L 532,173 L 532,175 L 532,176 L 533,178 L 533,179 L 534,180 L 534,181 L 535,181 L 535,182 L 535,183 L 535,184 L 534,187 L 534,188 L 533,190 L 532,191 L 531,192 L 530,193 L 530,194 L 530,195 L 530,196 L 530,197 L 530,198 L 530,199 L 530,200 L 531,201 L 530,202 L 529,204 L 529,205 L 530,205 L 530,206 L 530,207 L 530,208 L 531,209 L 532,209 L 533,209 L 533,210 L 534,210 L 535,210 L 536,211 L 536,212 L 537,212 L 537,213 L 538,214 L 538,215 L 537,215 L 537,216 L 537,217 L 537,218 L 537,219 L 538,222 L 537,222 L 537,223 L 537,224 L 536,225 L 535,226 L 534,226 L 533,227 L 532,227 L 532,228 L 533,229 L 532,231 L 533,231 L 532,232 L 532,233 L 532,234 L 530,234 L 530,235 L 529,235 L 529,236 L 529,237 L 528,237 L 528,238 L 527,239 L 528,240 L 528,241 L 527,241 L 527,242 L 526,242 L 527,243 L 526,244 L 526,245 L 525,245 L 525,246 L 524,246 L 524,247 L 524,248 L 523,248 L 523,249 L 523,250 L 524,251 L 525,252 L 524,253 L 525,254 L 525,255 L 524,256 L 525,256 L 526,256 L 526,257 L 526,258 L 526,259 L 526,260 L 526,261 L 526,262 L 527,263 L 528,264 L 528,265 L 529,265 L 529,266 L 529,267 L 530,267 L 530,268 L 530,269 L 530,270 L 529,270 L 529,271 L 528,271 L 528,272 L 528,273 L 528,274 L 528,275 L 528,276 L 529,276 L 529,277 L 530,277 L 530,278 L 530,279 L 530,280 L 530,281 L 530,282 L 530,283 L 531,283 L 531,284 L 531,285 L 531,284 L 530,284 L 529,284 L 529,283 L 528,283 L 528,282 L 527,282 L 527,281 L 526,281 L 525,281 L 524,281 L 523,282 L 522,282 L 521,282 L 520,281 L 520,282 L 518,282 L 517,281 L 516,281 L 515,281 L 515,280 L 515,279 L 514,279 L 513,278 L 513,277 L 511,276 L 511,274 L 512,271 L 513,271 L 514,271 L 513,270 L 512,270 L 511,270 L 511,269 L 510,269 L 509,269 L 508,269 L 507,268 L 506,268 L 505,268 L 504,268 L 503,268 L 502,268 L 501,268 L 501,267 L 500,267 L 499,267 L 498,266 L 497,266 L 496,265 L 495,265 L 494,265 L 493,265 L 493,266 L 492,266 L 491,266 L 491,265 L 491,266 L 490,266 L 490,267 L 489,267 L 489,268 L 489,269 L 488,268 L 487,269 L 487,268 L 487,267 L 486,267 L 485,267 L 484,267 L 483,267 L 483,266 L 482,266 L 481,266 L 480,265 L 479,265 L 478,265 L 478,264 L 477,264 L 477,263 L 476,263 L 476,262 L 475,262 L 475,261 L 474,261 L 474,262 L 474,261 L 473,261 L 472,262 L 472,261 L 471,261 L 470,261 L 470,260 L 469,260 L 468,261 L 468,262 L 469,262 L 469,264 L 471,264 L 471,265 L 471,266 L 471,267 L 470,268 L 471,268 L 471,269 L 472,269 L 472,270 L 472,271 L 473,272 L 473,273 L 472,273 L 472,274 L 472,275 L 472,276 L 473,276 L 473,277 L 473,278 L 473,279 L 474,279 L 474,280 L 475,281 L 477,281 L 478,282 L 478,283 L 479,283 L 479,284 L 479,285 L 478,285 L 479,287 L 479,288 L 480,288 L 480,289 L 478,289 L 477,289 L 477,290 L 477,291 L 476,292 L 477,293 L 477,294 L 477,295 L 477,296 L 478,296 L 478,297 L 477,298 L 476,299 L 476,300 L 476,301 L 475,302 L 476,303 L 477,304 L 477,305 L 478,305 L 478,306 L 477,307 L 478,308 L 478,310 L 479,311 L 479,312 L 479,313 L 480,313 L 481,313 L 482,313 L 483,313 L 483,314 L 484,314 L 485,315 L 485,316 L 486,316 L 486,317 L 486,318 L 487,319 L 488,319 L 488,320 L 489,320 L 489,321 L 488,321 L 488,322 L 487,323 L 485,322 L 484,323 L 483,325 L 483,326 L 482,328 L 482,329 L 483,330 L 482,330 L 481,330 L 480,330 L 479,329 L 478,328 L 477,328 L 477,327 L 476,327 L 476,326 L 475,326 L 474,326 L 474,327 L 473,327 L 473,328 L 472,328 L 472,329 L 471,329 L 471,330 L 471,331 L 471,332 L 471,333 L 470,333 L 470,334 L 469,335 L 469,336 L 468,337 L 468,338 L 467,339 L 465,339 L 464,341 L 465,342 L 465,343 L 465,344 L 460,346 L 459,347 L 457,347 L 457,348 L 456,350 L 455,350 L 455,351 L 454,352 L 452,353 L 450,353 L 449,353 L 449,354 L 448,356 L 447,357 L 446,359 L 447,359 L 448,359 L 449,359 L 450,360 L 451,360 L 452,360 L 453,360 L 454,360 L 455,360 L 456,360 L 456,361 L 457,360 L 458,360 L 460,359 L 460,360 L 461,362 L 462,362 L 462,363 L 463,363 L 463,364 L 464,364 L 465,364 L 466,364 L 467,364 L 467,365 L 467,364 L 468,364 L 469,364 L 470,363 L 471,364 L 472,365 L 473,364 L 474,363 L 473,362 L 473,361 L 475,361 L 475,362 L 476,362 L 477,362 L 477,363 L 478,363 L 478,364 L 478,365 L 478,366 L 478,367 L 479,368 L 479,369 L 480,369 L 481,369 L 482,369 L 482,370 L 483,370 L 482,370 L 483,370 L 482,370 L 483,370 L 483,371 L 482,371 L 483,371 L 482,371 L 484,371 L 485,371 L 485,372 L 485,370 L 485,369 L 487,369 L 487,368 L 488,368 L 488,369 L 489,369 L 489,370 L 490,370 L 490,369 L 491,369 L 492,369 L 493,369 L 494,369 L 495,370 L 495,371 L 496,371 L 497,372 L 497,371 L 498,371 L 499,371 L 499,370 L 500,370 L 500,371 L 501,371 L 501,372 L 502,372 L 503,371 L 503,372 L 504,372 L 503,373 L 503,374 L 502,374 L 502,375 L 501,376 L 502,377 L 502,378 L 503,380 L 502,380 L 502,381 L 503,381 L 504,381 L 505,382 L 505,383 L 506,383 L 506,384 L 507,384 L 508,384 L 510,385 L 512,386 L 513,387 L 513,388 L 514,388 L 514,389 L 513,389 L 512,389 L 512,390 L 513,392 L 514,392 L 514,393 L 515,393 L 516,393 L 517,393 L 517,394 L 518,394 L 518,395 L 519,394 L 520,395 L 521,395 L 522,395 L 523,396 L 524,396 L 524,397 L 524,399 L 524,400 L 524,401 L 524,402 L 525,402 L 525,403 L 525,404 L 525,405 L 525,406 L 526,406 L 525,407 L 526,408 L 527,408 L 528,408 L 528,409 L 528,410 L 528,411 L 529,411 L 530,411 L 530,413 L 530,414 L 531,414 L 531,415 L 532,415 L 532,416 L 532,417 L 533,419 L 534,419 L 535,420 L 536,421 L 537,421 L 537,422 L 538,423 L 538,425 L 538,426 L 539,427 L 540,427 L 540,428 L 540,429 L 541,429 L 542,429 L 543,430 L 543,431 L 544,433 L 544,432 L 545,432 L 546,433 L 547,433 L 548,432 L 549,432 L 549,431 L 550,431 L 550,430 L 551,429 L 551,428 L 552,428 L 552,429 L 553,429 L 554,429 L 554,430 L 554,431 L 555,431 L 555,432 L 555,433 L 556,433 L 556,434 L 556,435 L 557,435 L 557,436 L 558,436 L 558,437 L 559,437 L 560,437 L 561,437 L 562,437 L 562,438 L 563,438 L 564,438 L 564,437 L 565,437 L 565,436 L 566,436 L 567,436 L 568,436 L 569,436 L 570,436 L 570,437 L 570,438 L 571,438 L 570,438 L 570,439 L 570,440 L 571,440 L 571,441 L 571,442 L 571,443 L 572,443 L 572,444 L 572,445 L 573,446 L 574,446 L 575,446 L 576,446 L 577,446 L 578,446 L 578,445 L 579,445 L 579,444 L 580,444 L 580,443 L 581,443 L 582,442 L 583,443 L 584,444 L 586,447 L 585,447 L 586,448 L 586,449 L 587,448 L 588,448 L 588,449 L 589,449 L 591,449 L 591,450 L 591,451 L 592,451 L 593,451 L 594,451 L 594,452 L 595,452 L 596,453 L 597,453 L 597,454 L 598,454 L 598,455 L 599,455 L 599,456 L 600,457 L 600,458 L 601,458 L 601,459 L 601,460 L 602,460 L 602,461 L 602,462 L 602,463 L 602,464 L 602,465 L 602,466 L 602,467 L 599,468 L 598,468 L 597,468 L 597,469 L 597,468 L 598,468 L 598,469 L 598,470 L 598,471 L 599,472 L 600,472 L 600,473 L 601,473 L 602,473 L 602,474 L 603,474 L 603,475 L 604,475 L 604,476 L 604,477 L 605,477 L 605,478 L 606,478 L 606,479 L 607,479 L 607,480 L 607,481 L 607,482 L 608,482 L 609,482 L 609,481 L 610,482 L 610,483 L 611,483 L 611,484 L 611,485 L 612,485 L 612,486 " />
<path d="M 634,571 L 633,572 L 632,571 L 631,572 L 631,571 L 632,571 L 634,569 L 635,569 L 635,570 L 634,571 " />
<path d="M 621,516 L 620,516 L 620,515 L 621,514 L 622,514 L 623,515 L 622,516 L 621,516 " />
<path d="M 624,631 L 623,631 L 622,631 L 622,630 L 622,629 L 623,630 L 624,631 " />
<path d="M 612,486 L 613,486 L 612,486 " />
</g>
</g>
</g>
</svg>