<?xml version="1.0" standalone="no"?>
<!DOCTYPE svg PUBLIC "-//W3C//DTD SVG 1.1//EN" "http://www.w3.org/Graphics/SVG/1.1/DTD/svg11.dtd">
<svg xmlns="http://www.w3.org/2000/svg" xmlns:inkscape="http://www.inkscape.org/namespaces/inkscape" xmlns:xlink="http://www.w3.org/1999/xlink" viewBox = "0 0 836 755" version = "1.1">
<!-- svg generated using QGIS www.qgis.org -->
<g id="incheon" inkscape:groupmode="layer" inkscape:label="incheon">
<g stroke="none" fill="rgb(255,255,255)" stroke-linejoin="round" stroke-width="0.26" style="stroke:rgb(0,0,0);stroke-width:1">
<g id="23010" >
<path d="M 678,400 L 678,399 L 678,400 " />
<path d="M 682,399 L 681,399 L 682,398 L 682,399 " />
<path d="M 702,355 L 701,355 L 702,354 L 702,355 " />
<path d="M 667,394 L 666,394 L 667,394 L 667,393 L 667,394 " />
<path d="M 707,344 L 707,345 L 707,344 L 706,344 L 707,344 " />
<path d="M 682,406 L 683,406 L 684,406 L 683,407 L 682,407 L 682,406 " />
<path d="M 683,426 L 684,426 L 684,427 L 683,427 L 683,426 " />
<path d="M 709,427 L 710,427 L 710,428 L 709,428 L 709,427 " />
<path d="M 685,420 L 685,421 L 685,422 L 684,422 L 683,422 L 683,421 L 684,421 L 684,420 L 685,420 " />
<path d="M 667,406 L 667,407 L 666,407 L 666,408 L 666,409 L 665,409 L 665,410 L 665,409 L 664,409 L 665,409 L 665,408 L 665,407 L 666,407 L 666,406 L 667,406 " />
<path d="M 673,403 L 673,404 L 674,404 L 673,404 L 674,404 L 674,405 L 673,405 L 673,406 L 674,406 L 674,407 L 674,406 L 675,407 L 676,408 L 677,408 L 677,409 L 677,410 L 678,410 L 678,411 L 679,411 L 679,412 L 679,413 L 680,413 L 681,413 L 681,414 L 682,414 L 682,415 L 683,415 L 684,415 L 684,416 L 683,416 L 684,416 L 684,417 L 683,417 L 682,417 L 681,417 L 682,418 L 681,418 L 682,418 L 683,418 L 683,419 L 682,419 L 682,420 L 681,420 L 682,420 L 681,420 L 681,421 L 681,422 L 681,421 L 682,421 L 681,421 L 681,422 L 681,423 L 680,423 L 680,422 L 679,422 L 679,423 L 678,423 L 677,423 L 677,424 L 677,423 L 676,423 L 675,423 L 675,424 L 674,424 L 673,424 L 673,423 L 673,422 L 672,422 L 672,421 L 671,421 L 671,420 L 672,420 L 672,419 L 672,418 L 672,417 L 672,416 L 672,415 L 672,414 L 671,413 L 670,413 L 671,413 L 671,412 L 670,412 L 669,412 L 668,412 L 667,412 L 667,411 L 668,411 L 668,410 L 669,410 L 669,409 L 669,408 L 669,407 L 670,407 L 670,406 L 670,405 L 670,406 L 670,405 L 671,405 L 671,404 L 670,404 L 670,403 L 671,403 L 672,403 L 673,403 " />
<path d="M 746,370 L 746,371 L 745,371 L 744,371 L 744,372 L 745,372 L 746,372 L 746,371 L 747,371 L 747,372 L 747,373 L 748,373 L 747,373 L 747,372 L 747,371 L 748,371 L 749,371 L 750,371 L 750,372 L 751,372 L 752,372 L 752,373 L 753,373 L 754,374 L 754,375 L 755,375 L 755,376 L 756,376 L 756,377 L 757,377 L 758,378 L 758,379 L 757,379 L 757,380 L 756,380 L 757,380 L 756,380 L 756,381 L 756,382 L 755,382 L 755,383 L 755,384 L 754,384 L 754,385 L 753,385 L 753,386 L 753,387 L 753,386 L 753,387 L 753,388 L 753,389 L 753,390 L 754,395 L 751,395 L 750,395 L 748,395 L 747,395 L 746,395 L 746,394 L 747,394 L 747,393 L 748,392 L 747,391 L 746,391 L 746,390 L 745,390 L 746,389 L 747,389 L 748,390 L 749,388 L 746,387 L 746,386 L 747,386 L 747,385 L 746,384 L 746,385 L 745,385 L 745,386 L 745,387 L 744,387 L 744,388 L 743,390 L 742,391 L 741,391 L 740,391 L 740,390 L 740,388 L 740,387 L 740,386 L 739,384 L 739,385 L 740,386 L 741,386 L 741,385 L 740,385 L 741,385 L 740,384 L 740,383 L 741,384 L 742,384 L 743,383 L 743,382 L 743,381 L 742,382 L 742,381 L 742,382 L 741,382 L 742,382 L 741,382 L 740,383 L 739,382 L 739,380 L 739,382 L 740,383 L 741,382 L 740,382 L 741,382 L 741,380 L 740,379 L 739,379 L 740,379 L 741,379 L 742,379 L 742,378 L 742,377 L 741,377 L 740,377 L 741,377 L 740,377 L 740,376 L 741,376 L 741,374 L 742,373 L 741,373 L 742,373 L 742,372 L 742,371 L 743,371 L 743,372 L 743,371 L 743,372 L 744,372 L 743,371 L 743,370 L 744,370 L 745,371 L 745,370 L 745,369 L 745,370 L 746,370 " />
<path d="M 748,379 L 747,378 L 748,378 L 749,378 L 751,379 L 751,378 L 750,378 L 749,377 L 748,377 L 748,376 L 747,374 L 746,374 L 745,374 L 745,375 L 746,377 L 745,378 L 744,378 L 744,379 L 743,379 L 744,379 L 744,380 L 743,381 L 745,381 L 747,380 L 750,382 L 751,383 L 751,382 L 749,381 L 750,381 L 750,380 L 752,381 L 749,379 L 748,379 " />
<path d="M 712,347 L 712,348 L 713,348 L 714,349 L 715,350 L 715,351 L 716,351 L 716,352 L 717,352 L 717,351 L 718,351 L 718,352 L 719,352 L 720,352 L 720,353 L 721,353 L 722,352 L 722,353 L 721,353 L 721,354 L 722,354 L 723,354 L 723,355 L 724,355 L 726,354 L 726,355 L 727,355 L 729,356 L 729,355 L 729,356 L 730,357 L 731,358 L 731,359 L 732,360 L 733,360 L 733,361 L 734,361 L 734,362 L 735,364 L 735,366 L 735,367 L 735,366 L 735,367 L 736,366 L 735,366 L 736,366 L 736,367 L 736,366 L 736,367 L 736,368 L 735,367 L 735,368 L 734,368 L 733,369 L 732,369 L 731,370 L 731,371 L 730,371 L 730,372 L 729,372 L 728,372 L 727,373 L 726,373 L 725,373 L 725,374 L 724,374 L 723,374 L 722,374 L 721,374 L 720,374 L 719,374 L 718,374 L 717,374 L 717,375 L 716,375 L 715,375 L 714,376 L 713,376 L 713,377 L 712,377 L 710,378 L 709,378 L 708,378 L 707,379 L 706,380 L 705,381 L 704,382 L 703,382 L 703,383 L 703,384 L 702,384 L 702,385 L 701,386 L 701,387 L 700,387 L 700,388 L 684,398 L 684,399 L 683,399 L 682,398 L 681,398 L 679,398 L 678,398 L 678,397 L 678,398 L 677,398 L 676,398 L 675,398 L 675,399 L 674,399 L 675,399 L 675,400 L 674,400 L 674,401 L 674,400 L 674,401 L 673,400 L 673,399 L 674,399 L 675,399 L 675,398 L 676,398 L 676,397 L 676,396 L 675,395 L 675,394 L 675,393 L 674,393 L 674,392 L 673,392 L 673,391 L 672,391 L 672,390 L 671,390 L 671,391 L 670,391 L 670,392 L 669,393 L 669,392 L 669,391 L 670,391 L 670,390 L 670,389 L 669,389 L 669,388 L 668,388 L 668,387 L 667,387 L 666,387 L 666,388 L 665,388 L 665,389 L 665,390 L 664,390 L 664,389 L 663,389 L 662,389 L 662,390 L 661,390 L 662,391 L 662,392 L 662,391 L 661,391 L 661,390 L 661,389 L 660,389 L 659,389 L 658,389 L 657,389 L 656,389 L 656,388 L 657,388 L 658,388 L 659,388 L 659,387 L 659,388 L 659,387 L 659,386 L 658,386 L 658,385 L 658,386 L 657,386 L 657,385 L 658,385 L 658,384 L 658,383 L 658,382 L 657,382 L 657,381 L 656,381 L 656,382 L 655,382 L 655,381 L 654,381 L 654,380 L 654,379 L 654,380 L 653,379 L 653,378 L 653,377 L 653,376 L 654,376 L 654,375 L 654,374 L 655,374 L 656,374 L 657,374 L 658,374 L 658,375 L 657,375 L 657,376 L 658,376 L 658,375 L 659,375 L 660,374 L 661,374 L 662,373 L 663,373 L 664,372 L 665,371 L 666,370 L 667,370 L 668,369 L 669,369 L 670,368 L 670,367 L 672,367 L 672,366 L 673,365 L 674,365 L 675,364 L 676,364 L 677,364 L 679,363 L 680,363 L 682,363 L 683,363 L 684,363 L 685,363 L 686,363 L 687,363 L 688,363 L 689,363 L 689,362 L 689,363 L 690,363 L 691,363 L 692,363 L 694,363 L 695,363 L 696,363 L 697,363 L 699,362 L 700,361 L 701,361 L 702,360 L 703,359 L 704,359 L 705,357 L 706,357 L 706,356 L 705,356 L 704,356 L 704,355 L 704,354 L 704,353 L 705,351 L 705,350 L 705,349 L 706,348 L 707,348 L 706,348 L 707,348 L 707,349 L 707,348 L 708,348 L 709,348 L 710,348 L 710,347 L 711,347 L 712,347 " />
<path d="M 722,352 L 724,350 L 725,349 L 726,349 L 726,348 L 727,347 L 728,346 L 729,346 L 729,345 L 730,345 L 730,344 L 731,344 L 732,344 L 733,343 L 734,343 L 734,344 L 734,345 L 734,346 L 733,346 L 734,346 L 734,347 L 733,347 L 733,348 L 733,349 L 733,350 L 734,350 L 735,350 L 735,351 L 734,351 L 734,350 L 733,350 L 733,353 L 731,353 L 728,353 L 727,353 L 725,350 L 722,352 " />
</g>
<g id="23020" >
<path d="M 756,365 L 756,366 L 757,365 L 758,365 L 758,366 L 759,366 L 759,367 L 760,367 L 762,368 L 763,369 L 764,369 L 764,370 L 765,370 L 765,371 L 766,371 L 766,372 L 767,372 L 768,373 L 769,373 L 769,374 L 770,374 L 769,374 L 768,374 L 767,373 L 766,373 L 766,372 L 765,372 L 764,372 L 764,371 L 763,371 L 762,370 L 762,371 L 762,372 L 762,373 L 762,374 L 761,374 L 761,375 L 762,375 L 762,376 L 761,376 L 761,377 L 762,377 L 761,377 L 760,377 L 759,377 L 758,377 L 758,378 L 757,377 L 756,377 L 756,376 L 755,376 L 755,375 L 754,375 L 754,374 L 753,374 L 753,373 L 752,373 L 752,372 L 751,372 L 750,372 L 750,371 L 749,371 L 748,371 L 749,371 L 749,370 L 750,369 L 749,369 L 749,370 L 748,370 L 747,370 L 747,371 L 747,370 L 746,370 L 746,369 L 747,369 L 747,370 L 748,370 L 747,369 L 747,368 L 748,368 L 748,369 L 749,369 L 748,368 L 749,368 L 749,367 L 750,367 L 751,367 L 751,368 L 751,367 L 752,367 L 753,368 L 754,369 L 755,369 L 755,370 L 756,370 L 755,370 L 756,370 L 756,371 L 757,371 L 756,370 L 755,369 L 754,369 L 754,368 L 753,367 L 752,366 L 753,366 L 756,365 " />
</g>
<g id="23030" >
<path d="M 762,374 L 762,373 L 762,372 L 762,371 L 762,370 L 763,371 L 764,371 L 764,372 L 765,372 L 766,372 L 766,373 L 767,373 L 768,374 L 769,374 L 770,374 L 771,375 L 772,375 L 773,375 L 773,376 L 774,376 L 773,377 L 774,377 L 774,378 L 774,379 L 775,379 L 776,379 L 776,380 L 777,380 L 777,381 L 778,381 L 777,381 L 777,382 L 777,383 L 777,384 L 777,385 L 777,386 L 776,386 L 776,387 L 777,387 L 777,388 L 776,388 L 777,388 L 777,389 L 778,389 L 779,389 L 780,389 L 780,390 L 780,391 L 779,391 L 778,391 L 777,391 L 777,392 L 777,393 L 778,393 L 778,394 L 777,394 L 776,394 L 775,394 L 774,394 L 774,395 L 773,395 L 772,395 L 771,395 L 770,395 L 769,395 L 768,395 L 768,394 L 767,394 L 766,394 L 765,394 L 765,393 L 764,393 L 763,393 L 762,393 L 761,393 L 760,393 L 759,393 L 759,394 L 758,394 L 758,395 L 758,394 L 758,395 L 757,395 L 756,395 L 755,395 L 755,394 L 755,395 L 755,394 L 754,394 L 754,395 L 754,394 L 754,393 L 753,392 L 753,390 L 753,388 L 753,387 L 754,387 L 753,386 L 753,385 L 754,385 L 754,384 L 755,384 L 755,383 L 755,382 L 756,382 L 756,381 L 756,380 L 757,380 L 756,380 L 757,380 L 757,379 L 758,379 L 758,378 L 758,377 L 759,377 L 760,377 L 761,377 L 762,377 L 761,377 L 761,376 L 762,376 L 762,375 L 761,375 L 761,374 L 762,374 " />
</g>
<g id="23040" >
<path d="M 749,430 L 749,433 L 754,433 L 757,433 L 758,433 L 759,433 L 759,432 L 760,432 L 762,429 L 757,425 L 753,422 L 751,421 L 748,419 L 748,418 L 746,415 L 746,412 L 745,412 L 745,410 L 746,410 L 746,406 L 746,402 L 745,401 L 745,402 L 745,401 L 744,401 L 744,402 L 744,401 L 743,401 L 743,402 L 743,401 L 742,401 L 742,402 L 742,401 L 742,400 L 743,400 L 743,399 L 743,398 L 744,398 L 744,397 L 745,397 L 751,397 L 753,397 L 754,397 L 755,400 L 755,401 L 756,400 L 756,399 L 755,398 L 755,397 L 755,396 L 755,395 L 755,394 L 755,395 L 756,395 L 757,395 L 758,395 L 758,394 L 758,395 L 758,394 L 759,394 L 759,393 L 760,393 L 761,393 L 762,393 L 763,393 L 764,393 L 765,393 L 765,394 L 766,394 L 767,394 L 768,394 L 768,395 L 769,395 L 770,395 L 771,395 L 772,395 L 773,395 L 774,395 L 774,394 L 775,394 L 776,394 L 777,394 L 778,394 L 778,393 L 777,393 L 777,392 L 777,391 L 778,391 L 779,391 L 780,391 L 781,391 L 781,392 L 781,393 L 781,394 L 781,395 L 781,396 L 781,397 L 780,397 L 780,398 L 780,399 L 779,399 L 779,400 L 778,400 L 777,401 L 777,402 L 776,403 L 775,403 L 774,404 L 774,405 L 773,405 L 773,406 L 773,407 L 772,407 L 772,408 L 771,408 L 771,409 L 770,409 L 769,410 L 768,411 L 768,412 L 767,412 L 767,413 L 766,413 L 767,413 L 767,414 L 768,414 L 769,414 L 769,415 L 770,415 L 772,415 L 773,415 L 773,416 L 772,416 L 777,417 L 776,418 L 776,419 L 775,419 L 774,420 L 774,421 L 773,422 L 772,423 L 772,424 L 771,424 L 771,425 L 770,425 L 770,426 L 769,427 L 768,428 L 768,429 L 767,430 L 766,431 L 765,431 L 765,432 L 762,429 L 760,432 L 759,432 L 759,433 L 758,433 L 757,433 L 757,436 L 750,436 L 750,433 L 747,433 L 747,435 L 747,434 L 747,433 L 745,433 L 743,433 L 742,433 L 739,433 L 735,433 L 735,430 L 740,430 L 741,430 L 742,430 L 744,430 L 745,430 L 746,430 L 747,430 L 749,430 " />
</g>
<g id="23050" >
<path d="M 784,374 L 785,374 L 785,375 L 786,375 L 786,376 L 787,376 L 787,377 L 788,377 L 789,377 L 789,376 L 790,376 L 791,376 L 792,377 L 793,377 L 794,377 L 794,378 L 795,378 L 795,379 L 796,379 L 796,380 L 796,379 L 797,379 L 798,379 L 798,380 L 799,380 L 799,379 L 799,378 L 800,378 L 801,378 L 801,377 L 802,377 L 803,377 L 804,377 L 804,376 L 804,377 L 804,376 L 805,376 L 806,376 L 806,377 L 807,377 L 807,376 L 808,377 L 807,377 L 808,377 L 808,378 L 808,379 L 808,380 L 807,381 L 808,381 L 807,381 L 806,381 L 807,382 L 807,381 L 808,381 L 808,382 L 807,382 L 807,383 L 808,384 L 808,385 L 808,386 L 807,386 L 806,386 L 805,387 L 805,388 L 805,389 L 804,389 L 804,390 L 804,389 L 804,390 L 804,391 L 805,391 L 805,392 L 805,393 L 805,394 L 804,394 L 804,395 L 805,395 L 805,396 L 804,396 L 804,397 L 803,397 L 802,398 L 802,397 L 801,397 L 801,396 L 801,397 L 802,397 L 801,397 L 800,397 L 800,398 L 799,398 L 799,399 L 798,399 L 798,400 L 799,400 L 799,401 L 799,402 L 798,402 L 798,403 L 798,404 L 797,405 L 797,406 L 796,406 L 795,406 L 795,407 L 795,406 L 795,405 L 795,404 L 795,403 L 795,402 L 794,402 L 794,401 L 794,400 L 794,399 L 793,399 L 793,398 L 793,397 L 793,396 L 792,396 L 792,395 L 792,394 L 792,395 L 792,396 L 792,397 L 793,397 L 793,398 L 793,399 L 793,400 L 794,400 L 794,401 L 793,401 L 794,401 L 794,402 L 794,403 L 793,404 L 794,404 L 794,405 L 794,406 L 794,407 L 795,407 L 794,407 L 795,408 L 795,409 L 794,409 L 793,409 L 794,410 L 794,409 L 794,410 L 793,410 L 793,411 L 793,410 L 793,411 L 792,411 L 791,412 L 791,413 L 790,413 L 790,414 L 789,414 L 789,415 L 788,416 L 787,416 L 787,417 L 786,417 L 785,417 L 784,417 L 783,417 L 783,416 L 783,417 L 782,417 L 781,417 L 774,415 L 773,415 L 773,416 L 773,415 L 772,415 L 769,414 L 768,414 L 767,413 L 767,412 L 768,412 L 768,411 L 769,410 L 770,409 L 771,409 L 771,408 L 772,408 L 772,407 L 773,407 L 773,406 L 773,405 L 774,405 L 774,404 L 775,403 L 776,403 L 777,402 L 777,401 L 778,400 L 779,400 L 779,399 L 780,399 L 780,398 L 780,397 L 781,397 L 781,396 L 781,395 L 781,394 L 781,393 L 781,392 L 781,391 L 780,391 L 780,390 L 780,389 L 779,389 L 778,389 L 777,389 L 777,388 L 776,388 L 777,388 L 777,387 L 776,387 L 776,386 L 777,386 L 777,385 L 777,384 L 777,383 L 777,382 L 777,381 L 778,381 L 777,381 L 777,380 L 776,380 L 776,379 L 775,379 L 774,379 L 774,378 L 774,377 L 773,377 L 774,376 L 775,377 L 776,377 L 777,377 L 777,378 L 778,378 L 779,378 L 780,378 L 781,378 L 781,377 L 782,377 L 782,376 L 782,375 L 782,374 L 783,373 L 783,374 L 784,374 " />
</g>
<g id="23060" >
<path d="M 801,352 L 801,353 L 801,354 L 801,355 L 801,356 L 800,356 L 799,356 L 798,356 L 799,356 L 798,356 L 798,357 L 797,357 L 796,357 L 796,356 L 796,357 L 795,357 L 795,358 L 795,359 L 794,359 L 794,360 L 795,360 L 795,361 L 795,362 L 795,363 L 795,364 L 795,365 L 794,365 L 794,366 L 794,367 L 794,368 L 795,368 L 795,369 L 794,369 L 795,369 L 795,370 L 796,370 L 797,370 L 798,370 L 798,371 L 799,371 L 799,372 L 800,373 L 800,374 L 801,374 L 802,374 L 802,375 L 803,375 L 804,376 L 804,377 L 803,377 L 802,377 L 801,377 L 801,378 L 800,378 L 799,378 L 799,379 L 799,380 L 798,380 L 798,379 L 797,379 L 796,379 L 796,380 L 796,379 L 795,379 L 795,378 L 794,378 L 794,377 L 793,377 L 792,377 L 791,376 L 790,376 L 789,376 L 789,377 L 788,377 L 787,377 L 787,376 L 786,376 L 786,375 L 785,375 L 785,374 L 784,374 L 783,374 L 783,373 L 782,374 L 782,375 L 782,376 L 782,377 L 781,377 L 781,378 L 780,378 L 779,378 L 778,378 L 777,378 L 777,377 L 776,377 L 775,377 L 774,376 L 773,376 L 773,375 L 774,375 L 774,374 L 775,374 L 775,373 L 776,373 L 776,372 L 775,372 L 775,371 L 776,371 L 776,370 L 777,370 L 778,370 L 779,370 L 779,369 L 778,369 L 778,368 L 777,367 L 776,367 L 776,366 L 776,365 L 775,364 L 775,363 L 776,363 L 776,362 L 776,361 L 775,361 L 775,360 L 775,359 L 774,359 L 774,358 L 774,357 L 773,357 L 773,356 L 773,355 L 773,354 L 774,354 L 774,353 L 775,353 L 775,352 L 776,352 L 777,352 L 778,352 L 779,352 L 780,352 L 781,352 L 782,352 L 783,352 L 784,352 L 785,352 L 786,352 L 788,352 L 790,352 L 791,352 L 792,352 L 794,352 L 795,352 L 796,352 L 797,352 L 798,352 L 799,352 L 800,352 L 801,352 " />
</g>
<g id="23070" >
<path d="M 794,320 L 794,321 L 795,321 L 796,321 L 796,322 L 796,323 L 797,323 L 797,324 L 797,325 L 798,325 L 798,326 L 797,326 L 798,326 L 798,327 L 799,327 L 799,326 L 799,327 L 800,327 L 800,326 L 800,327 L 800,326 L 800,325 L 800,324 L 801,324 L 802,324 L 803,324 L 804,323 L 805,323 L 805,324 L 806,324 L 807,324 L 807,325 L 808,325 L 809,325 L 810,326 L 811,325 L 811,324 L 812,325 L 813,325 L 813,326 L 814,326 L 814,327 L 813,327 L 813,328 L 813,327 L 813,326 L 813,327 L 813,328 L 812,328 L 812,329 L 811,329 L 810,329 L 810,330 L 809,330 L 809,331 L 810,331 L 809,331 L 809,332 L 809,333 L 809,332 L 808,332 L 808,333 L 807,333 L 807,332 L 807,333 L 807,334 L 808,334 L 807,334 L 807,335 L 808,335 L 808,336 L 807,336 L 807,335 L 807,336 L 806,336 L 806,337 L 805,337 L 804,337 L 804,338 L 803,338 L 804,338 L 804,339 L 803,339 L 804,339 L 803,339 L 803,340 L 803,341 L 803,340 L 803,341 L 803,340 L 803,341 L 803,342 L 802,342 L 802,343 L 802,344 L 803,344 L 802,344 L 802,345 L 802,346 L 802,345 L 801,346 L 802,346 L 801,346 L 801,347 L 802,347 L 801,347 L 801,348 L 801,349 L 801,350 L 801,351 L 801,352 L 800,352 L 799,352 L 798,352 L 797,352 L 796,352 L 795,352 L 794,352 L 792,352 L 791,352 L 790,352 L 788,352 L 786,352 L 785,352 L 784,352 L 783,352 L 782,352 L 781,352 L 780,352 L 779,352 L 778,352 L 777,352 L 776,352 L 775,352 L 775,351 L 775,350 L 774,350 L 774,349 L 773,349 L 773,348 L 773,347 L 774,347 L 775,347 L 776,347 L 776,346 L 776,345 L 776,344 L 777,344 L 778,344 L 779,344 L 779,345 L 779,344 L 780,344 L 781,344 L 782,344 L 782,343 L 781,343 L 782,343 L 782,342 L 782,341 L 783,341 L 783,340 L 783,339 L 784,339 L 783,339 L 783,338 L 782,338 L 782,337 L 781,337 L 780,337 L 779,337 L 779,336 L 780,336 L 780,335 L 780,334 L 780,333 L 779,333 L 779,332 L 779,331 L 779,330 L 780,330 L 779,330 L 779,329 L 778,329 L 777,329 L 776,329 L 776,328 L 775,328 L 774,328 L 773,328 L 773,327 L 772,327 L 772,326 L 773,326 L 773,325 L 774,325 L 775,325 L 776,325 L 777,325 L 777,326 L 778,326 L 779,326 L 780,326 L 781,326 L 781,327 L 782,327 L 783,327 L 784,327 L 784,328 L 784,327 L 785,327 L 785,326 L 786,326 L 786,325 L 786,324 L 786,323 L 787,323 L 787,322 L 788,322 L 788,321 L 789,321 L 790,321 L 791,321 L 792,321 L 792,322 L 792,321 L 792,322 L 793,322 L 793,321 L 793,320 L 794,320 " />
</g>
<g id="23080" >
<path d="M 745,338 L 746,338 L 746,339 L 748,338 L 747,338 L 747,339 L 746,339 L 746,338 L 747,338 L 748,338 L 749,338 L 749,337 L 750,337 L 751,337 L 752,337 L 753,337 L 753,336 L 754,336 L 755,336 L 756,336 L 756,335 L 756,336 L 755,336 L 756,336 L 756,337 L 757,337 L 757,336 L 757,335 L 756,335 L 757,335 L 757,334 L 757,333 L 758,332 L 759,332 L 758,332 L 759,332 L 759,333 L 760,333 L 760,332 L 761,332 L 762,331 L 763,331 L 763,332 L 764,332 L 764,331 L 765,331 L 765,330 L 764,331 L 763,331 L 762,331 L 761,331 L 760,331 L 759,331 L 758,331 L 757,331 L 756,331 L 756,332 L 755,332 L 755,333 L 756,334 L 755,334 L 754,334 L 753,335 L 752,336 L 751,336 L 751,337 L 750,337 L 749,337 L 748,338 L 747,338 L 746,338 L 746,337 L 746,336 L 747,337 L 747,336 L 748,335 L 749,335 L 749,334 L 749,333 L 750,333 L 750,332 L 751,332 L 752,332 L 753,332 L 753,331 L 754,331 L 755,331 L 756,331 L 756,330 L 757,330 L 758,330 L 759,330 L 760,330 L 765,330 L 765,329 L 766,328 L 766,327 L 765,327 L 764,327 L 763,327 L 763,328 L 762,327 L 761,327 L 761,326 L 760,326 L 760,327 L 760,326 L 759,326 L 759,325 L 758,325 L 758,324 L 757,324 L 756,324 L 755,324 L 755,323 L 754,323 L 755,323 L 754,324 L 753,325 L 752,325 L 753,325 L 753,326 L 752,327 L 751,327 L 751,326 L 751,325 L 751,324 L 751,323 L 750,323 L 748,324 L 748,323 L 748,324 L 748,323 L 747,323 L 748,323 L 747,323 L 746,322 L 745,322 L 746,322 L 747,321 L 746,321 L 746,322 L 745,322 L 745,323 L 745,322 L 745,323 L 744,324 L 743,324 L 744,325 L 743,325 L 742,325 L 741,325 L 741,324 L 740,324 L 740,323 L 740,322 L 740,321 L 740,320 L 742,319 L 743,318 L 744,317 L 745,317 L 745,316 L 746,315 L 748,314 L 749,314 L 749,315 L 750,315 L 751,316 L 751,315 L 751,316 L 752,316 L 751,316 L 752,316 L 752,315 L 753,315 L 753,314 L 753,313 L 754,313 L 754,312 L 754,311 L 754,310 L 755,310 L 755,309 L 754,309 L 755,309 L 755,308 L 756,308 L 756,307 L 756,306 L 757,306 L 757,305 L 756,305 L 757,305 L 756,305 L 756,304 L 757,304 L 757,305 L 758,305 L 758,304 L 759,304 L 760,304 L 761,304 L 761,303 L 761,302 L 761,301 L 762,301 L 762,300 L 762,299 L 763,299 L 763,300 L 764,300 L 764,299 L 765,299 L 765,300 L 766,300 L 766,301 L 767,301 L 768,301 L 769,301 L 769,302 L 770,302 L 770,303 L 771,304 L 772,304 L 773,304 L 773,305 L 773,306 L 774,306 L 775,306 L 775,307 L 776,307 L 776,308 L 776,307 L 777,307 L 777,308 L 778,308 L 778,309 L 779,309 L 779,310 L 780,310 L 780,311 L 781,311 L 781,312 L 782,312 L 782,313 L 782,314 L 781,314 L 781,315 L 781,316 L 782,316 L 782,315 L 783,315 L 784,315 L 784,316 L 785,316 L 785,317 L 785,318 L 786,318 L 787,318 L 787,319 L 788,319 L 787,319 L 788,319 L 788,320 L 788,321 L 789,321 L 788,321 L 788,322 L 787,322 L 787,323 L 786,323 L 786,324 L 786,325 L 786,326 L 785,326 L 785,327 L 784,327 L 784,328 L 784,327 L 783,327 L 782,327 L 781,327 L 781,326 L 780,326 L 779,326 L 778,326 L 777,326 L 777,325 L 776,325 L 775,325 L 774,325 L 773,325 L 773,326 L 772,326 L 772,327 L 773,327 L 773,328 L 774,328 L 775,328 L 776,328 L 776,329 L 777,329 L 778,329 L 779,329 L 779,330 L 780,330 L 779,330 L 779,331 L 779,332 L 779,333 L 780,333 L 780,334 L 780,335 L 780,336 L 779,336 L 779,337 L 780,337 L 781,337 L 782,337 L 782,338 L 783,338 L 783,339 L 784,339 L 783,339 L 783,340 L 783,341 L 782,341 L 782,342 L 782,343 L 781,343 L 782,343 L 782,344 L 781,344 L 780,344 L 779,344 L 779,345 L 779,344 L 778,344 L 777,344 L 776,344 L 776,345 L 776,346 L 776,347 L 775,347 L 774,347 L 773,347 L 773,348 L 773,349 L 774,349 L 774,350 L 775,350 L 775,351 L 775,352 L 775,353 L 774,353 L 774,354 L 773,354 L 773,355 L 773,356 L 773,357 L 774,357 L 774,358 L 774,359 L 775,359 L 775,360 L 775,361 L 776,361 L 776,362 L 776,363 L 775,363 L 775,364 L 776,365 L 776,366 L 776,367 L 777,367 L 778,368 L 778,369 L 779,369 L 779,370 L 778,370 L 777,370 L 776,370 L 776,371 L 775,371 L 775,372 L 776,372 L 776,373 L 775,373 L 775,374 L 774,374 L 774,375 L 773,375 L 773,376 L 774,376 L 775,377 L 774,376 L 773,376 L 773,375 L 772,375 L 771,375 L 770,374 L 769,374 L 769,373 L 768,373 L 767,372 L 766,372 L 766,371 L 765,371 L 765,370 L 764,370 L 764,369 L 763,369 L 762,368 L 760,367 L 759,367 L 759,366 L 758,366 L 758,365 L 757,365 L 757,364 L 757,362 L 757,361 L 755,361 L 754,361 L 754,363 L 753,363 L 752,364 L 751,364 L 751,365 L 750,365 L 747,365 L 744,365 L 744,364 L 744,363 L 744,360 L 744,359 L 744,358 L 744,357 L 743,355 L 746,356 L 746,357 L 747,357 L 747,356 L 743,355 L 743,351 L 747,351 L 747,350 L 746,350 L 743,350 L 743,348 L 742,348 L 742,347 L 742,346 L 742,345 L 744,345 L 742,345 L 741,341 L 742,340 L 743,339 L 744,339 L 745,339 L 745,338 " />
<path d="M 748,322 L 748,323 L 748,322 L 748,321 L 747,321 L 747,322 L 748,322 " />
<path d="M 738,341 L 737,341 L 738,340 L 738,341 " />
<path d="M 738,341 L 739,341 L 738,342 L 738,341 " />
<path d="M 739,332 L 740,332 L 740,333 L 741,333 L 741,334 L 740,334 L 739,334 L 738,333 L 739,333 L 738,332 L 739,331 L 739,332 " />
<path d="M 725,329 L 726,329 L 725,329 " />
<path d="M 723,327 L 723,328 L 723,327 " />
<path d="M 751,327 L 750,328 L 750,327 L 751,327 " />
<path d="M 728,328 L 729,328 L 729,329 L 729,328 L 730,328 L 730,329 L 731,329 L 732,329 L 732,330 L 731,331 L 731,330 L 730,330 L 729,330 L 728,330 L 728,329 L 728,328 L 727,328 L 726,328 L 727,328 L 727,327 L 728,327 L 728,328 " />
<path d="M 723,327 L 722,327 L 722,326 L 721,326 L 722,326 L 722,327 L 723,327 " />
<path d="M 757,325 L 758,325 L 758,326 L 758,325 L 757,325 " />
<path d="M 740,325 L 740,324 L 740,325 " />
<path d="M 718,320 L 718,321 L 719,320 L 719,321 L 718,321 L 717,321 L 718,320 " />
<path d="M 743,332 L 744,332 L 745,332 L 747,332 L 748,332 L 748,333 L 744,334 L 744,335 L 743,336 L 743,335 L 744,334 L 743,334 L 743,332 " />
<path d="M 735,342 L 734,341 L 735,341 L 735,342 " />
<path d="M 731,337 L 732,337 L 731,338 L 731,337 " />
<path d="M 730,336 L 730,337 L 730,336 " />
</g>
<g id="23310" >
<path d="M 717,321 L 716,321 L 716,322 L 716,321 L 717,321 " />
<path d="M 713,318 L 714,318 L 714,317 L 715,318 L 714,318 L 714,319 L 713,319 L 713,320 L 713,321 L 714,321 L 715,321 L 714,321 L 715,321 L 715,322 L 716,322 L 716,323 L 715,323 L 714,323 L 713,323 L 713,324 L 713,325 L 713,326 L 712,326 L 711,326 L 711,325 L 710,325 L 710,324 L 710,323 L 709,323 L 708,323 L 708,322 L 708,321 L 707,321 L 708,321 L 709,320 L 710,320 L 711,320 L 711,319 L 712,318 L 713,318 L 713,317 L 713,318 " />
<path d="M 622,306 L 622,307 L 622,306 " />
<path d="M 603,306 L 603,307 L 602,307 L 602,306 L 602,307 L 603,307 L 603,306 " />
<path d="M 512,304 L 512,305 L 512,306 L 512,305 L 512,306 L 511,306 L 511,307 L 511,306 L 511,307 L 511,306 L 510,306 L 510,305 L 511,305 L 511,304 L 512,304 " />
<path d="M 622,292 L 622,291 L 623,291 L 622,292 " />
<path d="M 609,290 L 610,290 L 610,291 L 611,291 L 611,292 L 611,291 L 612,291 L 613,291 L 614,291 L 615,291 L 616,291 L 617,291 L 617,292 L 617,293 L 616,293 L 617,293 L 616,294 L 616,295 L 616,296 L 615,296 L 615,297 L 615,298 L 616,299 L 615,299 L 616,299 L 616,300 L 616,301 L 617,301 L 618,302 L 619,302 L 619,303 L 619,304 L 620,304 L 619,304 L 619,303 L 618,303 L 618,302 L 617,302 L 616,302 L 615,302 L 615,301 L 614,301 L 613,301 L 613,300 L 612,300 L 612,299 L 611,299 L 610,299 L 610,298 L 609,297 L 609,298 L 609,297 L 608,296 L 607,294 L 607,293 L 606,293 L 606,292 L 605,292 L 605,291 L 605,290 L 606,291 L 607,291 L 607,292 L 608,291 L 608,290 L 609,290 " />
<path d="M 604,286 L 604,285 L 604,286 " />
<path d="M 606,285 L 607,285 L 607,286 L 608,286 L 609,287 L 610,287 L 611,287 L 612,287 L 612,286 L 612,287 L 611,287 L 610,287 L 610,288 L 609,288 L 608,288 L 607,288 L 606,288 L 605,288 L 605,287 L 605,286 L 605,285 L 606,285 " />
<path d="M 634,281 L 634,282 L 633,282 L 633,281 L 634,281 " />
<path d="M 534,278 L 534,279 L 533,279 L 533,278 L 534,278 " />
<path d="M 570,276 L 570,277 L 570,276 L 570,277 L 570,276 L 569,277 L 569,276 L 570,276 " />
<path d="M 569,276 L 569,275 L 569,276 " />
<path d="M 595,275 L 595,276 L 595,277 L 595,278 L 596,278 L 596,279 L 596,280 L 597,280 L 597,281 L 598,282 L 598,283 L 599,283 L 599,284 L 600,284 L 600,285 L 601,284 L 601,285 L 600,285 L 601,285 L 600,285 L 600,286 L 599,287 L 599,288 L 598,288 L 599,288 L 599,289 L 600,289 L 600,290 L 599,290 L 599,289 L 598,289 L 597,289 L 597,288 L 596,288 L 596,289 L 596,288 L 595,288 L 594,288 L 594,289 L 593,289 L 593,288 L 594,288 L 594,287 L 594,286 L 593,286 L 593,285 L 593,286 L 593,285 L 592,285 L 592,284 L 591,284 L 590,283 L 589,283 L 588,283 L 587,283 L 586,283 L 585,283 L 585,284 L 584,284 L 584,283 L 583,283 L 582,283 L 582,282 L 581,282 L 581,281 L 581,280 L 580,280 L 581,280 L 581,279 L 581,280 L 582,280 L 583,280 L 583,279 L 584,279 L 585,279 L 585,280 L 586,280 L 587,280 L 588,280 L 588,279 L 589,279 L 590,278 L 591,278 L 591,277 L 592,277 L 592,276 L 592,277 L 593,276 L 593,277 L 593,276 L 594,276 L 594,275 L 595,275 " />
<path d="M 598,275 L 597,275 L 597,274 L 598,274 L 598,275 " />
<path d="M 660,273 L 661,273 L 661,274 L 660,274 L 659,274 L 659,273 L 660,273 " />
<path d="M 571,273 L 572,273 L 573,273 L 572,274 L 573,274 L 573,275 L 574,275 L 575,275 L 576,275 L 576,276 L 576,277 L 577,277 L 576,278 L 576,277 L 575,277 L 575,278 L 574,278 L 574,277 L 573,277 L 572,277 L 572,276 L 571,276 L 571,277 L 570,277 L 570,276 L 570,275 L 569,275 L 570,275 L 570,274 L 570,275 L 569,275 L 568,275 L 569,274 L 569,273 L 570,273 L 570,272 L 570,273 L 571,273 " />
<path d="M 644,263 L 644,264 L 644,263 L 644,264 L 645,264 L 645,265 L 645,264 L 644,264 L 644,265 L 643,265 L 643,264 L 643,263 L 644,263 " />
<path d="M 601,259 L 602,259 L 602,260 L 602,261 L 601,261 L 601,260 L 601,259 " />
<path d="M 610,255 L 611,255 L 610,256 L 610,257 L 611,257 L 611,258 L 611,259 L 612,259 L 612,260 L 613,260 L 614,260 L 614,261 L 615,261 L 615,262 L 615,261 L 614,261 L 613,262 L 613,261 L 613,262 L 612,261 L 612,262 L 611,262 L 610,262 L 610,261 L 610,262 L 609,262 L 608,262 L 608,261 L 607,261 L 606,261 L 605,261 L 605,260 L 604,260 L 604,259 L 605,259 L 606,259 L 606,258 L 607,257 L 607,256 L 608,255 L 609,255 L 608,254 L 609,254 L 610,254 L 610,255 " />
<path d="M 621,252 L 621,253 L 622,253 L 622,254 L 622,255 L 622,256 L 622,257 L 623,257 L 623,258 L 622,258 L 621,258 L 622,258 L 621,258 L 620,258 L 620,257 L 619,258 L 618,258 L 618,257 L 619,257 L 618,257 L 618,256 L 619,256 L 619,255 L 618,255 L 618,254 L 619,254 L 620,254 L 620,253 L 620,252 L 621,252 " />
<path d="M 630,250 L 630,251 L 630,250 " />
<path d="M 631,249 L 632,249 L 631,249 " />
<path d="M 629,248 L 628,248 L 627,248 L 627,249 L 626,248 L 627,248 L 627,247 L 628,247 L 629,247 L 629,248 " />
<path d="M 642,246 L 643,246 L 643,247 L 644,247 L 644,248 L 645,248 L 645,249 L 644,249 L 644,250 L 643,250 L 643,251 L 642,251 L 642,252 L 642,253 L 641,253 L 642,253 L 641,253 L 641,254 L 641,255 L 641,256 L 640,256 L 640,257 L 641,257 L 641,258 L 640,258 L 640,259 L 640,260 L 640,261 L 640,262 L 640,263 L 640,264 L 641,264 L 641,265 L 642,265 L 642,266 L 643,266 L 644,266 L 644,267 L 645,267 L 645,268 L 646,268 L 646,269 L 647,269 L 647,270 L 648,270 L 648,271 L 649,271 L 650,271 L 651,271 L 651,272 L 652,272 L 653,272 L 654,272 L 655,272 L 654,272 L 654,273 L 655,273 L 656,273 L 656,272 L 657,272 L 657,273 L 658,272 L 658,273 L 658,274 L 658,275 L 659,275 L 660,275 L 660,276 L 661,276 L 661,277 L 662,277 L 662,278 L 662,279 L 662,278 L 662,279 L 662,280 L 662,281 L 661,282 L 661,283 L 661,284 L 661,285 L 660,285 L 660,286 L 659,287 L 658,287 L 657,287 L 657,288 L 656,288 L 655,289 L 655,290 L 654,290 L 654,291 L 653,291 L 652,291 L 651,292 L 650,292 L 649,293 L 649,294 L 649,295 L 650,295 L 649,296 L 650,296 L 649,295 L 648,296 L 647,295 L 647,294 L 646,293 L 646,292 L 645,292 L 646,292 L 645,292 L 644,291 L 644,292 L 643,292 L 643,291 L 643,290 L 643,291 L 643,290 L 643,289 L 642,288 L 643,288 L 644,287 L 643,287 L 643,286 L 644,286 L 644,285 L 644,284 L 644,283 L 643,283 L 643,282 L 642,282 L 642,281 L 641,281 L 641,280 L 641,279 L 641,278 L 640,278 L 640,277 L 639,277 L 638,277 L 638,276 L 637,276 L 636,276 L 637,276 L 637,275 L 636,276 L 636,275 L 635,275 L 634,275 L 634,274 L 633,274 L 632,273 L 632,274 L 632,273 L 631,273 L 631,272 L 630,272 L 629,272 L 629,271 L 629,270 L 628,269 L 627,268 L 626,268 L 627,268 L 626,268 L 625,268 L 625,267 L 624,266 L 623,265 L 622,265 L 623,265 L 623,264 L 624,264 L 625,264 L 625,265 L 626,265 L 627,265 L 628,265 L 628,264 L 629,264 L 629,263 L 629,262 L 629,261 L 629,260 L 630,260 L 630,259 L 630,258 L 629,258 L 629,257 L 629,256 L 629,257 L 629,256 L 630,256 L 630,255 L 630,254 L 630,253 L 630,252 L 630,251 L 630,250 L 631,250 L 631,249 L 632,249 L 633,249 L 634,249 L 635,249 L 635,248 L 636,248 L 637,248 L 638,248 L 638,247 L 639,247 L 639,246 L 640,246 L 641,246 L 642,246 " />
<path d="M 601,235 L 601,234 L 601,235 " />
<path d="M 709,232 L 709,231 L 709,232 " />
<path d="M 621,215 L 622,215 L 622,216 L 622,217 L 623,217 L 624,217 L 625,217 L 625,218 L 626,218 L 626,219 L 627,219 L 628,220 L 629,220 L 629,221 L 630,221 L 631,221 L 631,222 L 632,222 L 632,223 L 633,223 L 634,223 L 634,222 L 635,222 L 636,223 L 637,223 L 638,223 L 639,223 L 640,223 L 640,222 L 641,222 L 642,222 L 642,221 L 643,221 L 643,220 L 643,221 L 644,221 L 645,221 L 645,222 L 644,222 L 645,222 L 645,223 L 646,223 L 646,224 L 647,224 L 647,225 L 646,225 L 646,226 L 645,226 L 645,227 L 645,228 L 646,229 L 645,229 L 644,229 L 644,230 L 643,230 L 643,231 L 642,231 L 642,232 L 641,233 L 641,234 L 640,234 L 640,235 L 640,236 L 639,236 L 638,236 L 637,237 L 636,237 L 636,238 L 635,238 L 634,238 L 634,239 L 633,239 L 632,239 L 632,240 L 631,240 L 631,241 L 630,241 L 630,240 L 629,240 L 629,239 L 628,239 L 628,238 L 627,238 L 626,238 L 625,238 L 625,237 L 624,237 L 624,238 L 623,238 L 622,238 L 621,238 L 620,238 L 620,239 L 620,240 L 619,240 L 618,240 L 617,240 L 617,239 L 617,240 L 617,239 L 617,240 L 617,239 L 616,239 L 616,240 L 616,239 L 615,239 L 615,240 L 614,240 L 613,241 L 613,240 L 612,241 L 612,242 L 612,243 L 611,243 L 611,244 L 610,244 L 611,244 L 610,244 L 610,245 L 610,246 L 609,246 L 608,245 L 607,245 L 607,244 L 606,244 L 605,243 L 605,242 L 603,240 L 602,240 L 600,238 L 599,238 L 599,237 L 599,236 L 600,236 L 600,235 L 601,235 L 602,235 L 603,234 L 603,233 L 604,233 L 603,233 L 604,233 L 604,232 L 604,231 L 605,231 L 605,230 L 605,229 L 606,229 L 606,228 L 606,227 L 605,227 L 605,226 L 604,226 L 604,225 L 605,225 L 605,224 L 606,224 L 606,223 L 606,222 L 606,221 L 607,221 L 607,220 L 608,220 L 608,219 L 609,219 L 610,219 L 610,218 L 610,217 L 611,217 L 611,216 L 612,216 L 613,215 L 613,216 L 614,216 L 614,217 L 615,217 L 616,217 L 617,217 L 618,217 L 619,217 L 619,216 L 620,216 L 621,216 L 621,215 " />
<path d="M 682,211 L 683,211 L 684,211 L 684,212 L 685,212 L 685,213 L 685,214 L 686,214 L 686,215 L 686,214 L 687,214 L 687,215 L 687,216 L 688,216 L 688,217 L 689,218 L 689,219 L 688,219 L 689,219 L 690,219 L 690,220 L 691,220 L 691,221 L 692,221 L 692,222 L 693,222 L 694,222 L 694,223 L 695,223 L 695,224 L 696,224 L 696,223 L 696,224 L 697,225 L 698,226 L 699,226 L 699,227 L 700,227 L 700,228 L 701,228 L 702,229 L 703,229 L 703,230 L 704,230 L 705,230 L 706,231 L 707,231 L 708,231 L 708,232 L 709,232 L 709,233 L 709,232 L 710,233 L 710,234 L 710,233 L 710,234 L 710,235 L 710,236 L 710,237 L 711,237 L 711,238 L 712,238 L 711,238 L 711,239 L 711,240 L 711,241 L 711,242 L 712,243 L 712,244 L 713,244 L 713,245 L 713,246 L 714,246 L 714,247 L 715,247 L 715,248 L 716,248 L 716,249 L 717,249 L 716,249 L 716,250 L 716,251 L 716,252 L 716,253 L 715,253 L 715,254 L 714,254 L 714,255 L 713,256 L 713,257 L 712,257 L 712,258 L 712,259 L 712,260 L 712,261 L 712,262 L 711,262 L 711,263 L 711,264 L 712,264 L 712,265 L 712,266 L 713,267 L 713,268 L 714,268 L 715,269 L 716,270 L 715,270 L 715,271 L 715,272 L 714,272 L 714,273 L 714,274 L 714,275 L 714,276 L 714,275 L 714,276 L 713,276 L 714,276 L 713,276 L 713,277 L 714,277 L 714,278 L 713,278 L 714,278 L 714,279 L 713,279 L 713,280 L 713,281 L 713,282 L 713,283 L 713,284 L 714,285 L 714,286 L 715,286 L 716,286 L 716,287 L 717,287 L 718,287 L 718,288 L 718,289 L 719,289 L 718,289 L 717,289 L 716,289 L 716,290 L 716,289 L 716,290 L 715,290 L 715,291 L 715,292 L 715,293 L 715,294 L 716,294 L 716,295 L 715,295 L 714,295 L 714,296 L 714,295 L 715,295 L 715,296 L 716,296 L 716,297 L 716,298 L 717,298 L 717,299 L 717,300 L 717,299 L 717,300 L 718,300 L 718,301 L 718,302 L 719,302 L 719,303 L 720,303 L 719,304 L 719,305 L 719,306 L 719,307 L 720,306 L 720,305 L 721,305 L 721,306 L 722,306 L 722,307 L 722,308 L 722,309 L 721,308 L 721,309 L 721,308 L 720,308 L 719,309 L 719,310 L 718,310 L 717,310 L 717,311 L 716,311 L 715,311 L 714,311 L 714,312 L 714,313 L 713,313 L 713,314 L 712,314 L 712,315 L 712,316 L 711,316 L 712,316 L 712,317 L 711,317 L 710,317 L 710,318 L 709,318 L 708,318 L 707,318 L 706,318 L 706,317 L 706,318 L 706,317 L 705,317 L 705,318 L 704,318 L 705,318 L 704,318 L 704,317 L 705,317 L 704,317 L 703,317 L 703,316 L 702,316 L 701,316 L 701,315 L 700,315 L 700,314 L 700,315 L 700,314 L 699,314 L 698,315 L 698,316 L 698,317 L 697,317 L 696,318 L 695,318 L 694,318 L 693,318 L 693,319 L 692,319 L 693,319 L 692,319 L 693,319 L 693,320 L 692,320 L 693,320 L 692,321 L 693,321 L 692,321 L 693,321 L 692,321 L 692,320 L 691,320 L 690,320 L 690,319 L 689,319 L 689,320 L 688,320 L 688,319 L 687,319 L 686,319 L 685,319 L 684,319 L 684,320 L 683,320 L 682,320 L 681,320 L 679,319 L 678,319 L 677,319 L 675,319 L 674,319 L 673,319 L 672,319 L 671,319 L 670,319 L 670,318 L 669,318 L 669,317 L 668,317 L 668,316 L 667,316 L 666,315 L 665,315 L 665,314 L 664,314 L 664,313 L 664,312 L 663,312 L 662,312 L 663,312 L 662,312 L 662,311 L 661,311 L 660,310 L 660,311 L 659,311 L 659,310 L 660,310 L 660,309 L 661,309 L 662,309 L 661,309 L 661,308 L 662,308 L 661,308 L 661,307 L 661,306 L 661,305 L 661,304 L 660,304 L 660,303 L 661,303 L 660,303 L 661,303 L 661,302 L 660,302 L 660,301 L 659,301 L 659,300 L 658,300 L 657,300 L 658,300 L 658,299 L 658,300 L 658,299 L 659,299 L 660,299 L 661,299 L 662,299 L 663,299 L 663,298 L 663,299 L 664,299 L 664,298 L 665,298 L 666,298 L 666,297 L 667,297 L 667,298 L 668,298 L 669,298 L 670,297 L 671,297 L 671,296 L 672,296 L 672,295 L 673,294 L 674,293 L 674,292 L 674,291 L 674,290 L 675,290 L 674,290 L 673,290 L 673,289 L 674,289 L 673,289 L 673,288 L 673,287 L 673,286 L 672,286 L 672,285 L 672,284 L 672,283 L 672,282 L 671,282 L 671,281 L 670,280 L 670,279 L 669,279 L 670,279 L 669,279 L 668,279 L 668,278 L 668,277 L 667,277 L 667,276 L 666,276 L 666,275 L 666,274 L 667,274 L 667,273 L 667,272 L 666,272 L 666,271 L 665,270 L 664,270 L 663,270 L 662,270 L 661,270 L 660,270 L 660,269 L 659,269 L 659,268 L 658,268 L 657,268 L 656,268 L 655,268 L 655,267 L 654,267 L 654,266 L 654,265 L 653,265 L 653,264 L 653,263 L 653,262 L 652,262 L 653,262 L 653,261 L 654,261 L 653,261 L 653,260 L 653,259 L 653,258 L 653,257 L 653,256 L 653,255 L 653,254 L 653,253 L 653,252 L 653,251 L 654,251 L 655,251 L 654,251 L 654,250 L 653,249 L 654,249 L 654,248 L 654,247 L 654,246 L 654,245 L 654,244 L 654,243 L 655,243 L 654,243 L 655,243 L 655,242 L 655,241 L 654,241 L 654,240 L 654,239 L 655,239 L 655,238 L 654,238 L 654,237 L 654,236 L 654,235 L 654,234 L 654,233 L 654,232 L 654,231 L 654,230 L 653,230 L 653,229 L 653,228 L 654,228 L 655,227 L 656,227 L 656,226 L 656,227 L 656,226 L 657,226 L 658,225 L 659,225 L 659,224 L 660,224 L 660,223 L 660,224 L 660,223 L 661,223 L 662,223 L 663,223 L 663,222 L 663,223 L 664,222 L 665,222 L 666,222 L 666,221 L 667,221 L 667,220 L 667,219 L 667,218 L 668,217 L 668,216 L 668,215 L 669,215 L 669,214 L 668,214 L 668,213 L 668,214 L 669,214 L 670,214 L 671,214 L 671,213 L 671,214 L 671,213 L 671,214 L 672,214 L 673,214 L 674,214 L 675,214 L 676,214 L 677,214 L 678,214 L 678,213 L 679,213 L 679,212 L 680,212 L 680,211 L 681,211 L 681,210 L 682,210 L 682,211 " />
</g>
<g id="23320" >
<path d="M 441,625 L 442,625 L 441,625 L 441,626 L 441,625 L 441,624 L 441,625 " />
<path d="M 454,610 L 454,609 L 454,610 " />
<path d="M 452,608 L 452,609 L 452,610 L 451,610 L 451,609 L 451,608 L 452,608 " />
<path d="M 522,577 L 521,577 L 522,577 " />
<path d="M 526,578 L 526,577 L 526,576 L 526,577 L 526,578 " />
<path d="M 528,573 L 528,574 L 527,574 L 528,574 L 528,573 " />
<path d="M 529,573 L 529,572 L 529,573 " />
<path d="M 514,572 L 514,571 L 514,572 L 515,572 L 515,573 L 516,573 L 517,573 L 517,574 L 516,575 L 516,576 L 515,576 L 516,576 L 516,577 L 516,578 L 517,578 L 518,578 L 519,577 L 520,577 L 519,577 L 519,578 L 518,578 L 518,579 L 519,579 L 520,579 L 520,580 L 521,580 L 521,579 L 522,579 L 523,579 L 523,578 L 524,578 L 525,578 L 525,579 L 524,579 L 523,579 L 522,579 L 522,580 L 521,580 L 521,581 L 520,581 L 520,582 L 519,581 L 519,582 L 518,581 L 518,582 L 517,581 L 517,582 L 517,581 L 517,582 L 517,581 L 516,581 L 516,580 L 517,580 L 517,579 L 516,579 L 516,578 L 515,579 L 515,578 L 515,577 L 514,577 L 513,577 L 514,577 L 513,576 L 513,575 L 512,575 L 511,575 L 511,574 L 511,573 L 512,573 L 512,572 L 512,571 L 513,572 L 514,571 L 514,572 " />
<path d="M 530,571 L 530,572 L 529,572 L 529,571 L 530,571 " />
<path d="M 505,563 L 506,564 L 505,564 L 505,563 L 505,564 L 505,563 " />
<path d="M 507,563 L 507,562 L 507,563 " />
<path d="M 517,560 L 518,560 L 518,561 L 519,561 L 519,562 L 518,562 L 519,562 L 519,563 L 519,564 L 518,564 L 517,564 L 517,563 L 517,562 L 516,561 L 517,560 " />
<path d="M 499,559 L 498,559 L 499,558 L 499,559 " />
<path d="M 517,559 L 516,559 L 516,558 L 517,558 L 517,559 " />
<path d="M 527,558 L 527,559 L 528,559 L 527,559 L 527,558 L 527,559 L 526,559 L 525,559 L 525,560 L 524,561 L 524,560 L 525,559 L 524,559 L 524,558 L 525,557 L 526,557 L 526,556 L 526,555 L 525,555 L 525,554 L 526,554 L 527,554 L 527,555 L 526,555 L 527,556 L 526,557 L 527,558 " />
<path d="M 525,554 L 524,554 L 525,554 " />
<path d="M 518,553 L 518,554 L 517,553 L 518,553 " />
<path d="M 515,552 L 516,552 L 516,553 L 515,553 L 515,552 " />
<path d="M 514,552 L 514,551 L 514,552 " />
<path d="M 519,549 L 520,549 L 520,550 L 519,550 L 519,549 " />
<path d="M 503,548 L 504,548 L 504,549 L 505,549 L 506,550 L 507,550 L 507,551 L 506,551 L 506,552 L 506,553 L 506,552 L 505,552 L 505,551 L 504,551 L 503,551 L 503,550 L 502,550 L 502,551 L 502,552 L 502,553 L 502,554 L 502,555 L 501,555 L 501,556 L 501,557 L 501,558 L 501,559 L 500,558 L 499,558 L 499,557 L 500,557 L 500,556 L 500,555 L 500,554 L 499,554 L 499,555 L 498,555 L 498,554 L 498,553 L 498,552 L 498,553 L 499,553 L 499,552 L 500,552 L 500,551 L 501,551 L 500,550 L 501,550 L 501,549 L 500,549 L 501,549 L 501,548 L 502,548 L 503,548 " />
<path d="M 549,541 L 550,541 L 550,542 L 550,541 L 550,542 L 551,542 L 551,541 L 551,542 L 551,543 L 551,544 L 552,544 L 552,545 L 552,544 L 552,545 L 553,545 L 552,545 L 552,546 L 552,547 L 551,547 L 551,548 L 551,547 L 551,548 L 550,548 L 551,548 L 551,549 L 551,548 L 550,548 L 550,549 L 549,549 L 549,550 L 548,550 L 548,551 L 547,551 L 547,552 L 546,552 L 546,551 L 545,551 L 545,552 L 544,552 L 544,551 L 543,551 L 543,550 L 543,549 L 544,549 L 543,549 L 543,548 L 544,548 L 544,549 L 544,548 L 545,548 L 545,549 L 545,548 L 546,548 L 546,549 L 546,548 L 547,548 L 547,547 L 547,546 L 546,546 L 545,546 L 544,546 L 544,545 L 543,545 L 543,546 L 543,545 L 543,546 L 542,546 L 542,547 L 542,546 L 542,545 L 543,546 L 543,545 L 543,544 L 544,544 L 544,543 L 544,542 L 544,541 L 545,541 L 545,542 L 545,543 L 545,542 L 546,542 L 546,543 L 546,542 L 547,542 L 548,542 L 549,542 L 549,541 " />
<path d="M 528,538 L 527,538 L 527,537 L 528,537 L 527,537 L 528,537 L 528,538 " />
<path d="M 630,534 L 630,533 L 630,532 L 631,533 L 631,534 L 630,534 " />
<path d="M 529,530 L 529,531 L 528,531 L 529,531 L 528,531 L 528,532 L 528,533 L 527,533 L 527,532 L 526,532 L 526,531 L 527,531 L 527,530 L 527,529 L 528,529 L 528,528 L 528,529 L 528,530 L 529,530 " />
<path d="M 525,528 L 525,527 L 525,528 " />
<path d="M 529,528 L 529,527 L 529,528 " />
<path d="M 631,528 L 632,528 L 633,528 L 633,529 L 633,530 L 633,531 L 632,531 L 632,530 L 632,529 L 631,529 L 630,528 L 631,528 " />
<path d="M 529,527 L 528,527 L 528,526 L 528,525 L 529,526 L 529,527 " />
<path d="M 516,525 L 515,525 L 516,525 " />
<path d="M 524,522 L 524,523 L 524,522 L 524,523 L 523,523 L 523,522 L 524,522 " />
<path d="M 621,522 L 622,523 L 622,522 L 622,523 L 622,524 L 621,524 L 621,525 L 621,526 L 622,526 L 621,527 L 621,526 L 621,525 L 620,525 L 620,524 L 620,523 L 621,523 L 621,522 " />
<path d="M 639,521 L 639,522 L 638,522 L 637,522 L 638,521 L 639,521 " />
<path d="M 520,520 L 520,519 L 520,520 " />
<path d="M 638,520 L 638,519 L 638,520 " />
<path d="M 524,518 L 524,519 L 524,520 L 524,521 L 524,522 L 524,521 L 523,521 L 523,520 L 523,519 L 522,519 L 523,519 L 523,518 L 523,519 L 523,518 L 524,518 " />
<path d="M 629,512 L 630,512 L 631,512 L 632,512 L 632,513 L 633,513 L 634,513 L 635,513 L 636,514 L 635,514 L 636,515 L 637,515 L 637,516 L 637,517 L 638,517 L 639,517 L 640,518 L 639,518 L 638,519 L 637,518 L 636,518 L 635,518 L 635,519 L 634,519 L 633,519 L 633,518 L 634,518 L 634,517 L 633,517 L 632,517 L 632,516 L 631,516 L 630,516 L 629,516 L 629,515 L 629,514 L 628,514 L 627,514 L 628,514 L 627,514 L 627,513 L 627,514 L 627,513 L 627,512 L 628,512 L 628,511 L 629,511 L 629,512 " />
<path d="M 667,512 L 667,511 L 667,512 L 668,512 L 667,512 " />
<path d="M 608,509 L 608,510 L 609,510 L 608,510 L 608,509 " />
<path d="M 615,509 L 615,508 L 616,508 L 616,509 L 616,508 L 616,509 L 617,509 L 617,510 L 618,510 L 618,511 L 619,511 L 620,511 L 620,512 L 620,513 L 620,514 L 620,515 L 621,515 L 620,515 L 620,516 L 621,516 L 622,516 L 623,516 L 623,517 L 624,517 L 624,518 L 623,518 L 624,519 L 624,518 L 624,519 L 623,519 L 622,518 L 621,518 L 620,518 L 621,517 L 621,516 L 620,516 L 619,515 L 618,514 L 617,514 L 616,514 L 615,514 L 615,513 L 614,513 L 614,512 L 614,513 L 613,513 L 612,513 L 611,513 L 611,512 L 610,512 L 610,511 L 611,511 L 611,510 L 611,509 L 612,509 L 612,510 L 613,510 L 614,510 L 613,510 L 614,510 L 614,509 L 613,509 L 613,508 L 614,508 L 615,509 " />
<path d="M 514,506 L 514,507 L 514,506 L 513,506 L 514,506 L 514,505 L 514,506 " />
<path d="M 563,505 L 563,506 L 562,506 L 562,505 L 563,505 " />
<path d="M 604,506 L 605,506 L 605,505 L 605,506 L 606,506 L 607,506 L 608,506 L 609,506 L 610,507 L 611,507 L 612,507 L 611,507 L 610,507 L 611,507 L 610,507 L 610,508 L 609,508 L 610,508 L 609,508 L 608,508 L 608,509 L 607,509 L 606,509 L 605,509 L 604,509 L 604,510 L 604,509 L 603,509 L 603,508 L 602,508 L 602,509 L 601,509 L 601,508 L 602,508 L 603,508 L 603,507 L 604,507 L 604,506 L 604,505 L 604,506 " />
<path d="M 600,507 L 601,507 L 601,508 L 601,507 L 600,507 L 599,507 L 599,506 L 599,505 L 600,505 L 601,505 L 600,506 L 600,507 " />
<path d="M 556,505 L 557,505 L 556,505 L 557,505 L 557,506 L 558,506 L 558,507 L 559,507 L 559,508 L 558,508 L 559,508 L 559,509 L 560,509 L 561,508 L 561,507 L 562,507 L 562,508 L 562,509 L 561,509 L 560,509 L 560,510 L 560,511 L 560,512 L 559,512 L 560,512 L 561,512 L 562,512 L 561,512 L 561,513 L 561,512 L 561,513 L 562,513 L 561,513 L 561,514 L 560,513 L 560,514 L 560,515 L 560,514 L 559,514 L 558,514 L 557,514 L 556,514 L 555,514 L 555,513 L 555,514 L 555,513 L 554,513 L 555,513 L 554,513 L 555,513 L 554,513 L 554,512 L 553,512 L 553,511 L 552,511 L 552,510 L 551,509 L 552,509 L 552,508 L 553,508 L 553,507 L 554,507 L 553,506 L 554,506 L 554,505 L 555,504 L 556,504 L 556,505 " />
<path d="M 599,504 L 598,504 L 598,503 L 599,503 L 599,504 " />
<path d="M 588,502 L 587,502 L 588,502 " />
<path d="M 510,500 L 511,500 L 511,501 L 512,501 L 513,501 L 514,501 L 514,502 L 514,503 L 515,503 L 515,504 L 514,504 L 514,505 L 514,504 L 513,504 L 513,503 L 512,503 L 511,503 L 511,504 L 511,503 L 511,504 L 511,505 L 510,505 L 509,505 L 508,506 L 508,505 L 507,506 L 506,506 L 505,506 L 506,506 L 506,505 L 505,505 L 506,505 L 506,504 L 507,504 L 507,503 L 508,503 L 508,504 L 509,504 L 508,504 L 509,504 L 509,503 L 510,503 L 510,502 L 510,501 L 510,500 " />
<path d="M 597,501 L 597,500 L 597,501 " />
<path d="M 572,499 L 573,499 L 572,500 L 571,500 L 571,501 L 570,501 L 571,500 L 571,499 L 571,498 L 572,498 L 572,499 " />
<path d="M 515,496 L 515,497 L 515,498 L 515,499 L 516,499 L 517,499 L 517,500 L 517,499 L 518,499 L 518,498 L 519,498 L 519,499 L 519,500 L 518,500 L 518,501 L 518,500 L 517,500 L 517,501 L 517,500 L 516,500 L 515,500 L 515,499 L 514,499 L 515,499 L 515,498 L 514,498 L 514,497 L 514,496 L 515,496 " />
<path d="M 659,497 L 658,497 L 659,497 " />
<path d="M 661,497 L 660,497 L 661,497 " />
<path d="M 661,497 L 662,497 L 661,497 " />
<path d="M 659,497 L 659,496 L 659,497 " />
<path d="M 581,495 L 581,496 L 581,495 " />
<path d="M 655,496 L 654,496 L 653,496 L 654,495 L 655,496 " />
<path d="M 685,495 L 684,495 L 685,495 " />
<path d="M 587,491 L 587,490 L 587,491 " />
<path d="M 588,490 L 588,491 L 588,490 " />
<path d="M 586,490 L 585,490 L 586,490 " />
<path d="M 591,490 L 590,491 L 590,490 L 591,490 " />
<path d="M 717,488 L 716,488 L 716,487 L 717,487 L 717,488 " />
<path d="M 583,487 L 583,488 L 584,488 L 584,489 L 584,488 L 584,489 L 584,490 L 585,490 L 585,491 L 586,491 L 587,491 L 586,491 L 587,491 L 587,492 L 586,492 L 587,492 L 587,493 L 587,494 L 586,494 L 587,494 L 587,495 L 588,495 L 589,495 L 590,495 L 591,495 L 592,495 L 591,496 L 590,496 L 590,495 L 590,496 L 590,497 L 589,497 L 589,498 L 588,498 L 588,499 L 588,500 L 588,501 L 587,501 L 587,500 L 587,499 L 586,499 L 586,498 L 586,497 L 586,496 L 586,495 L 586,494 L 585,494 L 585,493 L 584,493 L 584,494 L 583,494 L 583,495 L 583,494 L 582,494 L 582,493 L 582,494 L 581,494 L 581,493 L 580,494 L 580,493 L 580,492 L 579,492 L 580,492 L 580,491 L 579,491 L 580,490 L 580,489 L 580,488 L 579,488 L 580,488 L 580,487 L 580,488 L 580,487 L 580,488 L 579,488 L 580,488 L 581,488 L 582,487 L 581,487 L 582,487 L 583,487 L 582,487 L 583,487 L 583,486 L 583,487 " />
<path d="M 710,485 L 711,485 L 711,486 L 712,486 L 711,486 L 711,487 L 710,487 L 710,488 L 709,488 L 709,487 L 709,486 L 709,485 L 710,485 " />
<path d="M 662,481 L 663,481 L 663,482 L 662,482 L 662,481 " />
<path d="M 706,481 L 705,481 L 706,481 " />
<path d="M 705,481 L 704,481 L 705,481 " />
<path d="M 704,481 L 704,480 L 704,481 " />
<path d="M 724,480 L 723,480 L 724,480 " />
<path d="M 667,481 L 666,481 L 665,481 L 664,481 L 665,480 L 665,479 L 665,480 L 666,480 L 667,481 " />
<path d="M 720,480 L 719,480 L 719,479 L 720,479 L 720,480 " />
<path d="M 716,481 L 717,481 L 717,482 L 717,483 L 718,484 L 718,485 L 719,485 L 718,485 L 718,486 L 718,485 L 717,486 L 717,485 L 717,486 L 717,485 L 717,486 L 717,485 L 716,485 L 715,485 L 714,485 L 714,484 L 713,484 L 714,484 L 714,483 L 714,482 L 714,481 L 714,480 L 714,479 L 713,479 L 713,478 L 712,478 L 712,477 L 712,478 L 711,478 L 711,477 L 710,477 L 710,476 L 709,476 L 708,476 L 709,476 L 709,475 L 710,475 L 710,474 L 709,474 L 710,474 L 711,474 L 712,474 L 712,473 L 713,473 L 712,474 L 713,474 L 712,474 L 713,474 L 714,475 L 714,476 L 715,476 L 715,477 L 715,478 L 714,478 L 714,479 L 715,479 L 715,480 L 716,480 L 717,480 L 716,481 " />
<path d="M 643,475 L 644,475 L 644,474 L 644,473 L 644,472 L 644,471 L 645,471 L 646,471 L 647,472 L 648,472 L 649,472 L 649,473 L 648,473 L 648,474 L 648,475 L 647,475 L 647,476 L 646,477 L 645,477 L 644,477 L 644,478 L 643,478 L 642,479 L 642,478 L 641,478 L 641,479 L 640,479 L 640,478 L 641,478 L 640,478 L 639,478 L 638,478 L 638,479 L 638,480 L 638,479 L 637,479 L 637,478 L 637,477 L 636,477 L 635,477 L 634,477 L 634,476 L 633,476 L 633,475 L 632,475 L 631,475 L 631,476 L 632,476 L 631,476 L 631,475 L 631,476 L 630,476 L 630,475 L 630,474 L 629,474 L 628,474 L 627,474 L 627,473 L 627,472 L 626,472 L 625,472 L 624,472 L 624,471 L 623,471 L 624,470 L 625,470 L 625,469 L 625,468 L 625,467 L 626,467 L 627,467 L 626,467 L 626,468 L 627,468 L 627,469 L 628,469 L 629,469 L 630,469 L 631,469 L 631,470 L 632,469 L 632,470 L 633,470 L 632,471 L 633,471 L 634,471 L 634,470 L 635,470 L 635,471 L 636,471 L 637,471 L 637,472 L 638,472 L 638,473 L 639,473 L 640,473 L 640,474 L 641,474 L 641,473 L 642,473 L 642,472 L 642,473 L 642,474 L 642,475 L 643,475 " />
<path d="M 708,466 L 707,466 L 708,466 " />
<path d="M 559,465 L 560,465 L 561,466 L 561,465 L 561,466 L 561,467 L 561,468 L 561,469 L 561,470 L 562,471 L 562,472 L 562,473 L 563,473 L 563,472 L 564,472 L 564,473 L 564,474 L 566,474 L 565,474 L 565,475 L 564,475 L 563,475 L 563,476 L 563,475 L 563,476 L 564,476 L 564,477 L 565,477 L 565,478 L 565,477 L 566,477 L 566,476 L 567,476 L 567,475 L 567,476 L 567,475 L 568,475 L 568,476 L 568,477 L 569,477 L 570,477 L 571,478 L 571,479 L 572,479 L 572,480 L 573,480 L 574,479 L 574,480 L 573,480 L 572,481 L 572,482 L 572,481 L 573,482 L 574,482 L 574,481 L 575,481 L 576,481 L 577,482 L 577,483 L 578,483 L 579,483 L 580,483 L 580,484 L 581,484 L 581,485 L 581,484 L 581,485 L 580,485 L 580,486 L 579,486 L 578,486 L 577,486 L 578,486 L 577,486 L 578,487 L 577,487 L 577,488 L 577,489 L 576,489 L 576,488 L 576,487 L 575,487 L 575,488 L 574,488 L 573,488 L 573,489 L 574,489 L 574,490 L 573,490 L 574,490 L 574,491 L 574,492 L 575,492 L 574,492 L 573,492 L 572,492 L 571,492 L 571,493 L 570,493 L 569,493 L 568,493 L 567,493 L 566,493 L 566,494 L 565,494 L 565,493 L 564,493 L 564,494 L 563,494 L 562,494 L 562,493 L 561,493 L 561,492 L 562,492 L 562,493 L 562,492 L 563,492 L 563,491 L 563,490 L 563,489 L 563,488 L 562,488 L 561,488 L 562,488 L 562,487 L 562,488 L 562,487 L 561,488 L 561,489 L 560,489 L 559,489 L 558,489 L 559,489 L 558,489 L 558,488 L 558,487 L 559,487 L 559,486 L 559,485 L 558,485 L 557,485 L 556,485 L 555,485 L 555,486 L 555,487 L 554,487 L 554,488 L 553,488 L 552,488 L 552,487 L 553,486 L 553,487 L 553,486 L 554,486 L 554,485 L 554,484 L 554,483 L 555,483 L 555,482 L 554,482 L 555,482 L 555,481 L 554,481 L 554,480 L 554,479 L 553,479 L 554,478 L 554,477 L 554,476 L 555,476 L 555,475 L 556,474 L 556,473 L 556,472 L 556,471 L 557,471 L 557,470 L 558,469 L 559,469 L 559,468 L 559,467 L 558,467 L 558,466 L 558,465 L 559,465 " />
<path d="M 623,466 L 623,465 L 623,466 " />
<path d="M 700,474 L 700,475 L 699,475 L 699,476 L 700,476 L 699,476 L 698,476 L 698,475 L 697,475 L 697,476 L 696,476 L 695,476 L 696,477 L 697,477 L 697,478 L 698,479 L 697,479 L 697,480 L 698,480 L 698,481 L 698,482 L 697,482 L 697,481 L 696,481 L 695,481 L 695,482 L 694,482 L 693,483 L 693,484 L 693,485 L 694,485 L 693,485 L 693,486 L 692,486 L 691,487 L 690,487 L 690,488 L 689,488 L 689,489 L 688,489 L 688,488 L 687,487 L 687,486 L 688,486 L 689,486 L 689,485 L 689,484 L 689,483 L 689,482 L 688,482 L 688,481 L 687,481 L 686,481 L 685,481 L 684,481 L 684,482 L 684,483 L 684,484 L 683,484 L 683,483 L 684,483 L 683,483 L 683,482 L 683,483 L 683,484 L 682,484 L 682,486 L 681,486 L 680,486 L 680,485 L 679,485 L 679,484 L 679,483 L 679,482 L 679,480 L 681,480 L 681,479 L 682,479 L 681,479 L 681,478 L 681,477 L 681,476 L 681,475 L 680,475 L 680,474 L 680,473 L 680,472 L 679,472 L 678,472 L 679,472 L 679,471 L 679,472 L 680,472 L 680,471 L 681,471 L 681,470 L 682,470 L 681,470 L 681,469 L 680,468 L 681,468 L 681,467 L 680,466 L 681,466 L 681,467 L 682,467 L 683,467 L 684,467 L 685,467 L 685,468 L 685,467 L 686,467 L 687,467 L 687,466 L 688,465 L 688,464 L 687,464 L 686,464 L 687,464 L 687,463 L 688,463 L 688,462 L 689,462 L 690,462 L 691,462 L 692,462 L 693,462 L 693,461 L 694,461 L 694,460 L 694,461 L 694,462 L 695,462 L 695,463 L 696,463 L 697,463 L 698,463 L 699,463 L 700,463 L 700,462 L 701,462 L 701,463 L 701,464 L 702,464 L 701,464 L 702,464 L 702,465 L 703,465 L 704,465 L 703,465 L 703,466 L 703,467 L 702,467 L 702,468 L 703,469 L 703,470 L 703,471 L 703,472 L 704,472 L 704,473 L 705,473 L 705,474 L 705,473 L 705,474 L 705,475 L 704,475 L 705,475 L 704,475 L 704,476 L 704,475 L 704,476 L 703,476 L 703,475 L 702,474 L 702,473 L 701,473 L 700,473 L 699,473 L 699,474 L 700,474 L 699,474 L 700,474 " />
<path d="M 550,457 L 551,457 L 551,458 L 552,458 L 552,459 L 553,459 L 553,460 L 554,460 L 554,461 L 555,461 L 556,461 L 556,462 L 557,462 L 557,463 L 556,463 L 555,464 L 554,464 L 553,464 L 553,463 L 553,462 L 552,461 L 551,461 L 550,461 L 550,460 L 549,460 L 549,459 L 549,458 L 549,457 L 550,457 L 550,458 L 550,457 " />
<path d="M 622,446 L 622,447 L 621,446 L 622,446 " />
<path d="M 618,443 L 617,443 L 618,443 " />
<path d="M 619,441 L 618,441 L 619,440 L 620,440 L 620,441 L 619,441 " />
<path d="M 643,372 L 643,373 L 643,372 " />
<path d="M 644,361 L 643,361 L 643,362 L 642,361 L 643,361 L 644,360 L 644,361 " />
<path d="M 634,360 L 635,361 L 635,360 L 635,361 L 634,361 L 634,362 L 633,361 L 633,360 L 634,360 " />
<path d="M 537,356 L 537,355 L 537,356 " />
<path d="M 641,356 L 641,357 L 641,356 L 640,356 L 641,356 " />
<path d="M 679,355 L 679,354 L 679,355 " />
<path d="M 677,353 L 677,354 L 676,354 L 677,354 L 677,353 " />
<path d="M 668,347 L 668,346 L 668,347 " />
<path d="M 674,344 L 674,345 L 675,346 L 674,346 L 675,346 L 674,346 L 675,346 L 674,346 L 674,347 L 674,348 L 673,349 L 673,350 L 672,350 L 672,349 L 671,349 L 671,348 L 670,348 L 670,347 L 671,347 L 671,346 L 672,346 L 672,345 L 673,345 L 673,344 L 674,344 " />
<path d="M 692,342 L 692,343 L 693,343 L 693,344 L 694,344 L 693,344 L 693,345 L 694,345 L 695,345 L 696,345 L 696,346 L 696,347 L 696,348 L 696,349 L 695,349 L 695,350 L 695,349 L 695,350 L 694,349 L 694,350 L 694,351 L 694,352 L 695,352 L 695,353 L 695,354 L 694,354 L 694,355 L 694,356 L 695,356 L 695,357 L 694,357 L 693,357 L 692,357 L 692,356 L 692,355 L 691,355 L 690,354 L 690,355 L 690,354 L 689,354 L 690,354 L 689,354 L 688,354 L 687,354 L 687,353 L 686,353 L 686,354 L 685,354 L 685,355 L 684,355 L 684,356 L 683,356 L 683,355 L 682,355 L 682,354 L 681,354 L 680,354 L 680,353 L 680,352 L 681,352 L 681,353 L 681,352 L 681,351 L 681,350 L 682,350 L 682,349 L 683,349 L 683,348 L 684,348 L 685,348 L 686,347 L 687,347 L 687,346 L 688,346 L 688,345 L 689,345 L 690,345 L 689,344 L 690,344 L 690,343 L 690,342 L 691,342 L 692,342 " />
<path d="M 679,340 L 679,341 L 680,341 L 681,341 L 681,342 L 682,342 L 683,342 L 683,341 L 684,341 L 684,342 L 683,342 L 682,342 L 682,343 L 682,344 L 681,346 L 681,347 L 681,348 L 680,348 L 680,349 L 679,350 L 679,351 L 679,352 L 678,352 L 678,351 L 677,351 L 677,352 L 676,352 L 675,352 L 675,351 L 676,351 L 677,351 L 677,350 L 676,350 L 677,350 L 676,350 L 676,349 L 676,348 L 677,348 L 677,347 L 677,346 L 677,345 L 676,345 L 676,346 L 676,345 L 677,345 L 677,344 L 677,343 L 678,343 L 677,343 L 678,343 L 678,342 L 678,341 L 679,341 L 679,340 " />
<path d="M 624,341 L 623,341 L 622,341 L 622,340 L 621,340 L 621,339 L 622,339 L 623,340 L 624,341 " />
<path d="M 620,338 L 619,338 L 619,337 L 618,337 L 618,336 L 618,335 L 618,336 L 619,336 L 619,337 L 620,338 " />
<path d="M 648,335 L 648,334 L 648,335 " />
<path d="M 637,335 L 638,335 L 639,335 L 639,336 L 640,336 L 640,337 L 641,337 L 642,337 L 643,338 L 643,339 L 644,339 L 645,339 L 646,339 L 646,338 L 646,339 L 647,339 L 646,339 L 647,339 L 646,339 L 647,340 L 647,341 L 647,342 L 648,342 L 648,343 L 648,344 L 649,344 L 650,345 L 651,345 L 652,345 L 652,346 L 653,346 L 654,346 L 655,346 L 656,346 L 657,346 L 658,346 L 659,346 L 659,345 L 660,345 L 661,345 L 662,345 L 663,345 L 663,344 L 663,345 L 663,346 L 663,347 L 663,348 L 664,348 L 663,348 L 663,349 L 662,349 L 661,349 L 660,349 L 660,348 L 659,348 L 658,348 L 657,348 L 656,348 L 655,348 L 654,348 L 653,348 L 652,348 L 651,348 L 651,349 L 650,349 L 649,349 L 648,349 L 648,350 L 647,350 L 647,349 L 647,348 L 646,348 L 645,348 L 646,348 L 645,348 L 645,349 L 644,349 L 644,350 L 643,350 L 643,351 L 642,351 L 642,350 L 643,350 L 643,349 L 643,348 L 643,347 L 643,346 L 644,346 L 644,345 L 644,344 L 644,343 L 643,343 L 643,342 L 642,342 L 642,341 L 641,341 L 640,341 L 640,340 L 640,339 L 639,339 L 639,338 L 638,338 L 638,337 L 637,337 L 637,336 L 636,336 L 636,335 L 636,334 L 637,334 L 637,335 " />
<path d="M 416,310 L 415,310 L 416,310 L 415,310 L 415,309 L 416,309 L 416,310 " />
<path d="M 419,305 L 420,305 L 420,306 L 421,306 L 421,307 L 421,308 L 420,309 L 420,310 L 420,311 L 420,310 L 419,310 L 418,309 L 417,309 L 417,310 L 417,309 L 416,309 L 417,309 L 417,308 L 416,308 L 416,307 L 416,306 L 416,307 L 417,307 L 417,306 L 418,306 L 418,305 L 419,305 " />
<path d="M 407,294 L 407,295 L 407,294 L 406,294 L 407,294 " />
<path d="M 420,291 L 420,292 L 421,292 L 421,291 L 421,292 L 420,292 L 420,291 " />
<path d="M 419,290 L 419,289 L 418,289 L 419,289 L 419,290 " />
<path d="M 419,287 L 418,287 L 419,287 L 418,288 L 418,287 L 417,287 L 418,287 L 417,287 L 418,287 L 419,287 " />
<path d="M 408,275 L 408,276 L 409,276 L 410,277 L 411,277 L 412,277 L 412,276 L 413,276 L 414,276 L 415,276 L 416,275 L 417,275 L 417,276 L 418,276 L 419,276 L 419,275 L 420,275 L 420,276 L 419,276 L 420,277 L 420,278 L 420,279 L 419,279 L 418,279 L 418,280 L 418,281 L 417,281 L 417,282 L 416,282 L 416,283 L 416,284 L 415,284 L 415,285 L 415,284 L 415,285 L 414,285 L 413,286 L 412,287 L 411,287 L 411,288 L 410,288 L 409,288 L 408,288 L 408,287 L 408,286 L 408,285 L 408,284 L 407,284 L 407,283 L 408,283 L 409,283 L 409,282 L 409,281 L 408,280 L 408,279 L 407,278 L 406,277 L 406,278 L 406,277 L 406,276 L 406,275 L 407,275 L 408,275 " />
<path d="M 73,228 L 72,228 L 73,227 L 73,228 " />
<path d="M 75,222 L 76,223 L 75,223 L 74,223 L 74,224 L 74,225 L 74,226 L 74,227 L 74,226 L 74,227 L 75,227 L 74,227 L 73,227 L 72,227 L 72,226 L 71,226 L 70,226 L 70,225 L 69,225 L 68,225 L 69,226 L 68,225 L 68,226 L 67,226 L 66,226 L 65,226 L 65,227 L 64,227 L 64,228 L 63,228 L 63,229 L 62,229 L 61,229 L 61,230 L 60,230 L 60,231 L 60,230 L 60,229 L 59,229 L 60,229 L 60,228 L 61,228 L 62,227 L 62,226 L 62,225 L 63,225 L 64,224 L 64,225 L 65,224 L 65,223 L 65,222 L 64,222 L 65,222 L 65,223 L 66,223 L 67,223 L 67,222 L 67,223 L 68,222 L 69,222 L 70,222 L 71,222 L 72,222 L 73,222 L 74,222 L 74,221 L 75,222 " />
<path d="M 35,212 L 34,212 L 34,211 L 35,211 L 35,212 " />
<path d="M 36,211 L 35,212 L 34,211 L 35,211 L 36,211 " />
<path d="M 35,209 L 34,209 L 35,209 " />
<path d="M 779,210 L 778,210 L 778,209 L 779,210 " />
<path d="M 53,189 L 54,189 L 53,189 " />
<path d="M 53,190 L 54,190 L 53,190 L 54,190 L 54,191 L 55,191 L 56,191 L 57,191 L 58,190 L 58,191 L 59,192 L 60,192 L 61,193 L 60,194 L 59,194 L 58,194 L 57,194 L 58,194 L 57,195 L 56,196 L 56,197 L 55,197 L 55,198 L 56,198 L 56,199 L 56,200 L 56,199 L 57,199 L 57,198 L 57,199 L 56,199 L 56,200 L 56,201 L 57,201 L 57,202 L 57,203 L 57,204 L 57,205 L 56,205 L 56,206 L 55,206 L 55,207 L 54,207 L 54,208 L 53,208 L 52,208 L 51,209 L 50,209 L 50,208 L 49,208 L 50,207 L 51,207 L 50,207 L 49,207 L 48,207 L 48,208 L 47,208 L 47,207 L 46,208 L 45,209 L 44,209 L 44,210 L 45,210 L 45,211 L 44,211 L 43,211 L 43,210 L 43,209 L 44,209 L 44,208 L 44,207 L 45,206 L 45,205 L 44,205 L 45,204 L 45,205 L 45,204 L 44,204 L 43,204 L 43,203 L 42,204 L 41,204 L 41,203 L 40,203 L 39,203 L 39,202 L 38,202 L 37,201 L 37,200 L 38,201 L 39,201 L 40,202 L 41,202 L 42,202 L 43,201 L 43,200 L 43,199 L 43,198 L 44,198 L 44,197 L 44,196 L 45,196 L 46,196 L 46,195 L 46,194 L 47,194 L 48,193 L 49,193 L 50,193 L 51,193 L 51,192 L 52,191 L 52,190 L 52,189 L 51,189 L 52,188 L 52,189 L 53,189 L 53,190 " />
<path d="M 48,128 L 49,128 L 50,128 L 50,129 L 50,128 L 51,128 L 51,127 L 52,127 L 53,127 L 54,127 L 55,127 L 56,127 L 57,127 L 58,127 L 59,127 L 59,128 L 60,128 L 61,128 L 61,129 L 62,129 L 63,129 L 63,130 L 63,131 L 64,131 L 63,131 L 63,132 L 63,133 L 64,133 L 64,134 L 64,135 L 65,135 L 65,136 L 65,137 L 66,137 L 67,137 L 68,137 L 69,137 L 69,138 L 69,139 L 68,139 L 67,139 L 66,139 L 66,138 L 66,137 L 65,137 L 64,137 L 63,137 L 63,138 L 63,139 L 65,140 L 66,140 L 66,141 L 65,141 L 65,140 L 64,140 L 65,140 L 65,141 L 65,142 L 64,142 L 63,142 L 64,142 L 63,142 L 63,141 L 63,140 L 62,140 L 61,141 L 61,140 L 61,141 L 60,141 L 59,142 L 58,143 L 57,144 L 56,144 L 55,145 L 54,146 L 53,147 L 53,148 L 53,147 L 53,148 L 52,148 L 53,148 L 53,149 L 53,150 L 53,151 L 52,151 L 52,152 L 51,153 L 51,154 L 51,155 L 52,156 L 51,156 L 50,157 L 49,157 L 48,157 L 48,158 L 47,158 L 47,157 L 47,156 L 46,156 L 46,157 L 46,156 L 46,155 L 45,155 L 45,154 L 44,154 L 43,155 L 43,154 L 42,154 L 41,154 L 42,154 L 42,155 L 42,154 L 42,155 L 42,154 L 42,155 L 41,156 L 41,155 L 40,155 L 40,154 L 39,154 L 38,154 L 37,154 L 37,155 L 36,155 L 35,155 L 35,154 L 36,154 L 35,154 L 36,154 L 36,153 L 36,154 L 36,153 L 35,153 L 35,154 L 34,153 L 34,154 L 33,154 L 32,154 L 31,154 L 31,153 L 31,154 L 30,154 L 30,153 L 29,154 L 29,153 L 29,152 L 28,152 L 29,152 L 28,151 L 28,150 L 28,149 L 27,149 L 27,148 L 27,147 L 27,146 L 26,146 L 26,145 L 26,144 L 25,143 L 25,142 L 25,141 L 25,140 L 25,139 L 24,139 L 24,138 L 23,137 L 22,137 L 21,136 L 20,136 L 20,135 L 20,134 L 20,133 L 19,132 L 20,131 L 21,131 L 21,130 L 21,129 L 22,129 L 22,128 L 22,129 L 23,130 L 24,130 L 23,130 L 23,129 L 23,128 L 24,128 L 24,129 L 25,129 L 25,130 L 26,130 L 27,130 L 27,131 L 28,131 L 29,132 L 30,133 L 31,133 L 32,133 L 32,132 L 33,132 L 33,131 L 33,132 L 34,131 L 35,131 L 35,130 L 35,131 L 36,131 L 37,131 L 38,130 L 39,130 L 40,130 L 40,129 L 41,129 L 42,128 L 43,127 L 43,128 L 43,127 L 43,128 L 44,128 L 45,128 L 46,128 L 47,128 L 46,128 L 47,128 L 46,128 L 46,127 L 46,126 L 47,126 L 47,127 L 47,128 L 48,128 " />
</g>
</g>
</g>
</svg>