<?xml version="1.0" standalone="no"?>
<!DOCTYPE svg PUBLIC "-//W3C//DTD SVG 1.1//EN" "http://www.w3.org/Graphics/SVG/1.1/DTD/svg11.dtd">
<svg xmlns="http://www.w3.org/2000/svg" xmlns:inkscape="http://www.inkscape.org/namespaces/inkscape" xmlns:xlink="http://www.w3.org/1999/xlink" viewBox = "0 0 836 755" version = "1.1">
<!-- svg generated using QGIS www.qgis.org -->
<g id="jeju" inkscape:groupmode="layer" inkscape:label="jeju">
<g stroke="none" fill="rgb(255,255,255)" stroke-linejoin="round" stroke-width="0.26" style="stroke:rgb(0,0,0);stroke-width:1">
<g id="39010" >
<path d="M 145,578 L 144,578 L 145,578 " />
<path d="M 145,579 L 144,579 L 145,579 " />
<path d="M 278,41 L 277,41 L 278,41 " />
<path d="M 255,18 L 255,17 L 255,18 " />
<path d="M 141,578 L 141,577 L 141,578 " />
<path d="M 251,75 L 251,74 L 251,75 " />
<path d="M 261,49 L 260,49 L 261,49 " />
<path d="M 151,577 L 150,577 L 151,577 " />
<path d="M 292,40 L 292,39 L 292,40 " />
<path d="M 145,579 L 144,579 L 145,579 L 144,579 L 145,578 L 145,579 " />
<path d="M 142,578 L 143,578 L 142,578 L 143,578 L 142,578 " />
<path d="M 293,35 L 293,34 L 293,35 " />
<path d="M 152,577 L 151,577 L 151,576 L 152,576 L 152,577 " />
<path d="M 296,25 L 295,25 L 296,25 " />
<path d="M 151,576 L 150,576 L 151,576 " />
<path d="M 251,32 L 250,32 L 250,31 L 251,31 L 251,32 " />
<path d="M 270,64 L 271,64 L 270,64 " />
<path d="M 146,579 L 145,579 L 146,579 " />
<path d="M 258,136 L 258,135 L 258,136 " />
<path d="M 303,35 L 302,35 L 302,34 L 303,35 " />
<path d="M 270,62 L 270,61 L 270,62 " />
<path d="M 293,30 L 294,30 L 294,31 L 293,30 " />
<path d="M 269,21 L 269,22 L 269,21 L 269,22 L 269,21 L 268,21 L 269,21 L 268,21 L 269,21 L 269,20 L 269,21 " />
<path d="M 240,60 L 240,61 L 239,60 L 240,60 " />
<path d="M 251,40 L 251,41 L 250,41 L 249,41 L 249,40 L 250,40 L 251,40 " />
<path d="M 258,48 L 259,49 L 258,49 L 258,48 " />
<path d="M 306,37 L 305,36 L 306,36 L 307,36 L 307,37 L 306,37 " />
<path d="M 256,50 L 256,49 L 256,50 L 255,50 L 255,49 L 255,50 L 256,50 " />
<path d="M 311,35 L 312,35 L 313,36 L 312,36 L 311,36 L 311,35 " />
<path d="M 299,35 L 300,35 L 301,35 L 300,35 L 300,36 L 300,35 L 299,35 L 298,35 L 299,35 " />
<path d="M 240,54 L 240,55 L 239,55 L 239,54 L 239,53 L 239,54 L 240,54 " />
<path d="M 254,105 L 254,106 L 253,106 L 253,105 L 252,105 L 252,104 L 253,104 L 253,105 L 254,105 " />
<path d="M 303,58 L 302,58 L 302,57 L 303,56 L 303,57 L 303,58 " />
<path d="M 290,24 L 290,25 L 289,25 L 289,24 L 290,24 L 290,23 L 290,24 " />
<path d="M 305,36 L 304,36 L 304,35 L 305,35 L 305,36 " />
<path d="M 258,77 L 258,78 L 257,78 L 257,77 L 258,77 " />
<path d="M 274,97 L 274,98 L 273,97 L 273,96 L 273,95 L 274,96 L 274,97 " />
<path d="M 247,44 L 247,43 L 248,41 L 249,42 L 249,43 L 248,43 L 247,43 L 247,44 " />
<path d="M 288,246 L 287,246 L 286,246 L 285,246 L 285,245 L 286,245 L 287,245 L 288,245 L 288,246 " />
<path d="M 218,42 L 219,43 L 218,43 L 217,42 L 216,42 L 215,42 L 216,42 L 216,41 L 218,40 L 218,41 L 217,41 L 218,41 L 218,42 " />
<path d="M 267,41 L 266,42 L 265,42 L 265,41 L 264,41 L 263,41 L 263,40 L 263,39 L 264,39 L 266,40 L 266,41 L 267,41 " />
<path d="M 473,94 L 474,94 L 475,94 L 476,94 L 477,94 L 477,95 L 476,96 L 475,96 L 474,96 L 475,96 L 474,97 L 474,96 L 473,96 L 473,95 L 472,95 L 472,94 L 473,94 " />
<path d="M 283,43 L 284,43 L 285,43 L 286,43 L 286,44 L 285,45 L 284,45 L 283,45 L 283,44 L 283,45 L 283,44 L 282,44 L 281,44 L 282,43 L 282,42 L 283,43 " />
<path d="M 146,575 L 146,576 L 145,576 L 144,576 L 144,577 L 143,577 L 142,577 L 141,577 L 140,577 L 140,576 L 141,576 L 142,576 L 143,576 L 142,576 L 143,575 L 144,575 L 145,575 L 146,575 " />
<path d="M 267,97 L 266,97 L 265,96 L 264,95 L 265,95 L 265,94 L 266,94 L 267,94 L 268,95 L 268,96 L 267,97 " />
<path d="M 198,497 L 198,498 L 199,498 L 200,499 L 200,500 L 200,501 L 199,501 L 199,502 L 198,502 L 198,503 L 198,502 L 198,503 L 197,503 L 197,502 L 196,502 L 196,503 L 195,503 L 195,502 L 194,502 L 193,502 L 194,502 L 194,501 L 194,500 L 194,499 L 194,498 L 194,497 L 195,497 L 196,497 L 197,497 L 198,497 " />
<path d="M 275,19 L 276,20 L 277,20 L 277,21 L 278,21 L 279,21 L 280,21 L 281,21 L 282,21 L 282,22 L 283,23 L 284,23 L 285,24 L 286,24 L 286,25 L 285,25 L 285,26 L 284,26 L 283,26 L 282,25 L 282,24 L 281,24 L 280,23 L 279,23 L 278,23 L 277,22 L 276,22 L 275,22 L 274,22 L 274,21 L 273,21 L 272,21 L 272,20 L 273,20 L 274,20 L 274,19 L 275,19 " />
<path d="M 240,55 L 242,56 L 243,56 L 244,56 L 245,57 L 246,57 L 247,57 L 248,57 L 248,58 L 249,58 L 249,59 L 250,59 L 251,60 L 250,60 L 249,60 L 249,59 L 248,59 L 249,59 L 248,58 L 248,59 L 247,59 L 248,59 L 247,60 L 247,59 L 246,60 L 247,60 L 247,61 L 248,61 L 248,62 L 249,61 L 250,61 L 249,61 L 250,61 L 250,62 L 251,62 L 251,63 L 250,64 L 251,64 L 251,65 L 251,66 L 252,66 L 251,67 L 250,67 L 249,67 L 248,67 L 248,66 L 247,66 L 246,65 L 246,64 L 245,64 L 244,63 L 243,63 L 243,62 L 243,61 L 242,61 L 241,61 L 241,60 L 242,60 L 243,60 L 243,59 L 242,59 L 242,58 L 241,57 L 241,58 L 240,58 L 240,57 L 239,57 L 240,56 L 240,55 " />
<path d="M 275,64 L 275,65 L 276,65 L 277,65 L 278,66 L 277,67 L 276,66 L 276,67 L 275,67 L 275,68 L 276,68 L 275,68 L 276,68 L 276,69 L 277,69 L 277,70 L 278,70 L 278,71 L 278,72 L 277,72 L 276,72 L 275,73 L 274,72 L 273,72 L 273,73 L 272,73 L 273,74 L 272,74 L 271,74 L 270,74 L 270,75 L 270,76 L 269,77 L 270,78 L 269,77 L 270,76 L 270,75 L 270,74 L 269,74 L 269,73 L 268,74 L 268,75 L 268,74 L 267,74 L 267,75 L 267,74 L 267,75 L 267,76 L 266,76 L 266,77 L 266,78 L 266,79 L 267,79 L 269,78 L 267,79 L 266,79 L 266,80 L 266,81 L 267,82 L 268,82 L 268,81 L 269,81 L 269,82 L 270,82 L 270,83 L 270,84 L 270,85 L 269,85 L 268,85 L 267,85 L 266,85 L 265,85 L 264,85 L 264,84 L 264,83 L 264,82 L 263,81 L 263,80 L 263,81 L 262,81 L 262,80 L 262,79 L 262,78 L 261,78 L 261,77 L 261,76 L 260,76 L 260,75 L 259,75 L 259,74 L 258,74 L 258,73 L 258,74 L 259,74 L 259,73 L 258,73 L 258,72 L 257,72 L 257,71 L 256,71 L 255,71 L 255,70 L 255,71 L 254,71 L 254,70 L 253,70 L 253,69 L 253,68 L 253,67 L 254,67 L 255,67 L 256,68 L 257,68 L 258,68 L 258,67 L 259,67 L 259,66 L 260,66 L 261,66 L 261,67 L 262,67 L 263,67 L 263,68 L 264,68 L 265,68 L 266,68 L 267,68 L 267,69 L 267,68 L 268,68 L 268,69 L 267,69 L 268,69 L 268,68 L 268,69 L 268,68 L 269,68 L 269,67 L 270,67 L 271,67 L 271,66 L 272,66 L 272,65 L 271,65 L 272,65 L 273,65 L 274,65 L 274,64 L 274,65 L 274,64 L 275,64 " />
<path d="M 681,412 L 682,412 L 683,412 L 683,413 L 684,413 L 684,414 L 685,414 L 685,415 L 686,415 L 686,416 L 687,416 L 687,417 L 687,416 L 687,417 L 686,417 L 685,417 L 685,418 L 685,419 L 684,419 L 684,420 L 685,420 L 685,421 L 686,421 L 687,421 L 687,420 L 688,420 L 689,420 L 689,421 L 690,420 L 691,420 L 691,419 L 692,419 L 693,419 L 692,419 L 693,419 L 692,419 L 692,420 L 692,419 L 692,420 L 691,420 L 690,420 L 689,421 L 689,422 L 690,422 L 690,423 L 690,424 L 691,424 L 691,425 L 691,426 L 691,427 L 691,428 L 691,429 L 692,429 L 692,430 L 693,430 L 692,431 L 693,431 L 693,432 L 693,433 L 692,433 L 692,434 L 692,433 L 691,433 L 690,433 L 690,434 L 690,435 L 691,435 L 690,436 L 690,437 L 690,438 L 690,439 L 690,438 L 690,439 L 689,439 L 689,438 L 689,439 L 688,438 L 687,438 L 686,438 L 687,438 L 687,437 L 686,437 L 685,437 L 684,437 L 684,438 L 683,438 L 682,438 L 681,437 L 680,437 L 679,438 L 680,437 L 680,436 L 679,436 L 678,436 L 677,436 L 676,436 L 675,435 L 675,434 L 676,434 L 676,433 L 676,434 L 676,433 L 676,432 L 675,432 L 675,431 L 675,430 L 675,429 L 674,428 L 674,427 L 674,426 L 673,426 L 674,426 L 674,425 L 675,425 L 675,424 L 675,423 L 675,422 L 675,421 L 676,421 L 677,421 L 677,420 L 678,420 L 678,419 L 679,419 L 679,418 L 679,417 L 678,417 L 679,417 L 679,418 L 680,418 L 680,417 L 680,416 L 679,416 L 679,417 L 679,416 L 679,417 L 679,416 L 679,415 L 678,415 L 678,414 L 678,413 L 679,413 L 680,413 L 680,412 L 681,412 L 681,411 L 681,412 " />
<path d="M 558,379 L 559,379 L 560,379 L 561,379 L 562,379 L 563,379 L 564,379 L 564,380 L 563,379 L 563,380 L 564,380 L 563,380 L 563,381 L 563,382 L 564,382 L 564,381 L 564,380 L 565,380 L 564,380 L 565,380 L 565,379 L 566,379 L 566,380 L 567,380 L 568,379 L 569,379 L 568,380 L 568,381 L 569,381 L 570,381 L 571,381 L 571,382 L 572,382 L 573,382 L 573,383 L 574,382 L 574,383 L 573,383 L 574,383 L 575,383 L 576,383 L 576,384 L 576,385 L 576,386 L 577,386 L 578,386 L 578,387 L 579,387 L 579,386 L 580,386 L 580,385 L 581,385 L 581,384 L 582,385 L 583,385 L 584,385 L 584,386 L 585,386 L 585,385 L 585,386 L 586,386 L 585,386 L 586,386 L 586,385 L 585,385 L 584,385 L 585,385 L 586,384 L 587,384 L 588,383 L 589,383 L 589,382 L 590,382 L 591,382 L 592,383 L 592,382 L 593,382 L 593,383 L 594,383 L 595,383 L 595,384 L 596,384 L 597,384 L 597,385 L 597,386 L 596,387 L 597,387 L 597,388 L 598,388 L 598,389 L 599,389 L 599,390 L 599,391 L 598,391 L 598,392 L 598,393 L 598,394 L 598,395 L 598,396 L 599,396 L 599,397 L 599,396 L 600,396 L 600,397 L 600,398 L 600,399 L 601,399 L 602,399 L 603,398 L 603,399 L 604,399 L 604,400 L 605,401 L 606,401 L 607,401 L 606,402 L 607,402 L 606,402 L 606,403 L 606,404 L 607,404 L 608,404 L 608,403 L 608,404 L 609,404 L 609,405 L 610,405 L 611,405 L 612,405 L 613,405 L 614,405 L 614,406 L 613,406 L 613,407 L 614,407 L 615,407 L 616,407 L 617,407 L 618,406 L 618,407 L 618,406 L 616,407 L 616,408 L 616,407 L 616,408 L 617,408 L 616,408 L 616,409 L 617,409 L 617,408 L 618,408 L 617,408 L 618,408 L 618,407 L 618,408 L 617,409 L 617,410 L 618,410 L 618,411 L 619,410 L 619,411 L 620,411 L 621,411 L 622,411 L 621,411 L 621,410 L 622,411 L 623,411 L 623,410 L 623,409 L 624,409 L 624,408 L 625,408 L 625,409 L 625,408 L 626,408 L 627,408 L 627,407 L 628,407 L 628,408 L 629,408 L 629,407 L 630,407 L 630,408 L 631,407 L 631,408 L 632,408 L 633,408 L 633,407 L 633,408 L 633,407 L 633,408 L 634,408 L 634,409 L 635,409 L 634,409 L 635,409 L 635,410 L 636,410 L 636,409 L 636,410 L 636,409 L 637,409 L 638,409 L 639,409 L 640,409 L 641,409 L 640,409 L 640,410 L 641,410 L 641,409 L 641,410 L 642,410 L 642,411 L 643,411 L 643,412 L 644,412 L 644,413 L 644,412 L 645,412 L 645,413 L 646,413 L 646,414 L 645,414 L 645,415 L 646,415 L 647,415 L 647,414 L 646,414 L 647,414 L 647,415 L 648,415 L 648,414 L 649,414 L 649,415 L 648,415 L 647,415 L 647,416 L 646,416 L 646,417 L 646,418 L 646,419 L 647,419 L 646,419 L 646,420 L 645,420 L 645,421 L 646,423 L 647,423 L 648,423 L 649,423 L 650,423 L 650,422 L 650,423 L 651,423 L 652,423 L 652,424 L 653,424 L 654,424 L 654,425 L 654,426 L 655,426 L 655,427 L 654,427 L 655,427 L 655,428 L 655,429 L 654,430 L 654,431 L 654,432 L 654,433 L 655,433 L 655,434 L 655,433 L 654,433 L 654,434 L 654,433 L 653,433 L 653,434 L 654,434 L 653,434 L 654,434 L 653,434 L 652,434 L 652,435 L 652,436 L 653,436 L 652,437 L 653,437 L 653,438 L 653,439 L 653,440 L 652,440 L 652,441 L 651,441 L 650,441 L 650,440 L 649,440 L 648,441 L 648,442 L 647,442 L 647,443 L 647,444 L 647,445 L 646,445 L 645,445 L 645,444 L 644,444 L 645,444 L 644,445 L 643,445 L 642,445 L 641,445 L 641,446 L 640,446 L 639,446 L 639,447 L 639,446 L 638,446 L 638,447 L 638,448 L 637,448 L 637,447 L 636,446 L 635,446 L 635,447 L 634,447 L 634,448 L 634,449 L 633,449 L 632,449 L 633,449 L 632,449 L 632,450 L 632,449 L 631,450 L 630,450 L 629,450 L 628,450 L 628,451 L 628,452 L 628,453 L 627,453 L 626,453 L 626,452 L 626,453 L 625,453 L 625,454 L 624,454 L 624,455 L 623,456 L 622,456 L 621,456 L 620,456 L 619,456 L 619,457 L 618,457 L 617,458 L 617,459 L 616,459 L 616,460 L 615,460 L 614,460 L 614,461 L 613,461 L 612,461 L 611,461 L 610,461 L 609,461 L 608,462 L 607,462 L 606,463 L 605,463 L 604,463 L 604,464 L 603,464 L 603,465 L 602,465 L 601,465 L 601,466 L 600,466 L 600,467 L 599,467 L 599,468 L 598,467 L 598,468 L 597,468 L 596,468 L 595,468 L 595,469 L 595,470 L 595,471 L 594,471 L 594,472 L 594,473 L 593,473 L 592,473 L 592,472 L 591,472 L 591,473 L 590,473 L 589,473 L 589,474 L 588,474 L 587,474 L 586,474 L 586,475 L 585,475 L 584,475 L 583,475 L 582,475 L 582,476 L 581,476 L 580,476 L 580,477 L 579,477 L 578,477 L 578,478 L 577,478 L 576,478 L 576,477 L 575,477 L 574,477 L 573,477 L 572,477 L 571,477 L 570,479 L 569,480 L 568,482 L 567,482 L 567,483 L 566,483 L 565,483 L 564,483 L 564,484 L 564,485 L 563,485 L 563,486 L 562,486 L 561,487 L 560,488 L 559,489 L 558,489 L 558,490 L 557,490 L 557,491 L 556,491 L 555,491 L 555,492 L 554,492 L 553,493 L 552,493 L 551,493 L 551,494 L 550,494 L 549,494 L 548,494 L 547,494 L 546,494 L 545,494 L 544,494 L 543,494 L 542,494 L 541,494 L 540,494 L 539,494 L 539,493 L 538,493 L 537,492 L 536,492 L 536,491 L 535,491 L 534,490 L 533,488 L 533,489 L 532,489 L 531,489 L 532,489 L 530,490 L 529,490 L 528,490 L 527,491 L 526,492 L 525,492 L 524,492 L 523,492 L 522,492 L 521,492 L 520,492 L 519,492 L 518,492 L 517,493 L 516,493 L 515,493 L 514,493 L 513,494 L 512,494 L 511,495 L 510,495 L 510,496 L 509,496 L 508,497 L 507,497 L 506,498 L 505,498 L 504,499 L 503,500 L 502,501 L 501,502 L 499,503 L 498,504 L 497,505 L 496,505 L 496,506 L 495,507 L 494,507 L 493,508 L 492,509 L 491,509 L 490,509 L 490,508 L 489,508 L 488,508 L 487,508 L 486,508 L 485,508 L 485,509 L 484,509 L 484,510 L 483,510 L 482,510 L 482,511 L 481,511 L 481,512 L 481,513 L 480,514 L 479,513 L 478,514 L 477,514 L 476,514 L 475,514 L 473,514 L 472,515 L 470,515 L 469,515 L 468,515 L 468,514 L 467,514 L 466,515 L 465,515 L 465,516 L 464,516 L 463,516 L 463,517 L 463,518 L 462,518 L 462,519 L 462,520 L 462,521 L 461,521 L 461,522 L 460,521 L 459,521 L 458,522 L 457,523 L 456,523 L 455,523 L 454,523 L 453,523 L 452,523 L 451,523 L 450,523 L 449,524 L 448,524 L 447,524 L 447,525 L 446,525 L 445,526 L 444,526 L 443,527 L 442,528 L 441,528 L 440,528 L 440,530 L 439,530 L 438,529 L 437,530 L 436,530 L 435,530 L 434,530 L 433,530 L 432,530 L 431,530 L 430,530 L 429,531 L 428,531 L 427,531 L 426,531 L 425,531 L 424,531 L 423,531 L 422,531 L 421,531 L 420,531 L 419,531 L 419,530 L 418,530 L 417,530 L 417,531 L 416,531 L 415,531 L 415,530 L 414,530 L 413,530 L 413,531 L 412,531 L 411,532 L 410,532 L 409,533 L 408,534 L 407,534 L 407,535 L 405,535 L 404,536 L 403,536 L 402,537 L 401,538 L 400,538 L 399,538 L 398,538 L 398,539 L 397,539 L 397,538 L 396,538 L 395,538 L 395,539 L 394,539 L 393,539 L 393,540 L 392,540 L 391,540 L 390,540 L 389,540 L 388,539 L 387,539 L 386,540 L 385,540 L 384,541 L 384,542 L 383,542 L 382,542 L 382,541 L 381,541 L 380,541 L 379,541 L 378,540 L 377,541 L 376,541 L 375,542 L 374,542 L 374,543 L 373,543 L 372,544 L 371,544 L 370,544 L 370,543 L 369,543 L 369,542 L 368,542 L 368,541 L 367,541 L 367,540 L 366,540 L 366,541 L 365,541 L 364,541 L 364,542 L 363,542 L 362,543 L 361,543 L 361,542 L 360,542 L 360,541 L 359,541 L 358,541 L 357,540 L 356,540 L 355,540 L 354,540 L 353,540 L 352,540 L 352,541 L 350,541 L 349,541 L 348,541 L 347,541 L 346,541 L 345,541 L 344,541 L 343,541 L 342,541 L 341,541 L 340,542 L 339,542 L 338,542 L 338,543 L 338,542 L 337,543 L 337,544 L 336,544 L 336,545 L 336,546 L 337,547 L 336,547 L 337,547 L 337,548 L 336,548 L 336,549 L 336,550 L 335,551 L 334,551 L 334,552 L 333,552 L 333,553 L 333,554 L 333,555 L 332,555 L 331,555 L 331,554 L 330,555 L 329,555 L 328,555 L 328,554 L 327,554 L 326,554 L 326,555 L 325,555 L 324,554 L 323,553 L 323,554 L 322,554 L 321,554 L 320,554 L 319,554 L 318,554 L 317,554 L 316,553 L 315,553 L 314,553 L 313,553 L 313,552 L 312,552 L 311,552 L 310,552 L 309,552 L 308,552 L 307,552 L 306,552 L 306,553 L 305,552 L 304,552 L 303,551 L 303,552 L 302,551 L 301,551 L 300,551 L 299,550 L 298,550 L 297,550 L 296,550 L 295,550 L 294,551 L 293,551 L 292,552 L 291,553 L 291,554 L 290,554 L 289,554 L 288,554 L 287,554 L 286,554 L 285,554 L 284,554 L 283,554 L 282,554 L 281,555 L 279,555 L 279,554 L 278,554 L 277,554 L 276,554 L 276,553 L 275,553 L 273,553 L 272,552 L 271,552 L 271,554 L 270,554 L 270,555 L 269,555 L 269,556 L 268,556 L 268,557 L 268,558 L 267,558 L 266,558 L 266,559 L 266,560 L 265,560 L 264,561 L 262,563 L 261,564 L 261,565 L 260,565 L 260,566 L 259,566 L 258,566 L 258,565 L 257,565 L 256,565 L 255,565 L 254,565 L 252,565 L 252,566 L 251,566 L 250,566 L 248,565 L 247,566 L 247,567 L 246,568 L 245,569 L 244,569 L 242,569 L 241,571 L 241,572 L 241,573 L 240,575 L 240,576 L 240,577 L 239,578 L 238,579 L 237,580 L 236,581 L 236,582 L 235,583 L 234,583 L 233,584 L 232,584 L 231,585 L 231,586 L 230,586 L 230,587 L 229,587 L 228,588 L 227,588 L 226,588 L 225,588 L 224,588 L 224,589 L 223,589 L 222,589 L 222,590 L 221,590 L 220,590 L 219,590 L 218,590 L 217,591 L 216,591 L 215,591 L 215,592 L 214,592 L 213,592 L 212,592 L 212,593 L 211,593 L 211,594 L 210,594 L 210,595 L 209,595 L 208,595 L 208,596 L 208,595 L 207,595 L 207,596 L 207,597 L 206,598 L 206,599 L 206,600 L 206,601 L 206,602 L 206,603 L 206,604 L 206,605 L 206,606 L 207,606 L 207,607 L 207,608 L 206,607 L 205,607 L 205,606 L 204,606 L 203,605 L 203,604 L 202,604 L 202,603 L 201,602 L 200,602 L 200,601 L 199,601 L 199,600 L 198,600 L 198,599 L 197,599 L 197,598 L 196,598 L 195,598 L 195,597 L 194,597 L 193,597 L 192,596 L 191,596 L 190,595 L 189,595 L 189,594 L 188,594 L 187,594 L 187,593 L 186,593 L 185,592 L 184,592 L 183,592 L 183,591 L 182,591 L 181,591 L 180,590 L 179,590 L 179,589 L 178,589 L 177,589 L 176,588 L 175,588 L 174,588 L 173,587 L 172,587 L 172,588 L 172,589 L 172,590 L 172,591 L 171,591 L 170,591 L 170,592 L 169,592 L 168,592 L 167,592 L 166,592 L 166,593 L 165,593 L 164,593 L 164,594 L 164,593 L 163,593 L 162,593 L 161,593 L 160,593 L 160,594 L 159,594 L 159,595 L 159,594 L 158,594 L 158,595 L 158,594 L 158,595 L 157,595 L 157,596 L 158,596 L 158,597 L 159,597 L 158,597 L 159,597 L 158,597 L 158,598 L 157,598 L 157,599 L 156,599 L 155,598 L 154,598 L 154,597 L 153,597 L 153,598 L 153,597 L 152,597 L 152,596 L 152,595 L 152,594 L 152,593 L 152,592 L 152,591 L 152,590 L 153,590 L 153,589 L 154,589 L 154,588 L 155,588 L 155,587 L 156,587 L 156,586 L 156,585 L 155,585 L 155,584 L 155,583 L 154,583 L 154,582 L 154,581 L 153,580 L 153,579 L 153,578 L 154,578 L 153,578 L 153,577 L 153,578 L 154,578 L 154,577 L 154,578 L 155,578 L 155,577 L 154,577 L 155,577 L 154,577 L 154,576 L 155,575 L 155,574 L 155,573 L 156,573 L 156,572 L 156,573 L 157,572 L 156,572 L 156,571 L 156,570 L 156,569 L 155,569 L 155,568 L 155,567 L 154,567 L 154,566 L 153,566 L 153,565 L 153,564 L 153,563 L 154,563 L 154,562 L 155,562 L 155,561 L 155,560 L 154,560 L 154,559 L 153,559 L 153,558 L 152,558 L 152,559 L 152,558 L 153,558 L 153,557 L 153,556 L 154,556 L 155,556 L 155,555 L 156,555 L 156,554 L 156,553 L 155,553 L 155,552 L 156,552 L 157,552 L 157,553 L 157,552 L 158,552 L 159,552 L 159,551 L 158,551 L 157,551 L 158,551 L 157,551 L 157,550 L 157,549 L 157,550 L 158,550 L 158,551 L 159,551 L 160,551 L 161,551 L 162,551 L 161,551 L 161,550 L 162,550 L 162,551 L 162,550 L 161,550 L 162,550 L 163,550 L 163,549 L 164,549 L 163,549 L 163,548 L 163,547 L 163,546 L 163,547 L 163,548 L 164,548 L 163,548 L 164,549 L 165,549 L 166,549 L 166,550 L 166,549 L 165,549 L 165,548 L 164,548 L 164,547 L 165,547 L 164,547 L 164,546 L 164,547 L 165,547 L 165,546 L 165,545 L 164,545 L 164,544 L 165,544 L 165,543 L 166,543 L 166,542 L 166,541 L 166,540 L 165,540 L 165,539 L 166,539 L 166,540 L 166,539 L 167,539 L 167,538 L 168,538 L 168,539 L 169,539 L 170,539 L 170,538 L 170,537 L 171,537 L 171,536 L 172,536 L 172,535 L 173,535 L 173,536 L 173,535 L 174,535 L 175,535 L 176,535 L 176,534 L 175,534 L 176,534 L 176,533 L 177,533 L 177,534 L 178,534 L 179,534 L 179,533 L 180,533 L 180,532 L 181,532 L 181,531 L 182,531 L 182,530 L 182,529 L 182,528 L 183,528 L 184,528 L 184,527 L 185,527 L 186,527 L 186,526 L 187,526 L 187,525 L 188,524 L 189,524 L 189,523 L 189,522 L 188,522 L 188,521 L 189,521 L 189,520 L 189,519 L 190,519 L 191,519 L 191,518 L 192,518 L 192,517 L 193,517 L 193,516 L 193,515 L 193,514 L 194,514 L 194,515 L 195,515 L 196,515 L 196,514 L 197,514 L 197,515 L 197,514 L 197,513 L 197,514 L 197,513 L 198,514 L 198,515 L 199,515 L 198,515 L 199,515 L 200,515 L 201,515 L 202,515 L 202,514 L 202,513 L 203,513 L 203,512 L 204,512 L 204,511 L 205,511 L 206,511 L 206,510 L 207,510 L 207,509 L 206,509 L 207,509 L 207,508 L 207,507 L 207,508 L 208,508 L 208,507 L 208,508 L 208,507 L 209,507 L 210,507 L 210,506 L 211,506 L 212,506 L 212,505 L 212,504 L 213,503 L 212,503 L 213,503 L 213,502 L 213,501 L 213,500 L 214,500 L 214,501 L 214,500 L 214,501 L 214,500 L 215,500 L 216,500 L 217,500 L 217,499 L 218,499 L 218,500 L 218,499 L 217,499 L 218,499 L 217,499 L 218,499 L 217,499 L 216,498 L 216,497 L 215,497 L 214,497 L 214,496 L 214,495 L 214,494 L 214,495 L 214,496 L 215,496 L 216,497 L 216,496 L 217,496 L 217,495 L 218,495 L 219,493 L 219,494 L 220,494 L 221,494 L 222,495 L 222,494 L 221,494 L 220,494 L 220,493 L 220,492 L 220,491 L 219,491 L 220,491 L 220,490 L 220,489 L 220,490 L 220,491 L 220,490 L 220,489 L 219,489 L 219,488 L 218,488 L 218,489 L 217,489 L 217,490 L 217,491 L 217,492 L 218,492 L 217,492 L 217,493 L 216,493 L 215,493 L 214,493 L 213,493 L 214,493 L 215,493 L 216,493 L 217,493 L 217,492 L 217,491 L 217,490 L 217,489 L 218,489 L 218,488 L 219,488 L 220,488 L 220,489 L 221,488 L 220,489 L 221,489 L 221,488 L 221,487 L 221,488 L 221,487 L 221,486 L 221,485 L 221,484 L 221,485 L 221,484 L 220,484 L 220,483 L 221,483 L 221,482 L 221,481 L 220,481 L 220,480 L 220,479 L 221,479 L 221,478 L 222,478 L 223,478 L 224,478 L 225,478 L 225,477 L 226,477 L 227,477 L 227,478 L 227,479 L 228,479 L 227,479 L 228,479 L 228,478 L 229,477 L 229,476 L 230,476 L 230,475 L 229,475 L 230,475 L 230,474 L 230,473 L 231,473 L 231,472 L 231,473 L 232,473 L 233,473 L 234,473 L 235,473 L 235,472 L 235,471 L 236,471 L 236,472 L 237,472 L 238,472 L 238,473 L 239,473 L 239,472 L 240,472 L 241,472 L 241,471 L 242,471 L 241,471 L 241,470 L 242,471 L 242,470 L 243,470 L 244,470 L 245,470 L 245,469 L 246,469 L 246,468 L 247,468 L 248,467 L 249,467 L 249,466 L 250,466 L 250,465 L 250,464 L 251,464 L 251,463 L 251,462 L 251,461 L 252,461 L 251,461 L 252,461 L 251,461 L 252,461 L 252,460 L 253,460 L 253,459 L 253,458 L 252,458 L 252,457 L 252,458 L 252,457 L 251,457 L 252,457 L 252,456 L 252,455 L 251,455 L 252,454 L 252,455 L 253,455 L 253,454 L 253,453 L 254,453 L 254,452 L 255,452 L 256,452 L 257,452 L 257,453 L 256,453 L 257,453 L 258,453 L 258,454 L 258,453 L 258,454 L 259,454 L 260,454 L 260,453 L 261,453 L 262,452 L 262,453 L 263,452 L 264,451 L 263,452 L 263,453 L 262,453 L 261,453 L 260,453 L 260,454 L 259,454 L 260,454 L 260,455 L 259,455 L 260,455 L 259,455 L 260,455 L 260,454 L 261,454 L 262,454 L 262,453 L 263,454 L 264,453 L 264,452 L 265,453 L 266,453 L 267,453 L 266,452 L 267,452 L 267,453 L 267,454 L 268,454 L 269,454 L 270,454 L 271,454 L 271,453 L 272,453 L 272,452 L 273,452 L 273,451 L 274,451 L 274,450 L 275,450 L 276,450 L 277,450 L 277,449 L 278,449 L 279,449 L 280,449 L 280,450 L 280,449 L 281,449 L 281,448 L 281,447 L 281,446 L 282,446 L 282,445 L 283,445 L 284,445 L 284,444 L 285,444 L 286,444 L 287,444 L 287,445 L 288,445 L 289,445 L 288,445 L 289,445 L 290,445 L 291,445 L 292,445 L 293,445 L 293,444 L 294,444 L 295,444 L 295,443 L 295,442 L 296,442 L 297,442 L 297,441 L 298,441 L 299,441 L 300,441 L 300,440 L 300,439 L 301,439 L 301,438 L 302,438 L 302,437 L 303,437 L 304,437 L 305,437 L 305,436 L 306,436 L 306,437 L 307,437 L 307,438 L 307,439 L 308,439 L 307,439 L 308,439 L 307,440 L 308,440 L 309,441 L 310,441 L 311,441 L 312,441 L 312,442 L 313,441 L 313,442 L 313,441 L 314,441 L 313,441 L 314,441 L 314,440 L 315,440 L 315,439 L 315,440 L 316,440 L 316,441 L 316,440 L 317,440 L 318,440 L 318,439 L 318,438 L 318,437 L 319,437 L 319,436 L 320,436 L 321,436 L 322,436 L 323,436 L 324,436 L 324,437 L 325,437 L 325,436 L 326,436 L 327,436 L 326,436 L 326,435 L 327,434 L 328,434 L 328,433 L 328,434 L 329,433 L 328,433 L 329,433 L 329,432 L 330,432 L 331,432 L 330,432 L 330,433 L 331,433 L 332,433 L 333,433 L 334,433 L 335,433 L 335,432 L 336,432 L 337,432 L 338,432 L 338,431 L 338,432 L 339,432 L 340,432 L 340,431 L 341,431 L 341,430 L 342,430 L 343,430 L 344,430 L 345,430 L 346,430 L 346,431 L 346,430 L 346,431 L 347,431 L 348,431 L 348,430 L 349,430 L 349,429 L 349,428 L 348,427 L 347,427 L 348,427 L 348,426 L 348,427 L 349,426 L 348,425 L 348,426 L 347,427 L 347,426 L 348,425 L 349,425 L 350,425 L 350,426 L 351,426 L 352,425 L 353,425 L 353,424 L 353,425 L 353,426 L 354,426 L 353,425 L 354,426 L 355,426 L 355,424 L 355,423 L 355,422 L 355,421 L 356,421 L 355,421 L 355,422 L 355,423 L 355,424 L 356,424 L 357,424 L 357,423 L 357,424 L 357,425 L 358,425 L 358,424 L 357,424 L 357,423 L 357,422 L 356,422 L 357,422 L 358,421 L 359,421 L 359,422 L 359,421 L 360,421 L 360,422 L 360,421 L 361,421 L 362,421 L 363,421 L 364,421 L 365,421 L 365,420 L 365,421 L 366,421 L 367,421 L 367,420 L 368,420 L 369,420 L 369,419 L 369,418 L 369,417 L 370,417 L 370,416 L 370,415 L 371,415 L 371,414 L 372,414 L 373,414 L 373,413 L 374,413 L 375,413 L 376,413 L 376,412 L 376,413 L 376,412 L 376,413 L 377,413 L 378,413 L 379,413 L 379,414 L 380,414 L 379,414 L 380,414 L 380,415 L 379,415 L 380,415 L 380,414 L 380,415 L 381,415 L 382,415 L 383,415 L 383,416 L 384,416 L 385,416 L 386,416 L 387,416 L 387,417 L 387,416 L 388,416 L 388,417 L 388,416 L 389,416 L 390,416 L 390,415 L 390,414 L 391,414 L 392,414 L 396,414 L 398,415 L 398,414 L 399,414 L 399,413 L 400,413 L 400,412 L 401,412 L 401,411 L 402,411 L 402,410 L 403,410 L 403,409 L 404,409 L 404,408 L 404,407 L 405,407 L 405,406 L 405,405 L 406,405 L 406,404 L 407,404 L 407,403 L 407,404 L 406,404 L 406,405 L 405,406 L 405,407 L 404,407 L 404,408 L 404,409 L 403,409 L 403,410 L 404,410 L 404,409 L 404,410 L 403,410 L 402,411 L 401,411 L 401,412 L 400,412 L 400,413 L 399,413 L 399,414 L 398,415 L 399,415 L 398,415 L 399,415 L 400,415 L 400,416 L 400,415 L 401,415 L 402,415 L 402,414 L 401,414 L 401,413 L 402,413 L 403,413 L 404,413 L 404,412 L 404,411 L 405,411 L 405,412 L 406,412 L 406,411 L 406,410 L 407,410 L 407,411 L 408,411 L 408,410 L 408,409 L 408,407 L 408,406 L 407,406 L 408,406 L 408,407 L 409,408 L 409,409 L 409,410 L 409,411 L 409,412 L 410,412 L 411,412 L 411,413 L 412,413 L 413,413 L 414,413 L 414,412 L 415,412 L 416,412 L 417,412 L 418,412 L 418,411 L 419,411 L 419,410 L 420,410 L 420,409 L 420,408 L 421,408 L 420,408 L 421,408 L 421,407 L 421,408 L 422,408 L 422,409 L 423,409 L 422,409 L 422,410 L 423,410 L 423,409 L 423,410 L 424,410 L 424,409 L 423,409 L 424,409 L 425,409 L 425,408 L 424,408 L 425,408 L 424,409 L 424,408 L 425,408 L 426,408 L 426,409 L 427,409 L 428,409 L 429,409 L 429,408 L 429,407 L 430,407 L 431,407 L 432,407 L 432,408 L 432,407 L 431,407 L 430,407 L 431,407 L 431,408 L 431,407 L 430,408 L 431,408 L 431,409 L 432,408 L 432,409 L 431,409 L 432,409 L 433,409 L 433,410 L 434,410 L 434,409 L 435,409 L 436,409 L 437,409 L 437,408 L 438,408 L 438,407 L 439,407 L 439,406 L 439,405 L 439,404 L 439,403 L 440,403 L 439,403 L 439,404 L 440,404 L 441,404 L 440,404 L 441,404 L 441,403 L 440,403 L 441,403 L 441,402 L 442,402 L 442,401 L 443,401 L 443,400 L 444,400 L 445,400 L 445,399 L 445,400 L 445,401 L 446,401 L 446,400 L 447,400 L 447,401 L 448,401 L 448,402 L 449,402 L 449,401 L 450,401 L 451,401 L 452,401 L 452,402 L 453,402 L 453,401 L 454,401 L 454,400 L 455,400 L 454,400 L 455,400 L 455,399 L 456,399 L 457,399 L 457,400 L 457,399 L 457,400 L 457,399 L 458,399 L 458,400 L 458,399 L 458,400 L 459,400 L 459,399 L 459,400 L 459,399 L 460,399 L 461,399 L 461,398 L 462,398 L 462,399 L 461,399 L 462,399 L 461,399 L 462,399 L 462,400 L 463,400 L 463,399 L 463,400 L 463,401 L 464,401 L 464,400 L 464,399 L 465,399 L 464,399 L 464,398 L 465,398 L 465,399 L 465,398 L 465,399 L 465,400 L 466,400 L 467,400 L 467,401 L 468,401 L 469,401 L 470,401 L 470,400 L 469,400 L 469,399 L 470,399 L 469,399 L 470,399 L 470,398 L 471,398 L 470,398 L 470,397 L 469,398 L 469,397 L 470,397 L 470,398 L 471,398 L 471,397 L 470,397 L 469,397 L 469,396 L 468,396 L 469,396 L 469,395 L 470,395 L 470,394 L 469,394 L 470,394 L 471,394 L 471,393 L 471,394 L 471,393 L 472,393 L 472,394 L 472,393 L 472,394 L 472,393 L 473,393 L 473,392 L 473,391 L 473,392 L 473,391 L 472,391 L 473,391 L 474,391 L 474,390 L 473,390 L 474,389 L 474,390 L 474,389 L 475,389 L 476,388 L 475,388 L 475,387 L 475,388 L 475,387 L 476,387 L 476,386 L 477,386 L 478,386 L 478,387 L 479,387 L 479,388 L 479,387 L 480,387 L 479,387 L 479,388 L 479,389 L 479,390 L 478,390 L 478,391 L 479,391 L 480,391 L 481,391 L 480,391 L 481,391 L 480,391 L 481,391 L 481,392 L 481,391 L 481,392 L 481,391 L 480,391 L 481,391 L 480,391 L 481,391 L 481,390 L 481,389 L 482,389 L 482,388 L 481,388 L 482,388 L 482,389 L 481,389 L 482,389 L 483,389 L 483,390 L 484,390 L 483,391 L 482,391 L 482,392 L 483,392 L 484,392 L 484,391 L 483,391 L 484,391 L 484,392 L 485,392 L 486,392 L 486,393 L 487,393 L 487,394 L 487,393 L 488,393 L 488,394 L 488,395 L 489,395 L 489,396 L 490,396 L 491,396 L 491,395 L 492,395 L 493,395 L 494,395 L 494,394 L 495,394 L 496,394 L 496,393 L 496,392 L 496,391 L 496,390 L 497,390 L 497,389 L 498,388 L 499,388 L 500,388 L 500,389 L 501,389 L 501,390 L 502,391 L 502,392 L 503,392 L 502,392 L 502,391 L 503,391 L 502,391 L 503,391 L 504,391 L 505,391 L 506,391 L 506,390 L 507,390 L 507,389 L 508,389 L 508,390 L 508,389 L 509,389 L 509,390 L 510,390 L 510,389 L 511,389 L 511,388 L 512,388 L 513,388 L 514,388 L 515,388 L 516,388 L 517,388 L 517,387 L 518,387 L 519,387 L 520,387 L 521,387 L 522,387 L 522,386 L 522,387 L 523,387 L 523,388 L 523,387 L 524,387 L 524,388 L 524,387 L 525,387 L 525,386 L 526,386 L 525,386 L 525,385 L 526,385 L 526,384 L 527,384 L 528,384 L 529,384 L 530,384 L 531,384 L 531,383 L 531,382 L 532,383 L 532,382 L 533,382 L 534,383 L 535,383 L 535,384 L 536,384 L 536,383 L 536,384 L 537,384 L 537,383 L 538,383 L 538,382 L 539,382 L 540,382 L 539,382 L 538,382 L 538,383 L 537,383 L 538,383 L 538,384 L 537,384 L 537,385 L 538,385 L 538,386 L 538,387 L 539,387 L 539,386 L 540,386 L 541,386 L 541,385 L 542,385 L 541,385 L 542,385 L 543,385 L 543,386 L 543,385 L 543,384 L 542,384 L 541,384 L 541,385 L 541,384 L 540,384 L 539,384 L 540,384 L 540,383 L 540,382 L 540,383 L 541,384 L 542,384 L 543,384 L 544,384 L 545,384 L 546,384 L 546,383 L 546,384 L 547,384 L 548,384 L 548,383 L 549,383 L 549,384 L 550,384 L 551,384 L 551,385 L 551,384 L 550,384 L 550,385 L 551,385 L 552,385 L 551,385 L 551,384 L 552,384 L 552,385 L 553,385 L 554,385 L 554,384 L 554,383 L 555,383 L 554,382 L 555,382 L 554,382 L 554,381 L 555,381 L 555,380 L 555,379 L 556,379 L 556,378 L 557,378 L 557,379 L 558,379 " />
<path d="M 386,416 L 386,417 L 386,416 " />
</g>
<g id="39020" >
<path d="M 221,735 L 220,735 L 220,734 L 220,733 L 219,732 L 219,731 L 220,730 L 220,729 L 221,728 L 222,727 L 222,728 L 222,729 L 222,730 L 222,732 L 222,733 L 222,734 L 221,734 L 221,735 " />
<path d="M 225,686 L 226,686 L 226,687 L 226,688 L 227,688 L 227,689 L 228,689 L 228,690 L 229,690 L 229,691 L 229,692 L 228,692 L 228,691 L 227,691 L 226,692 L 226,693 L 227,693 L 226,693 L 227,693 L 226,693 L 225,693 L 224,694 L 225,694 L 224,694 L 224,695 L 223,695 L 223,694 L 222,694 L 222,693 L 222,692 L 221,692 L 221,691 L 220,691 L 219,691 L 219,690 L 219,689 L 220,689 L 220,688 L 221,688 L 221,687 L 222,687 L 223,687 L 223,686 L 224,686 L 225,686 " />
<path d="M 253,660 L 253,659 L 253,660 " />
<path d="M 252,657 L 253,657 L 253,658 L 254,658 L 254,659 L 253,659 L 252,659 L 252,658 L 252,657 " />
<path d="M 386,654 L 386,653 L 387,653 L 387,654 L 386,654 " />
<path d="M 388,653 L 388,654 L 387,653 L 387,652 L 387,651 L 388,651 L 387,651 L 388,651 L 388,652 L 389,652 L 389,653 L 388,653 " />
<path d="M 481,647 L 481,648 L 481,647 L 482,648 L 482,649 L 481,649 L 480,649 L 480,648 L 481,648 L 481,647 " />
<path d="M 203,645 L 204,645 L 204,646 L 203,645 L 203,646 L 203,645 " />
<path d="M 421,646 L 422,646 L 423,647 L 423,648 L 422,648 L 421,648 L 421,647 L 421,648 L 420,647 L 420,646 L 421,646 " />
<path d="M 203,645 L 204,645 L 203,645 " />
<path d="M 376,643 L 376,644 L 377,644 L 376,644 L 376,643 " />
<path d="M 444,643 L 445,644 L 446,644 L 446,645 L 445,645 L 444,645 L 443,645 L 442,644 L 442,643 L 443,643 L 444,643 " />
<path d="M 419,638 L 420,638 L 420,639 L 420,640 L 419,640 L 418,640 L 418,639 L 417,639 L 418,638 L 419,638 " />
<path d="M 196,635 L 195,634 L 196,635 " />
<path d="M 316,631 L 317,631 L 316,631 " />
<path d="M 649,509 L 648,509 L 649,509 L 649,508 L 649,509 " />
<path d="M 650,448 L 649,448 L 650,448 " />
<path d="M 645,444 L 645,445 L 646,445 L 647,445 L 647,446 L 647,447 L 648,447 L 647,446 L 648,446 L 648,447 L 649,447 L 649,448 L 649,447 L 648,447 L 648,448 L 648,449 L 649,448 L 649,449 L 650,449 L 651,448 L 650,448 L 651,448 L 652,448 L 651,448 L 652,448 L 652,447 L 653,447 L 652,447 L 652,448 L 652,449 L 653,449 L 653,450 L 653,451 L 653,452 L 654,452 L 654,453 L 655,453 L 656,453 L 657,453 L 657,454 L 658,454 L 658,455 L 658,454 L 659,454 L 659,455 L 658,455 L 659,455 L 660,455 L 661,455 L 661,454 L 662,454 L 663,453 L 662,453 L 662,452 L 663,452 L 662,453 L 663,453 L 664,452 L 664,451 L 664,450 L 664,451 L 664,452 L 663,453 L 663,454 L 662,454 L 661,454 L 661,455 L 662,455 L 662,456 L 661,456 L 660,456 L 660,457 L 660,458 L 660,459 L 659,459 L 658,459 L 657,459 L 657,460 L 656,460 L 656,461 L 657,461 L 658,461 L 659,461 L 658,461 L 659,461 L 660,461 L 660,460 L 661,461 L 660,461 L 660,462 L 660,463 L 660,464 L 661,464 L 661,465 L 661,466 L 661,467 L 662,467 L 662,466 L 663,466 L 664,465 L 665,464 L 665,463 L 664,463 L 665,463 L 665,462 L 665,461 L 666,461 L 667,461 L 667,460 L 667,459 L 667,458 L 666,458 L 666,457 L 665,457 L 665,456 L 665,454 L 666,453 L 665,453 L 665,452 L 666,452 L 669,452 L 670,452 L 669,454 L 669,453 L 670,452 L 670,451 L 670,449 L 670,448 L 670,449 L 670,451 L 670,452 L 670,453 L 669,453 L 669,454 L 669,455 L 669,456 L 670,456 L 670,457 L 670,458 L 670,459 L 670,460 L 671,460 L 672,460 L 671,461 L 671,462 L 672,462 L 673,462 L 674,462 L 675,463 L 676,463 L 676,464 L 676,465 L 675,466 L 674,466 L 673,466 L 673,465 L 672,465 L 671,464 L 671,463 L 670,463 L 670,462 L 669,462 L 668,462 L 667,463 L 666,463 L 666,464 L 665,465 L 664,466 L 664,467 L 663,467 L 663,468 L 662,468 L 662,469 L 662,470 L 661,471 L 660,472 L 660,473 L 660,474 L 660,475 L 660,476 L 660,477 L 660,478 L 660,479 L 660,480 L 661,480 L 661,481 L 661,482 L 662,482 L 662,483 L 663,484 L 664,484 L 665,484 L 666,484 L 666,485 L 667,485 L 667,486 L 668,486 L 669,487 L 669,488 L 668,488 L 668,489 L 667,489 L 667,490 L 666,491 L 667,491 L 666,491 L 667,491 L 666,491 L 666,492 L 665,492 L 665,491 L 664,491 L 663,491 L 663,490 L 662,489 L 661,489 L 661,488 L 662,488 L 663,487 L 663,486 L 663,485 L 663,484 L 662,484 L 662,483 L 661,483 L 660,483 L 660,482 L 659,482 L 658,482 L 658,483 L 657,483 L 656,483 L 657,483 L 656,483 L 656,484 L 656,485 L 656,486 L 656,487 L 656,488 L 657,488 L 657,489 L 656,489 L 656,490 L 655,490 L 655,491 L 655,492 L 655,493 L 655,494 L 654,494 L 653,494 L 653,495 L 653,496 L 653,497 L 653,498 L 653,499 L 652,499 L 652,500 L 652,501 L 651,501 L 651,502 L 651,503 L 651,504 L 651,505 L 650,505 L 650,506 L 649,506 L 648,506 L 648,507 L 648,508 L 647,508 L 648,509 L 648,508 L 648,509 L 647,509 L 648,509 L 648,510 L 648,509 L 648,510 L 649,511 L 649,512 L 650,512 L 650,513 L 650,514 L 649,514 L 650,514 L 650,515 L 649,516 L 649,517 L 648,517 L 648,518 L 647,518 L 646,518 L 646,519 L 645,519 L 644,519 L 643,519 L 642,519 L 641,520 L 640,520 L 639,520 L 639,521 L 638,521 L 638,522 L 637,522 L 636,522 L 635,522 L 635,523 L 634,523 L 634,524 L 633,524 L 632,524 L 632,525 L 633,525 L 634,525 L 633,525 L 632,525 L 633,525 L 633,526 L 633,527 L 632,527 L 632,528 L 631,528 L 631,529 L 630,529 L 630,530 L 629,530 L 629,531 L 628,531 L 628,532 L 627,532 L 626,532 L 626,533 L 626,534 L 626,533 L 626,534 L 627,533 L 626,533 L 627,533 L 626,533 L 627,533 L 627,534 L 627,535 L 627,536 L 626,536 L 626,537 L 627,537 L 626,537 L 625,537 L 625,538 L 624,538 L 624,539 L 623,539 L 623,540 L 624,540 L 623,540 L 624,540 L 624,541 L 624,540 L 623,540 L 623,541 L 623,542 L 624,542 L 624,543 L 624,544 L 624,545 L 624,546 L 624,547 L 623,547 L 623,548 L 622,548 L 622,549 L 622,550 L 621,550 L 621,551 L 620,551 L 620,552 L 619,552 L 618,552 L 618,553 L 617,553 L 617,554 L 617,555 L 618,555 L 617,555 L 616,555 L 616,556 L 616,557 L 615,557 L 615,558 L 616,558 L 615,558 L 616,558 L 615,559 L 616,559 L 615,559 L 614,559 L 613,559 L 613,560 L 612,560 L 612,561 L 611,561 L 611,562 L 611,561 L 610,561 L 611,561 L 611,562 L 611,561 L 610,561 L 610,562 L 609,562 L 609,563 L 608,563 L 608,564 L 607,564 L 608,564 L 607,564 L 607,565 L 606,565 L 606,566 L 605,566 L 604,566 L 603,566 L 603,567 L 603,568 L 603,569 L 604,569 L 605,569 L 606,569 L 607,570 L 607,569 L 608,569 L 609,569 L 609,568 L 609,569 L 608,569 L 608,570 L 609,570 L 610,569 L 610,568 L 610,569 L 610,570 L 609,570 L 609,571 L 609,572 L 610,572 L 609,572 L 610,572 L 610,573 L 609,573 L 610,573 L 609,573 L 610,573 L 609,573 L 608,573 L 608,574 L 607,574 L 607,575 L 607,576 L 606,576 L 606,577 L 605,577 L 604,577 L 604,578 L 603,578 L 603,579 L 603,580 L 602,580 L 602,581 L 601,581 L 600,581 L 600,582 L 599,582 L 599,583 L 598,583 L 599,583 L 598,584 L 598,585 L 597,585 L 597,584 L 596,584 L 595,585 L 594,585 L 593,585 L 592,585 L 592,584 L 592,583 L 591,583 L 591,584 L 590,584 L 590,583 L 589,583 L 589,584 L 588,584 L 587,585 L 586,585 L 586,586 L 585,586 L 585,587 L 584,587 L 583,587 L 582,587 L 581,587 L 582,587 L 582,586 L 582,585 L 581,586 L 580,586 L 580,587 L 581,587 L 580,587 L 580,586 L 580,587 L 580,586 L 579,586 L 579,587 L 578,587 L 578,586 L 578,587 L 577,587 L 576,587 L 576,586 L 575,586 L 574,586 L 573,586 L 573,587 L 572,587 L 572,586 L 571,586 L 571,587 L 571,586 L 570,586 L 570,585 L 569,585 L 569,584 L 568,584 L 568,585 L 567,585 L 567,584 L 566,584 L 565,584 L 564,584 L 563,584 L 562,584 L 562,585 L 562,586 L 561,586 L 561,587 L 561,588 L 560,588 L 560,589 L 559,589 L 558,589 L 557,589 L 557,590 L 556,590 L 556,591 L 555,591 L 556,591 L 556,592 L 555,592 L 555,593 L 554,593 L 554,594 L 554,595 L 554,596 L 553,596 L 552,596 L 552,597 L 552,596 L 551,596 L 551,597 L 552,597 L 551,597 L 551,596 L 551,597 L 550,597 L 550,598 L 549,598 L 549,599 L 548,599 L 547,599 L 546,599 L 546,598 L 547,598 L 547,597 L 546,598 L 546,599 L 545,599 L 544,600 L 544,601 L 545,601 L 544,601 L 544,602 L 544,603 L 543,603 L 543,604 L 542,604 L 542,605 L 541,605 L 541,606 L 540,606 L 539,606 L 538,606 L 537,606 L 538,606 L 538,605 L 537,605 L 537,606 L 536,605 L 535,604 L 534,604 L 533,604 L 533,605 L 532,605 L 532,606 L 531,606 L 530,606 L 529,606 L 528,606 L 527,606 L 527,607 L 526,607 L 526,608 L 525,608 L 525,607 L 524,607 L 524,608 L 524,607 L 523,608 L 522,608 L 521,608 L 520,608 L 520,609 L 519,609 L 518,609 L 517,610 L 517,609 L 517,610 L 516,610 L 515,610 L 514,610 L 514,611 L 513,611 L 512,611 L 512,612 L 511,612 L 510,612 L 509,612 L 508,612 L 508,613 L 508,612 L 507,613 L 507,612 L 507,613 L 506,613 L 505,613 L 506,613 L 505,613 L 504,613 L 503,613 L 502,613 L 501,613 L 500,613 L 500,612 L 499,612 L 498,612 L 497,612 L 496,612 L 496,613 L 496,614 L 495,614 L 494,614 L 494,613 L 493,613 L 492,613 L 492,612 L 491,612 L 490,612 L 489,612 L 488,612 L 488,613 L 487,614 L 486,614 L 486,615 L 485,615 L 486,614 L 487,614 L 487,613 L 486,612 L 486,611 L 487,611 L 487,610 L 486,610 L 486,609 L 486,610 L 486,609 L 486,610 L 485,610 L 485,609 L 484,609 L 484,610 L 483,610 L 483,611 L 484,611 L 484,612 L 484,613 L 485,614 L 484,613 L 483,613 L 483,614 L 482,613 L 481,613 L 481,614 L 480,614 L 480,613 L 479,613 L 479,614 L 478,614 L 477,614 L 476,614 L 475,615 L 474,615 L 473,615 L 473,616 L 472,616 L 472,617 L 472,618 L 473,618 L 472,618 L 472,619 L 471,619 L 471,620 L 470,621 L 471,621 L 471,622 L 471,621 L 471,622 L 470,623 L 469,623 L 468,623 L 467,623 L 467,624 L 466,625 L 465,625 L 464,625 L 464,624 L 464,625 L 463,625 L 463,626 L 463,627 L 462,627 L 461,627 L 460,627 L 459,627 L 459,628 L 458,628 L 457,628 L 457,629 L 457,630 L 457,631 L 457,632 L 457,633 L 457,634 L 456,634 L 456,635 L 455,635 L 454,635 L 453,635 L 453,636 L 453,635 L 452,635 L 452,636 L 451,636 L 450,636 L 450,637 L 449,637 L 448,637 L 448,636 L 447,636 L 447,637 L 447,638 L 447,637 L 446,638 L 446,637 L 446,638 L 445,638 L 445,639 L 444,639 L 443,639 L 442,639 L 441,639 L 441,638 L 440,638 L 440,637 L 439,637 L 439,636 L 439,635 L 439,636 L 439,635 L 438,635 L 438,634 L 437,634 L 437,633 L 436,633 L 435,633 L 435,632 L 435,633 L 434,633 L 433,633 L 432,633 L 431,633 L 431,632 L 430,633 L 430,632 L 429,632 L 428,632 L 428,633 L 427,633 L 426,633 L 426,632 L 425,632 L 425,633 L 424,633 L 424,634 L 424,633 L 423,634 L 423,633 L 423,634 L 423,635 L 423,634 L 423,635 L 422,635 L 422,636 L 423,638 L 424,638 L 423,639 L 422,639 L 423,639 L 423,638 L 422,638 L 421,638 L 420,637 L 419,636 L 418,636 L 418,635 L 418,634 L 419,634 L 418,634 L 417,634 L 417,635 L 417,636 L 417,637 L 416,637 L 417,638 L 417,637 L 416,636 L 415,636 L 414,636 L 413,636 L 413,635 L 412,635 L 411,635 L 410,635 L 410,636 L 409,636 L 409,637 L 409,636 L 408,636 L 407,636 L 407,637 L 406,637 L 406,636 L 405,636 L 405,635 L 404,635 L 404,634 L 403,634 L 403,635 L 402,635 L 401,635 L 401,636 L 400,636 L 399,636 L 398,636 L 397,636 L 396,636 L 395,636 L 395,635 L 394,635 L 393,635 L 392,635 L 391,635 L 390,635 L 390,636 L 390,637 L 389,637 L 389,638 L 388,638 L 388,639 L 387,639 L 388,639 L 387,639 L 387,640 L 386,640 L 387,640 L 386,640 L 386,641 L 385,641 L 385,642 L 384,642 L 383,642 L 383,643 L 382,643 L 381,643 L 380,643 L 379,643 L 379,642 L 379,643 L 379,642 L 378,642 L 378,643 L 378,642 L 377,642 L 376,641 L 375,641 L 374,642 L 373,642 L 373,641 L 372,641 L 371,641 L 371,642 L 370,642 L 369,642 L 368,642 L 368,643 L 367,643 L 367,644 L 366,644 L 365,644 L 365,645 L 364,645 L 363,645 L 362,645 L 361,645 L 360,645 L 360,646 L 359,646 L 358,646 L 359,646 L 358,646 L 357,646 L 357,645 L 356,645 L 356,644 L 356,643 L 355,643 L 354,643 L 354,642 L 353,642 L 352,642 L 352,641 L 353,641 L 353,640 L 352,640 L 353,639 L 352,639 L 353,639 L 352,639 L 352,638 L 352,637 L 351,637 L 351,636 L 350,636 L 350,635 L 349,635 L 349,634 L 350,634 L 349,634 L 348,634 L 349,634 L 348,634 L 348,635 L 347,634 L 346,634 L 345,634 L 344,634 L 343,635 L 342,636 L 343,636 L 342,636 L 341,636 L 340,636 L 339,636 L 340,636 L 339,636 L 339,637 L 339,636 L 339,637 L 338,637 L 338,636 L 338,637 L 338,636 L 337,636 L 338,636 L 337,637 L 337,636 L 337,637 L 336,637 L 337,637 L 336,637 L 336,636 L 337,636 L 336,636 L 336,637 L 335,637 L 335,638 L 336,638 L 335,638 L 334,638 L 334,639 L 333,639 L 333,640 L 332,640 L 332,639 L 331,639 L 331,638 L 330,638 L 330,639 L 329,639 L 329,638 L 329,637 L 328,637 L 328,638 L 328,637 L 327,637 L 326,637 L 326,636 L 326,635 L 325,635 L 325,634 L 324,634 L 324,633 L 324,634 L 324,633 L 323,633 L 323,632 L 322,632 L 321,632 L 320,632 L 320,631 L 319,631 L 318,631 L 318,630 L 317,630 L 316,630 L 316,631 L 315,631 L 315,632 L 314,632 L 313,632 L 312,632 L 312,633 L 311,633 L 311,634 L 311,633 L 310,633 L 310,634 L 309,634 L 308,634 L 308,635 L 307,635 L 307,636 L 306,636 L 305,636 L 304,636 L 304,637 L 303,637 L 303,638 L 302,638 L 301,638 L 301,639 L 300,639 L 300,640 L 299,640 L 299,639 L 298,639 L 297,639 L 296,639 L 296,640 L 296,641 L 295,641 L 295,640 L 294,640 L 293,640 L 292,640 L 292,641 L 292,640 L 292,641 L 291,641 L 290,641 L 289,641 L 289,640 L 289,641 L 288,641 L 287,641 L 287,640 L 286,640 L 286,639 L 285,639 L 286,638 L 285,638 L 285,639 L 285,638 L 286,638 L 285,638 L 285,637 L 285,638 L 285,637 L 284,637 L 284,638 L 285,638 L 284,638 L 284,637 L 283,637 L 283,638 L 283,637 L 282,637 L 281,637 L 280,637 L 280,638 L 279,638 L 278,638 L 278,639 L 277,639 L 277,638 L 277,639 L 277,638 L 276,638 L 276,637 L 275,637 L 274,637 L 273,637 L 273,638 L 272,638 L 271,638 L 270,638 L 270,637 L 269,638 L 269,637 L 268,637 L 268,638 L 268,639 L 267,639 L 266,639 L 267,639 L 267,637 L 266,637 L 267,637 L 268,637 L 268,636 L 268,635 L 267,635 L 267,634 L 266,634 L 265,634 L 265,633 L 265,634 L 264,634 L 264,633 L 264,634 L 263,634 L 263,633 L 262,633 L 262,634 L 262,633 L 261,634 L 260,634 L 259,635 L 258,635 L 257,635 L 256,636 L 255,636 L 255,637 L 254,637 L 253,637 L 253,638 L 254,638 L 253,638 L 254,639 L 253,640 L 254,641 L 253,641 L 253,640 L 252,640 L 251,640 L 251,641 L 250,641 L 250,642 L 249,642 L 249,643 L 249,644 L 249,645 L 248,645 L 249,645 L 249,644 L 248,644 L 247,644 L 247,645 L 247,644 L 246,644 L 245,644 L 245,645 L 244,645 L 243,646 L 242,647 L 241,647 L 242,648 L 241,648 L 241,649 L 240,649 L 240,650 L 239,651 L 239,652 L 239,653 L 239,654 L 240,654 L 239,655 L 240,655 L 239,655 L 239,656 L 238,656 L 238,657 L 238,658 L 238,659 L 238,660 L 237,660 L 238,660 L 237,660 L 238,660 L 237,660 L 237,661 L 237,660 L 237,661 L 237,662 L 237,661 L 236,661 L 236,662 L 236,663 L 237,663 L 237,664 L 238,664 L 239,664 L 239,665 L 239,666 L 239,667 L 240,668 L 239,668 L 239,669 L 238,669 L 237,670 L 236,670 L 235,670 L 235,669 L 235,668 L 235,667 L 235,666 L 234,666 L 234,665 L 233,665 L 232,665 L 231,665 L 230,665 L 230,666 L 229,666 L 228,666 L 227,666 L 226,666 L 226,667 L 226,668 L 225,668 L 224,668 L 224,669 L 223,669 L 222,669 L 222,668 L 221,668 L 220,668 L 220,667 L 219,667 L 218,667 L 218,666 L 218,665 L 219,665 L 219,664 L 219,663 L 219,662 L 220,662 L 220,661 L 219,661 L 220,661 L 220,660 L 219,660 L 219,659 L 219,658 L 218,658 L 218,657 L 217,657 L 217,656 L 218,657 L 218,656 L 217,656 L 218,656 L 217,656 L 216,657 L 217,657 L 216,657 L 215,657 L 214,657 L 214,656 L 213,656 L 213,655 L 212,655 L 212,654 L 211,655 L 210,655 L 211,655 L 212,654 L 212,653 L 211,653 L 210,653 L 210,652 L 210,651 L 211,651 L 211,650 L 210,650 L 210,651 L 210,650 L 211,650 L 210,650 L 209,650 L 209,651 L 209,652 L 208,652 L 208,653 L 209,653 L 209,654 L 209,655 L 210,655 L 210,656 L 209,656 L 209,655 L 209,654 L 209,653 L 208,653 L 208,652 L 209,651 L 208,651 L 208,650 L 208,649 L 207,649 L 206,649 L 206,648 L 205,648 L 205,647 L 204,647 L 204,646 L 204,645 L 205,645 L 204,645 L 204,644 L 204,643 L 204,642 L 203,642 L 203,643 L 203,642 L 202,642 L 202,641 L 202,640 L 202,641 L 201,641 L 201,640 L 202,640 L 201,639 L 201,638 L 201,637 L 200,637 L 199,637 L 198,637 L 197,636 L 196,636 L 196,635 L 196,634 L 196,633 L 196,632 L 195,632 L 196,633 L 195,633 L 195,634 L 195,633 L 194,633 L 194,632 L 193,632 L 193,633 L 192,633 L 192,632 L 191,632 L 190,631 L 189,631 L 188,631 L 187,631 L 186,631 L 185,631 L 184,631 L 183,631 L 183,630 L 182,630 L 181,629 L 180,629 L 179,629 L 178,628 L 177,627 L 177,626 L 176,626 L 175,625 L 174,625 L 174,624 L 173,623 L 173,622 L 172,622 L 172,621 L 171,621 L 170,621 L 170,620 L 169,620 L 168,620 L 168,619 L 167,619 L 167,618 L 166,618 L 165,617 L 165,616 L 164,616 L 165,616 L 165,615 L 164,615 L 164,614 L 164,613 L 164,612 L 163,612 L 163,611 L 163,610 L 162,610 L 161,610 L 161,609 L 160,609 L 160,608 L 159,608 L 159,607 L 158,607 L 158,606 L 159,606 L 159,605 L 158,605 L 157,604 L 158,604 L 157,604 L 156,604 L 157,604 L 157,603 L 156,603 L 157,603 L 157,602 L 157,601 L 157,600 L 156,600 L 156,599 L 157,599 L 157,598 L 158,598 L 158,597 L 159,597 L 158,597 L 159,597 L 158,597 L 158,596 L 157,596 L 157,595 L 158,595 L 158,594 L 158,595 L 158,594 L 159,594 L 159,595 L 159,594 L 160,594 L 160,593 L 161,593 L 162,593 L 163,593 L 164,593 L 164,594 L 164,593 L 165,593 L 166,593 L 166,592 L 167,592 L 168,592 L 169,592 L 170,592 L 170,591 L 171,591 L 172,591 L 172,590 L 172,589 L 172,588 L 172,587 L 173,587 L 174,588 L 175,588 L 176,588 L 177,589 L 178,589 L 179,589 L 179,590 L 180,590 L 181,591 L 182,591 L 183,591 L 183,592 L 184,592 L 185,592 L 186,593 L 187,593 L 187,594 L 188,594 L 189,594 L 189,595 L 190,595 L 191,596 L 192,596 L 193,597 L 194,597 L 195,597 L 195,598 L 196,598 L 197,598 L 197,599 L 198,599 L 198,600 L 199,600 L 199,601 L 200,601 L 200,602 L 201,602 L 202,603 L 202,604 L 203,604 L 203,605 L 204,606 L 205,606 L 205,607 L 206,607 L 207,608 L 207,607 L 207,606 L 206,606 L 206,605 L 206,604 L 206,603 L 206,602 L 206,601 L 206,600 L 206,599 L 206,598 L 207,597 L 207,596 L 207,595 L 208,595 L 208,596 L 208,595 L 209,595 L 210,595 L 210,594 L 211,594 L 211,593 L 212,593 L 212,592 L 213,592 L 214,592 L 215,592 L 215,591 L 216,591 L 217,591 L 218,590 L 219,590 L 220,590 L 221,590 L 222,590 L 222,589 L 223,589 L 224,589 L 224,588 L 225,588 L 226,588 L 227,588 L 228,588 L 229,587 L 230,587 L 230,586 L 231,586 L 231,585 L 232,584 L 233,584 L 234,583 L 235,583 L 236,582 L 236,581 L 237,580 L 238,579 L 239,578 L 240,577 L 240,576 L 240,575 L 241,573 L 241,572 L 241,571 L 242,569 L 244,569 L 245,569 L 246,568 L 247,567 L 247,566 L 248,565 L 250,566 L 251,566 L 252,566 L 252,565 L 254,565 L 255,565 L 256,565 L 257,565 L 258,565 L 258,566 L 259,566 L 260,566 L 260,565 L 261,565 L 261,564 L 262,563 L 264,561 L 265,560 L 266,560 L 266,559 L 266,558 L 267,558 L 268,558 L 268,557 L 268,556 L 269,556 L 269,555 L 270,555 L 270,554 L 271,554 L 271,552 L 272,552 L 273,553 L 275,553 L 276,553 L 276,554 L 277,554 L 278,554 L 279,554 L 279,555 L 281,555 L 282,554 L 283,554 L 284,554 L 285,554 L 286,554 L 287,554 L 288,554 L 289,554 L 290,554 L 291,554 L 291,553 L 292,552 L 293,551 L 294,551 L 295,550 L 296,550 L 297,550 L 298,550 L 299,550 L 300,551 L 301,551 L 302,551 L 303,552 L 303,551 L 304,552 L 305,552 L 306,553 L 306,552 L 307,552 L 308,552 L 309,552 L 310,552 L 311,552 L 312,552 L 313,552 L 313,553 L 314,553 L 315,553 L 316,553 L 317,554 L 318,554 L 319,554 L 320,554 L 321,554 L 322,554 L 323,554 L 323,553 L 324,554 L 325,555 L 326,555 L 326,554 L 327,554 L 328,554 L 328,555 L 329,555 L 330,555 L 331,554 L 331,555 L 332,555 L 333,555 L 333,554 L 333,553 L 333,552 L 334,552 L 334,551 L 335,551 L 336,551 L 336,550 L 336,549 L 336,548 L 337,548 L 337,547 L 336,547 L 337,547 L 336,546 L 336,545 L 336,544 L 337,544 L 337,543 L 338,542 L 338,543 L 338,542 L 339,542 L 340,542 L 341,541 L 342,541 L 343,541 L 344,541 L 345,541 L 346,541 L 347,541 L 348,541 L 349,541 L 350,541 L 352,541 L 352,540 L 353,540 L 354,540 L 355,540 L 356,540 L 357,540 L 358,541 L 359,541 L 360,541 L 360,542 L 361,542 L 361,543 L 362,543 L 363,542 L 364,542 L 364,541 L 365,541 L 366,541 L 366,540 L 367,540 L 367,541 L 368,541 L 368,542 L 369,542 L 369,543 L 370,543 L 370,544 L 371,544 L 372,544 L 373,543 L 374,543 L 374,542 L 375,542 L 376,541 L 377,541 L 378,540 L 379,541 L 380,541 L 381,541 L 382,541 L 382,542 L 383,542 L 384,542 L 384,541 L 385,540 L 386,540 L 387,539 L 388,539 L 389,540 L 390,540 L 391,540 L 392,540 L 393,540 L 393,539 L 394,539 L 395,539 L 395,538 L 396,538 L 397,538 L 397,539 L 398,539 L 398,538 L 399,538 L 400,538 L 401,538 L 402,537 L 403,536 L 404,536 L 405,535 L 407,535 L 407,534 L 408,534 L 409,533 L 410,532 L 411,532 L 412,531 L 413,531 L 413,530 L 414,530 L 415,530 L 415,531 L 416,531 L 417,531 L 417,530 L 418,530 L 419,530 L 419,531 L 420,531 L 421,531 L 422,531 L 423,531 L 424,531 L 425,531 L 426,531 L 427,531 L 428,531 L 429,531 L 430,530 L 431,530 L 432,530 L 433,530 L 434,530 L 435,530 L 436,530 L 437,530 L 438,529 L 439,530 L 440,530 L 440,528 L 441,528 L 442,528 L 443,527 L 444,526 L 445,526 L 446,525 L 447,525 L 447,524 L 448,524 L 449,524 L 450,523 L 451,523 L 452,523 L 453,523 L 454,523 L 455,523 L 456,523 L 457,523 L 458,522 L 459,521 L 460,521 L 461,522 L 461,521 L 462,521 L 462,520 L 462,519 L 462,518 L 463,518 L 463,517 L 463,516 L 464,516 L 465,516 L 465,515 L 466,515 L 467,514 L 468,514 L 468,515 L 469,515 L 470,515 L 472,515 L 473,514 L 475,514 L 476,514 L 477,514 L 478,514 L 479,513 L 480,514 L 481,513 L 481,512 L 481,511 L 482,511 L 482,510 L 483,510 L 484,510 L 484,509 L 485,509 L 485,508 L 486,508 L 487,508 L 488,508 L 489,508 L 490,508 L 490,509 L 491,509 L 492,509 L 493,508 L 494,507 L 495,507 L 496,506 L 496,505 L 497,505 L 498,504 L 499,503 L 501,502 L 502,501 L 503,500 L 504,499 L 505,498 L 506,498 L 507,497 L 508,497 L 509,496 L 510,496 L 510,495 L 511,495 L 512,494 L 513,494 L 514,493 L 515,493 L 516,493 L 517,493 L 518,492 L 519,492 L 520,492 L 521,492 L 522,492 L 523,492 L 524,492 L 525,492 L 526,492 L 527,491 L 528,490 L 529,490 L 530,490 L 532,489 L 531,489 L 532,489 L 533,489 L 533,488 L 534,490 L 535,491 L 536,491 L 536,492 L 537,492 L 538,493 L 539,493 L 539,494 L 540,494 L 541,494 L 542,494 L 543,494 L 544,494 L 545,494 L 546,494 L 547,494 L 548,494 L 549,494 L 550,494 L 551,494 L 551,493 L 552,493 L 553,493 L 554,492 L 555,492 L 555,491 L 556,491 L 557,491 L 557,490 L 558,490 L 558,489 L 559,489 L 560,488 L 561,487 L 562,486 L 563,486 L 563,485 L 564,485 L 564,484 L 564,483 L 565,483 L 566,483 L 567,483 L 567,482 L 568,482 L 569,480 L 570,479 L 571,477 L 572,477 L 573,477 L 574,477 L 575,477 L 576,477 L 576,478 L 577,478 L 578,478 L 578,477 L 579,477 L 580,477 L 580,476 L 581,476 L 582,476 L 582,475 L 583,475 L 584,475 L 585,475 L 586,475 L 586,474 L 587,474 L 588,474 L 589,474 L 589,473 L 590,473 L 591,473 L 591,472 L 592,472 L 592,473 L 593,473 L 594,473 L 594,472 L 594,471 L 595,471 L 595,470 L 595,469 L 595,468 L 596,468 L 597,468 L 598,468 L 598,467 L 599,468 L 599,467 L 600,467 L 600,466 L 601,466 L 601,465 L 602,465 L 603,465 L 603,464 L 604,464 L 604,463 L 605,463 L 606,463 L 607,462 L 608,462 L 609,461 L 610,461 L 611,461 L 612,461 L 613,461 L 614,461 L 614,460 L 615,460 L 616,460 L 616,459 L 617,459 L 617,458 L 618,457 L 619,457 L 619,456 L 620,456 L 621,456 L 622,456 L 623,456 L 624,455 L 624,454 L 625,454 L 625,453 L 626,453 L 626,452 L 626,453 L 627,453 L 628,453 L 628,452 L 628,451 L 628,450 L 629,450 L 630,450 L 631,450 L 632,449 L 632,450 L 632,449 L 633,449 L 634,449 L 634,448 L 634,447 L 635,447 L 635,446 L 636,446 L 637,447 L 638,448 L 638,447 L 638,446 L 639,446 L 639,447 L 639,446 L 640,446 L 641,446 L 641,445 L 642,445 L 643,445 L 644,445 L 645,444 L 644,444 L 645,444 " />
</g>
</g>
</g>
</svg>